<svg xmlns="http://www.w3.org/2000/svg" xmlns:xlink="http://www.w3.org/1999/xlink" width="240" zoomAndPan="magnify" viewBox="0 0 180 89.999999" height="120" preserveAspectRatio="xMidYMid meet" version="1.0"><defs><g/><clipPath id="577264b780"><path d="M 55.378906 3.75 L 124.378906 3.75 L 124.378906 72.75 L 55.378906 72.75 Z M 55.378906 3.75 " clip-rule="nonzero"/></clipPath></defs><rect x="-18" width="216" fill="#ffffff" y="-9" height="107.999999" fill-opacity="1"/><rect x="-18" width="216" fill="#ffffff" y="-9" height="107.999999" fill-opacity="1"/><g clip-path="url(#577264b780)"><path fill="#a8a8a8" d="M 120 3.75 L 59.761719 3.75 C 57.339844 3.75 55.378906 5.714844 55.378906 8.132812 L 55.378906 68.367188 C 55.378906 70.785156 57.339844 72.75 59.761719 72.75 L 119.996094 72.75 C 122.414062 72.75 124.378906 70.785156 124.378906 68.375 L 124.378906 8.132812 C 124.378906 5.714844 122.414062 3.75 120 3.75 Z M 93.164062 56.625 C 93.164062 63.1875 89.3125 66.179688 83.691406 66.179688 C 78.609375 66.179688 74.945312 62.769531 73.449219 59.605469 L 78.617188 56.480469 C 79.609375 58.246094 81.125 59.605469 83.304688 59.605469 C 85.390625 59.605469 86.59375 58.792969 86.59375 55.621094 L 86.59375 34.964844 L 93.164062 34.964844 Z M 107.417969 66.179688 C 101.597656 66.179688 98.292969 63.246094 96.449219 59.605469 L 101.378906 56.320312 C 102.71875 58.515625 104.183594 60.613281 107.277344 60.613281 C 109.875 60.613281 111.234375 59.320312 111.234375 57.523438 C 111.234375 55.378906 109.824219 54.613281 106.96875 53.363281 L 105.402344 52.6875 C 100.878906 50.765625 97.867188 48.351562 97.867188 43.242188 C 97.867188 38.546875 101.453125 34.964844 107.050781 34.964844 C 111.035156 34.964844 113.898438 36.351562 115.964844 39.984375 L 111.085938 43.121094 C 110.007812 41.1875 108.855469 40.433594 107.050781 40.433594 C 105.214844 40.433594 104.054688 41.601562 104.054688 43.121094 C 104.054688 45 105.214844 45.757812 107.90625 46.925781 L 109.46875 47.601562 C 114.804688 49.878906 117.804688 52.207031 117.804688 57.445312 C 117.804688 63.085938 113.371094 66.179688 107.417969 66.179688 Z M 107.417969 66.179688 " fill-opacity="1" fill-rule="nonzero"/></g><g fill="#a8a8a8" fill-opacity="1"><g transform="translate(58.464843, 84.749998)"><g><path d="M 2.0625 -7.15625 C 1.8125 -7.15625 1.597656 -7.238281 1.421875 -7.40625 C 1.242188 -7.582031 1.15625 -7.796875 1.15625 -8.046875 C 1.15625 -8.296875 1.242188 -8.503906 1.421875 -8.671875 C 1.597656 -8.847656 1.8125 -8.9375 2.0625 -8.9375 C 2.3125 -8.9375 2.523438 -8.847656 2.703125 -8.671875 C 2.890625 -8.503906 2.984375 -8.296875 2.984375 -8.046875 C 2.984375 -7.796875 2.894531 -7.582031 2.71875 -7.40625 C 2.539062 -7.238281 2.320312 -7.15625 2.0625 -7.15625 Z M 0.65625 1.21875 C 0.757812 1.320312 0.828125 1.414062 0.859375 1.5 C 0.898438 1.59375 0.921875 1.707031 0.921875 1.84375 C 0.921875 1.988281 0.847656 2.128906 0.703125 2.265625 C 0.804688 2.304688 0.890625 2.320312 0.953125 2.3125 C 1.441406 2.28125 1.6875 1.898438 1.6875 1.171875 C 1.6875 0.941406 1.648438 0.601562 1.578125 0.15625 C 1.515625 -0.289062 1.484375 -0.664062 1.484375 -0.96875 L 1.484375 -4.484375 C 1.484375 -4.765625 1.457031 -4.945312 1.40625 -5.03125 C 1.351562 -5.113281 1.222656 -5.15625 1.015625 -5.15625 L 0.46875 -5.15625 L 0.46875 -5.8125 C 0.851562 -5.8125 1.164062 -5.835938 1.40625 -5.890625 C 1.65625 -5.953125 1.832031 -5.992188 1.9375 -6.015625 C 2.039062 -6.035156 2.144531 -6.046875 2.25 -6.046875 C 2.445312 -6.046875 2.578125 -5.988281 2.640625 -5.875 C 2.710938 -5.757812 2.75 -5.566406 2.75 -5.296875 L 2.75 -0.0625 C 2.75 1.488281 2.394531 2.445312 1.6875 2.8125 C 1.457031 2.925781 1.210938 2.984375 0.953125 2.984375 C 0.492188 2.984375 0.125 2.875 -0.15625 2.65625 C -0.445312 2.445312 -0.59375 2.207031 -0.59375 1.9375 C -0.59375 1.675781 -0.535156 1.488281 -0.421875 1.375 C -0.234375 1.175781 -0.0351562 1.078125 0.171875 1.078125 C 0.390625 1.078125 0.550781 1.125 0.65625 1.21875 Z M 0.65625 1.21875 "/></g></g><g transform="translate(62.109374, 84.749998)"><g><path d="M 5.59375 -1.40625 C 5.59375 -0.9375 5.6875 -0.703125 5.875 -0.703125 C 6.050781 -0.703125 6.175781 -0.757812 6.25 -0.875 C 6.332031 -1 6.375 -1.21875 6.375 -1.53125 L 7 -1.53125 C 7 -1.476562 7 -1.398438 7 -1.296875 C 7 -0.941406 6.910156 -0.632812 6.734375 -0.375 C 6.523438 -0.0390625 6.1875 0.125 5.71875 0.125 C 5.40625 0.125 5.140625 0.0351562 4.921875 -0.140625 C 4.710938 -0.316406 4.566406 -0.546875 4.484375 -0.828125 C 3.921875 -0.191406 3.207031 0.125 2.34375 0.125 C 1.863281 0.125 1.445312 -0.015625 1.09375 -0.296875 C 0.738281 -0.578125 0.5625 -0.96875 0.5625 -1.46875 C 0.5625 -2.332031 1.203125 -2.972656 2.484375 -3.390625 C 3.296875 -3.648438 3.78125 -3.828125 3.9375 -3.921875 C 4.101562 -4.023438 4.207031 -4.128906 4.25 -4.234375 C 4.300781 -4.335938 4.328125 -4.453125 4.328125 -4.578125 C 4.328125 -4.804688 4.210938 -5 3.984375 -5.15625 C 3.765625 -5.3125 3.472656 -5.390625 3.109375 -5.390625 C 2.742188 -5.390625 2.421875 -5.289062 2.140625 -5.09375 C 2.335938 -4.945312 2.4375 -4.757812 2.4375 -4.53125 C 2.4375 -4.3125 2.359375 -4.132812 2.203125 -4 C 2.054688 -3.863281 1.875 -3.796875 1.65625 -3.796875 C 1.445312 -3.796875 1.273438 -3.859375 1.140625 -3.984375 C 1.003906 -4.109375 0.9375 -4.289062 0.9375 -4.53125 C 0.9375 -4.976562 1.164062 -5.34375 1.625 -5.625 C 2.082031 -5.914062 2.644531 -6.0625 3.3125 -6.0625 C 4.488281 -6.0625 5.207031 -5.675781 5.46875 -4.90625 C 5.550781 -4.65625 5.59375 -4.363281 5.59375 -4.03125 Z M 3.015625 -2.859375 C 2.671875 -2.710938 2.410156 -2.519531 2.234375 -2.28125 C 2.066406 -2.050781 1.984375 -1.800781 1.984375 -1.53125 C 1.984375 -1.257812 2.054688 -1.050781 2.203125 -0.90625 C 2.347656 -0.769531 2.535156 -0.703125 2.765625 -0.703125 C 3.210938 -0.703125 3.582031 -0.859375 3.875 -1.171875 C 4.175781 -1.492188 4.328125 -1.941406 4.328125 -2.515625 L 4.328125 -3.40625 C 4.078125 -3.28125 3.8125 -3.164062 3.53125 -3.0625 C 3.257812 -2.957031 3.085938 -2.890625 3.015625 -2.859375 Z M 3.015625 -2.859375 "/></g></g><g transform="translate(68.976561, 84.749998)"><g><path d="M 0.546875 -4.671875 C 0.429688 -4.921875 0.328125 -5.085938 0.234375 -5.171875 C 0.140625 -5.253906 -0.0546875 -5.296875 -0.359375 -5.296875 L -0.359375 -5.9375 L 2.78125 -5.9375 L 2.78125 -5.296875 C 2.351562 -5.296875 2.085938 -5.25 1.984375 -5.15625 C 1.890625 -5.070312 1.890625 -4.910156 1.984375 -4.671875 L 3.3125 -1.453125 L 4.71875 -4.671875 C 4.820312 -4.890625 4.804688 -5.046875 4.671875 -5.140625 C 4.535156 -5.242188 4.238281 -5.296875 3.78125 -5.296875 L 3.78125 -5.9375 L 6.453125 -5.9375 L 6.453125 -5.296875 C 6.203125 -5.296875 6.015625 -5.242188 5.890625 -5.140625 C 5.765625 -5.046875 5.648438 -4.890625 5.546875 -4.671875 L 3.40625 0 L 2.765625 0 Z M 0.546875 -4.671875 "/></g></g><g transform="translate(75.199217, 84.749998)"><g><path d="M 5.59375 -1.40625 C 5.59375 -0.9375 5.6875 -0.703125 5.875 -0.703125 C 6.050781 -0.703125 6.175781 -0.757812 6.25 -0.875 C 6.332031 -1 6.375 -1.21875 6.375 -1.53125 L 7 -1.53125 C 7 -1.476562 7 -1.398438 7 -1.296875 C 7 -0.941406 6.910156 -0.632812 6.734375 -0.375 C 6.523438 -0.0390625 6.1875 0.125 5.71875 0.125 C 5.40625 0.125 5.140625 0.0351562 4.921875 -0.140625 C 4.710938 -0.316406 4.566406 -0.546875 4.484375 -0.828125 C 3.921875 -0.191406 3.207031 0.125 2.34375 0.125 C 1.863281 0.125 1.445312 -0.015625 1.09375 -0.296875 C 0.738281 -0.578125 0.5625 -0.96875 0.5625 -1.46875 C 0.5625 -2.332031 1.203125 -2.972656 2.484375 -3.390625 C 3.296875 -3.648438 3.78125 -3.828125 3.9375 -3.921875 C 4.101562 -4.023438 4.207031 -4.128906 4.25 -4.234375 C 4.300781 -4.335938 4.328125 -4.453125 4.328125 -4.578125 C 4.328125 -4.804688 4.210938 -5 3.984375 -5.15625 C 3.765625 -5.3125 3.472656 -5.390625 3.109375 -5.390625 C 2.742188 -5.390625 2.421875 -5.289062 2.140625 -5.09375 C 2.335938 -4.945312 2.4375 -4.757812 2.4375 -4.53125 C 2.4375 -4.3125 2.359375 -4.132812 2.203125 -4 C 2.054688 -3.863281 1.875 -3.796875 1.65625 -3.796875 C 1.445312 -3.796875 1.273438 -3.859375 1.140625 -3.984375 C 1.003906 -4.109375 0.9375 -4.289062 0.9375 -4.53125 C 0.9375 -4.976562 1.164062 -5.34375 1.625 -5.625 C 2.082031 -5.914062 2.644531 -6.0625 3.3125 -6.0625 C 4.488281 -6.0625 5.207031 -5.675781 5.46875 -4.90625 C 5.550781 -4.65625 5.59375 -4.363281 5.59375 -4.03125 Z M 3.015625 -2.859375 C 2.671875 -2.710938 2.410156 -2.519531 2.234375 -2.28125 C 2.066406 -2.050781 1.984375 -1.800781 1.984375 -1.53125 C 1.984375 -1.257812 2.054688 -1.050781 2.203125 -0.90625 C 2.347656 -0.769531 2.535156 -0.703125 2.765625 -0.703125 C 3.210938 -0.703125 3.582031 -0.859375 3.875 -1.171875 C 4.175781 -1.492188 4.328125 -1.941406 4.328125 -2.515625 L 4.328125 -3.40625 C 4.078125 -3.28125 3.8125 -3.164062 3.53125 -3.0625 C 3.257812 -2.957031 3.085938 -2.890625 3.015625 -2.859375 Z M 3.015625 -2.859375 "/></g></g><g transform="translate(82.066404, 84.749998)"><g><path d="M 3.734375 -5.15625 C 3.535156 -5.363281 3.207031 -5.46875 2.75 -5.46875 C 2.300781 -5.46875 2 -5.300781 1.84375 -4.96875 C 1.800781 -4.875 1.78125 -4.765625 1.78125 -4.640625 C 1.78125 -4.523438 1.828125 -4.410156 1.921875 -4.296875 C 2.015625 -4.191406 2.132812 -4.085938 2.28125 -3.984375 C 2.425781 -3.890625 2.59375 -3.796875 2.78125 -3.703125 C 2.96875 -3.609375 3.160156 -3.503906 3.359375 -3.390625 C 3.554688 -3.285156 3.765625 -3.171875 3.984375 -3.046875 C 4.804688 -2.597656 5.21875 -2.101562 5.21875 -1.5625 C 5.21875 -1.019531 5.003906 -0.601562 4.578125 -0.3125 C 4.160156 -0.0195312 3.601562 0.125 2.90625 0.125 C 2.207031 0.125 1.628906 0 1.171875 -0.25 C 0.722656 -0.507812 0.5 -0.832031 0.5 -1.21875 C 0.5 -1.4375 0.566406 -1.617188 0.703125 -1.765625 C 0.847656 -1.921875 1.03125 -2 1.25 -2 C 1.476562 -2 1.660156 -1.925781 1.796875 -1.78125 C 1.941406 -1.644531 2.015625 -1.476562 2.015625 -1.28125 C 2.015625 -1.09375 1.953125 -0.929688 1.828125 -0.796875 C 2.140625 -0.617188 2.523438 -0.53125 2.984375 -0.53125 C 3.453125 -0.53125 3.78125 -0.640625 3.96875 -0.859375 C 4.039062 -0.941406 4.078125 -1.050781 4.078125 -1.1875 C 4.078125 -1.507812 3.71875 -1.847656 3 -2.203125 C 2.5 -2.453125 2.125 -2.644531 1.875 -2.78125 C 1.070312 -3.238281 0.671875 -3.785156 0.671875 -4.421875 C 0.671875 -4.910156 0.875 -5.300781 1.28125 -5.59375 C 1.695312 -5.894531 2.21875 -6.046875 2.84375 -6.046875 C 3.476562 -6.046875 4.007812 -5.925781 4.4375 -5.6875 C 4.875 -5.457031 5.09375 -5.15625 5.09375 -4.78125 C 5.09375 -4.5625 5.039062 -4.398438 4.9375 -4.296875 C 4.75 -4.109375 4.570312 -4.015625 4.40625 -4.015625 C 4.132812 -4.015625 3.925781 -4.082031 3.78125 -4.21875 C 3.644531 -4.363281 3.578125 -4.523438 3.578125 -4.703125 C 3.578125 -4.878906 3.628906 -5.03125 3.734375 -5.15625 Z M 3.734375 -5.15625 "/></g></g><g transform="translate(87.773435, 84.749998)"><g><path d="M 4.484375 -4.96875 C 4.265625 -5.25 3.953125 -5.390625 3.546875 -5.390625 C 2.773438 -5.390625 2.273438 -4.953125 2.046875 -4.078125 C 1.972656 -3.773438 1.9375 -3.410156 1.9375 -2.984375 C 1.9375 -2.191406 2.085938 -1.59375 2.390625 -1.1875 C 2.691406 -0.789062 3.070312 -0.59375 3.53125 -0.59375 C 3.863281 -0.59375 4.144531 -0.6875 4.375 -0.875 C 4.613281 -1.070312 4.78125 -1.351562 4.875 -1.71875 L 5.671875 -1.71875 C 5.671875 -1.238281 5.457031 -0.8125 5.03125 -0.4375 C 4.601562 -0.0625 4.023438 0.125 3.296875 0.125 C 2.566406 0.125 1.945312 -0.101562 1.4375 -0.5625 C 0.832031 -1.101562 0.53125 -1.894531 0.53125 -2.9375 C 0.53125 -3.78125 0.78125 -4.507812 1.28125 -5.125 C 1.78125 -5.75 2.519531 -6.0625 3.5 -6.0625 C 4.132812 -6.0625 4.660156 -5.90625 5.078125 -5.59375 C 5.503906 -5.289062 5.71875 -4.894531 5.71875 -4.40625 C 5.71875 -4.164062 5.640625 -3.960938 5.484375 -3.796875 C 5.335938 -3.640625 5.144531 -3.5625 4.90625 -3.5625 C 4.5625 -3.5625 4.328125 -3.71875 4.203125 -4.03125 C 4.160156 -4.125 4.140625 -4.226562 4.140625 -4.34375 C 4.140625 -4.613281 4.253906 -4.820312 4.484375 -4.96875 Z M 4.484375 -4.96875 "/></g></g><g transform="translate(93.943357, 84.749998)"><g><path d="M 4.484375 -4.96875 C 4.265625 -5.25 3.953125 -5.390625 3.546875 -5.390625 C 2.773438 -5.390625 2.273438 -4.953125 2.046875 -4.078125 C 1.972656 -3.773438 1.9375 -3.410156 1.9375 -2.984375 C 1.9375 -2.191406 2.085938 -1.59375 2.390625 -1.1875 C 2.691406 -0.789062 3.070312 -0.59375 3.53125 -0.59375 C 3.863281 -0.59375 4.144531 -0.6875 4.375 -0.875 C 4.613281 -1.070312 4.78125 -1.351562 4.875 -1.71875 L 5.671875 -1.71875 C 5.671875 -1.238281 5.457031 -0.8125 5.03125 -0.4375 C 4.601562 -0.0625 4.023438 0.125 3.296875 0.125 C 2.566406 0.125 1.945312 -0.101562 1.4375 -0.5625 C 0.832031 -1.101562 0.53125 -1.894531 0.53125 -2.9375 C 0.53125 -3.78125 0.78125 -4.507812 1.28125 -5.125 C 1.78125 -5.75 2.519531 -6.0625 3.5 -6.0625 C 4.132812 -6.0625 4.660156 -5.90625 5.078125 -5.59375 C 5.503906 -5.289062 5.71875 -4.894531 5.71875 -4.40625 C 5.71875 -4.164062 5.640625 -3.960938 5.484375 -3.796875 C 5.335938 -3.640625 5.144531 -3.5625 4.90625 -3.5625 C 4.5625 -3.5625 4.328125 -3.71875 4.203125 -4.03125 C 4.160156 -4.125 4.140625 -4.226562 4.140625 -4.34375 C 4.140625 -4.613281 4.253906 -4.820312 4.484375 -4.96875 Z M 4.484375 -4.96875 "/></g></g><g transform="translate(100.113278, 84.749998)"><g><path d="M 0.484375 -0.640625 C 0.816406 -0.640625 1.023438 -0.671875 1.109375 -0.734375 C 1.203125 -0.804688 1.253906 -0.878906 1.265625 -0.953125 C 1.285156 -1.035156 1.296875 -1.140625 1.296875 -1.265625 L 1.296875 -4.484375 C 1.296875 -4.765625 1.269531 -4.945312 1.21875 -5.03125 C 1.175781 -5.125 1.046875 -5.171875 0.828125 -5.171875 L 0.46875 -5.171875 L 0.46875 -5.8125 C 0.84375 -5.8125 1.128906 -5.835938 1.328125 -5.890625 C 1.535156 -5.953125 1.679688 -5.992188 1.765625 -6.015625 C 1.859375 -6.046875 1.957031 -6.0625 2.0625 -6.0625 C 2.257812 -6.0625 2.390625 -6 2.453125 -5.875 C 2.523438 -5.757812 2.5625 -5.570312 2.5625 -5.3125 L 2.5625 -5.1875 C 2.894531 -5.582031 3.273438 -5.847656 3.703125 -5.984375 C 3.859375 -6.035156 4.007812 -6.0625 4.15625 -6.0625 C 4.445312 -6.0625 4.675781 -5.976562 4.84375 -5.8125 C 5.007812 -5.644531 5.09375 -5.4375 5.09375 -5.1875 C 5.09375 -4.9375 5.015625 -4.734375 4.859375 -4.578125 C 4.703125 -4.421875 4.507812 -4.34375 4.28125 -4.34375 C 4.0625 -4.34375 3.878906 -4.421875 3.734375 -4.578125 C 3.597656 -4.734375 3.535156 -4.929688 3.546875 -5.171875 C 3.390625 -5.148438 3.21875 -5.078125 3.03125 -4.953125 C 2.851562 -4.828125 2.695312 -4.660156 2.5625 -4.453125 L 2.5625 -1.3125 C 2.5625 -1.164062 2.570312 -1.046875 2.59375 -0.953125 C 2.625 -0.867188 2.691406 -0.796875 2.796875 -0.734375 C 2.910156 -0.671875 3.25 -0.640625 3.8125 -0.640625 L 3.8125 0 L 0.484375 0 Z M 0.484375 -0.640625 "/></g></g><g transform="translate(105.369137, 84.749998)"><g><path d="M 1.96875 -7.140625 C 1.71875 -7.140625 1.503906 -7.222656 1.328125 -7.390625 C 1.148438 -7.566406 1.0625 -7.773438 1.0625 -8.015625 C 1.0625 -8.265625 1.148438 -8.476562 1.328125 -8.65625 C 1.503906 -8.832031 1.71875 -8.921875 1.96875 -8.921875 C 2.21875 -8.921875 2.429688 -8.832031 2.609375 -8.65625 C 2.796875 -8.476562 2.890625 -8.265625 2.890625 -8.015625 C 2.890625 -7.773438 2.800781 -7.566406 2.625 -7.390625 C 2.445312 -7.222656 2.226562 -7.140625 1.96875 -7.140625 Z M 0.484375 -0.640625 C 0.847656 -0.640625 1.070312 -0.671875 1.15625 -0.734375 C 1.25 -0.804688 1.304688 -0.878906 1.328125 -0.953125 C 1.347656 -1.035156 1.359375 -1.140625 1.359375 -1.265625 L 1.359375 -4.484375 C 1.359375 -4.765625 1.332031 -4.945312 1.28125 -5.03125 C 1.238281 -5.125 1.109375 -5.171875 0.890625 -5.171875 L 0.46875 -5.171875 L 0.46875 -5.8125 C 0.851562 -5.8125 1.15625 -5.835938 1.375 -5.890625 C 1.59375 -5.953125 1.742188 -5.992188 1.828125 -6.015625 C 1.921875 -6.046875 2.019531 -6.0625 2.125 -6.0625 C 2.332031 -6.0625 2.46875 -6 2.53125 -5.875 C 2.59375 -5.757812 2.625 -5.570312 2.625 -5.3125 L 2.625 -1.265625 C 2.625 -1.015625 2.664062 -0.859375 2.75 -0.796875 C 2.875 -0.691406 3.125 -0.640625 3.5 -0.640625 L 3.5 0 L 0.484375 0 Z M 0.484375 -0.640625 "/></g></g><g transform="translate(109.294918, 84.749998)"><g><path d="M 4.125 0.125 C 3.476562 0.125 2.929688 -0.0976562 2.484375 -0.546875 L 2.484375 1.546875 C 2.484375 1.847656 2.546875 2.035156 2.671875 2.109375 C 2.804688 2.191406 3.140625 2.234375 3.671875 2.234375 L 3.671875 2.875 L 0.390625 2.875 L 0.390625 2.234375 C 0.722656 2.234375 0.929688 2.195312 1.015625 2.125 C 1.109375 2.050781 1.164062 1.972656 1.1875 1.890625 C 1.207031 1.816406 1.21875 1.722656 1.21875 1.609375 L 1.21875 -4.484375 C 1.21875 -4.765625 1.191406 -4.945312 1.140625 -5.03125 C 1.085938 -5.113281 0.953125 -5.15625 0.734375 -5.15625 L 0.328125 -5.15625 L 0.328125 -5.8125 C 0.710938 -5.8125 1.015625 -5.835938 1.234375 -5.890625 C 1.453125 -5.953125 1.609375 -5.992188 1.703125 -6.015625 C 1.796875 -6.035156 1.894531 -6.046875 2 -6.046875 C 2.207031 -6.046875 2.34375 -5.988281 2.40625 -5.875 C 2.46875 -5.757812 2.5 -5.566406 2.5 -5.296875 L 2.5 -5.28125 C 2.9375 -5.800781 3.53125 -6.0625 4.28125 -6.0625 C 5.039062 -6.0625 5.65625 -5.804688 6.125 -5.296875 C 6.59375 -4.785156 6.828125 -4.046875 6.828125 -3.078125 C 6.828125 -2.109375 6.582031 -1.332031 6.09375 -0.75 C 5.613281 -0.164062 4.957031 0.125 4.125 0.125 Z M 2.453125 -2.90625 C 2.453125 -2.1875 2.585938 -1.617188 2.859375 -1.203125 C 3.140625 -0.796875 3.515625 -0.59375 3.984375 -0.59375 C 4.441406 -0.59375 4.800781 -0.800781 5.0625 -1.21875 C 5.320312 -1.644531 5.453125 -2.210938 5.453125 -2.921875 C 5.453125 -4.046875 5.179688 -4.789062 4.640625 -5.15625 C 4.441406 -5.289062 4.207031 -5.359375 3.9375 -5.359375 C 3.675781 -5.359375 3.453125 -5.296875 3.265625 -5.171875 C 3.085938 -5.046875 2.9375 -4.875 2.8125 -4.65625 C 2.570312 -4.207031 2.453125 -3.625 2.453125 -2.90625 Z M 2.453125 -2.90625 "/></g></g><g transform="translate(116.624996, 84.749998)"><g><path d="M 2.921875 0.125 C 1.691406 0.125 1.078125 -0.5625 1.078125 -1.9375 L 1.078125 -4.859375 C 1.078125 -5.015625 1.054688 -5.113281 1.015625 -5.15625 C 0.984375 -5.207031 0.90625 -5.234375 0.78125 -5.234375 L 0.3125 -5.234375 L 0.3125 -5.9375 L 0.515625 -5.9375 C 0.816406 -5.9375 1.035156 -6.03125 1.171875 -6.21875 C 1.316406 -6.40625 1.394531 -6.71875 1.40625 -7.15625 L 1.40625 -7.671875 L 2.34375 -7.671875 L 2.34375 -5.9375 L 4.140625 -5.9375 L 4.140625 -5.234375 L 2.34375 -5.234375 L 2.34375 -1.953125 C 2.34375 -1.222656 2.507812 -0.789062 2.84375 -0.65625 C 2.9375 -0.613281 3.03125 -0.59375 3.125 -0.59375 C 3.539062 -0.59375 3.8125 -0.929688 3.9375 -1.609375 L 4.609375 -1.609375 C 4.566406 -0.804688 4.234375 -0.273438 3.609375 -0.015625 C 3.410156 0.078125 3.179688 0.125 2.921875 0.125 Z M 2.921875 0.125 "/></g></g></g></svg>