<svg xmlns="http://www.w3.org/2000/svg" xmlns:xlink="http://www.w3.org/1999/xlink" width="240" zoomAndPan="magnify" viewBox="0 0 180 89.999999" height="120" preserveAspectRatio="xMidYMid meet" version="1.0"><defs><g/><clipPath id="ff4a2f2c62"><path d="M 55.597656 5.144531 L 124.597656 5.144531 L 124.597656 74.144531 L 55.597656 74.144531 Z M 55.597656 5.144531 " clip-rule="nonzero"/></clipPath></defs><rect x="-18" width="216" fill="#ffffff" y="-9" height="107.999999" fill-opacity="1"/><rect x="-18" width="216" fill="#ffffff" y="-9" height="107.999999" fill-opacity="1"/><g clip-path="url(#ff4a2f2c62)"><path fill="#a8a8a8" d="M 90.097656 5.144531 C 71.042969 5.144531 55.597656 20.589844 55.597656 39.644531 C 55.597656 58.699219 71.042969 74.144531 90.097656 74.144531 C 109.152344 74.144531 124.597656 58.699219 124.597656 39.644531 C 124.597656 20.589844 109.152344 5.144531 90.097656 5.144531 Z M 96.6875 59.976562 C 95.628906 60.179688 95.253906 59.53125 95.253906 58.972656 C 95.253906 58.289062 95.28125 56.039062 95.28125 53.242188 C 95.28125 51.292969 94.617188 50.019531 93.871094 49.375 C 98.503906 48.859375 103.371094 47.09375 103.371094 39.066406 C 103.371094 36.785156 102.570312 34.921875 101.234375 33.460938 C 101.445312 32.933594 102.160156 30.808594 101.027344 27.933594 C 101.027344 27.933594 99.285156 27.371094 95.308594 30.078125 C 93.648438 29.613281 91.867188 29.382812 90.101562 29.371094 C 88.332031 29.382812 86.550781 29.613281 84.890625 30.078125 C 80.917969 27.375 79.171875 27.933594 79.171875 27.933594 C 78.039062 30.8125 78.753906 32.933594 78.96875 33.460938 C 77.636719 34.921875 76.824219 36.785156 76.824219 39.066406 C 76.824219 47.070312 81.683594 48.863281 86.300781 49.390625 C 85.707031 49.910156 85.171875 50.832031 84.980469 52.179688 C 83.792969 52.714844 80.78125 53.636719 78.925781 50.445312 C 78.925781 50.445312 77.828125 48.441406 75.742188 48.292969 C 75.742188 48.292969 73.710938 48.265625 75.601562 49.5625 C 75.601562 49.5625 76.960938 50.203125 77.90625 52.617188 C 77.90625 52.617188 79.128906 56.683594 84.917969 55.421875 C 84.929688 57.164062 84.945312 58.476562 84.945312 58.972656 C 84.945312 59.527344 84.566406 60.171875 83.523438 59.980469 C 75.253906 57.21875 69.292969 49.390625 69.292969 40.160156 C 69.292969 28.621094 78.609375 19.269531 90.101562 19.269531 C 101.59375 19.269531 110.90625 28.625 110.90625 40.160156 C 110.90625 49.386719 104.953125 57.210938 96.691406 59.976562 Z M 96.6875 59.976562 " fill-opacity="1" fill-rule="nonzero"/></g><g fill="#a8a8a8" fill-opacity="1"><g transform="translate(71.296872, 84.749998)"><g><path d="M 4.84375 -5.609375 C 5.1875 -6.015625 5.632812 -6.21875 6.1875 -6.21875 C 6.375 -6.21875 6.539062 -6.144531 6.6875 -6 C 6.832031 -5.863281 6.90625 -5.691406 6.90625 -5.484375 C 6.90625 -5.285156 6.84375 -5.125 6.71875 -5 C 6.59375 -4.882812 6.441406 -4.828125 6.265625 -4.828125 C 6.097656 -4.828125 5.953125 -4.875 5.828125 -4.96875 C 5.710938 -5.070312 5.648438 -5.222656 5.640625 -5.421875 C 5.503906 -5.367188 5.375 -5.289062 5.25 -5.1875 C 5.488281 -4.84375 5.609375 -4.457031 5.609375 -4.03125 C 5.609375 -3.601562 5.539062 -3.253906 5.40625 -2.984375 C 5.28125 -2.710938 5.101562 -2.484375 4.875 -2.296875 C 4.65625 -2.109375 4.394531 -1.960938 4.09375 -1.859375 C 3.800781 -1.765625 3.535156 -1.71875 3.296875 -1.71875 C 3.054688 -1.71875 2.878906 -1.722656 2.765625 -1.734375 C 2.484375 -1.671875 2.289062 -1.550781 2.1875 -1.375 C 2.164062 -1.332031 2.15625 -1.28125 2.15625 -1.21875 C 2.15625 -1.101562 2.257812 -1.019531 2.46875 -0.96875 C 2.675781 -0.914062 3.023438 -0.867188 3.515625 -0.828125 C 4.015625 -0.796875 4.425781 -0.75 4.75 -0.6875 C 5.070312 -0.632812 5.347656 -0.546875 5.578125 -0.421875 C 6.078125 -0.160156 6.328125 0.28125 6.328125 0.90625 C 6.328125 1.539062 6.019531 2.046875 5.40625 2.421875 C 4.789062 2.796875 4.039062 2.984375 3.15625 2.984375 C 1.769531 2.984375 0.898438 2.628906 0.546875 1.921875 C 0.441406 1.710938 0.390625 1.476562 0.390625 1.21875 C 0.390625 0.550781 0.796875 0.0078125 1.609375 -0.40625 C 1.328125 -0.5625 1.1875 -0.8125 1.1875 -1.15625 C 1.1875 -1.5 1.40625 -1.769531 1.84375 -1.96875 C 1.476562 -2.113281 1.1875 -2.363281 0.96875 -2.71875 C 0.757812 -3.082031 0.65625 -3.453125 0.65625 -3.828125 C 0.65625 -4.523438 0.90625 -5.070312 1.40625 -5.46875 C 1.914062 -5.863281 2.507812 -6.0625 3.1875 -6.0625 C 3.875 -6.0625 4.425781 -5.910156 4.84375 -5.609375 Z M 3.15625 -2.390625 C 3.675781 -2.390625 4.035156 -2.660156 4.234375 -3.203125 C 4.304688 -3.390625 4.34375 -3.625 4.34375 -3.90625 C 4.34375 -4.414062 4.226562 -4.796875 4 -5.046875 C 3.769531 -5.296875 3.488281 -5.421875 3.15625 -5.421875 C 2.613281 -5.421875 2.242188 -5.144531 2.046875 -4.59375 C 1.972656 -4.394531 1.9375 -4.15625 1.9375 -3.875 C 1.9375 -3.375 2.054688 -3 2.296875 -2.75 C 2.546875 -2.507812 2.832031 -2.390625 3.15625 -2.390625 Z M 2.234375 -0.03125 C 1.847656 0.175781 1.65625 0.53125 1.65625 1.03125 C 1.65625 1.4375 1.816406 1.742188 2.140625 1.953125 C 2.472656 2.171875 2.90625 2.28125 3.4375 2.28125 C 4.28125 2.28125 4.832031 2.0625 5.09375 1.625 C 5.1875 1.476562 5.234375 1.320312 5.234375 1.15625 C 5.234375 0.59375 4.75 0.265625 3.78125 0.171875 C 3.46875 0.140625 3.175781 0.109375 2.90625 0.078125 C 2.644531 0.0546875 2.421875 0.0195312 2.234375 -0.03125 Z M 2.234375 -0.03125 "/></g></g><g transform="translate(78.158199, 84.749998)"><g><path d="M 1.96875 -7.140625 C 1.71875 -7.140625 1.503906 -7.222656 1.328125 -7.390625 C 1.148438 -7.566406 1.0625 -7.773438 1.0625 -8.015625 C 1.0625 -8.265625 1.148438 -8.476562 1.328125 -8.65625 C 1.503906 -8.832031 1.71875 -8.921875 1.96875 -8.921875 C 2.21875 -8.921875 2.429688 -8.832031 2.609375 -8.65625 C 2.796875 -8.476562 2.890625 -8.265625 2.890625 -8.015625 C 2.890625 -7.773438 2.800781 -7.566406 2.625 -7.390625 C 2.445312 -7.222656 2.226562 -7.140625 1.96875 -7.140625 Z M 0.484375 -0.640625 C 0.847656 -0.640625 1.070312 -0.671875 1.15625 -0.734375 C 1.25 -0.804688 1.304688 -0.878906 1.328125 -0.953125 C 1.347656 -1.035156 1.359375 -1.140625 1.359375 -1.265625 L 1.359375 -4.484375 C 1.359375 -4.765625 1.332031 -4.945312 1.28125 -5.03125 C 1.238281 -5.125 1.109375 -5.171875 0.890625 -5.171875 L 0.46875 -5.171875 L 0.46875 -5.8125 C 0.851562 -5.8125 1.15625 -5.835938 1.375 -5.890625 C 1.59375 -5.953125 1.742188 -5.992188 1.828125 -6.015625 C 1.921875 -6.046875 2.019531 -6.0625 2.125 -6.0625 C 2.332031 -6.0625 2.46875 -6 2.53125 -5.875 C 2.59375 -5.757812 2.625 -5.570312 2.625 -5.3125 L 2.625 -1.265625 C 2.625 -1.015625 2.664062 -0.859375 2.75 -0.796875 C 2.875 -0.691406 3.125 -0.640625 3.5 -0.640625 L 3.5 0 L 0.484375 0 Z M 0.484375 -0.640625 "/></g></g><g transform="translate(82.08398, 84.749998)"><g><path d="M 2.921875 0.125 C 1.691406 0.125 1.078125 -0.5625 1.078125 -1.9375 L 1.078125 -4.859375 C 1.078125 -5.015625 1.054688 -5.113281 1.015625 -5.15625 C 0.984375 -5.207031 0.90625 -5.234375 0.78125 -5.234375 L 0.3125 -5.234375 L 0.3125 -5.9375 L 0.515625 -5.9375 C 0.816406 -5.9375 1.035156 -6.03125 1.171875 -6.21875 C 1.316406 -6.40625 1.394531 -6.71875 1.40625 -7.15625 L 1.40625 -7.671875 L 2.34375 -7.671875 L 2.34375 -5.9375 L 4.140625 -5.9375 L 4.140625 -5.234375 L 2.34375 -5.234375 L 2.34375 -1.953125 C 2.34375 -1.222656 2.507812 -0.789062 2.84375 -0.65625 C 2.9375 -0.613281 3.03125 -0.59375 3.125 -0.59375 C 3.539062 -0.59375 3.8125 -0.929688 3.9375 -1.609375 L 4.609375 -1.609375 C 4.566406 -0.804688 4.234375 -0.273438 3.609375 -0.015625 C 3.410156 0.078125 3.179688 0.125 2.921875 0.125 Z M 2.921875 0.125 "/></g></g><g transform="translate(86.988277, 84.749998)"><g><path d="M 4.109375 -5.1875 C 3.472656 -5.1875 2.957031 -4.984375 2.5625 -4.578125 L 2.5625 -1.265625 C 2.5625 -1.015625 2.597656 -0.859375 2.671875 -0.796875 C 2.804688 -0.691406 3.066406 -0.640625 3.453125 -0.640625 L 3.453125 0 L 0.46875 0 L 0.46875 -0.640625 C 0.800781 -0.640625 1.007812 -0.671875 1.09375 -0.734375 C 1.1875 -0.804688 1.242188 -0.878906 1.265625 -0.953125 C 1.285156 -1.035156 1.296875 -1.140625 1.296875 -1.265625 L 1.296875 -7.625 C 1.296875 -7.90625 1.269531 -8.085938 1.21875 -8.171875 C 1.164062 -8.253906 1.03125 -8.296875 0.8125 -8.296875 L 0.453125 -8.296875 L 0.453125 -8.9375 C 0.828125 -8.9375 1.117188 -8.960938 1.328125 -9.015625 C 1.535156 -9.078125 1.679688 -9.117188 1.765625 -9.140625 C 1.859375 -9.171875 1.953125 -9.1875 2.046875 -9.1875 C 2.253906 -9.1875 2.390625 -9.125 2.453125 -9 C 2.523438 -8.882812 2.5625 -8.695312 2.5625 -8.4375 L 2.5625 -5.28125 C 2.957031 -5.625 3.441406 -5.863281 4.015625 -6 C 4.191406 -6.039062 4.367188 -6.0625 4.546875 -6.0625 C 5.816406 -6.0625 6.453125 -5.222656 6.453125 -3.546875 L 6.453125 -1.265625 C 6.453125 -1.015625 6.488281 -0.847656 6.5625 -0.765625 C 6.632812 -0.679688 6.835938 -0.640625 7.171875 -0.640625 L 7.171875 0 L 4.390625 0 L 4.390625 -0.640625 C 4.742188 -0.640625 4.957031 -0.675781 5.03125 -0.75 C 5.101562 -0.820312 5.144531 -0.894531 5.15625 -0.96875 C 5.175781 -1.050781 5.1875 -1.148438 5.1875 -1.265625 L 5.1875 -3.46875 C 5.1875 -4.007812 5.132812 -4.378906 5.03125 -4.578125 C 4.832031 -4.984375 4.523438 -5.1875 4.109375 -5.1875 Z M 4.109375 -5.1875 "/></g></g><g transform="translate(94.494136, 84.749998)"><g><path d="M 4.828125 -0.96875 C 4.335938 -0.238281 3.679688 0.125 2.859375 0.125 C 2.273438 0.125 1.816406 -0.0546875 1.484375 -0.421875 C 1.160156 -0.785156 1 -1.332031 1 -2.0625 L 1 -4.484375 C 1 -4.765625 0.972656 -4.945312 0.921875 -5.03125 C 0.867188 -5.125 0.738281 -5.171875 0.53125 -5.171875 L 0.375 -5.171875 L 0.375 -5.8125 C 0.738281 -5.8125 1 -5.835938 1.15625 -5.890625 C 1.320312 -5.953125 1.4375 -5.992188 1.5 -6.015625 C 1.570312 -6.046875 1.660156 -6.0625 1.765625 -6.0625 C 1.960938 -6.0625 2.09375 -6 2.15625 -5.875 C 2.226562 -5.75 2.265625 -5.550781 2.265625 -5.28125 L 2.265625 -2.015625 C 2.265625 -1.585938 2.304688 -1.296875 2.390625 -1.140625 C 2.566406 -0.835938 2.863281 -0.6875 3.28125 -0.6875 C 3.5625 -0.6875 3.835938 -0.796875 4.109375 -1.015625 C 4.390625 -1.242188 4.582031 -1.503906 4.6875 -1.796875 L 4.6875 -4.484375 C 4.6875 -4.773438 4.660156 -4.960938 4.609375 -5.046875 C 4.566406 -5.128906 4.4375 -5.171875 4.21875 -5.171875 L 3.890625 -5.171875 L 3.890625 -5.8125 C 4.253906 -5.8125 4.535156 -5.835938 4.734375 -5.890625 C 4.941406 -5.953125 5.085938 -5.992188 5.171875 -6.015625 C 5.253906 -6.046875 5.347656 -6.0625 5.453125 -6.0625 C 5.648438 -6.0625 5.78125 -6 5.84375 -5.875 C 5.914062 -5.757812 5.953125 -5.570312 5.953125 -5.3125 L 5.953125 -1.5625 C 5.953125 -1.175781 5.972656 -0.941406 6.015625 -0.859375 C 6.078125 -0.679688 6.234375 -0.59375 6.484375 -0.59375 C 6.617188 -0.59375 6.734375 -0.613281 6.828125 -0.65625 L 6.828125 -0.09375 C 6.640625 0.0507812 6.378906 0.125 6.046875 0.125 C 5.367188 0.125 4.960938 -0.238281 4.828125 -0.96875 Z M 4.828125 -0.96875 "/></g></g><g transform="translate(101.466792, 84.749998)"><g><path d="M 2.234375 -0.6875 C 2.066406 -0.53125 1.984375 -0.300781 1.984375 0 L 1.109375 0 L 1.109375 -7.5625 C 1.109375 -7.84375 1.082031 -8.023438 1.03125 -8.109375 C 0.988281 -8.203125 0.859375 -8.25 0.640625 -8.25 L 0.21875 -8.25 L 0.21875 -8.890625 C 0.601562 -8.890625 0.898438 -8.914062 1.109375 -8.96875 C 1.328125 -9.03125 1.484375 -9.070312 1.578125 -9.09375 C 1.671875 -9.125 1.769531 -9.140625 1.875 -9.140625 C 2.082031 -9.140625 2.21875 -9.078125 2.28125 -8.953125 C 2.34375 -8.835938 2.375 -8.648438 2.375 -8.390625 L 2.375 -5.25 C 2.789062 -5.789062 3.390625 -6.0625 4.171875 -6.0625 C 4.953125 -6.0625 5.570312 -5.8125 6.03125 -5.3125 C 6.488281 -4.8125 6.71875 -4.078125 6.71875 -3.109375 C 6.71875 -2.140625 6.476562 -1.359375 6 -0.765625 C 5.519531 -0.171875 4.851562 0.125 4 0.125 C 3.289062 0.125 2.703125 -0.144531 2.234375 -0.6875 Z M 2.34375 -2.890625 C 2.34375 -2.179688 2.476562 -1.617188 2.75 -1.203125 C 3.03125 -0.796875 3.398438 -0.59375 3.859375 -0.59375 C 4.316406 -0.59375 4.679688 -0.800781 4.953125 -1.21875 C 5.222656 -1.644531 5.359375 -2.210938 5.359375 -2.921875 C 5.359375 -4.035156 5.09375 -4.78125 4.5625 -5.15625 C 4.363281 -5.28125 4.132812 -5.34375 3.875 -5.34375 C 3.625 -5.34375 3.40625 -5.28125 3.21875 -5.15625 C 3.03125 -5.03125 2.875 -4.859375 2.75 -4.640625 C 2.476562 -4.191406 2.34375 -3.609375 2.34375 -2.890625 Z M 2.34375 -2.890625 "/></g></g></g></svg>