<svg xmlns="http://www.w3.org/2000/svg" xmlns:xlink="http://www.w3.org/1999/xlink" width="240" zoomAndPan="magnify" viewBox="0 0 180 89.999999" height="120" preserveAspectRatio="xMidYMid meet" version="1.0"><defs><g/><clipPath id="295967d853"><path d="M 55.542969 5.035156 L 124.542969 5.035156 L 124.542969 74.035156 L 55.542969 74.035156 Z M 55.542969 5.035156 " clip-rule="nonzero"/></clipPath></defs><rect x="-18" width="216" fill="#ffffff" y="-9" height="107.999999" fill-opacity="1"/><g clip-path="url(#295967d853)"><path fill="#a8a8a8" d="M 123.242188 36.464844 L 93.117188 6.339844 C 92.910156 6.132812 92.683594 5.949219 92.441406 5.785156 C 92.199219 5.625 91.945312 5.488281 91.675781 5.375 C 91.40625 5.261719 91.128906 5.179688 90.839844 5.121094 C 90.554688 5.066406 90.265625 5.035156 89.972656 5.035156 C 89.683594 5.035156 89.394531 5.066406 89.105469 5.121094 C 88.820312 5.179688 88.542969 5.261719 88.273438 5.375 C 88.003906 5.488281 87.75 5.625 87.503906 5.785156 C 87.261719 5.949219 87.039062 6.132812 86.832031 6.339844 L 80.578125 12.589844 L 88.515625 20.527344 C 90.359375 19.878906 92.472656 20.320312 93.945312 21.792969 C 94.292969 22.144531 94.589844 22.535156 94.828125 22.96875 C 95.066406 23.402344 95.242188 23.859375 95.355469 24.34375 C 95.464844 24.828125 95.507812 25.316406 95.480469 25.808594 C 95.453125 26.304688 95.359375 26.785156 95.195312 27.253906 L 102.84375 34.902344 C 104.695312 34.265625 106.828125 34.675781 108.304688 36.15625 C 108.550781 36.402344 108.773438 36.671875 108.964844 36.957031 C 109.15625 37.246094 109.320312 37.550781 109.453125 37.875 C 109.585938 38.195312 109.6875 38.523438 109.753906 38.867188 C 109.824219 39.207031 109.855469 39.550781 109.855469 39.898438 C 109.855469 40.246094 109.824219 40.589844 109.753906 40.929688 C 109.6875 41.269531 109.585938 41.601562 109.453125 41.921875 C 109.320312 42.242188 109.160156 42.546875 108.964844 42.835938 C 108.773438 43.125 108.554688 43.394531 108.308594 43.636719 C 108.0625 43.882812 107.792969 44.101562 107.503906 44.296875 C 107.214844 44.488281 106.910156 44.652344 106.589844 44.785156 C 106.269531 44.917969 105.9375 45.019531 105.597656 45.085938 C 105.257812 45.152344 104.914062 45.1875 104.566406 45.1875 C 104.21875 45.1875 103.875 45.152344 103.535156 45.085938 C 103.195312 45.015625 102.863281 44.917969 102.542969 44.78125 C 102.222656 44.648438 101.917969 44.488281 101.628906 44.292969 C 101.339844 44.101562 101.070312 43.882812 100.828125 43.636719 C 99.273438 42.082031 98.890625 39.796875 99.675781 37.882812 L 92.542969 30.75 L 92.542969 49.523438 C 93.0625 49.78125 93.53125 50.113281 93.945312 50.523438 C 94.1875 50.769531 94.410156 51.035156 94.601562 51.324219 C 94.792969 51.613281 94.957031 51.917969 95.089844 52.238281 C 95.222656 52.558594 95.324219 52.890625 95.390625 53.230469 C 95.457031 53.570312 95.492188 53.914062 95.492188 54.261719 C 95.492188 54.609375 95.457031 54.953125 95.390625 55.292969 C 95.324219 55.632812 95.222656 55.964844 95.089844 56.285156 C 94.957031 56.605469 94.792969 56.910156 94.601562 57.199219 C 94.410156 57.488281 94.1875 57.753906 93.945312 58 C 93.699219 58.246094 93.429688 58.464844 93.140625 58.65625 C 92.855469 58.851562 92.550781 59.011719 92.226562 59.144531 C 91.90625 59.277344 91.578125 59.378906 91.238281 59.449219 C 90.894531 59.515625 90.550781 59.550781 90.203125 59.550781 C 89.859375 59.550781 89.515625 59.515625 89.171875 59.449219 C 88.832031 59.378906 88.503906 59.277344 88.179688 59.144531 C 87.859375 59.011719 87.554688 58.851562 87.265625 58.65625 C 86.976562 58.464844 86.710938 58.246094 86.464844 58 C 86.21875 57.753906 86 57.488281 85.808594 57.199219 C 85.613281 56.910156 85.453125 56.605469 85.316406 56.285156 C 85.183594 55.964844 85.085938 55.632812 85.015625 55.292969 C 84.949219 54.953125 84.914062 54.609375 84.914062 54.261719 C 84.914062 53.914062 84.949219 53.570312 85.015625 53.230469 C 85.085938 52.890625 85.183594 52.558594 85.316406 52.238281 C 85.453125 51.917969 85.613281 51.613281 85.808594 51.324219 C 86 51.035156 86.21875 50.769531 86.464844 50.523438 C 86.976562 50.011719 87.542969 49.628906 88.199219 49.367188 L 88.199219 30.425781 C 87.566406 30.164062 86.976562 29.785156 86.464844 29.269531 C 86.09375 28.898438 85.785156 28.484375 85.539062 28.019531 C 85.292969 27.558594 85.117188 27.066406 85.015625 26.554688 C 84.914062 26.039062 84.890625 25.519531 84.945312 25 C 84.996094 24.476562 85.125 23.972656 85.328125 23.488281 L 77.5 15.667969 L 56.84375 36.300781 C 56.636719 36.507812 56.453125 36.734375 56.289062 36.976562 C 56.128906 37.21875 55.992188 37.472656 55.878906 37.742188 C 55.765625 38.011719 55.683594 38.292969 55.625 38.578125 C 55.570312 38.863281 55.539062 39.152344 55.539062 39.445312 C 55.539062 39.738281 55.570312 40.027344 55.625 40.3125 C 55.683594 40.597656 55.765625 40.875 55.878906 41.144531 C 55.992188 41.414062 56.128906 41.671875 56.289062 41.914062 C 56.453125 42.15625 56.636719 42.382812 56.84375 42.585938 L 86.96875 72.710938 C 87.175781 72.917969 87.402344 73.101562 87.644531 73.261719 C 87.886719 73.425781 88.140625 73.5625 88.410156 73.671875 C 88.679688 73.785156 88.960938 73.871094 89.246094 73.925781 C 89.53125 73.984375 89.820312 74.011719 90.113281 74.011719 C 90.402344 74.011719 90.691406 73.984375 90.980469 73.925781 C 91.265625 73.871094 91.542969 73.785156 91.8125 73.671875 C 92.082031 73.5625 92.339844 73.425781 92.582031 73.261719 C 92.824219 73.101562 93.046875 72.917969 93.253906 72.710938 L 123.242188 42.769531 C 123.445312 42.5625 123.632812 42.339844 123.792969 42.097656 C 123.957031 41.855469 124.09375 41.597656 124.203125 41.328125 C 124.316406 41.058594 124.402344 40.78125 124.457031 40.496094 C 124.515625 40.207031 124.542969 39.917969 124.542969 39.628906 C 124.542969 39.335938 124.515625 39.046875 124.457031 38.761719 C 124.402344 38.472656 124.316406 38.195312 124.203125 37.925781 C 124.09375 37.65625 123.957031 37.402344 123.792969 37.160156 C 123.632812 36.914062 123.445312 36.691406 123.242188 36.484375 " fill-opacity="1" fill-rule="nonzero"/></g><g fill="#a8a8a8" fill-opacity="1"><g transform="translate(82.154293, 84.750005)"><g><path d="M 4.84375 -5.609375 C 5.1875 -6.015625 5.632812 -6.21875 6.1875 -6.21875 C 6.375 -6.21875 6.539062 -6.144531 6.6875 -6 C 6.832031 -5.863281 6.90625 -5.691406 6.90625 -5.484375 C 6.90625 -5.285156 6.84375 -5.125 6.71875 -5 C 6.59375 -4.882812 6.441406 -4.828125 6.265625 -4.828125 C 6.097656 -4.828125 5.953125 -4.875 5.828125 -4.96875 C 5.710938 -5.070312 5.648438 -5.222656 5.640625 -5.421875 C 5.503906 -5.367188 5.375 -5.289062 5.25 -5.1875 C 5.488281 -4.84375 5.609375 -4.457031 5.609375 -4.03125 C 5.609375 -3.601562 5.539062 -3.253906 5.40625 -2.984375 C 5.28125 -2.710938 5.101562 -2.484375 4.875 -2.296875 C 4.65625 -2.109375 4.394531 -1.960938 4.09375 -1.859375 C 3.800781 -1.765625 3.535156 -1.71875 3.296875 -1.71875 C 3.054688 -1.71875 2.878906 -1.722656 2.765625 -1.734375 C 2.484375 -1.671875 2.289062 -1.550781 2.1875 -1.375 C 2.164062 -1.332031 2.15625 -1.28125 2.15625 -1.21875 C 2.15625 -1.101562 2.257812 -1.019531 2.46875 -0.96875 C 2.675781 -0.914062 3.023438 -0.867188 3.515625 -0.828125 C 4.015625 -0.796875 4.425781 -0.75 4.75 -0.6875 C 5.070312 -0.632812 5.347656 -0.546875 5.578125 -0.421875 C 6.078125 -0.160156 6.328125 0.28125 6.328125 0.90625 C 6.328125 1.539062 6.019531 2.046875 5.40625 2.421875 C 4.789062 2.796875 4.039062 2.984375 3.15625 2.984375 C 1.769531 2.984375 0.898438 2.628906 0.546875 1.921875 C 0.441406 1.710938 0.390625 1.476562 0.390625 1.21875 C 0.390625 0.550781 0.796875 0.0078125 1.609375 -0.40625 C 1.328125 -0.5625 1.1875 -0.8125 1.1875 -1.15625 C 1.1875 -1.5 1.40625 -1.769531 1.84375 -1.96875 C 1.476562 -2.113281 1.1875 -2.363281 0.96875 -2.71875 C 0.757812 -3.082031 0.65625 -3.453125 0.65625 -3.828125 C 0.65625 -4.523438 0.90625 -5.070312 1.40625 -5.46875 C 1.914062 -5.863281 2.507812 -6.0625 3.1875 -6.0625 C 3.875 -6.0625 4.425781 -5.910156 4.84375 -5.609375 Z M 3.15625 -2.390625 C 3.675781 -2.390625 4.035156 -2.660156 4.234375 -3.203125 C 4.304688 -3.390625 4.34375 -3.625 4.34375 -3.90625 C 4.34375 -4.414062 4.226562 -4.796875 4 -5.046875 C 3.769531 -5.296875 3.488281 -5.421875 3.15625 -5.421875 C 2.613281 -5.421875 2.242188 -5.144531 2.046875 -4.59375 C 1.972656 -4.394531 1.9375 -4.15625 1.9375 -3.875 C 1.9375 -3.375 2.054688 -3 2.296875 -2.75 C 2.546875 -2.507812 2.832031 -2.390625 3.15625 -2.390625 Z M 2.234375 -0.03125 C 1.847656 0.175781 1.65625 0.53125 1.65625 1.03125 C 1.65625 1.4375 1.816406 1.742188 2.140625 1.953125 C 2.472656 2.171875 2.90625 2.28125 3.4375 2.28125 C 4.28125 2.28125 4.832031 2.0625 5.09375 1.625 C 5.1875 1.476562 5.234375 1.320312 5.234375 1.15625 C 5.234375 0.59375 4.75 0.265625 3.78125 0.171875 C 3.46875 0.140625 3.175781 0.109375 2.90625 0.078125 C 2.644531 0.0546875 2.421875 0.0195312 2.234375 -0.03125 Z M 2.234375 -0.03125 "/></g></g><g transform="translate(89.015621, 84.750005)"><g><path d="M 1.96875 -7.140625 C 1.71875 -7.140625 1.503906 -7.222656 1.328125 -7.390625 C 1.148438 -7.566406 1.0625 -7.773438 1.0625 -8.015625 C 1.0625 -8.265625 1.148438 -8.476562 1.328125 -8.65625 C 1.503906 -8.832031 1.71875 -8.921875 1.96875 -8.921875 C 2.21875 -8.921875 2.429688 -8.832031 2.609375 -8.65625 C 2.796875 -8.476562 2.890625 -8.265625 2.890625 -8.015625 C 2.890625 -7.773438 2.800781 -7.566406 2.625 -7.390625 C 2.445312 -7.222656 2.226562 -7.140625 1.96875 -7.140625 Z M 0.484375 -0.640625 C 0.847656 -0.640625 1.070312 -0.671875 1.15625 -0.734375 C 1.25 -0.804688 1.304688 -0.878906 1.328125 -0.953125 C 1.347656 -1.035156 1.359375 -1.140625 1.359375 -1.265625 L 1.359375 -4.484375 C 1.359375 -4.765625 1.332031 -4.945312 1.28125 -5.03125 C 1.238281 -5.125 1.109375 -5.171875 0.890625 -5.171875 L 0.46875 -5.171875 L 0.46875 -5.8125 C 0.851562 -5.8125 1.15625 -5.835938 1.375 -5.890625 C 1.59375 -5.953125 1.742188 -5.992188 1.828125 -6.015625 C 1.921875 -6.046875 2.019531 -6.0625 2.125 -6.0625 C 2.332031 -6.0625 2.46875 -6 2.53125 -5.875 C 2.59375 -5.757812 2.625 -5.570312 2.625 -5.3125 L 2.625 -1.265625 C 2.625 -1.015625 2.664062 -0.859375 2.75 -0.796875 C 2.875 -0.691406 3.125 -0.640625 3.5 -0.640625 L 3.5 0 L 0.484375 0 Z M 0.484375 -0.640625 "/></g></g><g transform="translate(92.941402, 84.750005)"><g><path d="M 2.921875 0.125 C 1.691406 0.125 1.078125 -0.5625 1.078125 -1.9375 L 1.078125 -4.859375 C 1.078125 -5.015625 1.054688 -5.113281 1.015625 -5.15625 C 0.984375 -5.207031 0.90625 -5.234375 0.78125 -5.234375 L 0.3125 -5.234375 L 0.3125 -5.9375 L 0.515625 -5.9375 C 0.816406 -5.9375 1.035156 -6.03125 1.171875 -6.21875 C 1.316406 -6.40625 1.394531 -6.71875 1.40625 -7.15625 L 1.40625 -7.671875 L 2.34375 -7.671875 L 2.34375 -5.9375 L 4.140625 -5.9375 L 4.140625 -5.234375 L 2.34375 -5.234375 L 2.34375 -1.953125 C 2.34375 -1.222656 2.507812 -0.789062 2.84375 -0.65625 C 2.9375 -0.613281 3.03125 -0.59375 3.125 -0.59375 C 3.539062 -0.59375 3.8125 -0.929688 3.9375 -1.609375 L 4.609375 -1.609375 C 4.566406 -0.804688 4.234375 -0.273438 3.609375 -0.015625 C 3.410156 0.078125 3.179688 0.125 2.921875 0.125 Z M 2.921875 0.125 "/></g></g></g></svg>