<svg xmlns="http://www.w3.org/2000/svg" xmlns:xlink="http://www.w3.org/1999/xlink" width="240" zoomAndPan="magnify" viewBox="0 0 180 89.999999" height="120" preserveAspectRatio="xMidYMid meet" version="1.0"><defs><g/><clipPath id="3c16b177de"><path d="M 36.175781 5 L 144.175781 5 L 144.175781 74 L 36.175781 74 Z M 36.175781 5 " clip-rule="nonzero"/></clipPath></defs><rect x="-18" width="216" fill="#ffffff" y="-9" height="107.999999" fill-opacity="1"/><g clip-path="url(#3c16b177de)"><path fill="#a8a8a8" d="M 110.386719 5.03125 C 109.839844 5.03125 109.335938 5.46875 109.335938 6.078125 L 109.335938 25.253906 L 104.996094 22.71875 C 104.726562 22.558594 104.417969 22.480469 104.113281 22.480469 C 103.804688 22.480469 103.5 22.558594 103.226562 22.71875 L 92.796875 28.808594 C 92.253906 29.125 91.917969 29.703125 91.917969 30.328125 L 91.917969 42.527344 C 91.917969 43.152344 92.253906 43.730469 92.796875 44.046875 L 103.226562 50.136719 C 103.5 50.296875 103.804688 50.375 104.113281 50.375 C 104.417969 50.375 104.726562 50.296875 104.996094 50.136719 L 115.429688 44.046875 C 115.972656 43.730469 116.304688 43.148438 116.304688 42.527344 L 116.304688 9.324219 C 116.304688 8.703125 115.972656 8.132812 115.441406 7.816406 L 110.902344 5.171875 C 110.730469 5.074219 110.558594 5.03125 110.386719 5.03125 Z M 76.242188 22.480469 C 75.933594 22.480469 75.628906 22.558594 75.355469 22.71875 L 64.925781 28.808594 C 64.382812 29.125 64.046875 29.703125 64.046875 30.328125 L 64.046875 42.527344 C 64.046875 43.152344 64.382812 43.730469 64.925781 44.046875 L 75.355469 50.136719 C 75.902344 50.453125 76.578125 50.453125 77.125 50.136719 L 87.558594 44.046875 C 88.101562 43.730469 88.433594 43.148438 88.433594 42.527344 L 88.433594 30.328125 C 88.433594 29.703125 88.101562 29.125 87.558594 28.808594 L 77.125 22.71875 C 76.851562 22.558594 76.546875 22.480469 76.242188 22.480469 Z M 131.984375 22.480469 C 131.675781 22.480469 131.371094 22.558594 131.097656 22.71875 L 120.667969 28.808594 C 120.125 29.125 119.789062 29.703125 119.789062 30.328125 L 119.789062 42.527344 C 119.789062 43.152344 120.125 43.730469 120.667969 44.046875 L 130.785156 50.171875 C 131.328125 50.503906 132.011719 50.503906 132.5625 50.183594 L 137.535156 47.289062 C 138.050781 46.992188 138.054688 46.242188 137.535156 45.9375 L 126.757812 39.582031 L 126.757812 33.320312 L 131.984375 30.273438 L 137.207031 33.320312 L 137.207031 37.679688 C 137.207031 38.265625 137.699219 38.355469 138.023438 38.15625 C 139.34375 37.382812 143.3125 35.078125 143.3125 35.078125 C 143.84375 34.769531 144.175781 34.195312 144.175781 33.574219 L 144.175781 30.328125 C 144.175781 29.703125 143.84375 29.125 143.296875 28.808594 L 132.867188 22.71875 C 132.59375 22.558594 132.289062 22.480469 131.984375 22.480469 Z M 48.371094 22.488281 C 48.0625 22.488281 47.757812 22.566406 47.484375 22.726562 L 37.054688 28.808594 C 36.511719 29.128906 36.175781 29.707031 36.175781 30.335938 L 36.175781 45.90625 C 36.175781 46.664062 37 47.136719 37.652344 46.757812 L 42.28125 44.058594 C 42.8125 43.746094 43.144531 43.175781 43.144531 42.554688 L 43.144531 33.335938 L 48.371094 30.28125 L 53.597656 33.335938 L 53.597656 42.554688 C 53.597656 43.175781 53.925781 43.746094 54.460938 44.058594 L 59.085938 46.757812 C 59.742188 47.140625 60.5625 46.664062 60.5625 45.90625 L 60.5625 30.335938 C 60.5625 29.707031 60.230469 29.128906 59.6875 28.808594 L 49.253906 22.726562 C 48.984375 22.566406 48.675781 22.488281 48.371094 22.488281 Z M 104.113281 30.273438 L 109.335938 33.328125 L 109.335938 39.527344 L 104.113281 42.582031 L 98.886719 39.527344 L 98.886719 33.328125 Z M 131.984375 32.953125 L 128.996094 34.695312 L 128.996094 38.179688 L 131.984375 39.917969 L 134.96875 38.179688 L 134.96875 34.695312 Z M 89.851562 46.886719 C 89.492188 46.886719 89.128906 46.972656 88.816406 47.152344 L 79.015625 52.820312 C 78.371094 53.175781 77.984375 53.878906 77.984375 54.605469 L 77.984375 65.929688 C 77.984375 66.660156 78.390625 67.347656 79.015625 67.714844 L 81.597656 69.1875 C 82.832031 69.796875 83.289062 69.800781 83.847656 69.800781 C 85.695312 69.800781 86.746094 68.695312 86.746094 66.742188 L 86.746094 55.554688 C 86.746094 55.382812 86.613281 55.261719 86.460938 55.261719 L 85.222656 55.261719 C 85.050781 55.261719 84.929688 55.398438 84.929688 55.554688 L 84.929688 66.742188 C 84.929688 67.589844 84.035156 68.457031 82.574219 67.730469 L 79.894531 66.183594 C 79.808594 66.128906 79.746094 66.023438 79.746094 65.921875 L 79.746094 54.597656 C 79.746094 54.5 79.792969 54.378906 79.894531 54.328125 L 89.695312 48.671875 C 89.796875 48.621094 89.917969 48.621094 90 48.671875 L 99.804688 54.328125 C 99.90625 54.378906 99.953125 54.480469 99.953125 54.597656 L 99.953125 65.921875 C 99.953125 66.042969 99.886719 66.144531 99.804688 66.195312 L 90 71.871094 C 89.914062 71.925781 89.777344 71.925781 89.695312 71.871094 L 87.1875 70.378906 C 87.125 70.34375 87.015625 70.324219 86.953125 70.359375 C 86.257812 70.765625 86.121094 70.820312 85.476562 71.039062 C 85.304688 71.09375 85.070312 71.199219 85.5625 71.46875 L 88.816406 73.40625 C 89.140625 73.574219 89.496094 73.675781 89.851562 73.675781 C 90.222656 73.675781 90.585938 73.578125 90.871094 73.390625 L 100.667969 67.714844 C 101.3125 67.359375 101.703125 66.660156 101.703125 65.929688 L 101.703125 54.605469 C 101.703125 53.878906 101.296875 53.195312 100.667969 52.820312 L 90.871094 47.152344 C 90.566406 46.972656 90.207031 46.886719 89.851562 46.886719 Z M 105.132812 52.113281 C 104.132812 52.113281 103.253906 52.921875 103.253906 53.992188 C 103.253906 55.027344 104.097656 55.878906 105.132812 55.878906 C 106.167969 55.878906 107.011719 55.027344 107.011719 53.992188 C 107.011719 52.921875 106.148438 52.09375 105.132812 52.113281 Z M 105.113281 52.414062 C 105.996094 52.414062 106.710938 53.109375 106.710938 53.992188 C 106.710938 54.859375 105.992188 55.574219 105.113281 55.59375 C 104.246094 55.59375 103.539062 54.875 103.539062 53.992188 C 103.539062 53.109375 104.25 52.414062 105.113281 52.414062 Z M 104.425781 52.921875 L 104.425781 55.042969 L 104.828125 55.042969 L 104.828125 54.199219 L 105.199219 54.199219 C 105.355469 54.199219 105.390625 54.261719 105.425781 54.382812 C 105.425781 54.398438 105.488281 54.949219 105.507812 55.050781 L 105.941406 55.050781 C 105.894531 54.949219 105.859375 54.65625 105.839844 54.484375 C 105.792969 54.210938 105.777344 54.023438 105.488281 54.007812 C 105.640625 53.953125 105.894531 53.871094 105.894531 53.480469 C 105.894531 52.921875 105.40625 52.921875 105.152344 52.921875 Z M 104.828125 53.265625 L 105.167969 53.265625 C 105.269531 53.265625 105.472656 53.261719 105.472656 53.550781 C 105.472656 53.667969 105.421875 53.859375 105.144531 53.855469 L 104.828125 53.855469 Z M 92.476562 54.996094 C 89.679688 54.996094 88.019531 56.1875 88.019531 58.15625 C 88.019531 60.3125 89.683594 60.890625 92.359375 61.160156 C 95.566406 61.480469 95.816406 61.941406 95.816406 62.570312 C 95.816406 63.671875 94.933594 64.132812 92.863281 64.132812 C 90.269531 64.132812 89.699219 63.488281 89.507812 62.195312 C 89.492188 62.058594 89.371094 61.957031 89.21875 61.957031 L 87.945312 61.957031 C 87.792969 61.957031 87.660156 62.082031 87.660156 62.25 C 87.660156 63.898438 88.554688 65.867188 92.84375 65.867188 C 95.988281 65.867188 97.769531 64.644531 97.769531 62.503906 C 97.769531 60.382812 96.34375 59.816406 93.328125 59.410156 C 90.273438 59 89.972656 58.796875 89.972656 58.082031 C 89.972656 57.488281 90.222656 56.710938 92.476562 56.710938 C 94.492188 56.710938 95.246094 57.152344 95.550781 58.511719 C 95.585938 58.644531 95.679688 58.726562 95.816406 58.726562 L 97.089844 58.726562 C 97.171875 58.726562 97.246094 58.695312 97.292969 58.648438 C 97.347656 58.582031 97.378906 58.511719 97.363281 58.429688 C 97.160156 56.085938 95.617188 54.996094 92.476562 54.996094 Z M 92.476562 54.996094 " fill-opacity="1" fill-rule="nonzero"/></g><g fill="#a8a8a8" fill-opacity="1"><g transform="translate(71.32031, 84.750012)"><g><path d="M 4.109375 -5.1875 C 3.472656 -5.1875 2.957031 -4.984375 2.5625 -4.578125 L 2.5625 -1.265625 C 2.5625 -1.015625 2.597656 -0.859375 2.671875 -0.796875 C 2.804688 -0.691406 3.066406 -0.640625 3.453125 -0.640625 L 3.453125 0 L 0.46875 0 L 0.46875 -0.640625 C 0.800781 -0.640625 1.007812 -0.671875 1.09375 -0.734375 C 1.1875 -0.804688 1.242188 -0.878906 1.265625 -0.953125 C 1.285156 -1.035156 1.296875 -1.140625 1.296875 -1.265625 L 1.296875 -4.453125 C 1.296875 -4.734375 1.269531 -4.914062 1.21875 -5 C 1.164062 -5.09375 1.03125 -5.140625 0.8125 -5.140625 L 0.453125 -5.140625 L 0.453125 -5.78125 C 0.828125 -5.78125 1.117188 -5.804688 1.328125 -5.859375 C 1.535156 -5.921875 1.679688 -5.960938 1.765625 -5.984375 C 1.859375 -6.015625 1.953125 -6.03125 2.046875 -6.03125 C 2.253906 -6.03125 2.390625 -5.96875 2.453125 -5.84375 C 2.523438 -5.726562 2.5625 -5.539062 2.5625 -5.28125 C 2.976562 -5.625 3.460938 -5.859375 4.015625 -5.984375 C 4.191406 -6.023438 4.367188 -6.046875 4.546875 -6.046875 C 5.816406 -6.046875 6.453125 -5.210938 6.453125 -3.546875 L 6.453125 -1.265625 C 6.453125 -1.015625 6.488281 -0.847656 6.5625 -0.765625 C 6.632812 -0.679688 6.835938 -0.640625 7.171875 -0.640625 L 7.171875 0 L 4.390625 0 L 4.390625 -0.640625 C 4.742188 -0.640625 4.957031 -0.675781 5.03125 -0.75 C 5.101562 -0.820312 5.144531 -0.894531 5.15625 -0.96875 C 5.175781 -1.050781 5.1875 -1.148438 5.1875 -1.265625 L 5.1875 -3.46875 C 5.1875 -4.007812 5.132812 -4.378906 5.03125 -4.578125 C 4.832031 -4.984375 4.523438 -5.1875 4.109375 -5.1875 Z M 4.109375 -5.1875 "/></g></g><g transform="translate(78.826169, 84.750012)"><g><path d="M 0.53125 -3 C 0.53125 -3.46875 0.601562 -3.898438 0.75 -4.296875 C 0.894531 -4.691406 1.097656 -5.019531 1.359375 -5.28125 C 1.878906 -5.800781 2.566406 -6.0625 3.421875 -6.0625 C 4.285156 -6.0625 4.976562 -5.800781 5.5 -5.28125 C 6.03125 -4.757812 6.296875 -4.023438 6.296875 -3.078125 C 6.296875 -2.128906 6.050781 -1.359375 5.5625 -0.765625 C 5.070312 -0.171875 4.359375 0.125 3.421875 0.125 C 2.472656 0.125 1.753906 -0.160156 1.265625 -0.734375 C 0.773438 -1.304688 0.53125 -2.0625 0.53125 -3 Z M 3.421875 -0.59375 C 3.867188 -0.59375 4.234375 -0.796875 4.515625 -1.203125 C 4.804688 -1.617188 4.953125 -2.203125 4.953125 -2.953125 C 4.953125 -4.160156 4.644531 -4.914062 4.03125 -5.21875 C 3.84375 -5.3125 3.640625 -5.359375 3.421875 -5.359375 C 2.691406 -5.359375 2.21875 -4.921875 2 -4.046875 C 1.925781 -3.742188 1.890625 -3.390625 1.890625 -2.984375 C 1.890625 -2.210938 2.03125 -1.617188 2.3125 -1.203125 C 2.59375 -0.796875 2.960938 -0.59375 3.421875 -0.59375 Z M 3.421875 -0.59375 "/></g></g><g transform="translate(85.652341, 84.750012)"><g><path d="M 5.015625 -0.921875 C 4.554688 -0.222656 3.925781 0.125 3.125 0.125 C 2.320312 0.125 1.6875 -0.140625 1.21875 -0.671875 C 0.75 -1.203125 0.515625 -1.910156 0.515625 -2.796875 C 0.515625 -3.890625 0.753906 -4.707031 1.234375 -5.25 C 1.710938 -5.789062 2.375 -6.0625 3.21875 -6.0625 C 3.851562 -6.0625 4.398438 -5.84375 4.859375 -5.40625 L 4.859375 -7.5625 C 4.859375 -7.84375 4.828125 -8.023438 4.765625 -8.109375 C 4.710938 -8.203125 4.578125 -8.25 4.359375 -8.25 L 3.9375 -8.25 L 3.9375 -8.890625 C 4.320312 -8.890625 4.625 -8.914062 4.84375 -8.96875 C 5.0625 -9.03125 5.21875 -9.070312 5.3125 -9.09375 C 5.40625 -9.125 5.503906 -9.140625 5.609375 -9.140625 C 5.816406 -9.140625 5.953125 -9.078125 6.015625 -8.953125 C 6.085938 -8.835938 6.125 -8.648438 6.125 -8.390625 L 6.125 -1.5625 C 6.125 -1.175781 6.140625 -0.941406 6.171875 -0.859375 C 6.234375 -0.679688 6.390625 -0.59375 6.640625 -0.59375 C 6.773438 -0.59375 6.890625 -0.613281 6.984375 -0.65625 L 6.984375 -0.09375 C 6.796875 0.0507812 6.539062 0.125 6.21875 0.125 C 5.570312 0.125 5.171875 -0.222656 5.015625 -0.921875 Z M 2.65625 -0.78125 C 2.84375 -0.65625 3.070312 -0.59375 3.34375 -0.59375 C 3.851562 -0.59375 4.234375 -0.804688 4.484375 -1.234375 C 4.742188 -1.660156 4.875 -2.257812 4.875 -3.03125 C 4.875 -4.15625 4.578125 -4.878906 3.984375 -5.203125 C 3.796875 -5.304688 3.585938 -5.359375 3.359375 -5.359375 C 2.890625 -5.359375 2.523438 -5.144531 2.265625 -4.71875 C 2.003906 -4.289062 1.875 -3.726562 1.875 -3.03125 C 1.875 -1.894531 2.132812 -1.144531 2.65625 -0.78125 Z M 2.65625 -0.78125 "/></g></g><g transform="translate(92.789059, 84.750012)"><g><path d="M 6 -2.703125 L 1.921875 -2.703125 C 1.921875 -2.023438 2.082031 -1.503906 2.40625 -1.140625 C 2.726562 -0.773438 3.125 -0.59375 3.59375 -0.59375 C 4.21875 -0.59375 4.664062 -0.851562 4.9375 -1.375 L 5.8125 -1.375 C 5.71875 -0.957031 5.457031 -0.601562 5.03125 -0.3125 C 4.613281 -0.0195312 4.046875 0.125 3.328125 0.125 C 2.609375 0.125 1.988281 -0.0976562 1.46875 -0.546875 C 0.84375 -1.085938 0.53125 -1.84375 0.53125 -2.8125 C 0.53125 -3.78125 0.773438 -4.5625 1.265625 -5.15625 C 1.765625 -5.757812 2.484375 -6.0625 3.421875 -6.0625 C 4.640625 -6.0625 5.429688 -5.566406 5.796875 -4.578125 C 5.929688 -4.179688 6 -3.804688 6 -3.453125 C 6 -3.109375 6 -2.859375 6 -2.703125 Z M 4.640625 -3.578125 C 4.640625 -4.773438 4.234375 -5.375 3.421875 -5.375 C 2.960938 -5.375 2.601562 -5.195312 2.34375 -4.84375 C 2.09375 -4.488281 1.957031 -3.992188 1.9375 -3.359375 L 4.640625 -3.359375 C 4.640625 -3.429688 4.640625 -3.503906 4.640625 -3.578125 Z M 4.640625 -3.578125 "/></g></g><g transform="translate(99.328121, 84.750012)"><g><path d="M 2.0625 -7.15625 C 1.8125 -7.15625 1.597656 -7.238281 1.421875 -7.40625 C 1.242188 -7.582031 1.15625 -7.796875 1.15625 -8.046875 C 1.15625 -8.296875 1.242188 -8.503906 1.421875 -8.671875 C 1.597656 -8.847656 1.8125 -8.9375 2.0625 -8.9375 C 2.3125 -8.9375 2.523438 -8.847656 2.703125 -8.671875 C 2.890625 -8.503906 2.984375 -8.296875 2.984375 -8.046875 C 2.984375 -7.796875 2.894531 -7.582031 2.71875 -7.40625 C 2.539062 -7.238281 2.320312 -7.15625 2.0625 -7.15625 Z M 0.65625 1.21875 C 0.757812 1.320312 0.828125 1.414062 0.859375 1.5 C 0.898438 1.59375 0.921875 1.707031 0.921875 1.84375 C 0.921875 1.988281 0.847656 2.128906 0.703125 2.265625 C 0.804688 2.304688 0.890625 2.320312 0.953125 2.3125 C 1.441406 2.28125 1.6875 1.898438 1.6875 1.171875 C 1.6875 0.941406 1.648438 0.601562 1.578125 0.15625 C 1.515625 -0.289062 1.484375 -0.664062 1.484375 -0.96875 L 1.484375 -4.484375 C 1.484375 -4.765625 1.457031 -4.945312 1.40625 -5.03125 C 1.351562 -5.113281 1.222656 -5.15625 1.015625 -5.15625 L 0.46875 -5.15625 L 0.46875 -5.8125 C 0.851562 -5.8125 1.164062 -5.835938 1.40625 -5.890625 C 1.65625 -5.953125 1.832031 -5.992188 1.9375 -6.015625 C 2.039062 -6.035156 2.144531 -6.046875 2.25 -6.046875 C 2.445312 -6.046875 2.578125 -5.988281 2.640625 -5.875 C 2.710938 -5.757812 2.75 -5.566406 2.75 -5.296875 L 2.75 -0.0625 C 2.75 1.488281 2.394531 2.445312 1.6875 2.8125 C 1.457031 2.925781 1.210938 2.984375 0.953125 2.984375 C 0.492188 2.984375 0.125 2.875 -0.15625 2.65625 C -0.445312 2.445312 -0.59375 2.207031 -0.59375 1.9375 C -0.59375 1.675781 -0.535156 1.488281 -0.421875 1.375 C -0.234375 1.175781 -0.0351562 1.078125 0.171875 1.078125 C 0.390625 1.078125 0.550781 1.125 0.65625 1.21875 Z M 0.65625 1.21875 "/></g></g><g transform="translate(102.972652, 84.750012)"><g><path d="M 3.734375 -5.15625 C 3.535156 -5.363281 3.207031 -5.46875 2.75 -5.46875 C 2.300781 -5.46875 2 -5.300781 1.84375 -4.96875 C 1.800781 -4.875 1.78125 -4.765625 1.78125 -4.640625 C 1.78125 -4.523438 1.828125 -4.410156 1.921875 -4.296875 C 2.015625 -4.191406 2.132812 -4.085938 2.28125 -3.984375 C 2.425781 -3.890625 2.59375 -3.796875 2.78125 -3.703125 C 2.96875 -3.609375 3.160156 -3.503906 3.359375 -3.390625 C 3.554688 -3.285156 3.765625 -3.171875 3.984375 -3.046875 C 4.804688 -2.597656 5.21875 -2.101562 5.21875 -1.5625 C 5.21875 -1.019531 5.003906 -0.601562 4.578125 -0.3125 C 4.160156 -0.0195312 3.601562 0.125 2.90625 0.125 C 2.207031 0.125 1.628906 0 1.171875 -0.25 C 0.722656 -0.507812 0.5 -0.832031 0.5 -1.21875 C 0.5 -1.4375 0.566406 -1.617188 0.703125 -1.765625 C 0.847656 -1.921875 1.03125 -2 1.25 -2 C 1.476562 -2 1.660156 -1.925781 1.796875 -1.78125 C 1.941406 -1.644531 2.015625 -1.476562 2.015625 -1.28125 C 2.015625 -1.09375 1.953125 -0.929688 1.828125 -0.796875 C 2.140625 -0.617188 2.523438 -0.53125 2.984375 -0.53125 C 3.453125 -0.53125 3.78125 -0.640625 3.96875 -0.859375 C 4.039062 -0.941406 4.078125 -1.050781 4.078125 -1.1875 C 4.078125 -1.507812 3.71875 -1.847656 3 -2.203125 C 2.5 -2.453125 2.125 -2.644531 1.875 -2.78125 C 1.070312 -3.238281 0.671875 -3.785156 0.671875 -4.421875 C 0.671875 -4.910156 0.875 -5.300781 1.28125 -5.59375 C 1.695312 -5.894531 2.21875 -6.046875 2.84375 -6.046875 C 3.476562 -6.046875 4.007812 -5.925781 4.4375 -5.6875 C 4.875 -5.457031 5.09375 -5.15625 5.09375 -4.78125 C 5.09375 -4.5625 5.039062 -4.398438 4.9375 -4.296875 C 4.75 -4.109375 4.570312 -4.015625 4.40625 -4.015625 C 4.132812 -4.015625 3.925781 -4.082031 3.78125 -4.21875 C 3.644531 -4.363281 3.578125 -4.523438 3.578125 -4.703125 C 3.578125 -4.878906 3.628906 -5.03125 3.734375 -5.15625 Z M 3.734375 -5.15625 "/></g></g></g></svg>