<svg xmlns="http://www.w3.org/2000/svg" xmlns:xlink="http://www.w3.org/1999/xlink" width="240" zoomAndPan="magnify" viewBox="0 0 180 89.999999" height="120" preserveAspectRatio="xMidYMid meet" version="1.0"><defs><g/><clipPath id="a33b0a5522"><path d="M 59.675781 5 L 120.425781 5 L 120.425781 73 L 59.675781 73 Z M 59.675781 5 " clip-rule="nonzero"/></clipPath></defs><rect x="-18" width="216" fill="#ffffff" y="-9" height="107.999999" fill-opacity="1"/><g clip-path="url(#a33b0a5522)"><path fill="#a8a8a8" d="M 119.652344 6.222656 C 119.113281 5.625 118.34375 5.28125 117.535156 5.28125 L 62.5625 5.28125 C 61.753906 5.28125 60.984375 5.625 60.445312 6.222656 C 59.90625 6.820312 59.652344 7.617188 59.738281 8.414062 L 65.992188 64.332031 C 66.117188 65.46875 66.925781 66.421875 68.03125 66.734375 L 89.265625 72.761719 C 89.519531 72.835938 89.785156 72.871094 90.046875 72.871094 C 90.308594 72.871094 90.570312 72.835938 90.828125 72.761719 L 112.0625 66.734375 C 113.167969 66.421875 113.972656 65.46875 114.101562 64.332031 L 120.355469 8.414062 C 120.445312 7.617188 120.191406 6.820312 119.652344 6.222656 Z M 106.027344 26.242188 L 80.679688 26.242188 L 81.28125 33.414062 L 105.417969 33.414062 L 103.605469 54.597656 L 90.058594 58.878906 L 89.925781 58.835938 L 76.523438 54.59375 L 75.792969 45.960938 L 82.355469 45.960938 L 82.644531 49.3125 L 90.128906 50.953125 L 97.484375 49.3125 L 98.265625 40.246094 L 75.296875 40.246094 L 73.523438 19.386719 L 106.617188 19.386719 Z M 106.027344 26.242188 " fill-opacity="1" fill-rule="nonzero"/></g><g fill="#a8a8a8" fill-opacity="1"><g transform="translate(72.7207, 84.749998)"><g><path d="M 4.109375 -5.1875 C 3.472656 -5.1875 2.957031 -4.984375 2.5625 -4.578125 L 2.5625 -1.265625 C 2.5625 -1.015625 2.597656 -0.859375 2.671875 -0.796875 C 2.804688 -0.691406 3.066406 -0.640625 3.453125 -0.640625 L 3.453125 0 L 0.46875 0 L 0.46875 -0.640625 C 0.800781 -0.640625 1.007812 -0.671875 1.09375 -0.734375 C 1.1875 -0.804688 1.242188 -0.878906 1.265625 -0.953125 C 1.285156 -1.035156 1.296875 -1.140625 1.296875 -1.265625 L 1.296875 -7.625 C 1.296875 -7.90625 1.269531 -8.085938 1.21875 -8.171875 C 1.164062 -8.253906 1.03125 -8.296875 0.8125 -8.296875 L 0.453125 -8.296875 L 0.453125 -8.9375 C 0.828125 -8.9375 1.117188 -8.960938 1.328125 -9.015625 C 1.535156 -9.078125 1.679688 -9.117188 1.765625 -9.140625 C 1.859375 -9.171875 1.953125 -9.1875 2.046875 -9.1875 C 2.253906 -9.1875 2.390625 -9.125 2.453125 -9 C 2.523438 -8.882812 2.5625 -8.695312 2.5625 -8.4375 L 2.5625 -5.28125 C 2.957031 -5.625 3.441406 -5.863281 4.015625 -6 C 4.191406 -6.039062 4.367188 -6.0625 4.546875 -6.0625 C 5.816406 -6.0625 6.453125 -5.222656 6.453125 -3.546875 L 6.453125 -1.265625 C 6.453125 -1.015625 6.488281 -0.847656 6.5625 -0.765625 C 6.632812 -0.679688 6.835938 -0.640625 7.171875 -0.640625 L 7.171875 0 L 4.390625 0 L 4.390625 -0.640625 C 4.742188 -0.640625 4.957031 -0.675781 5.03125 -0.75 C 5.101562 -0.820312 5.144531 -0.894531 5.15625 -0.96875 C 5.175781 -1.050781 5.1875 -1.148438 5.1875 -1.265625 L 5.1875 -3.46875 C 5.1875 -4.007812 5.132812 -4.378906 5.03125 -4.578125 C 4.832031 -4.984375 4.523438 -5.1875 4.109375 -5.1875 Z M 4.109375 -5.1875 "/></g></g><g transform="translate(80.226559, 84.749998)"><g><path d="M 2.921875 0.125 C 1.691406 0.125 1.078125 -0.5625 1.078125 -1.9375 L 1.078125 -4.859375 C 1.078125 -5.015625 1.054688 -5.113281 1.015625 -5.15625 C 0.984375 -5.207031 0.90625 -5.234375 0.78125 -5.234375 L 0.3125 -5.234375 L 0.3125 -5.9375 L 0.515625 -5.9375 C 0.816406 -5.9375 1.035156 -6.03125 1.171875 -6.21875 C 1.316406 -6.40625 1.394531 -6.71875 1.40625 -7.15625 L 1.40625 -7.671875 L 2.34375 -7.671875 L 2.34375 -5.9375 L 4.140625 -5.9375 L 4.140625 -5.234375 L 2.34375 -5.234375 L 2.34375 -1.953125 C 2.34375 -1.222656 2.507812 -0.789062 2.84375 -0.65625 C 2.9375 -0.613281 3.03125 -0.59375 3.125 -0.59375 C 3.539062 -0.59375 3.8125 -0.929688 3.9375 -1.609375 L 4.609375 -1.609375 C 4.566406 -0.804688 4.234375 -0.273438 3.609375 -0.015625 C 3.410156 0.078125 3.179688 0.125 2.921875 0.125 Z M 2.921875 0.125 "/></g></g><g transform="translate(85.130856, 84.749998)"><g><path d="M 8.234375 -6.046875 C 9.390625 -6.046875 9.96875 -5.210938 9.96875 -3.546875 L 9.96875 -1.265625 C 9.96875 -1.015625 10.003906 -0.847656 10.078125 -0.765625 C 10.148438 -0.679688 10.351562 -0.640625 10.6875 -0.640625 L 10.6875 0 L 7.90625 0 L 7.90625 -0.640625 C 8.257812 -0.640625 8.472656 -0.675781 8.546875 -0.75 C 8.617188 -0.820312 8.660156 -0.894531 8.671875 -0.96875 C 8.691406 -1.050781 8.703125 -1.148438 8.703125 -1.265625 L 8.703125 -3.46875 C 8.703125 -4.007812 8.65625 -4.378906 8.5625 -4.578125 C 8.476562 -4.785156 8.367188 -4.9375 8.234375 -5.03125 C 8.097656 -5.132812 7.941406 -5.1875 7.765625 -5.1875 C 7.453125 -5.1875 7.15625 -5.125 6.875 -5 C 6.59375 -4.875 6.363281 -4.707031 6.1875 -4.5 C 6.25 -4.21875 6.28125 -3.898438 6.28125 -3.546875 L 6.28125 -1.265625 C 6.28125 -1.015625 6.316406 -0.847656 6.390625 -0.765625 C 6.460938 -0.679688 6.664062 -0.640625 7 -0.640625 L 7 0 L 4.21875 0 L 4.21875 -0.640625 C 4.582031 -0.640625 4.796875 -0.675781 4.859375 -0.75 C 4.929688 -0.820312 4.972656 -0.894531 4.984375 -0.96875 C 5.003906 -1.050781 5.015625 -1.148438 5.015625 -1.265625 L 5.015625 -3.46875 C 5.015625 -4.007812 4.96875 -4.378906 4.875 -4.578125 C 4.789062 -4.785156 4.679688 -4.9375 4.546875 -5.03125 C 4.410156 -5.132812 4.253906 -5.1875 4.078125 -5.1875 C 3.785156 -5.1875 3.5 -5.128906 3.21875 -5.015625 C 2.945312 -4.898438 2.726562 -4.75 2.5625 -4.5625 L 2.5625 -1.265625 C 2.5625 -1.015625 2.597656 -0.859375 2.671875 -0.796875 C 2.816406 -0.691406 3.070312 -0.640625 3.4375 -0.640625 L 3.4375 0 L 0.46875 0 L 0.46875 -0.640625 C 0.800781 -0.640625 1.007812 -0.671875 1.09375 -0.734375 C 1.1875 -0.804688 1.242188 -0.878906 1.265625 -0.953125 C 1.285156 -1.035156 1.296875 -1.140625 1.296875 -1.265625 L 1.296875 -4.453125 C 1.296875 -4.734375 1.269531 -4.914062 1.21875 -5 C 1.164062 -5.09375 1.03125 -5.140625 0.8125 -5.140625 L 0.453125 -5.140625 L 0.453125 -5.78125 C 0.828125 -5.78125 1.117188 -5.804688 1.328125 -5.859375 C 1.535156 -5.921875 1.6875 -5.960938 1.78125 -5.984375 C 1.875 -6.015625 1.972656 -6.03125 2.078125 -6.03125 C 2.273438 -6.03125 2.40625 -5.96875 2.46875 -5.84375 C 2.53125 -5.726562 2.5625 -5.539062 2.5625 -5.28125 L 2.5625 -5.265625 C 2.957031 -5.609375 3.441406 -5.847656 4.015625 -5.984375 C 4.203125 -6.023438 4.378906 -6.046875 4.546875 -6.046875 C 5.253906 -6.046875 5.742188 -5.734375 6.015625 -5.109375 C 6.453125 -5.515625 6.976562 -5.800781 7.59375 -5.96875 C 7.8125 -6.019531 8.023438 -6.046875 8.234375 -6.046875 Z M 8.234375 -6.046875 "/></g></g><g transform="translate(96.15234, 84.749998)"><g><path d="M 0.40625 -0.640625 C 0.75 -0.640625 0.984375 -0.6875 1.109375 -0.78125 C 1.234375 -0.875 1.296875 -1.035156 1.296875 -1.265625 L 1.296875 -7.625 C 1.296875 -7.90625 1.269531 -8.085938 1.21875 -8.171875 C 1.175781 -8.253906 1.046875 -8.296875 0.828125 -8.296875 L 0.359375 -8.296875 L 0.359375 -8.9375 C 0.742188 -8.9375 1.046875 -8.960938 1.265625 -9.015625 C 1.492188 -9.078125 1.65625 -9.117188 1.75 -9.140625 C 1.851562 -9.171875 1.957031 -9.1875 2.0625 -9.1875 C 2.257812 -9.1875 2.390625 -9.128906 2.453125 -9.015625 C 2.523438 -8.898438 2.5625 -8.707031 2.5625 -8.4375 L 2.5625 -1.265625 C 2.5625 -1.023438 2.613281 -0.859375 2.71875 -0.765625 C 2.820312 -0.679688 3.066406 -0.640625 3.453125 -0.640625 L 3.453125 0 L 0.40625 0 Z M 0.40625 -0.640625 "/></g></g><g transform="translate(100.019527, 84.749998)"><g><path d="M 1.984375 -4 L 1.015625 -4.03125 L 1.484375 -8.796875 L 6.5625 -8.796875 C 6.5625 -8.742188 6.5625 -8.664062 6.5625 -8.5625 C 6.5625 -8.457031 6.53125 -8.351562 6.46875 -8.25 C 6.351562 -8.039062 6.1875 -7.882812 5.96875 -7.78125 C 5.75 -7.675781 5.441406 -7.625 5.046875 -7.625 L 2.25 -7.625 L 1.9375 -4.953125 C 2.28125 -5.335938 2.738281 -5.597656 3.3125 -5.734375 C 3.5 -5.773438 3.691406 -5.796875 3.890625 -5.796875 C 4.765625 -5.796875 5.429688 -5.519531 5.890625 -4.96875 C 6.347656 -4.425781 6.578125 -3.753906 6.578125 -2.953125 C 6.578125 -1.984375 6.269531 -1.226562 5.65625 -0.6875 C 5.050781 -0.144531 4.335938 0.125 3.515625 0.125 C 2.703125 0.125 2.039062 -0.0664062 1.53125 -0.453125 C 1.019531 -0.835938 0.765625 -1.25 0.765625 -1.6875 C 0.765625 -2.132812 0.929688 -2.441406 1.265625 -2.609375 C 1.367188 -2.648438 1.476562 -2.671875 1.59375 -2.671875 C 1.832031 -2.671875 2.023438 -2.59375 2.171875 -2.4375 C 2.328125 -2.28125 2.40625 -2.078125 2.40625 -1.828125 C 2.40625 -1.578125 2.285156 -1.375 2.046875 -1.21875 C 2.265625 -0.78125 2.695312 -0.5625 3.34375 -0.5625 C 3.820312 -0.5625 4.234375 -0.753906 4.578125 -1.140625 C 4.921875 -1.535156 5.09375 -2.0625 5.09375 -2.71875 C 5.09375 -3.375 4.953125 -3.894531 4.671875 -4.28125 C 4.398438 -4.664062 3.976562 -4.859375 3.40625 -4.859375 C 2.84375 -4.859375 2.367188 -4.570312 1.984375 -4 Z M 1.984375 -4 "/></g></g></g></svg>