<svg xmlns="http://www.w3.org/2000/svg" xmlns:xlink="http://www.w3.org/1999/xlink" width="240" zoomAndPan="magnify" viewBox="0 0 180 89.999999" height="120" preserveAspectRatio="xMidYMid meet" version="1.0"><defs><g/><clipPath id="3e0e191d86"><path d="M 58.765625 4.152344 L 121.015625 4.152344 L 121.015625 73.902344 L 58.765625 73.902344 Z M 58.765625 4.152344 " clip-rule="nonzero"/></clipPath></defs><rect x="-18" width="216" fill="#ffffff" y="-9" height="107.999999" fill-opacity="1"/><g clip-path="url(#3e0e191d86)"><path fill="#a8a8a8" d="M 121.007812 4.152344 L 58.769531 4.152344 L 64.261719 66.558594 L 89.890625 73.902344 L 115.519531 66.558594 Z M 121.007812 4.152344 " fill-opacity="1" fill-rule="nonzero"/></g><path fill="#a8a8a8" d="M 89.890625 9.65625 L 89.890625 68.210938 L 110.390625 62.335938 L 114.96875 9.65625 Z M 89.890625 9.65625 " fill-opacity="1" fill-rule="nonzero"/><path fill="#ffffff" d="M 106.546875 18.835938 L 89.890625 18.835938 L 89.890625 26.175781 L 98.859375 26.175781 L 98.308594 33.519531 L 89.890625 33.519531 L 89.890625 40.863281 L 97.945312 40.863281 L 97.394531 49.121094 L 89.890625 51.691406 L 89.890625 59.402344 L 104.351562 54.628906 L 105.632812 33.519531 Z M 106.546875 18.835938 " fill-opacity="1" fill-rule="nonzero"/><path fill="#ffffff" d="M 89.890625 18.835938 L 89.890625 26.175781 L 73.597656 26.175781 L 73.050781 18.835938 Z M 81.46875 33.519531 L 81.835938 40.863281 L 89.890625 40.863281 L 89.890625 33.519531 Z M 82.203125 44.53125 L 74.878906 44.53125 L 75.429688 54.628906 L 89.890625 59.402344 L 89.890625 51.691406 L 82.382812 49.121094 Z M 82.203125 44.53125 " fill-opacity="1" fill-rule="nonzero"/><g fill="#a8a8a8" fill-opacity="1"><g transform="translate(81.205074, 84.750026)"><g><path d="M 4.484375 -4.96875 C 4.265625 -5.25 3.953125 -5.390625 3.546875 -5.390625 C 2.773438 -5.390625 2.273438 -4.953125 2.046875 -4.078125 C 1.972656 -3.773438 1.9375 -3.410156 1.9375 -2.984375 C 1.9375 -2.191406 2.085938 -1.59375 2.390625 -1.1875 C 2.691406 -0.789062 3.070312 -0.59375 3.53125 -0.59375 C 3.863281 -0.59375 4.144531 -0.6875 4.375 -0.875 C 4.613281 -1.070312 4.78125 -1.351562 4.875 -1.71875 L 5.671875 -1.71875 C 5.671875 -1.238281 5.457031 -0.8125 5.03125 -0.4375 C 4.601562 -0.0625 4.023438 0.125 3.296875 0.125 C 2.566406 0.125 1.945312 -0.101562 1.4375 -0.5625 C 0.832031 -1.101562 0.53125 -1.894531 0.53125 -2.9375 C 0.53125 -3.78125 0.78125 -4.507812 1.28125 -5.125 C 1.78125 -5.75 2.519531 -6.0625 3.5 -6.0625 C 4.132812 -6.0625 4.660156 -5.90625 5.078125 -5.59375 C 5.503906 -5.289062 5.71875 -4.894531 5.71875 -4.40625 C 5.71875 -4.164062 5.640625 -3.960938 5.484375 -3.796875 C 5.335938 -3.640625 5.144531 -3.5625 4.90625 -3.5625 C 4.5625 -3.5625 4.328125 -3.71875 4.203125 -4.03125 C 4.160156 -4.125 4.140625 -4.226562 4.140625 -4.34375 C 4.140625 -4.613281 4.253906 -4.820312 4.484375 -4.96875 Z M 4.484375 -4.96875 "/></g></g><g transform="translate(87.374996, 84.750026)"><g><path d="M 3.734375 -5.15625 C 3.535156 -5.363281 3.207031 -5.46875 2.75 -5.46875 C 2.300781 -5.46875 2 -5.300781 1.84375 -4.96875 C 1.800781 -4.875 1.78125 -4.765625 1.78125 -4.640625 C 1.78125 -4.523438 1.828125 -4.410156 1.921875 -4.296875 C 2.015625 -4.191406 2.132812 -4.085938 2.28125 -3.984375 C 2.425781 -3.890625 2.59375 -3.796875 2.78125 -3.703125 C 2.96875 -3.609375 3.160156 -3.503906 3.359375 -3.390625 C 3.554688 -3.285156 3.765625 -3.171875 3.984375 -3.046875 C 4.804688 -2.597656 5.21875 -2.101562 5.21875 -1.5625 C 5.21875 -1.019531 5.003906 -0.601562 4.578125 -0.3125 C 4.160156 -0.0195312 3.601562 0.125 2.90625 0.125 C 2.207031 0.125 1.628906 0 1.171875 -0.25 C 0.722656 -0.507812 0.5 -0.832031 0.5 -1.21875 C 0.5 -1.4375 0.566406 -1.617188 0.703125 -1.765625 C 0.847656 -1.921875 1.03125 -2 1.25 -2 C 1.476562 -2 1.660156 -1.925781 1.796875 -1.78125 C 1.941406 -1.644531 2.015625 -1.476562 2.015625 -1.28125 C 2.015625 -1.09375 1.953125 -0.929688 1.828125 -0.796875 C 2.140625 -0.617188 2.523438 -0.53125 2.984375 -0.53125 C 3.453125 -0.53125 3.78125 -0.640625 3.96875 -0.859375 C 4.039062 -0.941406 4.078125 -1.050781 4.078125 -1.1875 C 4.078125 -1.507812 3.71875 -1.847656 3 -2.203125 C 2.5 -2.453125 2.125 -2.644531 1.875 -2.78125 C 1.070312 -3.238281 0.671875 -3.785156 0.671875 -4.421875 C 0.671875 -4.910156 0.875 -5.300781 1.28125 -5.59375 C 1.695312 -5.894531 2.21875 -6.046875 2.84375 -6.046875 C 3.476562 -6.046875 4.007812 -5.925781 4.4375 -5.6875 C 4.875 -5.457031 5.09375 -5.15625 5.09375 -4.78125 C 5.09375 -4.5625 5.039062 -4.398438 4.9375 -4.296875 C 4.75 -4.109375 4.570312 -4.015625 4.40625 -4.015625 C 4.132812 -4.015625 3.925781 -4.082031 3.78125 -4.21875 C 3.644531 -4.363281 3.578125 -4.523438 3.578125 -4.703125 C 3.578125 -4.878906 3.628906 -5.03125 3.734375 -5.15625 Z M 3.734375 -5.15625 "/></g></g><g transform="translate(93.082027, 84.750026)"><g><path d="M 3.734375 -5.15625 C 3.535156 -5.363281 3.207031 -5.46875 2.75 -5.46875 C 2.300781 -5.46875 2 -5.300781 1.84375 -4.96875 C 1.800781 -4.875 1.78125 -4.765625 1.78125 -4.640625 C 1.78125 -4.523438 1.828125 -4.410156 1.921875 -4.296875 C 2.015625 -4.191406 2.132812 -4.085938 2.28125 -3.984375 C 2.425781 -3.890625 2.59375 -3.796875 2.78125 -3.703125 C 2.96875 -3.609375 3.160156 -3.503906 3.359375 -3.390625 C 3.554688 -3.285156 3.765625 -3.171875 3.984375 -3.046875 C 4.804688 -2.597656 5.21875 -2.101562 5.21875 -1.5625 C 5.21875 -1.019531 5.003906 -0.601562 4.578125 -0.3125 C 4.160156 -0.0195312 3.601562 0.125 2.90625 0.125 C 2.207031 0.125 1.628906 0 1.171875 -0.25 C 0.722656 -0.507812 0.5 -0.832031 0.5 -1.21875 C 0.5 -1.4375 0.566406 -1.617188 0.703125 -1.765625 C 0.847656 -1.921875 1.03125 -2 1.25 -2 C 1.476562 -2 1.660156 -1.925781 1.796875 -1.78125 C 1.941406 -1.644531 2.015625 -1.476562 2.015625 -1.28125 C 2.015625 -1.09375 1.953125 -0.929688 1.828125 -0.796875 C 2.140625 -0.617188 2.523438 -0.53125 2.984375 -0.53125 C 3.453125 -0.53125 3.78125 -0.640625 3.96875 -0.859375 C 4.039062 -0.941406 4.078125 -1.050781 4.078125 -1.1875 C 4.078125 -1.507812 3.71875 -1.847656 3 -2.203125 C 2.5 -2.453125 2.125 -2.644531 1.875 -2.78125 C 1.070312 -3.238281 0.671875 -3.785156 0.671875 -4.421875 C 0.671875 -4.910156 0.875 -5.300781 1.28125 -5.59375 C 1.695312 -5.894531 2.21875 -6.046875 2.84375 -6.046875 C 3.476562 -6.046875 4.007812 -5.925781 4.4375 -5.6875 C 4.875 -5.457031 5.09375 -5.15625 5.09375 -4.78125 C 5.09375 -4.5625 5.039062 -4.398438 4.9375 -4.296875 C 4.75 -4.109375 4.570312 -4.015625 4.40625 -4.015625 C 4.132812 -4.015625 3.925781 -4.082031 3.78125 -4.21875 C 3.644531 -4.363281 3.578125 -4.523438 3.578125 -4.703125 C 3.578125 -4.878906 3.628906 -5.03125 3.734375 -5.15625 Z M 3.734375 -5.15625 "/></g></g></g></svg>