<svg xmlns="http://www.w3.org/2000/svg" xmlns:xlink="http://www.w3.org/1999/xlink" width="240" zoomAndPan="magnify" viewBox="0 0 180 89.999999" height="120" preserveAspectRatio="xMidYMid meet" version="1.0"><defs><g/><clipPath id="faec9e90bc"><path d="M 101 62 L 130.28125 62 L 130.28125 76.355469 L 101 76.355469 Z M 101 62 " clip-rule="nonzero"/></clipPath><clipPath id="7a4d5aaba5"><path d="M 59 4.410156 L 128 4.410156 L 128 50 L 59 50 Z M 59 4.410156 " clip-rule="nonzero"/></clipPath><clipPath id="bfdb0010ac"><path d="M 49.390625 49 L 119 49 L 119 72 L 49.390625 72 Z M 49.390625 49 " clip-rule="nonzero"/></clipPath></defs><rect x="-18" width="216" fill="#ffffff" y="-9" height="107.999999" fill-opacity="1"/><rect x="-18" width="216" fill="#ffffff" y="-9" height="107.999999" fill-opacity="1"/><g clip-path="url(#faec9e90bc)"><path fill="#a8a8a8" d="M 123.089844 62.113281 L 120.664062 64.832031 L 122.996094 66.988281 L 107.964844 66.988281 C 107.03125 67.738281 106.089844 68.484375 105.066406 69.046875 C 103.761719 69.886719 102.457031 70.542969 101.144531 71.105469 L 123.5625 71.105469 L 120.851562 73.824219 L 123.089844 76.355469 L 130.28125 69.046875 L 123.089844 62.113281 " fill-opacity="1" fill-rule="nonzero"/></g><path fill="#a8a8a8" d="M 61.917969 38.324219 L 61.078125 36.167969 C 58.648438 46.753906 62.386719 57.804688 70.605469 64.644531 L 78.078125 64.644531 C 67.800781 59.585938 62.476562 48.0625 65.089844 37.109375 L 61.917969 38.324219 " fill-opacity="1" fill-rule="nonzero"/><g clip-path="url(#7a4d5aaba5)"><path fill="#a8a8a8" d="M 72.097656 32.707031 L 70.605469 29.425781 L 67.425781 30.828125 C 73.410156 19.875 86.949219 15.097656 98.625 20.15625 C 109.734375 25.023438 115.335938 37.109375 112.539062 48.53125 L 115.429688 47.410156 L 116.363281 49.941406 C 117.292969 46.566406 117.488281 43.101562 117.117188 39.632812 C 123.460938 37.296875 127.851562 31.203125 127.851562 24.277344 C 127.851562 15.285156 120.570312 7.976562 111.601562 7.976562 C 109.640625 7.976562 107.769531 8.351562 105.90625 9.003906 L 107.023438 5.726562 L 103.847656 4.417969 L 100.582031 14.15625 L 110.109375 17.34375 L 111.039062 13.875 L 108.058594 12.941406 L 107.964844 12.753906 C 109.175781 12.378906 110.386719 12.191406 111.601562 12.191406 C 118.234375 12.191406 123.648438 17.621094 123.648438 24.277344 C 123.648438 29.144531 120.75 33.453125 116.363281 35.324219 C 114.21875 27.175781 108.523438 19.96875 100.203125 16.3125 C 86.484375 10.414062 70.511719 16.125 63.597656 29.332031 L 62.292969 25.867188 L 59.019531 26.894531 L 62.757812 36.453125 L 72.097656 32.707031 " fill-opacity="1" fill-rule="nonzero"/></g><g clip-path="url(#bfdb0010ac)"><path fill="#a8a8a8" d="M 103.761719 66.988281 C 107.964844 64.457031 111.414062 60.804688 113.9375 56.214844 L 115.242188 59.585938 L 118.515625 58.558594 L 114.777344 49.007812 L 105.4375 52.652344 L 106.929688 55.933594 L 110.292969 54.53125 C 110.292969 54.53125 110.292969 54.625 110.203125 54.625 C 110.109375 54.8125 109.921875 55 109.828125 55.277344 C 109.828125 55.277344 109.828125 55.371094 109.734375 55.371094 C 109.640625 55.558594 109.457031 55.746094 109.363281 56.027344 L 109.269531 56.121094 C 109.175781 56.308594 108.988281 56.496094 108.894531 56.679688 L 108.894531 56.78125 C 108.796875 56.96875 108.617188 57.15625 108.523438 57.34375 C 108.523438 57.34375 108.523438 57.4375 108.421875 57.4375 C 108.234375 57.625 108.148438 57.8125 107.964844 57.996094 L 107.863281 58.089844 C 107.683594 58.277344 107.582031 58.464844 107.398438 58.652344 L 107.304688 58.746094 C 107.117188 58.933594 107.023438 59.121094 106.835938 59.308594 L 106.746094 59.402344 C 106.558594 59.585938 106.371094 59.773438 106.277344 59.960938 L 106.183594 60.0625 C 106 60.25 105.8125 60.4375 105.625 60.53125 L 105.53125 60.625 C 105.347656 60.808594 105.160156 60.902344 104.972656 61.089844 C 104.777344 61.277344 104.601562 61.371094 104.40625 61.558594 L 104.3125 61.652344 C 104.132812 61.839844 103.941406 61.933594 103.753906 62.121094 C 103.753906 62.121094 103.660156 62.121094 103.660156 62.214844 C 103.472656 62.398438 103.289062 62.492188 103.101562 62.679688 C 102.914062 62.867188 102.726562 62.960938 102.449219 63.054688 C 102.449219 63.054688 102.355469 63.054688 102.355469 63.148438 C 102.167969 63.242188 101.980469 63.429688 101.796875 63.523438 C 101.796875 63.523438 101.695312 63.523438 101.695312 63.617188 C 101.230469 63.902344 100.855469 64.089844 100.390625 64.371094 L 100.296875 64.371094 C 100.109375 64.464844 99.832031 64.558594 99.644531 64.746094 L 99.550781 64.746094 C 99.085938 64.933594 98.617188 65.210938 98.152344 65.398438 L 98.058594 65.398438 C 97.867188 65.492188 97.59375 65.585938 97.40625 65.679688 L 97.304688 65.679688 C 96.839844 65.867188 96.375 66.054688 95.90625 66.148438 C 95.628906 66.242188 95.441406 66.242188 95.160156 66.335938 L 95.066406 66.335938 C 94.789062 66.429688 94.601562 66.429688 94.316406 66.523438 C 94.042969 66.613281 93.847656 66.613281 93.578125 66.707031 C 93.289062 66.800781 93.109375 66.800781 92.824219 66.800781 L 92.730469 66.800781 C 92.449219 66.800781 92.265625 66.894531 91.984375 66.894531 C 91.703125 66.894531 91.425781 66.988281 91.238281 66.988281 L 49.496094 66.988281 L 49.496094 71.109375 L 91.617188 71.109375 C 94.421875 70.925781 97.3125 70.167969 99.929688 69.046875 C 101.328125 68.484375 102.640625 67.738281 103.855469 66.988281 L 103.761719 66.988281 " fill-opacity="1" fill-rule="nonzero"/></g><g fill="#a8a8a8" fill-opacity="1"><g transform="translate(72.433591, 84.749998)"><g><path d="M 3.734375 -5.15625 C 3.535156 -5.363281 3.207031 -5.46875 2.75 -5.46875 C 2.300781 -5.46875 2 -5.300781 1.84375 -4.96875 C 1.800781 -4.875 1.78125 -4.765625 1.78125 -4.640625 C 1.78125 -4.523438 1.828125 -4.410156 1.921875 -4.296875 C 2.015625 -4.191406 2.132812 -4.085938 2.28125 -3.984375 C 2.425781 -3.890625 2.59375 -3.796875 2.78125 -3.703125 C 2.96875 -3.609375 3.160156 -3.503906 3.359375 -3.390625 C 3.554688 -3.285156 3.765625 -3.171875 3.984375 -3.046875 C 4.804688 -2.597656 5.21875 -2.101562 5.21875 -1.5625 C 5.21875 -1.019531 5.003906 -0.601562 4.578125 -0.3125 C 4.160156 -0.0195312 3.601562 0.125 2.90625 0.125 C 2.207031 0.125 1.628906 0 1.171875 -0.25 C 0.722656 -0.507812 0.5 -0.832031 0.5 -1.21875 C 0.5 -1.4375 0.566406 -1.617188 0.703125 -1.765625 C 0.847656 -1.921875 1.03125 -2 1.25 -2 C 1.476562 -2 1.660156 -1.925781 1.796875 -1.78125 C 1.941406 -1.644531 2.015625 -1.476562 2.015625 -1.28125 C 2.015625 -1.09375 1.953125 -0.929688 1.828125 -0.796875 C 2.140625 -0.617188 2.523438 -0.53125 2.984375 -0.53125 C 3.453125 -0.53125 3.78125 -0.640625 3.96875 -0.859375 C 4.039062 -0.941406 4.078125 -1.050781 4.078125 -1.1875 C 4.078125 -1.507812 3.71875 -1.847656 3 -2.203125 C 2.5 -2.453125 2.125 -2.644531 1.875 -2.78125 C 1.070312 -3.238281 0.671875 -3.785156 0.671875 -4.421875 C 0.671875 -4.910156 0.875 -5.300781 1.28125 -5.59375 C 1.695312 -5.894531 2.21875 -6.046875 2.84375 -6.046875 C 3.476562 -6.046875 4.007812 -5.925781 4.4375 -5.6875 C 4.875 -5.457031 5.09375 -5.15625 5.09375 -4.78125 C 5.09375 -4.5625 5.039062 -4.398438 4.9375 -4.296875 C 4.75 -4.109375 4.570312 -4.015625 4.40625 -4.015625 C 4.132812 -4.015625 3.925781 -4.082031 3.78125 -4.21875 C 3.644531 -4.363281 3.578125 -4.523438 3.578125 -4.703125 C 3.578125 -4.878906 3.628906 -5.03125 3.734375 -5.15625 Z M 3.734375 -5.15625 "/></g></g><g transform="translate(78.140622, 84.749998)"><g><path d="M 4.484375 -4.96875 C 4.265625 -5.25 3.953125 -5.390625 3.546875 -5.390625 C 2.773438 -5.390625 2.273438 -4.953125 2.046875 -4.078125 C 1.972656 -3.773438 1.9375 -3.410156 1.9375 -2.984375 C 1.9375 -2.191406 2.085938 -1.59375 2.390625 -1.1875 C 2.691406 -0.789062 3.070312 -0.59375 3.53125 -0.59375 C 3.863281 -0.59375 4.144531 -0.6875 4.375 -0.875 C 4.613281 -1.070312 4.78125 -1.351562 4.875 -1.71875 L 5.671875 -1.71875 C 5.671875 -1.238281 5.457031 -0.8125 5.03125 -0.4375 C 4.601562 -0.0625 4.023438 0.125 3.296875 0.125 C 2.566406 0.125 1.945312 -0.101562 1.4375 -0.5625 C 0.832031 -1.101562 0.53125 -1.894531 0.53125 -2.9375 C 0.53125 -3.78125 0.78125 -4.507812 1.28125 -5.125 C 1.78125 -5.75 2.519531 -6.0625 3.5 -6.0625 C 4.132812 -6.0625 4.660156 -5.90625 5.078125 -5.59375 C 5.503906 -5.289062 5.71875 -4.894531 5.71875 -4.40625 C 5.71875 -4.164062 5.640625 -3.960938 5.484375 -3.796875 C 5.335938 -3.640625 5.144531 -3.5625 4.90625 -3.5625 C 4.5625 -3.5625 4.328125 -3.71875 4.203125 -4.03125 C 4.160156 -4.125 4.140625 -4.226562 4.140625 -4.34375 C 4.140625 -4.613281 4.253906 -4.820312 4.484375 -4.96875 Z M 4.484375 -4.96875 "/></g></g><g transform="translate(84.310543, 84.749998)"><g><path d="M 0.484375 -0.640625 C 0.816406 -0.640625 1.023438 -0.671875 1.109375 -0.734375 C 1.203125 -0.804688 1.253906 -0.878906 1.265625 -0.953125 C 1.285156 -1.035156 1.296875 -1.140625 1.296875 -1.265625 L 1.296875 -4.484375 C 1.296875 -4.765625 1.269531 -4.945312 1.21875 -5.03125 C 1.175781 -5.125 1.046875 -5.171875 0.828125 -5.171875 L 0.46875 -5.171875 L 0.46875 -5.8125 C 0.84375 -5.8125 1.128906 -5.835938 1.328125 -5.890625 C 1.535156 -5.953125 1.679688 -5.992188 1.765625 -6.015625 C 1.859375 -6.046875 1.957031 -6.0625 2.0625 -6.0625 C 2.257812 -6.0625 2.390625 -6 2.453125 -5.875 C 2.523438 -5.757812 2.5625 -5.570312 2.5625 -5.3125 L 2.5625 -5.1875 C 2.894531 -5.582031 3.273438 -5.847656 3.703125 -5.984375 C 3.859375 -6.035156 4.007812 -6.0625 4.15625 -6.0625 C 4.445312 -6.0625 4.675781 -5.976562 4.84375 -5.8125 C 5.007812 -5.644531 5.09375 -5.4375 5.09375 -5.1875 C 5.09375 -4.9375 5.015625 -4.734375 4.859375 -4.578125 C 4.703125 -4.421875 4.507812 -4.34375 4.28125 -4.34375 C 4.0625 -4.34375 3.878906 -4.421875 3.734375 -4.578125 C 3.597656 -4.734375 3.535156 -4.929688 3.546875 -5.171875 C 3.390625 -5.148438 3.21875 -5.078125 3.03125 -4.953125 C 2.851562 -4.828125 2.695312 -4.660156 2.5625 -4.453125 L 2.5625 -1.3125 C 2.5625 -1.164062 2.570312 -1.046875 2.59375 -0.953125 C 2.625 -0.867188 2.691406 -0.796875 2.796875 -0.734375 C 2.910156 -0.671875 3.25 -0.640625 3.8125 -0.640625 L 3.8125 0 L 0.484375 0 Z M 0.484375 -0.640625 "/></g></g><g transform="translate(89.566402, 84.749998)"><g><path d="M 4.828125 -0.96875 C 4.335938 -0.238281 3.679688 0.125 2.859375 0.125 C 2.273438 0.125 1.816406 -0.0546875 1.484375 -0.421875 C 1.160156 -0.785156 1 -1.332031 1 -2.0625 L 1 -4.484375 C 1 -4.765625 0.972656 -4.945312 0.921875 -5.03125 C 0.867188 -5.125 0.738281 -5.171875 0.53125 -5.171875 L 0.375 -5.171875 L 0.375 -5.8125 C 0.738281 -5.8125 1 -5.835938 1.15625 -5.890625 C 1.320312 -5.953125 1.4375 -5.992188 1.5 -6.015625 C 1.570312 -6.046875 1.660156 -6.0625 1.765625 -6.0625 C 1.960938 -6.0625 2.09375 -6 2.15625 -5.875 C 2.226562 -5.75 2.265625 -5.550781 2.265625 -5.28125 L 2.265625 -2.015625 C 2.265625 -1.585938 2.304688 -1.296875 2.390625 -1.140625 C 2.566406 -0.835938 2.863281 -0.6875 3.28125 -0.6875 C 3.5625 -0.6875 3.835938 -0.796875 4.109375 -1.015625 C 4.390625 -1.242188 4.582031 -1.503906 4.6875 -1.796875 L 4.6875 -4.484375 C 4.6875 -4.773438 4.660156 -4.960938 4.609375 -5.046875 C 4.566406 -5.128906 4.4375 -5.171875 4.21875 -5.171875 L 3.890625 -5.171875 L 3.890625 -5.8125 C 4.253906 -5.8125 4.535156 -5.835938 4.734375 -5.890625 C 4.941406 -5.953125 5.085938 -5.992188 5.171875 -6.015625 C 5.253906 -6.046875 5.347656 -6.0625 5.453125 -6.0625 C 5.648438 -6.0625 5.78125 -6 5.84375 -5.875 C 5.914062 -5.757812 5.953125 -5.570312 5.953125 -5.3125 L 5.953125 -1.5625 C 5.953125 -1.175781 5.972656 -0.941406 6.015625 -0.859375 C 6.078125 -0.679688 6.234375 -0.59375 6.484375 -0.59375 C 6.617188 -0.59375 6.734375 -0.613281 6.828125 -0.65625 L 6.828125 -0.09375 C 6.640625 0.0507812 6.378906 0.125 6.046875 0.125 C 5.367188 0.125 4.960938 -0.238281 4.828125 -0.96875 Z M 4.828125 -0.96875 "/></g></g><g transform="translate(96.539058, 84.749998)"><g><path d="M 8.234375 -6.046875 C 9.390625 -6.046875 9.96875 -5.210938 9.96875 -3.546875 L 9.96875 -1.265625 C 9.96875 -1.015625 10.003906 -0.847656 10.078125 -0.765625 C 10.148438 -0.679688 10.351562 -0.640625 10.6875 -0.640625 L 10.6875 0 L 7.90625 0 L 7.90625 -0.640625 C 8.257812 -0.640625 8.472656 -0.675781 8.546875 -0.75 C 8.617188 -0.820312 8.660156 -0.894531 8.671875 -0.96875 C 8.691406 -1.050781 8.703125 -1.148438 8.703125 -1.265625 L 8.703125 -3.46875 C 8.703125 -4.007812 8.65625 -4.378906 8.5625 -4.578125 C 8.476562 -4.785156 8.367188 -4.9375 8.234375 -5.03125 C 8.097656 -5.132812 7.941406 -5.1875 7.765625 -5.1875 C 7.453125 -5.1875 7.15625 -5.125 6.875 -5 C 6.59375 -4.875 6.363281 -4.707031 6.1875 -4.5 C 6.25 -4.21875 6.28125 -3.898438 6.28125 -3.546875 L 6.28125 -1.265625 C 6.28125 -1.015625 6.316406 -0.847656 6.390625 -0.765625 C 6.460938 -0.679688 6.664062 -0.640625 7 -0.640625 L 7 0 L 4.21875 0 L 4.21875 -0.640625 C 4.582031 -0.640625 4.796875 -0.675781 4.859375 -0.75 C 4.929688 -0.820312 4.972656 -0.894531 4.984375 -0.96875 C 5.003906 -1.050781 5.015625 -1.148438 5.015625 -1.265625 L 5.015625 -3.46875 C 5.015625 -4.007812 4.96875 -4.378906 4.875 -4.578125 C 4.789062 -4.785156 4.679688 -4.9375 4.546875 -5.03125 C 4.410156 -5.132812 4.253906 -5.1875 4.078125 -5.1875 C 3.785156 -5.1875 3.5 -5.128906 3.21875 -5.015625 C 2.945312 -4.898438 2.726562 -4.75 2.5625 -4.5625 L 2.5625 -1.265625 C 2.5625 -1.015625 2.597656 -0.859375 2.671875 -0.796875 C 2.816406 -0.691406 3.070312 -0.640625 3.4375 -0.640625 L 3.4375 0 L 0.46875 0 L 0.46875 -0.640625 C 0.800781 -0.640625 1.007812 -0.671875 1.09375 -0.734375 C 1.1875 -0.804688 1.242188 -0.878906 1.265625 -0.953125 C 1.285156 -1.035156 1.296875 -1.140625 1.296875 -1.265625 L 1.296875 -4.453125 C 1.296875 -4.734375 1.269531 -4.914062 1.21875 -5 C 1.164062 -5.09375 1.03125 -5.140625 0.8125 -5.140625 L 0.453125 -5.140625 L 0.453125 -5.78125 C 0.828125 -5.78125 1.117188 -5.804688 1.328125 -5.859375 C 1.535156 -5.921875 1.6875 -5.960938 1.78125 -5.984375 C 1.875 -6.015625 1.972656 -6.03125 2.078125 -6.03125 C 2.273438 -6.03125 2.40625 -5.96875 2.46875 -5.84375 C 2.53125 -5.726562 2.5625 -5.539062 2.5625 -5.28125 L 2.5625 -5.265625 C 2.957031 -5.609375 3.441406 -5.847656 4.015625 -5.984375 C 4.203125 -6.023438 4.378906 -6.046875 4.546875 -6.046875 C 5.253906 -6.046875 5.742188 -5.734375 6.015625 -5.109375 C 6.453125 -5.515625 6.976562 -5.800781 7.59375 -5.96875 C 7.8125 -6.019531 8.023438 -6.046875 8.234375 -6.046875 Z M 8.234375 -6.046875 "/></g></g></g></svg>