<svg xmlns="http://www.w3.org/2000/svg" xmlns:xlink="http://www.w3.org/1999/xlink" width="240" zoomAndPan="magnify" viewBox="0 0 180 89.999999" height="120" preserveAspectRatio="xMidYMid meet" version="1.0"><defs><g/><clipPath id="fb0b25c9d9"><path d="M 52.449219 2 L 127.449219 2 L 127.449219 73.949219 L 52.449219 73.949219 Z M 52.449219 2 " clip-rule="nonzero"/></clipPath></defs><rect x="-18" width="216" fill="#ffffff" y="-9" height="107.999999" fill-opacity="1"/><path fill="#a8a8a8" d="M 121.933594 21.144531 C 122.433594 21.277344 122.761719 21.789062 122.582031 22.292969 C 122.277344 23.148438 120.84375 22.925781 120.324219 22.441406 C 120.023438 22.164062 120.136719 21.785156 120.394531 21.59375 C 120.441406 21.523438 120.507812 21.453125 120.601562 21.398438 C 120.992188 21.1875 121.488281 21.03125 121.933594 21.144531 " fill-opacity="1" fill-rule="nonzero"/><path fill="#a8a8a8" d="M 86.160156 58.628906 C 86.210938 58.628906 86.28125 58.839844 86.253906 59.238281 C 86.222656 59.636719 86.058594 60.207031 85.683594 60.808594 C 85.3125 61.410156 84.738281 62.03125 84.035156 62.613281 C 83.332031 63.183594 82.457031 63.773438 81.363281 64.042969 C 81.164062 64.085938 80.960938 64.121094 80.761719 64.136719 C 80.660156 64.148438 80.558594 64.152344 80.457031 64.152344 C 80.355469 64.148438 80.289062 64.179688 80.046875 64.113281 C 79.929688 64.074219 79.808594 63.980469 79.738281 63.863281 C 79.6875 63.769531 79.667969 63.6875 79.664062 63.617188 C 79.253906 63.863281 78.800781 63.980469 78.347656 63.957031 C 77.980469 63.9375 77.554688 63.699219 77.429688 63.300781 C 77.402344 63.199219 77.386719 63.097656 77.394531 62.988281 C 77.394531 62.96875 77.402344 62.957031 77.402344 62.941406 C 76.59375 63.355469 76.039062 63.386719 76.027344 63.316406 C 75.988281 63.203125 76.640625 62.96875 77.492188 62.285156 L 77.609375 62.191406 L 77.777344 62.277344 C 77.90625 62.339844 77.996094 62.511719 78.003906 62.617188 C 78.019531 62.726562 78.003906 62.804688 77.996094 62.871094 C 77.988281 62.9375 77.984375 62.996094 77.984375 63.027344 C 77.984375 63.046875 77.992188 63.070312 78.003906 63.089844 C 78.054688 63.195312 78.183594 63.28125 78.386719 63.28125 C 78.820312 63.273438 79.378906 63.019531 79.695312 62.578125 L 79.839844 62.386719 L 80.097656 62.4375 C 80.226562 62.46875 80.371094 62.578125 80.429688 62.6875 C 80.496094 62.800781 80.515625 62.902344 80.527344 62.980469 C 80.539062 63.121094 80.511719 63.25 80.484375 63.351562 C 80.550781 63.351562 80.617188 63.34375 80.6875 63.335938 C 80.851562 63.324219 81.015625 63.292969 81.183594 63.253906 C 82.085938 63.039062 82.890625 62.539062 83.578125 62.027344 C 84.265625 61.511719 84.820312 60.980469 85.214844 60.480469 C 86.019531 59.488281 86.03125 58.628906 86.160156 58.628906 " fill-opacity="1" fill-rule="nonzero"/><path fill="#a8a8a8" d="M 76.699219 61.4375 C 76.785156 61.488281 76.675781 61.929688 76.183594 62.449219 C 75.933594 62.707031 75.589844 62.976562 75.15625 63.175781 C 74.941406 63.277344 74.699219 63.359375 74.441406 63.417969 C 74.1875 63.472656 73.90625 63.53125 73.550781 63.457031 C 73.164062 63.375 72.773438 63.070312 72.726562 62.582031 C 72.726562 62.527344 72.726562 62.476562 72.730469 62.433594 C 72.332031 62.570312 71.960938 62.597656 71.691406 62.574219 C 71.277344 62.535156 71.070312 62.40625 71.078125 62.332031 C 71.089844 62.160156 72.011719 62.230469 72.902344 61.550781 L 73.121094 61.386719 L 73.359375 61.582031 C 73.472656 61.675781 73.550781 61.84375 73.558594 61.96875 C 73.574219 62.089844 73.558594 62.179688 73.550781 62.257812 C 73.519531 62.398438 73.507812 62.511719 73.511719 62.515625 C 73.511719 62.535156 73.589844 62.644531 73.726562 62.667969 C 73.859375 62.703125 74.074219 62.683594 74.285156 62.644531 C 74.492188 62.609375 74.6875 62.554688 74.871094 62.488281 C 75.242188 62.359375 75.558594 62.179688 75.816406 62.011719 C 76.320312 61.679688 76.597656 61.375 76.699219 61.4375 " fill-opacity="1" fill-rule="nonzero"/><path fill="#a8a8a8" d="M 84.980469 40.378906 C 85.019531 40.488281 84.519531 40.746094 83.824219 41.269531 C 83.480469 41.527344 83.089844 41.863281 82.707031 42.285156 C 82.515625 42.496094 82.339844 42.714844 82.28125 42.90625 C 82.25 42.992188 82.257812 43.097656 82.269531 43.109375 C 82.285156 43.152344 82.359375 43.210938 82.394531 43.222656 C 82.398438 43.222656 82.398438 43.226562 82.398438 43.226562 C 82.421875 43.210938 82.4375 43.191406 82.460938 43.1875 L 84.960938 41.851562 L 82.921875 43.839844 C 82.890625 43.863281 82.863281 43.878906 82.835938 43.894531 C 82.808594 43.914062 82.789062 43.929688 82.761719 43.941406 C 82.753906 43.949219 82.746094 43.953125 82.734375 43.964844 C 82.324219 44.207031 82.011719 44.605469 81.8125 45.011719 C 81.59375 45.453125 81.480469 45.910156 81.40625 46.300781 C 81.261719 47.085938 81.183594 47.601562 81.078125 47.601562 C 80.976562 47.597656 80.855469 47.101562 80.863281 46.242188 C 80.871094 45.816406 80.921875 45.285156 81.148438 44.714844 C 81.28125 44.394531 81.480469 44.054688 81.757812 43.75 C 81.664062 43.65625 81.589844 43.554688 81.535156 43.421875 C 81.417969 43.125 81.460938 42.875 81.53125 42.660156 C 81.6875 42.230469 81.960938 41.976562 82.175781 41.761719 C 82.628906 41.328125 83.105469 41.007812 83.519531 40.785156 C 84.359375 40.347656 84.949219 40.285156 84.980469 40.378906 " fill-opacity="1" fill-rule="nonzero"/><path fill="#a8a8a8" d="M 104.175781 48.082031 C 104.273438 48.070312 104.40625 48.648438 104.128906 49.5 C 103.992188 49.925781 103.785156 50.382812 103.484375 50.890625 C 103.1875 51.382812 102.714844 51.960938 101.964844 52.214844 C 101.761719 52.28125 101.550781 52.320312 101.320312 52.308594 C 101.066406 52.300781 100.847656 52.226562 100.636719 52.089844 C 100.574219 52.050781 100.511719 51.992188 100.453125 51.929688 C 100.203125 52.28125 99.917969 52.535156 99.675781 52.695312 C 99.261719 52.980469 98.964844 53.023438 98.929688 52.960938 C 98.894531 52.886719 99.105469 52.703125 99.386719 52.371094 C 99.671875 52.035156 100.035156 51.523438 100.210938 50.84375 L 100.285156 50.5625 L 100.640625 50.597656 C 100.78125 50.605469 100.972656 50.789062 100.992188 50.914062 C 101.03125 51.035156 101.019531 51.109375 101.019531 51.171875 C 101.015625 51.226562 101.003906 51.277344 101 51.3125 L 100.996094 51.367188 C 100.996094 51.371094 100.996094 51.371094 100.996094 51.371094 C 101 51.371094 101.003906 51.390625 101.074219 51.433594 C 101.136719 51.476562 101.253906 51.511719 101.339844 51.511719 C 101.449219 51.511719 101.585938 51.484375 101.710938 51.445312 C 102.191406 51.289062 102.574219 50.898438 102.863281 50.476562 C 103.160156 50.054688 103.417969 49.625 103.605469 49.28125 C 103.976562 48.582031 104.054688 48.082031 104.175781 48.082031 " fill-opacity="1" fill-rule="nonzero"/><path fill="#a8a8a8" d="M 110.148438 14.535156 C 110.480469 14.824219 110.285156 15.382812 109.894531 15.492188 C 109.664062 15.5625 109.441406 15.574219 109.21875 15.566406 C 108.339844 16.503906 106.199219 15.644531 105.890625 14.34375 C 105.835938 14.351562 105.777344 14.34375 105.726562 14.34375 C 104.984375 14.359375 104.988281 13.210938 105.726562 13.199219 C 105.972656 13.191406 106.214844 13.199219 106.457031 13.203125 C 106.511719 13.210938 106.558594 13.222656 106.605469 13.230469 C 107.40625 12.882812 108.660156 13.300781 109.238281 14.007812 C 109.566406 14.136719 109.867188 14.296875 110.148438 14.535156 " fill-opacity="1" fill-rule="nonzero"/><path fill="#a8a8a8" d="M 87.507812 18.089844 C 87.566406 18.175781 87.175781 18.546875 86.488281 19.066406 C 86.148438 19.324219 85.726562 19.617188 85.261719 19.9375 C 85.035156 20.097656 84.804688 20.261719 84.597656 20.441406 C 84.546875 20.484375 84.492188 20.535156 84.445312 20.578125 C 84.429688 20.589844 84.425781 20.597656 84.417969 20.609375 C 84.464844 20.628906 84.582031 20.648438 84.734375 20.648438 L 85.660156 20.636719 L 85.015625 21.320312 C 83.371094 23.054688 81.683594 23.867188 81.59375 23.695312 C 81.488281 23.53125 82.632812 22.664062 83.96875 21.269531 C 83.9375 21.25 83.910156 21.242188 83.875 21.21875 C 83.761719 21.121094 83.667969 20.996094 83.613281 20.828125 C 83.558594 20.667969 83.582031 20.433594 83.660156 20.289062 C 83.742188 20.144531 83.828125 20.070312 83.890625 20.007812 C 83.953125 19.949219 84.019531 19.890625 84.085938 19.832031 C 84.347656 19.617188 84.617188 19.457031 84.867188 19.308594 C 85.359375 19.027344 85.800781 18.78125 86.183594 18.578125 C 86.945312 18.1875 87.449219 17.992188 87.507812 18.089844 " fill-opacity="1" fill-rule="nonzero"/><path fill="#a8a8a8" d="M 109.113281 17.726562 C 109.15625 17.816406 108.746094 18.160156 107.917969 18.308594 C 107.113281 18.460938 105.855469 18.34375 104.785156 17.558594 C 104.363281 17.253906 103.953125 16.835938 103.808594 16.269531 C 103.699219 15.828125 103.808594 15.363281 104.085938 15.046875 C 103.566406 14.292969 103.480469 13.699219 103.582031 13.667969 C 103.714844 13.609375 104.042969 14.207031 104.761719 14.886719 L 105.027344 15.136719 L 104.699219 15.378906 C 104.546875 15.492188 104.460938 15.800781 104.546875 16.066406 C 104.636719 16.355469 104.90625 16.652344 105.261719 16.90625 C 106.128906 17.546875 107.152344 17.738281 107.875 17.738281 C 108.605469 17.746094 109.066406 17.613281 109.113281 17.726562 " fill-opacity="1" fill-rule="nonzero"/><path fill="#a8a8a8" d="M 121.578125 24.269531 C 121.585938 24.378906 121.28125 24.5 120.816406 24.394531 C 120.589844 24.347656 120.335938 24.246094 120.082031 24.132812 C 119.832031 24.015625 119.53125 23.871094 119.242188 23.605469 C 118.949219 23.347656 118.753906 22.945312 118.722656 22.609375 C 118.683594 22.261719 118.742188 21.988281 118.808594 21.769531 C 118.945312 21.335938 119.121094 21.121094 119.222656 21.144531 C 119.339844 21.175781 119.355469 21.457031 119.371094 21.847656 C 119.378906 22.042969 119.394531 22.261719 119.453125 22.472656 C 119.515625 22.679688 119.609375 22.84375 119.792969 23.015625 C 119.972656 23.183594 120.210938 23.332031 120.441406 23.480469 C 120.660156 23.625 120.855469 23.753906 121.023438 23.863281 C 121.34375 24.070312 121.574219 24.15625 121.578125 24.269531 " fill-opacity="1" fill-rule="nonzero"/><path fill="#a8a8a8" d="M 60.582031 29.390625 C 60.652344 29.5 60.015625 29.941406 59.261719 30.867188 C 58.886719 31.332031 58.496094 31.925781 58.175781 32.640625 C 57.90625 33.269531 57.640625 34.019531 57.695312 34.730469 C 57.945312 34.671875 58.203125 34.6875 58.441406 34.78125 L 58.894531 34.964844 L 58.625 35.371094 C 56.875 37.964844 56.453125 40.398438 56.234375 40.351562 C 56.144531 40.335938 56.136719 39.710938 56.359375 38.707031 C 56.53125 37.925781 56.871094 36.910156 57.433594 35.84375 L 57.21875 36.054688 L 57.019531 35.441406 C 56.988281 35.34375 56.960938 35.242188 56.9375 35.132812 C 56.828125 34.585938 56.894531 34.054688 57.015625 33.589844 C 57.136719 33.121094 57.316406 32.707031 57.507812 32.316406 C 57.898438 31.546875 58.375 30.9375 58.839844 30.484375 C 59.769531 29.578125 60.539062 29.308594 60.582031 29.390625 " fill-opacity="1" fill-rule="nonzero"/><path fill="#a8a8a8" d="M 110.613281 36.960938 C 110.707031 36.945312 110.902344 37.671875 110.625 38.824219 C 110.480469 39.398438 110.210938 40.054688 109.761719 40.703125 C 109.3125 41.34375 108.679688 41.96875 107.878906 42.421875 C 107.679688 42.539062 107.460938 42.628906 107.253906 42.71875 C 107.152344 42.761719 107.027344 42.8125 106.875 42.835938 C 106.71875 42.863281 106.515625 42.863281 106.324219 42.757812 L 106.191406 42.6875 C 106.074219 42.820312 105.960938 42.953125 105.839844 43.066406 C 105.464844 43.433594 105.019531 43.675781 104.640625 43.769531 C 104.257812 43.875 103.933594 43.851562 103.734375 43.789062 C 103.53125 43.730469 103.441406 43.648438 103.453125 43.613281 C 103.476562 43.515625 103.894531 43.617188 104.484375 43.332031 C 104.78125 43.1875 105.089844 42.964844 105.382812 42.625 C 105.675781 42.285156 105.941406 41.839844 106.230469 41.328125 L 107.308594 39.476562 L 106.925781 41.605469 C 106.902344 41.734375 106.894531 41.871094 106.890625 42.003906 C 106.90625 41.992188 106.925781 41.988281 106.949219 41.976562 C 107.128906 41.898438 107.308594 41.816406 107.480469 41.71875 C 108.871094 40.933594 109.703125 39.632812 110.082031 38.652344 C 110.46875 37.65625 110.488281 36.960938 110.613281 36.960938 " fill-opacity="1" fill-rule="nonzero"/><path fill="#a8a8a8" d="M 96.472656 27.09375 C 96.535156 27.191406 96.136719 27.542969 95.570312 28.144531 C 95.015625 28.738281 94.28125 29.644531 93.761719 30.71875 C 93.699219 30.867188 93.648438 31.007812 93.636719 31.132812 C 93.628906 31.164062 93.628906 31.199219 93.628906 31.234375 C 93.765625 31.183594 93.902344 31.132812 94.035156 31.082031 L 95.039062 30.710938 L 94.488281 31.601562 C 93.710938 32.839844 93.78125 33.964844 93.597656 33.964844 C 93.527344 33.972656 93.410156 33.703125 93.386719 33.214844 C 93.371094 32.910156 93.40625 32.519531 93.527344 32.082031 C 93.433594 32.097656 93.3125 32.09375 93.199219 32.035156 C 93.054688 31.964844 92.976562 31.84375 92.9375 31.765625 C 92.722656 31.226562 92.867188 30.785156 93.023438 30.398438 C 93.628906 29.128906 94.492188 28.257812 95.195312 27.71875 C 95.894531 27.1875 96.417969 27.007812 96.472656 27.09375 " fill-opacity="1" fill-rule="nonzero"/><path fill="#a8a8a8" d="M 122.839844 19.71875 C 123.089844 20.054688 123.117188 20.320312 123.027344 20.378906 C 122.839844 20.484375 122.257812 19.871094 121.304688 19.679688 C 120.835938 19.574219 120.40625 19.578125 120.121094 19.636719 C 119.832031 19.691406 119.652344 19.8125 119.554688 19.753906 C 119.457031 19.710938 119.496094 19.386719 119.875 19.125 C 120.246094 18.855469 120.867188 18.753906 121.484375 18.894531 C 122.105469 19.03125 122.589844 19.386719 122.839844 19.71875 " fill-opacity="1" fill-rule="nonzero"/><path fill="#a8a8a8" d="M 111.664062 13.160156 C 111.828125 13.457031 111.859375 13.648438 111.808594 13.675781 C 111.691406 13.75 111.300781 13.117188 110.367188 12.671875 L 110.078125 12.53125 L 110.273438 12.214844 C 110.414062 11.980469 110.367188 11.558594 110.042969 11.253906 C 109.722656 10.9375 109.1875 10.660156 108.644531 10.5 C 108.015625 10.308594 107.386719 10.285156 106.824219 10.359375 C 106.265625 10.441406 105.773438 10.625 105.382812 10.828125 C 104.597656 11.242188 104.207031 11.675781 104.109375 11.597656 C 104.023438 11.546875 104.269531 10.953125 105.082031 10.34375 C 105.480469 10.050781 106.03125 9.765625 106.699219 9.625 C 107.355469 9.488281 108.121094 9.5 108.871094 9.722656 C 109.539062 9.9375 110.132812 10.242188 110.601562 10.742188 C 111 11.164062 111.140625 11.824219 110.921875 12.320312 C 111.289062 12.609375 111.53125 12.917969 111.664062 13.160156 " fill-opacity="1" fill-rule="nonzero"/><g clip-path="url(#fb0b25c9d9)"><path fill="#a8a8a8" d="M 70.546875 66.273438 C 70.417969 65.929688 70.285156 65.714844 69.988281 65.472656 C 69.980469 65.46875 69.980469 65.464844 69.96875 65.460938 C 69.5625 65.550781 69.164062 65.660156 68.757812 65.78125 C 69.125 65.9375 69.496094 66.074219 69.875 66.175781 C 70.066406 66.226562 70.351562 66.214844 70.546875 66.273438 Z M 74.226562 66.527344 C 74.242188 66.289062 74.265625 66.054688 74.238281 65.800781 C 74.234375 65.765625 74.234375 65.726562 74.234375 65.6875 C 73.589844 65.511719 72.9375 65.359375 72.269531 65.28125 C 72.058594 65.257812 71.847656 65.253906 71.644531 65.253906 C 71.789062 65.523438 71.914062 65.8125 71.980469 66.109375 L 71.984375 66.109375 C 72.558594 66.363281 73.183594 66.511719 73.8125 66.53125 C 73.949219 66.535156 74.089844 66.535156 74.226562 66.527344 Z M 87.796875 64.195312 C 87.832031 64.042969 87.8125 63.828125 87.769531 63.6875 C 87.695312 63.4375 87.5 63.171875 87.320312 62.921875 C 86.816406 63.359375 86.289062 63.785156 85.75 64.1875 C 85.894531 64.625 87.226562 64.066406 87.617188 64.191406 C 87.722656 64.160156 87.78125 64.167969 87.796875 64.195312 Z M 97 63.332031 C 97.324219 61.765625 97.335938 60.1875 97.195312 58.597656 C 96.808594 60.207031 96.359375 61.683594 97 63.332031 Z M 101.191406 9.695312 C 101.449219 9.425781 101.363281 9.746094 101.136719 9.3125 C 101 9.042969 100.625 8.765625 100.417969 8.546875 C 100.035156 8.140625 99.347656 7.128906 98.738281 6.996094 C 98.515625 6.941406 98.332031 6.953125 98.179688 6.992188 C 98.796875 7.617188 99.1875 8.328125 99.363281 8.871094 C 99.550781 9.453125 99.539062 9.84375 99.433594 9.871094 C 99.21875 9.933594 98.753906 8.675781 97.621094 7.5625 C 97.429688 8.152344 97.617188 9.03125 97.898438 9.453125 C 98.207031 9.929688 98.585938 10.335938 98.835938 10.851562 C 98.976562 11.164062 99.09375 11.96875 99.386719 12.382812 C 99.738281 11.761719 99.546875 10.824219 100.082031 10.25 C 100.382812 9.929688 100.9375 9.949219 101.191406 9.695312 Z M 100.640625 70.570312 C 100.984375 70.691406 101.332031 70.808594 101.679688 70.925781 C 101.578125 70.089844 101.199219 69.414062 100.542969 68.886719 C 99.929688 68.265625 99.183594 67.8125 98.5 67.277344 C 97.488281 66.484375 96.53125 65.679688 95.925781 64.523438 C 95.335938 63.398438 95.136719 62.042969 95.15625 60.789062 C 95.175781 59.753906 95.550781 58.914062 95.828125 58.019531 C 95.832031 57.957031 95.839844 57.894531 95.839844 57.820312 C 95.859375 57.359375 95.824219 56.804688 95.761719 56.1875 C 95.699219 56.253906 95.644531 56.320312 95.566406 56.386719 C 95.441406 56.488281 95.316406 56.570312 95.132812 56.648438 C 95.039062 56.6875 94.929688 56.722656 94.796875 56.722656 C 94.660156 56.722656 94.511719 56.683594 94.390625 56.605469 C 94.324219 56.566406 94.273438 56.515625 94.230469 56.464844 C 94.078125 56.625 93.917969 56.773438 93.726562 56.878906 C 93.507812 56.996094 93.277344 57.0625 93.023438 57.046875 C 92.953125 57.039062 92.878906 57.023438 92.789062 56.980469 C 92.714844 57.070312 92.636719 57.160156 92.542969 57.253906 C 92.289062 57.476562 91.929688 57.726562 91.441406 57.726562 C 91.007812 57.71875 90.625 57.484375 90.394531 57.125 C 90.304688 57.210938 90.203125 57.296875 90.082031 57.382812 C 89.914062 57.488281 89.714844 57.578125 89.480469 57.597656 C 89.460938 57.601562 89.445312 57.597656 89.425781 57.597656 C 89.753906 58.558594 90.285156 59.316406 90.65625 60.242188 C 91.863281 63.222656 90.628906 65.273438 89.808594 67.941406 C 89.816406 68.011719 89.828125 68.074219 89.816406 68.152344 C 89.753906 68.792969 89.859375 69.402344 90.070312 70 C 90.15625 69.75 90.265625 69.492188 90.414062 69.234375 C 90.742188 68.671875 91.074219 68.246094 91.289062 67.917969 C 91.507812 67.601562 91.640625 67.382812 91.757812 67.402344 C 91.863281 67.421875 91.925781 67.714844 91.8125 68.148438 C 91.742188 68.421875 91.605469 68.734375 91.433594 69.058594 C 91.488281 69.050781 91.546875 69.058594 91.605469 69.066406 C 91.824219 69.046875 92.050781 69.113281 92.214844 69.28125 C 92.324219 68.542969 92.5 68.058594 92.652344 68.058594 C 92.878906 68.0625 92.976562 69.109375 92.921875 70.3125 C 92.910156 70.894531 92.984375 71.34375 93.128906 71.667969 C 93.214844 71.882812 93.3125 72.027344 93.359375 72.136719 C 93.585938 72.328125 94.089844 72.339844 94.351562 72.253906 C 94.722656 72.144531 94.785156 71.824219 94.84375 71.484375 C 94.632812 71.3125 94.4375 71.082031 94.300781 70.792969 C 94.050781 70.28125 94.023438 69.789062 94.042969 69.457031 C 94.070312 69.113281 94.152344 68.910156 94.257812 68.894531 C 94.371094 68.878906 94.492188 69.070312 94.605469 69.367188 C 94.726562 69.671875 94.84375 70.066406 95.019531 70.4375 C 95.101562 70.597656 95.1875 70.738281 95.28125 70.867188 C 95.320312 70.851562 95.367188 70.84375 95.414062 70.835938 C 95.542969 70.78125 95.699219 70.765625 95.871094 70.8125 C 96.53125 70.988281 97.113281 71.292969 97.707031 71.613281 C 98.074219 71.808594 98.8125 72.238281 99.269531 72.160156 C 99.265625 72.066406 99.253906 71.964844 99.25 71.859375 C 99.230469 71.648438 99.203125 71.402344 99.128906 71.179688 C 99.050781 70.945312 98.921875 70.71875 98.738281 70.578125 C 98.597656 70.445312 98.285156 70.386719 97.949219 70.21875 C 97.632812 70.058594 97.398438 69.835938 97.238281 69.632812 C 96.929688 69.207031 96.925781 68.871094 97.019531 68.832031 C 97.125 68.777344 97.3125 69 97.644531 69.230469 C 97.808594 69.34375 98.011719 69.457031 98.246094 69.539062 C 98.363281 69.578125 98.492188 69.609375 98.667969 69.660156 C 98.835938 69.710938 99.058594 69.800781 99.242188 69.949219 C 99.589844 70.230469 99.757812 70.597656 99.835938 70.933594 C 99.957031 70.640625 100.25 70.4375 100.640625 70.570312 Z M 104.84375 67.890625 C 105.40625 68.007812 105.976562 68.019531 106.546875 67.917969 C 106.1875 67.03125 105.574219 66.480469 104.714844 66.273438 C 104.292969 66.054688 103.773438 65.972656 103.359375 65.726562 C 102.460938 65.179688 101.953125 64.449219 101.679688 63.429688 C 100.953125 60.734375 101.898438 57.269531 102.746094 54.449219 C 102.273438 54.792969 101.761719 55.109375 101.195312 55.382812 C 100.191406 55.863281 99.414062 56.585938 98.460938 57.039062 C 98.800781 59.699219 98.902344 62.320312 98.074219 64.898438 C 98.066406 64.933594 98.050781 64.960938 98.035156 64.992188 C 98.214844 65.1875 98.402344 65.371094 98.597656 65.542969 C 98.617188 65.339844 98.664062 65.160156 98.710938 65.027344 C 98.832031 64.726562 98.96875 64.570312 99.078125 64.585938 C 99.1875 64.609375 99.246094 64.8125 99.28125 65.105469 C 99.3125 65.394531 99.328125 65.777344 99.449219 66.074219 C 99.484375 66.164062 99.53125 66.25 99.589844 66.332031 C 100.472656 66.984375 101.394531 67.601562 102.089844 68.449219 C 102.222656 68.609375 102.367188 68.796875 102.511719 69.007812 C 102.535156 69.007812 102.5625 69.007812 102.585938 69.007812 C 102.867188 69.039062 103.953125 69.222656 103.746094 68.65625 C 103.699219 68.535156 103.707031 68.40625 103.738281 68.285156 C 103.632812 68.1875 103.515625 68.089844 103.371094 68.019531 C 103.136719 67.898438 102.820312 67.8125 102.4375 67.671875 C 102.046875 67.53125 101.671875 67.257812 101.441406 66.996094 C 101.195312 66.734375 101.03125 66.472656 100.898438 66.257812 C 100.765625 66.039062 100.6875 65.863281 100.636719 65.777344 C 100.589844 65.679688 100.527344 65.625 100.53125 65.566406 C 100.527344 65.515625 100.636719 65.453125 100.820312 65.515625 C 100.996094 65.582031 101.164062 65.738281 101.339844 65.898438 C 101.722656 66.234375 102.128906 66.707031 102.734375 66.917969 C 103.054688 67.042969 103.433594 67.164062 103.757812 67.382812 C 103.933594 67.503906 104.078125 67.652344 104.1875 67.792969 C 104.207031 67.789062 104.226562 67.78125 104.246094 67.777344 C 104.46875 67.714844 104.675781 67.765625 104.84375 67.890625 Z M 107.742188 5.472656 C 107.738281 5.128906 107.730469 4.75 107.5625 4.5 C 107.308594 4.109375 106.734375 4 106.40625 3.710938 C 106.394531 3.703125 106.390625 3.703125 106.382812 3.699219 C 106.378906 3.878906 106.238281 4.207031 106.199219 4.363281 C 106.113281 4.675781 105.992188 5.007812 105.9375 5.34375 C 106.542969 5.351562 107.148438 5.398438 107.742188 5.472656 Z M 118.570312 28.628906 C 119.003906 27.789062 118.921875 26.40625 118.832031 25.441406 C 118.722656 24.226562 118.992188 25.0625 118.359375 24.339844 C 117.996094 23.925781 117.574219 23.804688 117.253906 23.347656 C 116.777344 22.652344 116.574219 21.828125 116.664062 20.996094 C 116.804688 19.570312 117.371094 19.542969 116.738281 18.101562 C 116.285156 17.070312 115.796875 16.144531 115.648438 14.992188 C 115.464844 13.605469 115.597656 11.980469 116.667969 11.242188 C 114.800781 9.996094 113.113281 8.535156 110.90625 7.710938 C 107.796875 6.558594 104.535156 6.4375 101.441406 7.542969 C 102.027344 8.164062 103.125 8.972656 102.910156 9.972656 C 102.683594 11.058594 101.496094 10.703125 101.042969 11.449219 C 100.6875 12.027344 100.808594 12.65625 100.527344 13.222656 C 100.984375 13.230469 101.25 13.320312 101.257812 13.421875 C 101.269531 13.535156 100.980469 13.648438 100.574219 13.78125 C 100.484375 13.808594 100.390625 13.847656 100.304688 13.886719 C 100.210938 13.976562 100.097656 14.039062 99.949219 14.066406 C 99.734375 14.199219 99.523438 14.378906 99.3125 14.628906 C 99.105469 14.863281 98.898438 15.125 98.710938 15.347656 C 98.527344 15.570312 98.367188 15.769531 98.226562 15.941406 C 97.960938 16.277344 97.804688 16.511719 97.691406 16.484375 C 97.589844 16.460938 97.558594 16.136719 97.726562 15.667969 C 97.8125 15.4375 97.941406 15.179688 98.109375 14.914062 C 98.269531 14.652344 98.457031 14.375 98.710938 14.085938 C 98.777344 14.015625 98.84375 13.945312 98.921875 13.875 C 98.503906 13.648438 98.195312 13.246094 97.980469 12.753906 C 97.664062 12.042969 97.515625 11.378906 97.070312 10.726562 C 96.929688 10.523438 96.785156 10.324219 96.640625 10.125 C 94.640625 11.082031 92.746094 12.222656 91.039062 13.667969 C 91.023438 13.679688 91.003906 13.691406 90.988281 13.710938 C 90.875 13.875 90.757812 14.054688 90.648438 14.234375 C 90.203125 14.964844 89.917969 15.695312 89.726562 16.234375 C 89.621094 16.507812 89.558594 16.703125 89.535156 16.847656 C 89.5 16.992188 89.5 17.089844 89.453125 17.117188 C 89.40625 17.144531 89.300781 17.082031 89.222656 16.890625 C 89.144531 16.707031 89.128906 16.417969 89.167969 16.113281 C 89.191406 15.878906 89.246094 15.605469 89.324219 15.3125 C 88.640625 16.015625 87.960938 16.714844 87.175781 17.292969 C 84.683594 19.148438 81.183594 18.617188 78.253906 18.949219 C 70.648438 19.804688 63.417969 22.542969 58.863281 29.007812 C 54.375 35.378906 54.433594 43.300781 54.691406 50.777344 C 54.835938 54.855469 55.503906 58.839844 58.523438 61.832031 C 61.226562 64.503906 64.738281 65.535156 68.355469 64.386719 C 71.625 63.34375 73.890625 64.308594 77.109375 65.019531 C 81.488281 65.984375 84.671875 63.445312 87.722656 60.652344 C 87.851562 60.53125 87.996094 60.472656 88.140625 60.460938 C 88.4375 60.347656 88.730469 60.191406 88.96875 59.992188 C 88.988281 59.980469 89.003906 59.96875 89.023438 59.960938 C 88.535156 58.742188 87.914062 57.511719 87.617188 56.320312 C 87.304688 55.042969 86.265625 54.316406 85.941406 52.894531 C 85.804688 52.308594 85.726562 51.753906 85.710938 51.207031 C 85.644531 50.964844 85.59375 50.664062 85.59375 50.308594 C 85.585938 49.796875 85.683594 49.203125 85.824219 48.585938 C 85.917969 48.203125 86.019531 47.800781 86.136719 47.390625 C 86.003906 47.378906 85.871094 47.355469 85.703125 47.304688 C 85.5625 47.253906 85.394531 47.171875 85.253906 47.003906 C 85.109375 46.839844 85.050781 46.589844 85.050781 46.429688 C 85.074219 46.09375 85.144531 45.992188 85.191406 45.808594 C 85.425781 45.144531 85.800781 44.628906 86.171875 44.277344 C 86.9375 43.5625 87.59375 43.472656 87.648438 43.601562 C 87.722656 43.75 87.253906 44.089844 86.777344 44.792969 C 86.542969 45.144531 86.3125 45.59375 86.183594 46.113281 C 86.171875 46.160156 86.160156 46.21875 86.152344 46.273438 C 86.214844 46.277344 86.289062 46.277344 86.363281 46.273438 C 86.480469 46.265625 86.605469 46.242188 86.726562 46.203125 L 87.746094 45.859375 L 87.449219 46.894531 L 87.433594 46.941406 C 87.273438 47.488281 87.113281 48.003906 86.957031 48.492188 C 87.355469 48.605469 87.699219 49.058594 87.460938 49.554688 C 86.4375 51.683594 87.628906 52.644531 88.476562 54.382812 C 88.585938 54.601562 88.765625 54.707031 88.851562 54.980469 C 89.027344 55.566406 89.089844 56.171875 89.203125 56.773438 C 89.222656 56.789062 89.238281 56.804688 89.253906 56.820312 C 89.3125 56.851562 89.34375 56.855469 89.40625 56.84375 C 89.460938 56.835938 89.554688 56.796875 89.644531 56.730469 C 89.820312 56.617188 90.011719 56.332031 90.402344 56.097656 L 91.003906 55.730469 L 91.003906 56.453125 C 91.003906 56.507812 91.011719 56.566406 91.035156 56.617188 C 91.109375 56.796875 91.304688 56.9375 91.457031 56.9375 C 91.636719 56.953125 91.863281 56.84375 92.058594 56.683594 C 92.464844 56.351562 92.75 55.933594 92.933594 55.558594 C 93.292969 54.792969 93.28125 54.214844 93.40625 54.203125 C 93.496094 54.183594 93.738281 54.789062 93.464844 55.761719 C 93.40625 55.957031 93.320312 56.167969 93.207031 56.375 C 93.257812 56.351562 93.3125 56.320312 93.367188 56.28125 C 93.597656 56.117188 93.785156 55.816406 94 55.414062 L 94.609375 54.265625 L 94.734375 55.589844 C 94.746094 55.683594 94.765625 55.78125 94.78125 55.84375 C 94.796875 55.875 94.804688 55.898438 94.816406 55.914062 C 94.820312 55.90625 94.828125 55.90625 94.84375 55.902344 C 94.902344 55.878906 95 55.824219 95.074219 55.769531 C 95.234375 55.648438 95.371094 55.492188 95.496094 55.320312 C 95.550781 55.238281 95.605469 55.160156 95.652344 55.082031 C 95.609375 54.609375 95.582031 54.113281 95.605469 53.582031 C 95.617188 53.140625 95.699219 52.671875 95.808594 52.304688 C 95.90625 51.929688 96.003906 51.558594 96.09375 51.207031 C 96.246094 50.554688 96.308594 49.925781 96.355469 49.394531 C 96.445312 48.324219 96.519531 47.632812 96.683594 47.625 C 96.832031 47.625 97.039062 48.28125 97.152344 49.390625 C 97.207031 49.953125 97.226562 50.636719 97.113281 51.402344 C 97.050781 51.78125 96.976562 52.128906 96.894531 52.511719 C 96.800781 52.902344 96.746094 53.253906 96.734375 53.640625 C 96.695312 54.410156 96.765625 55.191406 96.78125 55.921875 C 96.785156 55.96875 96.78125 56.019531 96.785156 56.0625 C 96.808594 56.058594 96.828125 56.050781 96.851562 56.046875 C 98.109375 55.867188 99.039062 54.796875 100.171875 54.226562 C 102.21875 53.199219 103.457031 51.972656 104.863281 50.140625 C 106.882812 47.507812 109.65625 44.695312 110.660156 41.460938 C 110.695312 41.335938 110.757812 41.242188 110.835938 41.167969 C 110.867188 41.050781 110.9375 40.945312 111.0625 40.847656 C 113.625 38.828125 114.625 35.160156 114.941406 31.960938 C 114.527344 32.054688 114.074219 32.109375 113.578125 32.03125 C 113.292969 31.988281 112.992188 31.902344 112.699219 31.738281 C 112.554688 31.65625 112.414062 31.550781 112.285156 31.429688 C 111.761719 31.683594 111.160156 31.78125 110.558594 31.695312 C 109.769531 31.601562 109.003906 31.117188 108.550781 30.433594 C 108.398438 30.214844 108.277344 29.96875 108.1875 29.714844 C 108.019531 29.75 107.855469 29.765625 107.691406 29.753906 C 107.261719 29.714844 106.824219 29.515625 106.527344 29.148438 C 106.25 28.800781 106.15625 28.390625 106.132812 28.050781 C 106.125 27.964844 106.128906 27.882812 106.128906 27.800781 C 106.035156 27.792969 105.953125 27.769531 105.878906 27.742188 C 105.554688 27.632812 105.296875 27.433594 105.109375 27.160156 C 104.769531 26.609375 104.8125 26.082031 104.855469 25.671875 C 104.96875 24.875 105.140625 24.195312 105.375 23.636719 C 105.605469 23.085938 105.914062 22.707031 106.15625 22.496094 C 106.40625 22.28125 106.578125 22.230469 106.605469 22.269531 C 106.691406 22.363281 106.199219 22.804688 105.949219 23.839844 C 105.820312 24.339844 105.734375 25.007812 105.703125 25.738281 C 105.683594 26.089844 105.734375 26.4375 105.886719 26.617188 C 105.949219 26.699219 106.0625 26.777344 106.167969 26.800781 C 106.28125 26.832031 106.328125 26.800781 106.34375 26.777344 L 107.347656 25.160156 L 107.183594 27.210938 C 107.140625 27.734375 107.160156 28.246094 107.371094 28.460938 C 107.449219 28.5625 107.605469 28.636719 107.78125 28.648438 C 107.953125 28.65625 108.117188 28.597656 108.207031 28.507812 L 109.058594 27.648438 L 109.152344 28.875 C 109.175781 29.195312 109.292969 29.519531 109.484375 29.796875 C 109.785156 30.238281 110.230469 30.523438 110.722656 30.59375 C 111.214844 30.675781 111.730469 30.554688 112.109375 30.300781 L 112.640625 29.949219 L 112.886719 30.496094 C 113.011719 30.773438 113.359375 30.980469 113.757812 31.058594 C 114.144531 31.140625 114.5625 31.105469 114.953125 31.035156 C 115.003906 31.023438 115.046875 31.007812 115.089844 31 C 115.222656 30.609375 115.453125 30.515625 115.953125 30.257812 C 116.964844 29.734375 117.917969 29.890625 118.570312 28.628906 Z M 125.671875 21.996094 C 125.742188 20.566406 125.53125 19.335938 124.90625 18.097656 C 124.847656 18.140625 124.789062 18.207031 124.738281 18.285156 C 124.613281 18.480469 124.503906 18.652344 124.390625 18.632812 C 124.285156 18.613281 124.183594 18.457031 124.1875 18.132812 C 124.191406 17.976562 124.234375 17.757812 124.414062 17.542969 C 124.445312 17.503906 124.484375 17.464844 124.53125 17.425781 C 122.953125 14.851562 120.890625 13.578125 118.304688 12.230469 C 118.019531 12.082031 117.746094 11.925781 117.472656 11.757812 C 114.171875 12.441406 118.285156 18.082031 118.246094 19.347656 C 118.242188 19.589844 117.78125 20.398438 117.742188 20.550781 C 117.300781 21.238281 117.433594 21.871094 118.136719 22.453125 C 118.320312 23.222656 118.765625 23.734375 119.464844 23.988281 C 119.566406 24.175781 119.800781 24.265625 119.871094 24.5 C 120.074219 25.160156 119.792969 26.480469 119.789062 27.191406 C 119.777344 27.894531 119.660156 28.445312 119.316406 29.066406 C 119.152344 29.339844 118.898438 29.691406 118.621094 30.007812 C 119.792969 29.78125 120.914062 29.398438 121.605469 28.5625 C 121.652344 28.507812 121.699219 28.472656 121.746094 28.433594 C 121.765625 28.375 121.785156 28.3125 121.800781 28.25 C 121.941406 27.832031 122.050781 27.441406 122.144531 27.109375 C 122.328125 26.460938 122.449219 26.039062 122.5625 26.050781 C 122.667969 26.058594 122.75 26.5 122.707031 27.207031 C 122.6875 27.527344 122.636719 27.90625 122.546875 28.3125 C 124.507812 28.402344 125.253906 25.519531 125.53125 23.460938 C 125.515625 23.460938 125.503906 23.46875 125.492188 23.46875 C 125.324219 23.480469 125.242188 23.472656 125.09375 23.460938 C 124.953125 23.449219 124.75 23.382812 124.625 23.273438 C 124.367188 23.058594 124.304688 22.796875 124.289062 22.609375 C 124.289062 22.230469 124.417969 22.074219 124.515625 22.0625 C 124.632812 22.054688 124.722656 22.269531 124.84375 22.472656 C 124.902344 22.566406 124.984375 22.652344 125.046875 22.667969 C 125.082031 22.671875 125.085938 22.671875 125.160156 22.671875 C 125.21875 22.671875 125.355469 22.671875 125.417969 22.664062 C 125.449219 22.664062 125.472656 22.65625 125.476562 22.652344 L 125.484375 22.652344 L 125.484375 22.664062 C 125.488281 22.65625 125.488281 22.65625 125.492188 22.648438 C 125.507812 22.628906 125.527344 22.589844 125.550781 22.546875 C 125.585938 22.480469 125.613281 22.417969 125.648438 22.355469 C 125.652344 22.222656 125.667969 22.101562 125.671875 21.996094 Z M 122.976562 13.355469 C 125.957031 16.03125 127.472656 19.222656 126.992188 23.226562 C 126.675781 25.917969 125.648438 29.785156 122.484375 29.726562 C 121.011719 31.335938 118.449219 31.4375 116.394531 31.761719 C 116.074219 35.371094 114.996094 39.5625 112.074219 41.863281 C 112.054688 41.878906 112.042969 41.886719 112.023438 41.898438 C 110.839844 45.65625 107.621094 49.019531 105.195312 52.035156 C 104.96875 52.324219 104.734375 52.59375 104.5 52.851562 C 104.589844 53 104.621094 53.183594 104.558594 53.398438 C 103.804688 55.9375 102.425781 59.722656 102.992188 62.375 C 103.636719 65.363281 106.324219 64.433594 107.882812 66.277344 C 109.953125 68.726562 107.148438 69.589844 105.101562 69.386719 C 104.980469 69.679688 104.773438 69.9375 104.503906 70.128906 C 104.109375 70.402344 103.652344 70.484375 103.195312 70.476562 C 103.320312 71.042969 103.277344 71.597656 102.855469 72.027344 C 102.328125 72.566406 101.667969 72.449219 101.03125 72.234375 C 100.832031 73.058594 100.234375 73.644531 99.242188 73.640625 C 98.066406 73.632812 97.101562 72.84375 96.046875 72.394531 C 95.589844 73.472656 94.566406 73.914062 93.261719 73.65625 C 92.613281 73.527344 92.195312 73.136719 91.933594 72.535156 C 91.734375 72.078125 91.5625 71.59375 91.398438 71.109375 C 90.851562 71.757812 90.160156 72.292969 89.367188 71.628906 C 88.929688 71.257812 88.75 70.628906 88.59375 70.101562 C 88.476562 69.699219 88.402344 69.285156 88.375 68.875 C 88.234375 68.722656 88.160156 68.503906 88.230469 68.234375 C 88.523438 67.128906 88.976562 66.097656 89.300781 65.042969 C 89.199219 65.039062 89.105469 65.027344 89.003906 65.011719 C 88.800781 65.394531 88.445312 65.640625 87.902344 65.644531 C 87.101562 65.65625 86.183594 65.921875 85.402344 65.726562 C 84.960938 65.613281 84.675781 65.371094 84.503906 65.039062 C 82.6875 66.167969 80.691406 66.898438 78.453125 66.703125 C 77.507812 66.621094 76.597656 66.378906 75.691406 66.109375 C 75.730469 66.929688 75.507812 67.792969 74.585938 67.933594 C 73.582031 68.085938 72.539062 67.859375 71.605469 67.492188 C 71.542969 67.539062 71.46875 67.582031 71.394531 67.621094 C 70.734375 67.933594 69.746094 67.660156 69.101562 67.441406 C 68.339844 67.183594 67.589844 66.832031 66.878906 66.453125 C 66.792969 66.40625 66.726562 66.351562 66.671875 66.289062 C 66.390625 66.332031 66.105469 66.367188 65.816406 66.378906 C 59.167969 66.636719 54.273438 60.457031 53.492188 54.347656 C 52.476562 46.476562 52.539062 36.914062 56.617188 29.867188 C 60.457031 23.234375 67.109375 19.445312 74.496094 18.058594 C 76.398438 17.699219 78.324219 17.472656 80.25 17.328125 C 82.734375 17.132812 85.003906 17.359375 86.980469 15.574219 C 89.902344 12.9375 92.464844 10.546875 96.046875 8.828125 C 95.730469 7.144531 96.953125 5.359375 98.789062 5.566406 C 99.425781 5.636719 99.9375 5.988281 100.390625 6.421875 C 100.417969 6.40625 100.441406 6.394531 100.46875 6.378906 C 101.78125 5.84375 103.121094 5.527344 104.476562 5.402344 C 104.511719 4.65625 104.816406 3.796875 105.042969 3.140625 C 105.265625 2.488281 105.804688 2.035156 106.519531 2.210938 C 107.246094 2.390625 108.042969 2.960938 108.582031 3.484375 C 109.191406 4.085938 109.140625 4.917969 109.179688 5.722656 C 110.476562 6.015625 111.75 6.457031 112.972656 7.042969 C 114.960938 7.992188 116.511719 9.460938 118.367188 10.574219 C 119.921875 11.507812 121.554688 12.082031 122.976562 13.355469 Z M 89.574219 63.589844 C 89.59375 63.578125 89.613281 63.574219 89.632812 63.570312 C 89.675781 63.242188 89.703125 62.917969 89.6875 62.582031 C 89.675781 62.179688 89.601562 61.769531 89.496094 61.359375 C 89.199219 61.550781 88.890625 61.703125 88.554688 61.828125 C 88.507812 61.875 88.453125 61.925781 88.402344 61.96875 C 88.746094 62.527344 89.0625 63.003906 89.179688 63.578125 C 89.230469 63.597656 89.285156 63.609375 89.34375 63.621094 C 89.359375 63.621094 89.386719 63.621094 89.40625 63.621094 C 89.425781 63.621094 89.441406 63.621094 89.453125 63.621094 C 89.457031 63.621094 89.460938 63.617188 89.476562 63.617188 C 89.496094 63.609375 89.558594 63.589844 89.574219 63.589844 " fill-opacity="1" fill-rule="nonzero"/></g><path fill="#a8a8a8" d="M 99.621094 40.433594 C 100.03125 41.582031 100.230469 42.3125 100.132812 42.355469 C 100.027344 42.402344 99.640625 41.75 99.097656 40.660156 C 98.972656 40.398438 98.835938 40.117188 98.691406 39.820312 C 98.6875 39.820312 98.6875 39.824219 98.679688 39.828125 C 98.621094 39.910156 98.542969 40.019531 98.378906 40.132812 C 98.207031 40.246094 97.914062 40.253906 97.734375 40.164062 C 97.558594 40.078125 97.445312 39.964844 97.355469 39.847656 C 97.265625 39.734375 97.195312 39.609375 97.144531 39.476562 C 97.097656 39.332031 97.070312 39.242188 97.039062 39.121094 C 96.96875 38.847656 96.925781 38.566406 96.898438 38.28125 C 96.828125 38.332031 96.746094 38.386719 96.652344 38.421875 C 96.484375 38.496094 96.296875 38.511719 96.136719 38.492188 C 95.804688 38.441406 95.550781 38.277344 95.367188 38.074219 C 95.164062 37.863281 95.058594 37.605469 95.007812 37.378906 C 94.902344 36.910156 94.945312 36.523438 94.949219 36.183594 C 94.964844 35.835938 94.984375 35.507812 94.992188 35.21875 C 95.058594 34.035156 95.15625 33.308594 95.265625 33.308594 C 95.375 33.308594 95.480469 34.035156 95.554688 35.210938 C 95.574219 35.507812 95.589844 35.832031 95.609375 36.179688 C 95.628906 36.527344 95.628906 36.890625 95.71875 37.1875 C 95.769531 37.339844 95.828125 37.460938 95.914062 37.550781 C 96.007812 37.636719 96.136719 37.699219 96.230469 37.707031 C 96.324219 37.710938 96.355469 37.707031 96.503906 37.578125 C 96.636719 37.464844 96.808594 37.207031 97.214844 37.09375 L 97.75 36.945312 L 97.707031 37.523438 L 97.691406 37.699219 C 97.675781 38.125 97.714844 38.542969 97.804688 38.929688 C 97.855469 39.144531 97.894531 39.28125 97.96875 39.386719 C 97.992188 39.425781 98.019531 39.449219 98.035156 39.460938 C 98.054688 39.441406 98.085938 39.414062 98.117188 39.375 C 98.175781 39.304688 98.234375 39.222656 98.371094 39.105469 C 98.441406 39.054688 98.558594 38.980469 98.726562 38.984375 C 98.890625 38.992188 98.992188 39.054688 99.089844 39.144531 C 99.246094 39.335938 99.238281 39.417969 99.273438 39.496094 C 99.402344 39.835938 99.515625 40.144531 99.621094 40.433594 " fill-opacity="1" fill-rule="nonzero"/><path fill="#a8a8a8" d="M 84.765625 43.625 C 84.867188 43.6875 84.625 44.207031 84.257812 45.027344 C 83.894531 45.839844 83.402344 46.980469 83.414062 48.265625 C 83.414062 48.453125 83.421875 48.640625 83.445312 48.816406 C 83.460938 48.90625 83.476562 49 83.496094 49.085938 L 83.519531 49.203125 C 83.523438 49.230469 83.535156 49.257812 83.542969 49.28125 C 83.5625 49.324219 83.585938 49.363281 83.605469 49.390625 C 83.648438 49.363281 83.695312 49.324219 83.792969 49.28125 C 83.847656 49.261719 83.925781 49.234375 84.042969 49.25 C 84.164062 49.261719 84.269531 49.335938 84.320312 49.402344 L 84.425781 49.523438 L 84.40625 49.667969 C 84.222656 51.207031 84.574219 52.296875 84.40625 52.347656 C 84.339844 52.371094 84.164062 52.136719 83.988281 51.664062 C 83.855469 51.296875 83.730469 50.777344 83.695312 50.167969 C 83.65625 50.171875 83.617188 50.179688 83.582031 50.179688 C 83.332031 50.175781 83.167969 50.050781 83.070312 49.953125 C 82.964844 49.839844 82.886719 49.730469 82.832031 49.609375 C 82.800781 49.546875 82.777344 49.484375 82.757812 49.414062 L 82.714844 49.253906 C 82.691406 49.148438 82.671875 49.039062 82.652344 48.933594 C 82.617188 48.71875 82.605469 48.496094 82.605469 48.273438 C 82.605469 46.742188 83.261719 45.519531 83.757812 44.75 C 84.273438 43.972656 84.679688 43.566406 84.765625 43.625 " fill-opacity="1" fill-rule="nonzero"/><path fill="#a8a8a8" d="M 66.1875 62.296875 C 66.21875 62.367188 65.707031 62.679688 64.710938 62.847656 C 64.46875 62.886719 64.191406 62.910156 63.890625 62.914062 C 63.589844 62.914062 63.269531 62.921875 62.886719 62.816406 C 62.695312 62.765625 62.488281 62.671875 62.3125 62.515625 C 62.132812 62.363281 61.996094 62.152344 61.921875 61.9375 C 61.851562 61.746094 61.816406 61.554688 61.796875 61.367188 C 61.601562 61.472656 61.398438 61.574219 61.183594 61.660156 C 61.082031 61.691406 60.929688 61.792969 60.625 61.742188 C 60.480469 61.707031 60.355469 61.617188 60.28125 61.539062 C 60.210938 61.460938 60.167969 61.394531 60.132812 61.335938 C 60.042969 61.191406 59.976562 61.039062 59.90625 60.878906 C 59.808594 60.960938 59.695312 61.042969 59.554688 61.085938 C 59.332031 61.164062 59.105469 61.128906 58.929688 61.074219 C 58.753906 61.019531 58.609375 60.933594 58.480469 60.839844 C 58.222656 60.660156 58.046875 60.429688 57.886719 60.242188 C 57.726562 60.039062 57.578125 59.835938 57.445312 59.625 C 56.917969 58.796875 56.625 57.957031 56.492188 57.238281 C 56.226562 55.789062 56.507812 54.902344 56.589844 54.921875 C 56.71875 54.925781 56.65625 55.804688 57.039062 57.105469 C 57.230469 57.75 57.550781 58.496094 58.054688 59.21875 C 58.183594 59.402344 58.324219 59.578125 58.472656 59.75 C 58.632812 59.929688 58.773438 60.09375 58.933594 60.203125 C 59.097656 60.316406 59.265625 60.347656 59.308594 60.324219 C 59.335938 60.308594 59.359375 60.300781 59.457031 60.203125 C 59.535156 60.113281 59.671875 59.929688 59.964844 59.839844 L 60.324219 59.734375 L 60.449219 60.109375 C 60.480469 60.195312 60.507812 60.277344 60.539062 60.363281 C 60.621094 60.558594 60.714844 60.742188 60.816406 60.917969 C 60.820312 60.929688 60.828125 60.933594 60.832031 60.9375 C 60.851562 60.933594 60.871094 60.929688 60.894531 60.917969 C 61.269531 60.773438 61.625 60.589844 61.941406 60.371094 L 62.597656 59.933594 L 62.542969 60.707031 C 62.515625 61.085938 62.507812 61.4375 62.597656 61.695312 C 62.679688 61.96875 62.828125 62.109375 63.078125 62.203125 C 63.328125 62.292969 63.636719 62.320312 63.910156 62.347656 C 64.179688 62.375 64.441406 62.378906 64.671875 62.375 C 65.605469 62.347656 66.160156 62.203125 66.1875 62.296875 " fill-opacity="1" fill-rule="nonzero"/><g fill="#a8a8a8" fill-opacity="1"><g transform="translate(63.328123, 84.750005)"><g><path d="M 4.484375 -4.96875 C 4.265625 -5.25 3.953125 -5.390625 3.546875 -5.390625 C 2.773438 -5.390625 2.273438 -4.953125 2.046875 -4.078125 C 1.972656 -3.773438 1.9375 -3.410156 1.9375 -2.984375 C 1.9375 -2.191406 2.085938 -1.59375 2.390625 -1.1875 C 2.691406 -0.789062 3.070312 -0.59375 3.53125 -0.59375 C 3.863281 -0.59375 4.144531 -0.6875 4.375 -0.875 C 4.613281 -1.070312 4.78125 -1.351562 4.875 -1.71875 L 5.671875 -1.71875 C 5.671875 -1.238281 5.457031 -0.8125 5.03125 -0.4375 C 4.601562 -0.0625 4.023438 0.125 3.296875 0.125 C 2.566406 0.125 1.945312 -0.101562 1.4375 -0.5625 C 0.832031 -1.101562 0.53125 -1.894531 0.53125 -2.9375 C 0.53125 -3.78125 0.78125 -4.507812 1.28125 -5.125 C 1.78125 -5.75 2.519531 -6.0625 3.5 -6.0625 C 4.132812 -6.0625 4.660156 -5.90625 5.078125 -5.59375 C 5.503906 -5.289062 5.71875 -4.894531 5.71875 -4.40625 C 5.71875 -4.164062 5.640625 -3.960938 5.484375 -3.796875 C 5.335938 -3.640625 5.144531 -3.5625 4.90625 -3.5625 C 4.5625 -3.5625 4.328125 -3.71875 4.203125 -4.03125 C 4.160156 -4.125 4.140625 -4.226562 4.140625 -4.34375 C 4.140625 -4.613281 4.253906 -4.820312 4.484375 -4.96875 Z M 4.484375 -4.96875 "/></g></g><g transform="translate(69.498045, 84.750005)"><g><path d="M 5.59375 -1.40625 C 5.59375 -0.9375 5.6875 -0.703125 5.875 -0.703125 C 6.050781 -0.703125 6.175781 -0.757812 6.25 -0.875 C 6.332031 -1 6.375 -1.21875 6.375 -1.53125 L 7 -1.53125 C 7 -1.476562 7 -1.398438 7 -1.296875 C 7 -0.941406 6.910156 -0.632812 6.734375 -0.375 C 6.523438 -0.0390625 6.1875 0.125 5.71875 0.125 C 5.40625 0.125 5.140625 0.0351562 4.921875 -0.140625 C 4.710938 -0.316406 4.566406 -0.546875 4.484375 -0.828125 C 3.921875 -0.191406 3.207031 0.125 2.34375 0.125 C 1.863281 0.125 1.445312 -0.015625 1.09375 -0.296875 C 0.738281 -0.578125 0.5625 -0.96875 0.5625 -1.46875 C 0.5625 -2.332031 1.203125 -2.972656 2.484375 -3.390625 C 3.296875 -3.648438 3.78125 -3.828125 3.9375 -3.921875 C 4.101562 -4.023438 4.207031 -4.128906 4.25 -4.234375 C 4.300781 -4.335938 4.328125 -4.453125 4.328125 -4.578125 C 4.328125 -4.804688 4.210938 -5 3.984375 -5.15625 C 3.765625 -5.3125 3.472656 -5.390625 3.109375 -5.390625 C 2.742188 -5.390625 2.421875 -5.289062 2.140625 -5.09375 C 2.335938 -4.945312 2.4375 -4.757812 2.4375 -4.53125 C 2.4375 -4.3125 2.359375 -4.132812 2.203125 -4 C 2.054688 -3.863281 1.875 -3.796875 1.65625 -3.796875 C 1.445312 -3.796875 1.273438 -3.859375 1.140625 -3.984375 C 1.003906 -4.109375 0.9375 -4.289062 0.9375 -4.53125 C 0.9375 -4.976562 1.164062 -5.34375 1.625 -5.625 C 2.082031 -5.914062 2.644531 -6.0625 3.3125 -6.0625 C 4.488281 -6.0625 5.207031 -5.675781 5.46875 -4.90625 C 5.550781 -4.65625 5.59375 -4.363281 5.59375 -4.03125 Z M 3.015625 -2.859375 C 2.671875 -2.710938 2.410156 -2.519531 2.234375 -2.28125 C 2.066406 -2.050781 1.984375 -1.800781 1.984375 -1.53125 C 1.984375 -1.257812 2.054688 -1.050781 2.203125 -0.90625 C 2.347656 -0.769531 2.535156 -0.703125 2.765625 -0.703125 C 3.210938 -0.703125 3.582031 -0.859375 3.875 -1.171875 C 4.175781 -1.492188 4.328125 -1.941406 4.328125 -2.515625 L 4.328125 -3.40625 C 4.078125 -3.28125 3.8125 -3.164062 3.53125 -3.0625 C 3.257812 -2.957031 3.085938 -2.890625 3.015625 -2.859375 Z M 3.015625 -2.859375 "/></g></g><g transform="translate(76.365232, 84.750005)"><g><path d="M 4.125 0.125 C 3.476562 0.125 2.929688 -0.0976562 2.484375 -0.546875 L 2.484375 1.546875 C 2.484375 1.847656 2.546875 2.035156 2.671875 2.109375 C 2.804688 2.191406 3.140625 2.234375 3.671875 2.234375 L 3.671875 2.875 L 0.390625 2.875 L 0.390625 2.234375 C 0.722656 2.234375 0.929688 2.195312 1.015625 2.125 C 1.109375 2.050781 1.164062 1.972656 1.1875 1.890625 C 1.207031 1.816406 1.21875 1.722656 1.21875 1.609375 L 1.21875 -4.484375 C 1.21875 -4.765625 1.191406 -4.945312 1.140625 -5.03125 C 1.085938 -5.113281 0.953125 -5.15625 0.734375 -5.15625 L 0.328125 -5.15625 L 0.328125 -5.8125 C 0.710938 -5.8125 1.015625 -5.835938 1.234375 -5.890625 C 1.453125 -5.953125 1.609375 -5.992188 1.703125 -6.015625 C 1.796875 -6.035156 1.894531 -6.046875 2 -6.046875 C 2.207031 -6.046875 2.34375 -5.988281 2.40625 -5.875 C 2.46875 -5.757812 2.5 -5.566406 2.5 -5.296875 L 2.5 -5.28125 C 2.9375 -5.800781 3.53125 -6.0625 4.28125 -6.0625 C 5.039062 -6.0625 5.65625 -5.804688 6.125 -5.296875 C 6.59375 -4.785156 6.828125 -4.046875 6.828125 -3.078125 C 6.828125 -2.109375 6.582031 -1.332031 6.09375 -0.75 C 5.613281 -0.164062 4.957031 0.125 4.125 0.125 Z M 2.453125 -2.90625 C 2.453125 -2.1875 2.585938 -1.617188 2.859375 -1.203125 C 3.140625 -0.796875 3.515625 -0.59375 3.984375 -0.59375 C 4.441406 -0.59375 4.800781 -0.800781 5.0625 -1.21875 C 5.320312 -1.644531 5.453125 -2.210938 5.453125 -2.921875 C 5.453125 -4.046875 5.179688 -4.789062 4.640625 -5.15625 C 4.441406 -5.289062 4.207031 -5.359375 3.9375 -5.359375 C 3.675781 -5.359375 3.453125 -5.296875 3.265625 -5.171875 C 3.085938 -5.046875 2.9375 -4.875 2.8125 -4.65625 C 2.570312 -4.207031 2.453125 -3.625 2.453125 -2.90625 Z M 2.453125 -2.90625 "/></g></g><g transform="translate(83.69531, 84.750005)"><g><path d="M 1.6875 2.265625 C 1.78125 2.285156 1.863281 2.289062 1.9375 2.28125 C 2.007812 2.28125 2.09375 2.25 2.1875 2.1875 C 2.28125 2.125 2.375 2.039062 2.46875 1.9375 C 2.632812 1.738281 2.78125 1.492188 2.90625 1.203125 C 3.039062 0.921875 3.109375 0.695312 3.109375 0.53125 C 3.109375 0.363281 3.085938 0.238281 3.046875 0.15625 C 3.003906 0.0703125 2.953125 0 2.890625 -0.0625 C 2.835938 -0.132812 2.78125 -0.203125 2.71875 -0.265625 C 2.65625 -0.328125 2.609375 -0.410156 2.578125 -0.515625 L 0.875 -4.671875 C 0.789062 -4.910156 0.703125 -5.070312 0.609375 -5.15625 C 0.523438 -5.25 0.332031 -5.296875 0.03125 -5.296875 L 0.03125 -5.9375 L 3.171875 -5.9375 L 3.171875 -5.296875 C 2.722656 -5.296875 2.453125 -5.257812 2.359375 -5.1875 C 2.265625 -5.113281 2.210938 -5.035156 2.203125 -4.953125 C 2.203125 -4.878906 2.222656 -4.785156 2.265625 -4.671875 L 3.734375 -0.6875 L 5.203125 -4.671875 C 5.296875 -4.898438 5.269531 -5.0625 5.125 -5.15625 C 4.976562 -5.25 4.671875 -5.296875 4.203125 -5.296875 L 4.203125 -5.9375 L 6.9375 -5.9375 L 6.9375 -5.296875 C 6.675781 -5.296875 6.476562 -5.242188 6.34375 -5.140625 C 6.21875 -5.035156 6.113281 -4.878906 6.03125 -4.671875 L 4.46875 -0.484375 C 4.332031 -0.171875 4.203125 0.128906 4.078125 0.421875 C 3.953125 0.710938 3.828125 0.988281 3.703125 1.25 C 3.429688 1.820312 3.132812 2.253906 2.8125 2.546875 C 2.488281 2.835938 2.109375 2.984375 1.671875 2.984375 C 1.242188 2.984375 0.910156 2.875 0.671875 2.65625 C 0.441406 2.445312 0.328125 2.203125 0.328125 1.921875 C 0.328125 1.648438 0.40625 1.429688 0.5625 1.265625 C 0.71875 1.097656 0.910156 1.015625 1.140625 1.015625 C 1.472656 1.015625 1.707031 1.164062 1.84375 1.46875 C 1.882812 1.550781 1.90625 1.644531 1.90625 1.75 C 1.90625 1.945312 1.832031 2.117188 1.6875 2.265625 Z M 1.6875 2.265625 "/></g></g><g transform="translate(90.445309, 84.750005)"><g><path d="M 2.234375 -0.6875 C 2.066406 -0.53125 1.984375 -0.300781 1.984375 0 L 1.109375 0 L 1.109375 -7.5625 C 1.109375 -7.84375 1.082031 -8.023438 1.03125 -8.109375 C 0.988281 -8.203125 0.859375 -8.25 0.640625 -8.25 L 0.21875 -8.25 L 0.21875 -8.890625 C 0.601562 -8.890625 0.898438 -8.914062 1.109375 -8.96875 C 1.328125 -9.03125 1.484375 -9.070312 1.578125 -9.09375 C 1.671875 -9.125 1.769531 -9.140625 1.875 -9.140625 C 2.082031 -9.140625 2.21875 -9.078125 2.28125 -8.953125 C 2.34375 -8.835938 2.375 -8.648438 2.375 -8.390625 L 2.375 -5.25 C 2.789062 -5.789062 3.390625 -6.0625 4.171875 -6.0625 C 4.953125 -6.0625 5.570312 -5.8125 6.03125 -5.3125 C 6.488281 -4.8125 6.71875 -4.078125 6.71875 -3.109375 C 6.71875 -2.140625 6.476562 -1.359375 6 -0.765625 C 5.519531 -0.171875 4.851562 0.125 4 0.125 C 3.289062 0.125 2.703125 -0.144531 2.234375 -0.6875 Z M 2.34375 -2.890625 C 2.34375 -2.179688 2.476562 -1.617188 2.75 -1.203125 C 3.03125 -0.796875 3.398438 -0.59375 3.859375 -0.59375 C 4.316406 -0.59375 4.679688 -0.800781 4.953125 -1.21875 C 5.222656 -1.644531 5.359375 -2.210938 5.359375 -2.921875 C 5.359375 -4.035156 5.09375 -4.78125 4.5625 -5.15625 C 4.363281 -5.28125 4.132812 -5.34375 3.875 -5.34375 C 3.625 -5.34375 3.40625 -5.28125 3.21875 -5.15625 C 3.03125 -5.03125 2.875 -4.859375 2.75 -4.640625 C 2.476562 -4.191406 2.34375 -3.609375 2.34375 -2.890625 Z M 2.34375 -2.890625 "/></g></g><g transform="translate(97.675778, 84.750005)"><g><path d="M 5.59375 -1.40625 C 5.59375 -0.9375 5.6875 -0.703125 5.875 -0.703125 C 6.050781 -0.703125 6.175781 -0.757812 6.25 -0.875 C 6.332031 -1 6.375 -1.21875 6.375 -1.53125 L 7 -1.53125 C 7 -1.476562 7 -1.398438 7 -1.296875 C 7 -0.941406 6.910156 -0.632812 6.734375 -0.375 C 6.523438 -0.0390625 6.1875 0.125 5.71875 0.125 C 5.40625 0.125 5.140625 0.0351562 4.921875 -0.140625 C 4.710938 -0.316406 4.566406 -0.546875 4.484375 -0.828125 C 3.921875 -0.191406 3.207031 0.125 2.34375 0.125 C 1.863281 0.125 1.445312 -0.015625 1.09375 -0.296875 C 0.738281 -0.578125 0.5625 -0.96875 0.5625 -1.46875 C 0.5625 -2.332031 1.203125 -2.972656 2.484375 -3.390625 C 3.296875 -3.648438 3.78125 -3.828125 3.9375 -3.921875 C 4.101562 -4.023438 4.207031 -4.128906 4.25 -4.234375 C 4.300781 -4.335938 4.328125 -4.453125 4.328125 -4.578125 C 4.328125 -4.804688 4.210938 -5 3.984375 -5.15625 C 3.765625 -5.3125 3.472656 -5.390625 3.109375 -5.390625 C 2.742188 -5.390625 2.421875 -5.289062 2.140625 -5.09375 C 2.335938 -4.945312 2.4375 -4.757812 2.4375 -4.53125 C 2.4375 -4.3125 2.359375 -4.132812 2.203125 -4 C 2.054688 -3.863281 1.875 -3.796875 1.65625 -3.796875 C 1.445312 -3.796875 1.273438 -3.859375 1.140625 -3.984375 C 1.003906 -4.109375 0.9375 -4.289062 0.9375 -4.53125 C 0.9375 -4.976562 1.164062 -5.34375 1.625 -5.625 C 2.082031 -5.914062 2.644531 -6.0625 3.3125 -6.0625 C 4.488281 -6.0625 5.207031 -5.675781 5.46875 -4.90625 C 5.550781 -4.65625 5.59375 -4.363281 5.59375 -4.03125 Z M 3.015625 -2.859375 C 2.671875 -2.710938 2.410156 -2.519531 2.234375 -2.28125 C 2.066406 -2.050781 1.984375 -1.800781 1.984375 -1.53125 C 1.984375 -1.257812 2.054688 -1.050781 2.203125 -0.90625 C 2.347656 -0.769531 2.535156 -0.703125 2.765625 -0.703125 C 3.210938 -0.703125 3.582031 -0.859375 3.875 -1.171875 C 4.175781 -1.492188 4.328125 -1.941406 4.328125 -2.515625 L 4.328125 -3.40625 C 4.078125 -3.28125 3.8125 -3.164062 3.53125 -3.0625 C 3.257812 -2.957031 3.085938 -2.890625 3.015625 -2.859375 Z M 3.015625 -2.859375 "/></g></g><g transform="translate(104.542965, 84.750005)"><g><path d="M 0.484375 -0.640625 C 0.816406 -0.640625 1.023438 -0.671875 1.109375 -0.734375 C 1.203125 -0.804688 1.253906 -0.878906 1.265625 -0.953125 C 1.285156 -1.035156 1.296875 -1.140625 1.296875 -1.265625 L 1.296875 -4.484375 C 1.296875 -4.765625 1.269531 -4.945312 1.21875 -5.03125 C 1.175781 -5.125 1.046875 -5.171875 0.828125 -5.171875 L 0.46875 -5.171875 L 0.46875 -5.8125 C 0.84375 -5.8125 1.128906 -5.835938 1.328125 -5.890625 C 1.535156 -5.953125 1.679688 -5.992188 1.765625 -6.015625 C 1.859375 -6.046875 1.957031 -6.0625 2.0625 -6.0625 C 2.257812 -6.0625 2.390625 -6 2.453125 -5.875 C 2.523438 -5.757812 2.5625 -5.570312 2.5625 -5.3125 L 2.5625 -5.1875 C 2.894531 -5.582031 3.273438 -5.847656 3.703125 -5.984375 C 3.859375 -6.035156 4.007812 -6.0625 4.15625 -6.0625 C 4.445312 -6.0625 4.675781 -5.976562 4.84375 -5.8125 C 5.007812 -5.644531 5.09375 -5.4375 5.09375 -5.1875 C 5.09375 -4.9375 5.015625 -4.734375 4.859375 -4.578125 C 4.703125 -4.421875 4.507812 -4.34375 4.28125 -4.34375 C 4.0625 -4.34375 3.878906 -4.421875 3.734375 -4.578125 C 3.597656 -4.734375 3.535156 -4.929688 3.546875 -5.171875 C 3.390625 -5.148438 3.21875 -5.078125 3.03125 -4.953125 C 2.851562 -4.828125 2.695312 -4.660156 2.5625 -4.453125 L 2.5625 -1.3125 C 2.5625 -1.164062 2.570312 -1.046875 2.59375 -0.953125 C 2.625 -0.867188 2.691406 -0.796875 2.796875 -0.734375 C 2.910156 -0.671875 3.25 -0.640625 3.8125 -0.640625 L 3.8125 0 L 0.484375 0 Z M 0.484375 -0.640625 "/></g></g><g transform="translate(109.798824, 84.750005)"><g><path d="M 5.59375 -1.40625 C 5.59375 -0.9375 5.6875 -0.703125 5.875 -0.703125 C 6.050781 -0.703125 6.175781 -0.757812 6.25 -0.875 C 6.332031 -1 6.375 -1.21875 6.375 -1.53125 L 7 -1.53125 C 7 -1.476562 7 -1.398438 7 -1.296875 C 7 -0.941406 6.910156 -0.632812 6.734375 -0.375 C 6.523438 -0.0390625 6.1875 0.125 5.71875 0.125 C 5.40625 0.125 5.140625 0.0351562 4.921875 -0.140625 C 4.710938 -0.316406 4.566406 -0.546875 4.484375 -0.828125 C 3.921875 -0.191406 3.207031 0.125 2.34375 0.125 C 1.863281 0.125 1.445312 -0.015625 1.09375 -0.296875 C 0.738281 -0.578125 0.5625 -0.96875 0.5625 -1.46875 C 0.5625 -2.332031 1.203125 -2.972656 2.484375 -3.390625 C 3.296875 -3.648438 3.78125 -3.828125 3.9375 -3.921875 C 4.101562 -4.023438 4.207031 -4.128906 4.25 -4.234375 C 4.300781 -4.335938 4.328125 -4.453125 4.328125 -4.578125 C 4.328125 -4.804688 4.210938 -5 3.984375 -5.15625 C 3.765625 -5.3125 3.472656 -5.390625 3.109375 -5.390625 C 2.742188 -5.390625 2.421875 -5.289062 2.140625 -5.09375 C 2.335938 -4.945312 2.4375 -4.757812 2.4375 -4.53125 C 2.4375 -4.3125 2.359375 -4.132812 2.203125 -4 C 2.054688 -3.863281 1.875 -3.796875 1.65625 -3.796875 C 1.445312 -3.796875 1.273438 -3.859375 1.140625 -3.984375 C 1.003906 -4.109375 0.9375 -4.289062 0.9375 -4.53125 C 0.9375 -4.976562 1.164062 -5.34375 1.625 -5.625 C 2.082031 -5.914062 2.644531 -6.0625 3.3125 -6.0625 C 4.488281 -6.0625 5.207031 -5.675781 5.46875 -4.90625 C 5.550781 -4.65625 5.59375 -4.363281 5.59375 -4.03125 Z M 3.015625 -2.859375 C 2.671875 -2.710938 2.410156 -2.519531 2.234375 -2.28125 C 2.066406 -2.050781 1.984375 -1.800781 1.984375 -1.53125 C 1.984375 -1.257812 2.054688 -1.050781 2.203125 -0.90625 C 2.347656 -0.769531 2.535156 -0.703125 2.765625 -0.703125 C 3.210938 -0.703125 3.582031 -0.859375 3.875 -1.171875 C 4.175781 -1.492188 4.328125 -1.941406 4.328125 -2.515625 L 4.328125 -3.40625 C 4.078125 -3.28125 3.8125 -3.164062 3.53125 -3.0625 C 3.257812 -2.957031 3.085938 -2.890625 3.015625 -2.859375 Z M 3.015625 -2.859375 "/></g></g></g></svg>