<svg xmlns="http://www.w3.org/2000/svg" xmlns:xlink="http://www.w3.org/1999/xlink" width="240" zoomAndPan="magnify" viewBox="0 0 180 89.999999" height="120" preserveAspectRatio="xMidYMid meet" version="1.0"><defs><g/><clipPath id="148b91dcda"><path d="M 54.832031 3.613281 L 125.332031 3.613281 L 125.332031 74.113281 L 54.832031 74.113281 Z M 54.832031 3.613281 " clip-rule="nonzero"/></clipPath></defs><rect x="-18" width="216" fill="#ffffff" y="-9" height="107.999999" fill-opacity="1"/><g clip-path="url(#148b91dcda)"><path fill="#a8a8a8" d="M 125.332031 38.863281 C 125.332031 40.015625 125.273438 41.167969 125.160156 42.316406 C 125.046875 43.464844 124.878906 44.605469 124.652344 45.738281 C 124.429688 46.871094 124.148438 47.992188 123.8125 49.09375 C 123.476562 50.199219 123.089844 51.285156 122.648438 52.351562 C 122.207031 53.417969 121.714844 54.460938 121.167969 55.480469 C 120.625 56.496094 120.03125 57.488281 119.390625 58.445312 C 118.75 59.40625 118.0625 60.332031 117.328125 61.226562 C 116.597656 62.117188 115.824219 62.972656 115.007812 63.789062 C 114.191406 64.605469 113.335938 65.378906 112.445312 66.109375 C 111.550781 66.84375 110.625 67.53125 109.664062 68.171875 C 108.707031 68.8125 107.714844 69.40625 106.699219 69.949219 C 105.679688 70.496094 104.636719 70.988281 103.570312 71.429688 C 102.503906 71.871094 101.417969 72.257812 100.3125 72.59375 C 99.210938 72.929688 98.089844 73.210938 96.957031 73.433594 C 95.824219 73.660156 94.683594 73.828125 93.535156 73.941406 C 92.386719 74.054688 91.234375 74.113281 90.082031 74.113281 C 88.925781 74.113281 87.773438 74.054688 86.625 73.941406 C 85.476562 73.828125 84.335938 73.660156 83.203125 73.433594 C 82.070312 73.210938 80.953125 72.929688 79.847656 72.59375 C 78.742188 72.257812 77.660156 71.871094 76.589844 71.429688 C 75.523438 70.988281 74.484375 70.496094 73.464844 69.949219 C 72.445312 69.40625 71.457031 68.8125 70.496094 68.171875 C 69.539062 67.53125 68.613281 66.84375 67.71875 66.109375 C 66.828125 65.378906 65.972656 64.605469 65.15625 63.789062 C 64.339844 62.972656 63.566406 62.117188 62.832031 61.226562 C 62.101562 60.332031 61.414062 59.40625 60.773438 58.445312 C 60.128906 57.488281 59.539062 56.496094 58.992188 55.480469 C 58.449219 54.460938 57.957031 53.417969 57.515625 52.351562 C 57.074219 51.285156 56.683594 50.199219 56.347656 49.09375 C 56.015625 47.992188 55.734375 46.871094 55.507812 45.738281 C 55.285156 44.605469 55.113281 43.464844 55 42.316406 C 54.886719 41.167969 54.832031 40.015625 54.832031 38.863281 C 54.832031 37.707031 54.886719 36.554688 55 35.40625 C 55.113281 34.257812 55.285156 33.117188 55.507812 31.984375 C 55.734375 30.851562 56.015625 29.734375 56.347656 28.628906 C 56.683594 27.523438 57.074219 26.441406 57.515625 25.375 C 57.957031 24.304688 58.449219 23.265625 58.992188 22.246094 C 59.539062 21.226562 60.128906 20.238281 60.773438 19.277344 C 61.414062 18.320312 62.101562 17.394531 62.832031 16.5 C 63.566406 15.609375 64.339844 14.753906 65.15625 13.9375 C 65.972656 13.121094 66.828125 12.347656 67.71875 11.613281 C 68.613281 10.882812 69.539062 10.195312 70.496094 9.554688 C 71.457031 8.910156 72.445312 8.320312 73.464844 7.773438 C 74.484375 7.230469 75.523438 6.738281 76.589844 6.296875 C 77.660156 5.855469 78.742188 5.464844 79.847656 5.128906 C 80.953125 4.796875 82.070312 4.515625 83.203125 4.289062 C 84.335938 4.066406 85.476562 3.894531 86.625 3.78125 C 87.773438 3.667969 88.925781 3.613281 90.082031 3.613281 C 91.234375 3.613281 92.386719 3.667969 93.535156 3.78125 C 94.683594 3.894531 95.824219 4.066406 96.957031 4.289062 C 98.089844 4.515625 99.210938 4.796875 100.3125 5.128906 C 101.417969 5.464844 102.503906 5.855469 103.570312 6.296875 C 104.636719 6.738281 105.679688 7.230469 106.699219 7.773438 C 107.714844 8.320312 108.707031 8.910156 109.664062 9.554688 C 110.625 10.195312 111.550781 10.882812 112.445312 11.613281 C 113.335938 12.347656 114.191406 13.121094 115.007812 13.9375 C 115.824219 14.753906 116.597656 15.609375 117.328125 16.5 C 118.0625 17.394531 118.75 18.320312 119.390625 19.277344 C 120.03125 20.238281 120.625 21.226562 121.167969 22.246094 C 121.714844 23.265625 122.207031 24.304688 122.648438 25.375 C 123.089844 26.441406 123.476562 27.523438 123.8125 28.628906 C 124.148438 29.734375 124.429688 30.851562 124.652344 31.984375 C 124.878906 33.117188 125.046875 34.257812 125.160156 35.40625 C 125.273438 36.554688 125.332031 37.707031 125.332031 38.863281 Z M 125.332031 38.863281 " fill-opacity="1" fill-rule="nonzero"/></g><path fill="#fefefe" d="M 67.894531 46.425781 C 67.65625 46.265625 67.523438 46.027344 67.523438 45.765625 L 67.523438 31.433594 C 67.523438 31.167969 67.65625 30.902344 67.894531 30.769531 L 89.710938 16.941406 C 90.003906 16.78125 90.320312 16.78125 90.582031 16.96875 L 112.269531 30.980469 C 112.507812 31.140625 112.664062 31.378906 112.664062 31.667969 L 112.664062 45.976562 C 112.636719 46.265625 112.507812 46.503906 112.269531 46.664062 L 89.921875 60.785156 C 89.660156 60.96875 89.289062 60.96875 89.023438 60.785156 Z M 89.339844 31.484375 L 89.339844 19.054688 L 69.773438 31.457031 L 79.238281 37.910156 Z M 90.925781 19.082031 L 90.925781 31.484375 L 100.683594 37.804688 L 110.390625 31.644531 Z M 88.707031 58.644531 L 88.707031 46.242188 L 79.210938 39.789062 L 69.773438 45.789062 Z M 90.292969 46.242188 L 90.292969 58.695312 L 110.390625 45.976562 L 100.660156 39.683594 Z M 111.078125 33.097656 L 102.140625 38.757812 L 111.078125 44.523438 Z M 77.785156 38.835938 L 69.109375 32.9375 L 69.109375 44.308594 Z M 99.203125 38.730469 L 90.132812 32.859375 L 80.667969 38.863281 L 89.5 44.867188 Z M 99.203125 38.730469 " fill-opacity="1" fill-rule="nonzero"/><g fill="#a8a8a8" fill-opacity="1"><g transform="translate(65.976559, 84.750012)"><g><path d="M 4.484375 -4.96875 C 4.265625 -5.25 3.953125 -5.390625 3.546875 -5.390625 C 2.773438 -5.390625 2.273438 -4.953125 2.046875 -4.078125 C 1.972656 -3.773438 1.9375 -3.410156 1.9375 -2.984375 C 1.9375 -2.191406 2.085938 -1.59375 2.390625 -1.1875 C 2.691406 -0.789062 3.070312 -0.59375 3.53125 -0.59375 C 3.863281 -0.59375 4.144531 -0.6875 4.375 -0.875 C 4.613281 -1.070312 4.78125 -1.351562 4.875 -1.71875 L 5.671875 -1.71875 C 5.671875 -1.238281 5.457031 -0.8125 5.03125 -0.4375 C 4.601562 -0.0625 4.023438 0.125 3.296875 0.125 C 2.566406 0.125 1.945312 -0.101562 1.4375 -0.5625 C 0.832031 -1.101562 0.53125 -1.894531 0.53125 -2.9375 C 0.53125 -3.78125 0.78125 -4.507812 1.28125 -5.125 C 1.78125 -5.75 2.519531 -6.0625 3.5 -6.0625 C 4.132812 -6.0625 4.660156 -5.90625 5.078125 -5.59375 C 5.503906 -5.289062 5.71875 -4.894531 5.71875 -4.40625 C 5.71875 -4.164062 5.640625 -3.960938 5.484375 -3.796875 C 5.335938 -3.640625 5.144531 -3.5625 4.90625 -3.5625 C 4.5625 -3.5625 4.328125 -3.71875 4.203125 -4.03125 C 4.160156 -4.125 4.140625 -4.226562 4.140625 -4.34375 C 4.140625 -4.613281 4.253906 -4.820312 4.484375 -4.96875 Z M 4.484375 -4.96875 "/></g></g><g transform="translate(72.146481, 84.750012)"><g><path d="M 0.53125 -3 C 0.53125 -3.46875 0.601562 -3.898438 0.75 -4.296875 C 0.894531 -4.691406 1.097656 -5.019531 1.359375 -5.28125 C 1.878906 -5.800781 2.566406 -6.0625 3.421875 -6.0625 C 4.285156 -6.0625 4.976562 -5.800781 5.5 -5.28125 C 6.03125 -4.757812 6.296875 -4.023438 6.296875 -3.078125 C 6.296875 -2.128906 6.050781 -1.359375 5.5625 -0.765625 C 5.070312 -0.171875 4.359375 0.125 3.421875 0.125 C 2.472656 0.125 1.753906 -0.160156 1.265625 -0.734375 C 0.773438 -1.304688 0.53125 -2.0625 0.53125 -3 Z M 3.421875 -0.59375 C 3.867188 -0.59375 4.234375 -0.796875 4.515625 -1.203125 C 4.804688 -1.617188 4.953125 -2.203125 4.953125 -2.953125 C 4.953125 -4.160156 4.644531 -4.914062 4.03125 -5.21875 C 3.84375 -5.3125 3.640625 -5.359375 3.421875 -5.359375 C 2.691406 -5.359375 2.21875 -4.921875 2 -4.046875 C 1.925781 -3.742188 1.890625 -3.390625 1.890625 -2.984375 C 1.890625 -2.210938 2.03125 -1.617188 2.3125 -1.203125 C 2.59375 -0.796875 2.960938 -0.59375 3.421875 -0.59375 Z M 3.421875 -0.59375 "/></g></g><g transform="translate(78.972652, 84.750012)"><g><path d="M 5.015625 -0.921875 C 4.554688 -0.222656 3.925781 0.125 3.125 0.125 C 2.320312 0.125 1.6875 -0.140625 1.21875 -0.671875 C 0.75 -1.203125 0.515625 -1.910156 0.515625 -2.796875 C 0.515625 -3.890625 0.753906 -4.707031 1.234375 -5.25 C 1.710938 -5.789062 2.375 -6.0625 3.21875 -6.0625 C 3.851562 -6.0625 4.398438 -5.84375 4.859375 -5.40625 L 4.859375 -7.5625 C 4.859375 -7.84375 4.828125 -8.023438 4.765625 -8.109375 C 4.710938 -8.203125 4.578125 -8.25 4.359375 -8.25 L 3.9375 -8.25 L 3.9375 -8.890625 C 4.320312 -8.890625 4.625 -8.914062 4.84375 -8.96875 C 5.0625 -9.03125 5.21875 -9.070312 5.3125 -9.09375 C 5.40625 -9.125 5.503906 -9.140625 5.609375 -9.140625 C 5.816406 -9.140625 5.953125 -9.078125 6.015625 -8.953125 C 6.085938 -8.835938 6.125 -8.648438 6.125 -8.390625 L 6.125 -1.5625 C 6.125 -1.175781 6.140625 -0.941406 6.171875 -0.859375 C 6.234375 -0.679688 6.390625 -0.59375 6.640625 -0.59375 C 6.773438 -0.59375 6.890625 -0.613281 6.984375 -0.65625 L 6.984375 -0.09375 C 6.796875 0.0507812 6.539062 0.125 6.21875 0.125 C 5.570312 0.125 5.171875 -0.222656 5.015625 -0.921875 Z M 2.65625 -0.78125 C 2.84375 -0.65625 3.070312 -0.59375 3.34375 -0.59375 C 3.851562 -0.59375 4.234375 -0.804688 4.484375 -1.234375 C 4.742188 -1.660156 4.875 -2.257812 4.875 -3.03125 C 4.875 -4.15625 4.578125 -4.878906 3.984375 -5.203125 C 3.796875 -5.304688 3.585938 -5.359375 3.359375 -5.359375 C 2.890625 -5.359375 2.523438 -5.144531 2.265625 -4.71875 C 2.003906 -4.289062 1.875 -3.726562 1.875 -3.03125 C 1.875 -1.894531 2.132812 -1.144531 2.65625 -0.78125 Z M 2.65625 -0.78125 "/></g></g><g transform="translate(86.109371, 84.750012)"><g><path d="M 6 -2.703125 L 1.921875 -2.703125 C 1.921875 -2.023438 2.082031 -1.503906 2.40625 -1.140625 C 2.726562 -0.773438 3.125 -0.59375 3.59375 -0.59375 C 4.21875 -0.59375 4.664062 -0.851562 4.9375 -1.375 L 5.8125 -1.375 C 5.71875 -0.957031 5.457031 -0.601562 5.03125 -0.3125 C 4.613281 -0.0195312 4.046875 0.125 3.328125 0.125 C 2.609375 0.125 1.988281 -0.0976562 1.46875 -0.546875 C 0.84375 -1.085938 0.53125 -1.84375 0.53125 -2.8125 C 0.53125 -3.78125 0.773438 -4.5625 1.265625 -5.15625 C 1.765625 -5.757812 2.484375 -6.0625 3.421875 -6.0625 C 4.640625 -6.0625 5.429688 -5.566406 5.796875 -4.578125 C 5.929688 -4.179688 6 -3.804688 6 -3.453125 C 6 -3.109375 6 -2.859375 6 -2.703125 Z M 4.640625 -3.578125 C 4.640625 -4.773438 4.234375 -5.375 3.421875 -5.375 C 2.960938 -5.375 2.601562 -5.195312 2.34375 -4.84375 C 2.09375 -4.488281 1.957031 -3.992188 1.9375 -3.359375 L 4.640625 -3.359375 C 4.640625 -3.429688 4.640625 -3.503906 4.640625 -3.578125 Z M 4.640625 -3.578125 "/></g></g><g transform="translate(92.648433, 84.750012)"><g><path d="M 4.125 0.125 C 3.476562 0.125 2.929688 -0.0976562 2.484375 -0.546875 L 2.484375 1.546875 C 2.484375 1.847656 2.546875 2.035156 2.671875 2.109375 C 2.804688 2.191406 3.140625 2.234375 3.671875 2.234375 L 3.671875 2.875 L 0.390625 2.875 L 0.390625 2.234375 C 0.722656 2.234375 0.929688 2.195312 1.015625 2.125 C 1.109375 2.050781 1.164062 1.972656 1.1875 1.890625 C 1.207031 1.816406 1.21875 1.722656 1.21875 1.609375 L 1.21875 -4.484375 C 1.21875 -4.765625 1.191406 -4.945312 1.140625 -5.03125 C 1.085938 -5.113281 0.953125 -5.15625 0.734375 -5.15625 L 0.328125 -5.15625 L 0.328125 -5.8125 C 0.710938 -5.8125 1.015625 -5.835938 1.234375 -5.890625 C 1.453125 -5.953125 1.609375 -5.992188 1.703125 -6.015625 C 1.796875 -6.035156 1.894531 -6.046875 2 -6.046875 C 2.207031 -6.046875 2.34375 -5.988281 2.40625 -5.875 C 2.46875 -5.757812 2.5 -5.566406 2.5 -5.296875 L 2.5 -5.28125 C 2.9375 -5.800781 3.53125 -6.0625 4.28125 -6.0625 C 5.039062 -6.0625 5.65625 -5.804688 6.125 -5.296875 C 6.59375 -4.785156 6.828125 -4.046875 6.828125 -3.078125 C 6.828125 -2.109375 6.582031 -1.332031 6.09375 -0.75 C 5.613281 -0.164062 4.957031 0.125 4.125 0.125 Z M 2.453125 -2.90625 C 2.453125 -2.1875 2.585938 -1.617188 2.859375 -1.203125 C 3.140625 -0.796875 3.515625 -0.59375 3.984375 -0.59375 C 4.441406 -0.59375 4.800781 -0.800781 5.0625 -1.21875 C 5.320312 -1.644531 5.453125 -2.210938 5.453125 -2.921875 C 5.453125 -4.046875 5.179688 -4.789062 4.640625 -5.15625 C 4.441406 -5.289062 4.207031 -5.359375 3.9375 -5.359375 C 3.675781 -5.359375 3.453125 -5.296875 3.265625 -5.171875 C 3.085938 -5.046875 2.9375 -4.875 2.8125 -4.65625 C 2.570312 -4.207031 2.453125 -3.625 2.453125 -2.90625 Z M 2.453125 -2.90625 "/></g></g><g transform="translate(99.978511, 84.750012)"><g><path d="M 6 -2.703125 L 1.921875 -2.703125 C 1.921875 -2.023438 2.082031 -1.503906 2.40625 -1.140625 C 2.726562 -0.773438 3.125 -0.59375 3.59375 -0.59375 C 4.21875 -0.59375 4.664062 -0.851562 4.9375 -1.375 L 5.8125 -1.375 C 5.71875 -0.957031 5.457031 -0.601562 5.03125 -0.3125 C 4.613281 -0.0195312 4.046875 0.125 3.328125 0.125 C 2.609375 0.125 1.988281 -0.0976562 1.46875 -0.546875 C 0.84375 -1.085938 0.53125 -1.84375 0.53125 -2.8125 C 0.53125 -3.78125 0.773438 -4.5625 1.265625 -5.15625 C 1.765625 -5.757812 2.484375 -6.0625 3.421875 -6.0625 C 4.640625 -6.0625 5.429688 -5.566406 5.796875 -4.578125 C 5.929688 -4.179688 6 -3.804688 6 -3.453125 C 6 -3.109375 6 -2.859375 6 -2.703125 Z M 4.640625 -3.578125 C 4.640625 -4.773438 4.234375 -5.375 3.421875 -5.375 C 2.960938 -5.375 2.601562 -5.195312 2.34375 -4.84375 C 2.09375 -4.488281 1.957031 -3.992188 1.9375 -3.359375 L 4.640625 -3.359375 C 4.640625 -3.429688 4.640625 -3.503906 4.640625 -3.578125 Z M 4.640625 -3.578125 "/></g></g><g transform="translate(106.517573, 84.750012)"><g><path d="M 4.109375 -5.1875 C 3.472656 -5.1875 2.957031 -4.984375 2.5625 -4.578125 L 2.5625 -1.265625 C 2.5625 -1.015625 2.597656 -0.859375 2.671875 -0.796875 C 2.804688 -0.691406 3.066406 -0.640625 3.453125 -0.640625 L 3.453125 0 L 0.46875 0 L 0.46875 -0.640625 C 0.800781 -0.640625 1.007812 -0.671875 1.09375 -0.734375 C 1.1875 -0.804688 1.242188 -0.878906 1.265625 -0.953125 C 1.285156 -1.035156 1.296875 -1.140625 1.296875 -1.265625 L 1.296875 -4.453125 C 1.296875 -4.734375 1.269531 -4.914062 1.21875 -5 C 1.164062 -5.09375 1.03125 -5.140625 0.8125 -5.140625 L 0.453125 -5.140625 L 0.453125 -5.78125 C 0.828125 -5.78125 1.117188 -5.804688 1.328125 -5.859375 C 1.535156 -5.921875 1.679688 -5.960938 1.765625 -5.984375 C 1.859375 -6.015625 1.953125 -6.03125 2.046875 -6.03125 C 2.253906 -6.03125 2.390625 -5.96875 2.453125 -5.84375 C 2.523438 -5.726562 2.5625 -5.539062 2.5625 -5.28125 C 2.976562 -5.625 3.460938 -5.859375 4.015625 -5.984375 C 4.191406 -6.023438 4.367188 -6.046875 4.546875 -6.046875 C 5.816406 -6.046875 6.453125 -5.210938 6.453125 -3.546875 L 6.453125 -1.265625 C 6.453125 -1.015625 6.488281 -0.847656 6.5625 -0.765625 C 6.632812 -0.679688 6.835938 -0.640625 7.171875 -0.640625 L 7.171875 0 L 4.390625 0 L 4.390625 -0.640625 C 4.742188 -0.640625 4.957031 -0.675781 5.03125 -0.75 C 5.101562 -0.820312 5.144531 -0.894531 5.15625 -0.96875 C 5.175781 -1.050781 5.1875 -1.148438 5.1875 -1.265625 L 5.1875 -3.46875 C 5.1875 -4.007812 5.132812 -4.378906 5.03125 -4.578125 C 4.832031 -4.984375 4.523438 -5.1875 4.109375 -5.1875 Z M 4.109375 -5.1875 "/></g></g></g></svg>