<svg xmlns="http://www.w3.org/2000/svg" xmlns:xlink="http://www.w3.org/1999/xlink" width="240" zoomAndPan="magnify" viewBox="0 0 180 89.999999" height="120" preserveAspectRatio="xMidYMid meet" version="1.0"><defs><g/><clipPath id="2a4a4ee117"><path d="M 55 2.15625 L 126 2.15625 L 126 74.15625 L 55 74.15625 Z M 55 2.15625 " clip-rule="nonzero"/></clipPath></defs><rect x="-18" width="216" fill="#ffffff" y="-9" height="107.999999" fill-opacity="1"/><g clip-path="url(#2a4a4ee117)"><path fill="#a8a8a8" d="M 72.398438 74.15625 C 68.683594 74.15625 65.164062 73.046875 62.199219 70.949219 C 56.546875 67.0625 54.347656 61.023438 55.683594 53.023438 C 56.347656 49.078125 58.007812 45.679688 59.472656 42.683594 L 59.882812 41.84375 C 60.4375 40.734375 61.820312 40.21875 62.933594 40.769531 C 64.046875 41.324219 64.527344 42.613281 63.976562 43.722656 L 63.914062 43.847656 L 63.554688 44.582031 C 62.1875 47.378906 60.679688 50.460938 60.125 53.765625 C 59.070312 60.0625 60.550781 64.351562 64.773438 67.257812 C 66.996094 68.835938 69.617188 69.65625 72.371094 69.65625 C 77.425781 69.65625 82.78125 67.019531 87.960938 64.46875 C 91.460938 62.75 95.355469 61.402344 100.210938 60.214844 C 101.65625 59.863281 103.097656 59.65625 104.625 59.433594 L 104.984375 59.382812 C 108.007812 58.953125 111.128906 58.511719 113.765625 56.992188 C 116.65625 55.328125 118.660156 52.535156 119.261719 49.335938 C 119.699219 46.851562 119.308594 44.363281 118.136719 42.082031 C 117.777344 41.375 117.816406 40.535156 118.234375 39.863281 C 118.941406 38.734375 119.300781 37.472656 119.300781 36.113281 C 119.300781 36.070312 119.300781 36.023438 119.300781 35.980469 C 119.234375 32.839844 117.070312 30.097656 114 29.277344 C 113.378906 29.113281 112.824219 28.679688 112.539062 28.105469 C 112.25 27.53125 112.1875 26.851562 112.421875 26.257812 L 120.234375 6.65625 L 82.089844 6.65625 L 89.921875 26.339844 C 90.15625 26.929688 90.132812 27.589844 89.859375 28.15625 C 89.582031 28.722656 89.078125 29.152344 88.472656 29.332031 C 85.382812 30.246094 83.300781 32.984375 83.296875 36.140625 C 83.296875 38.402344 84.425781 40.5625 86.324219 41.914062 C 86.8125 42.261719 87.140625 42.789062 87.238281 43.378906 C 87.335938 43.96875 87.195312 44.570312 86.84375 45.058594 C 85.773438 46.550781 84.609375 47.878906 83.289062 49.109375 C 80.882812 51.386719 78.109375 53.179688 75.046875 54.4375 C 74.355469 54.726562 73.398438 54.703125 72.777344 54.285156 C 69.390625 52.015625 67.957031 47.910156 69.289062 44.296875 C 69.722656 43.132812 71.027344 42.539062 72.179688 42.964844 C 73.34375 43.398438 73.941406 44.691406 73.511719 45.855469 C 73.011719 47.203125 73.371094 48.679688 74.398438 49.792969 C 76.5625 48.769531 78.488281 47.453125 80.191406 45.835938 C 80.816406 45.253906 81.394531 44.652344 81.9375 44.019531 C 79.941406 41.886719 78.796875 39.066406 78.796875 36.132812 C 78.800781 31.792969 81.1875 27.941406 84.921875 25.941406 L 76.679688 5.238281 C 76.40625 4.546875 76.488281 3.761719 76.910156 3.144531 C 77.328125 2.527344 78.027344 2.15625 78.773438 2.15625 L 123.554688 2.15625 C 124.300781 2.15625 124.996094 2.527344 125.417969 3.144531 C 125.835938 3.761719 125.921875 4.546875 125.644531 5.242188 L 117.441406 25.824219 C 121.316406 27.808594 123.800781 31.738281 123.808594 36.113281 C 123.808594 36.175781 123.804688 36.238281 123.800781 36.300781 C 123.777344 37.988281 123.386719 39.636719 122.667969 41.140625 C 123.878906 43.996094 124.238281 47.050781 123.710938 50.058594 C 122.84375 54.660156 120.050781 58.570312 116.019531 60.890625 C 112.628906 62.847656 108.910156 63.371094 105.628906 63.835938 L 105.273438 63.886719 C 103.859375 64.09375 102.523438 64.285156 101.285156 64.585938 C 96.75 65.695312 93.152344 66.9375 89.953125 68.507812 C 84.308594 71.28125 78.476562 74.15625 72.398438 74.15625 Z M 72.398438 74.15625 " fill-opacity="1" fill-rule="nonzero"/></g><path fill="#a8a8a8" d="M 109.164062 29.546875 C 108.347656 29.546875 107.5625 29.105469 107.160156 28.332031 L 101.164062 16.765625 L 95.160156 28.234375 C 94.582031 29.339844 93.222656 29.765625 92.121094 29.1875 C 91.023438 28.609375 90.59375 27.25 91.171875 26.152344 L 99.179688 10.851562 C 99.570312 10.105469 100.339844 9.644531 101.175781 9.644531 C 101.175781 9.644531 101.179688 9.644531 101.179688 9.644531 C 102.019531 9.644531 102.789062 10.117188 103.175781 10.859375 L 111.15625 26.265625 C 111.726562 27.371094 111.296875 28.726562 110.195312 29.296875 C 109.863281 29.464844 109.511719 29.546875 109.164062 29.546875 Z M 109.164062 29.546875 " fill-opacity="1" fill-rule="nonzero"/><path fill="#a8a8a8" d="M 102.9375 36.550781 L 99.660156 36.550781 C 98.417969 36.550781 97.410156 35.542969 97.410156 34.300781 C 97.410156 33.058594 98.417969 32.050781 99.660156 32.050781 L 102.9375 32.050781 C 104.179688 32.050781 105.1875 33.058594 105.1875 34.300781 C 105.1875 35.542969 104.179688 36.550781 102.9375 36.550781 Z M 102.9375 36.550781 " fill-opacity="1" fill-rule="nonzero"/><path fill="#a8a8a8" d="M 90.4375 47.140625 C 84.28125 47.140625 79.285156 42.351562 79.070312 36.238281 C 79.070312 36.214844 79.070312 36.171875 79.070312 36.144531 L 79.070312 36.121094 C 79.070312 30.976562 82.566406 26.496094 87.574219 25.222656 C 87.953125 25.132812 88.125 25.097656 88.324219 25.0625 C 88.398438 25.050781 88.476562 25.042969 88.554688 25.035156 C 88.617188 25.027344 88.675781 25.015625 88.734375 25.007812 C 88.914062 24.964844 89.054688 24.953125 89.238281 24.953125 C 89.425781 24.933594 89.59375 24.914062 89.777344 24.914062 L 91.191406 24.914062 C 91.304688 24.914062 91.628906 24.945312 91.746094 24.964844 C 91.953125 24.964844 92.160156 25.003906 92.359375 25.066406 C 92.367188 25.066406 92.375 25.070312 92.382812 25.070312 C 92.5625 25.085938 92.730469 25.121094 92.898438 25.175781 L 93.117188 25.222656 C 93.226562 25.234375 93.335938 25.257812 93.429688 25.285156 C 93.625 25.339844 93.804688 25.394531 93.976562 25.460938 C 94.023438 25.472656 94.0625 25.484375 94.105469 25.5 C 94.242188 25.542969 94.4375 25.601562 94.65625 25.703125 C 94.71875 25.726562 94.785156 25.757812 94.851562 25.792969 L 94.933594 25.828125 C 95.007812 25.84375 95.082031 25.871094 95.15625 25.894531 C 95.378906 25.984375 95.59375 26.085938 95.792969 26.207031 C 95.816406 26.21875 95.839844 26.230469 95.859375 26.242188 C 95.910156 26.265625 96.175781 26.417969 96.222656 26.449219 L 96.222656 26.453125 C 96.277344 26.476562 96.332031 26.503906 96.382812 26.53125 C 96.550781 26.621094 96.699219 26.71875 96.851562 26.820312 C 97.0625 26.929688 97.175781 27.027344 97.34375 27.195312 C 97.613281 27.371094 98.070312 27.777344 98.511719 28.179688 C 100.695312 30.449219 101.804688 33.207031 101.804688 36.109375 C 101.585938 42.34375 96.59375 47.140625 90.4375 47.140625 Z M 89.445312 29.453125 C 89.40625 29.460938 89.367188 29.464844 89.328125 29.46875 C 89.136719 29.523438 89 29.53125 88.796875 29.53125 C 85.667969 30.347656 83.566406 33.035156 83.566406 36.121094 L 83.566406 36.164062 C 83.695312 39.757812 86.710938 42.640625 90.433594 42.640625 C 94.15625 42.640625 97.171875 39.757812 97.304688 36.070312 C 97.304688 34.375 96.632812 32.71875 95.429688 31.453125 C 95.164062 31.21875 94.824219 30.90625 94.449219 30.632812 C 94.433594 30.621094 94.414062 30.605469 94.398438 30.59375 C 94.34375 30.558594 94.292969 30.527344 94.265625 30.507812 C 94.167969 30.457031 94.070312 30.402344 93.96875 30.34375 C 93.824219 30.28125 93.679688 30.207031 93.542969 30.109375 C 93.464844 30.085938 93.386719 30.050781 93.3125 30.015625 C 93.214844 29.980469 93.121094 29.945312 93.027344 29.902344 C 92.949219 29.878906 92.867188 29.84375 92.789062 29.804688 C 92.753906 29.800781 92.726562 29.789062 92.691406 29.78125 C 92.570312 29.75 92.453125 29.710938 92.335938 29.65625 L 91.832031 29.554688 C 91.773438 29.542969 91.710938 29.527344 91.65625 29.515625 C 91.632812 29.511719 91.609375 29.503906 91.589844 29.5 C 91.523438 29.488281 91.332031 29.457031 91.230469 29.4375 C 91.160156 29.429688 91.09375 29.421875 91.050781 29.414062 L 89.78125 29.421875 C 89.746094 29.433594 89.613281 29.453125 89.445312 29.453125 Z M 91.441406 29.449219 C 91.453125 29.449219 91.464844 29.453125 91.476562 29.453125 C 91.464844 29.453125 91.453125 29.453125 91.441406 29.449219 Z M 91.441406 29.449219 " fill-opacity="1" fill-rule="nonzero"/><path fill="#a8a8a8" d="M 112.171875 47.140625 C 106.015625 47.140625 101.019531 42.351562 100.804688 36.238281 C 100.804688 36.214844 100.804688 36.171875 100.804688 36.144531 L 100.804688 36.121094 C 100.804688 30.976562 104.300781 26.496094 109.308594 25.222656 C 109.695312 25.132812 109.863281 25.097656 110.058594 25.0625 C 110.132812 25.050781 110.210938 25.042969 110.289062 25.035156 C 110.351562 25.027344 110.410156 25.015625 110.46875 25.007812 C 110.648438 24.964844 110.789062 24.953125 110.972656 24.953125 C 111.164062 24.933594 111.328125 24.914062 111.515625 24.914062 L 112.925781 24.914062 C 113.042969 24.914062 113.363281 24.945312 113.476562 24.964844 C 113.6875 24.964844 113.894531 25.003906 114.09375 25.066406 C 114.105469 25.066406 114.113281 25.070312 114.125 25.070312 C 114.296875 25.089844 114.464844 25.125 114.632812 25.175781 L 114.855469 25.222656 C 114.964844 25.234375 115.074219 25.257812 115.167969 25.285156 C 115.363281 25.339844 115.542969 25.394531 115.714844 25.460938 C 115.757812 25.472656 115.800781 25.484375 115.847656 25.5 C 115.980469 25.542969 116.175781 25.601562 116.390625 25.703125 C 116.460938 25.726562 116.527344 25.757812 116.59375 25.789062 C 116.59375 25.789062 116.625 25.800781 116.671875 25.820312 C 116.75 25.84375 116.828125 25.867188 116.898438 25.894531 C 117.121094 25.980469 117.335938 26.082031 117.535156 26.207031 C 117.554688 26.21875 117.570312 26.226562 117.585938 26.234375 C 117.640625 26.261719 117.910156 26.414062 117.960938 26.445312 L 117.957031 26.453125 C 118.011719 26.476562 118.066406 26.503906 118.121094 26.527344 C 118.285156 26.613281 118.4375 26.710938 118.582031 26.8125 C 118.792969 26.921875 118.914062 27.023438 119.082031 27.1875 C 119.339844 27.359375 119.789062 27.757812 120.230469 28.152344 C 122.429688 30.441406 123.542969 33.203125 123.542969 36.101562 C 123.320312 42.34375 118.328125 47.140625 112.171875 47.140625 Z M 111.179688 29.453125 C 111.144531 29.460938 111.105469 29.464844 111.066406 29.46875 C 110.875 29.519531 110.730469 29.53125 110.535156 29.53125 C 107.40625 30.347656 105.300781 33.035156 105.300781 36.121094 L 105.300781 36.164062 C 105.429688 39.757812 108.445312 42.640625 112.167969 42.640625 C 115.886719 42.640625 118.90625 39.753906 119.039062 36.066406 C 119.039062 34.371094 118.371094 32.71875 117.160156 31.453125 C 116.882812 31.207031 116.546875 30.898438 116.1875 30.632812 C 116.167969 30.621094 116.152344 30.609375 116.132812 30.59375 C 116.078125 30.558594 116.03125 30.523438 116 30.507812 C 115.902344 30.457031 115.800781 30.402344 115.703125 30.34375 C 115.554688 30.28125 115.410156 30.207031 115.277344 30.109375 C 115.195312 30.085938 115.113281 30.046875 115.039062 30.011719 C 115.007812 30 114.917969 29.964844 114.832031 29.929688 C 114.816406 29.925781 114.804688 29.917969 114.789062 29.917969 C 114.699219 29.886719 114.609375 29.851562 114.527344 29.808594 C 114.492188 29.800781 114.460938 29.792969 114.425781 29.785156 C 114.308594 29.753906 114.1875 29.710938 114.074219 29.660156 L 113.570312 29.558594 C 113.507812 29.546875 113.453125 29.535156 113.394531 29.515625 C 113.371094 29.511719 113.347656 29.503906 113.324219 29.5 C 113.257812 29.488281 113.0625 29.457031 112.964844 29.4375 C 112.894531 29.429688 112.832031 29.425781 112.789062 29.417969 L 111.515625 29.425781 C 111.480469 29.433594 111.347656 29.453125 111.179688 29.453125 Z M 113.175781 29.449219 C 113.1875 29.449219 113.199219 29.453125 113.210938 29.453125 C 113.199219 29.453125 113.1875 29.453125 113.175781 29.449219 Z M 113.175781 29.449219 " fill-opacity="1" fill-rule="nonzero"/><path fill="#a8a8a8" d="M 68.597656 46.871094 C 63.21875 46.871094 58.84375 42.496094 58.84375 37.121094 C 58.84375 31.742188 63.21875 27.371094 68.59375 27.371094 C 73.96875 27.371094 78.34375 31.742188 78.34375 37.121094 C 78.34375 42.496094 73.96875 46.871094 68.597656 46.871094 Z M 68.59375 31.871094 C 65.699219 31.871094 63.34375 34.226562 63.34375 37.121094 C 63.34375 40.015625 65.703125 42.371094 68.597656 42.371094 C 71.488281 42.371094 73.84375 40.015625 73.84375 37.121094 C 73.84375 34.222656 71.488281 31.871094 68.59375 31.871094 Z M 68.59375 31.871094 " fill-opacity="1" fill-rule="nonzero"/><g fill="#a8a8a8" fill-opacity="1"><g transform="translate(79.599606, 84.749998)"><g><path d="M 2.0625 -7.15625 C 1.8125 -7.15625 1.597656 -7.238281 1.421875 -7.40625 C 1.242188 -7.582031 1.15625 -7.796875 1.15625 -8.046875 C 1.15625 -8.296875 1.242188 -8.503906 1.421875 -8.671875 C 1.597656 -8.847656 1.8125 -8.9375 2.0625 -8.9375 C 2.3125 -8.9375 2.523438 -8.847656 2.703125 -8.671875 C 2.890625 -8.503906 2.984375 -8.296875 2.984375 -8.046875 C 2.984375 -7.796875 2.894531 -7.582031 2.71875 -7.40625 C 2.539062 -7.238281 2.320312 -7.15625 2.0625 -7.15625 Z M 0.65625 1.21875 C 0.757812 1.320312 0.828125 1.414062 0.859375 1.5 C 0.898438 1.59375 0.921875 1.707031 0.921875 1.84375 C 0.921875 1.988281 0.847656 2.128906 0.703125 2.265625 C 0.804688 2.304688 0.890625 2.320312 0.953125 2.3125 C 1.441406 2.28125 1.6875 1.898438 1.6875 1.171875 C 1.6875 0.941406 1.648438 0.601562 1.578125 0.15625 C 1.515625 -0.289062 1.484375 -0.664062 1.484375 -0.96875 L 1.484375 -4.484375 C 1.484375 -4.765625 1.457031 -4.945312 1.40625 -5.03125 C 1.351562 -5.113281 1.222656 -5.15625 1.015625 -5.15625 L 0.46875 -5.15625 L 0.46875 -5.8125 C 0.851562 -5.8125 1.164062 -5.835938 1.40625 -5.890625 C 1.65625 -5.953125 1.832031 -5.992188 1.9375 -6.015625 C 2.039062 -6.035156 2.144531 -6.046875 2.25 -6.046875 C 2.445312 -6.046875 2.578125 -5.988281 2.640625 -5.875 C 2.710938 -5.757812 2.75 -5.566406 2.75 -5.296875 L 2.75 -0.0625 C 2.75 1.488281 2.394531 2.445312 1.6875 2.8125 C 1.457031 2.925781 1.210938 2.984375 0.953125 2.984375 C 0.492188 2.984375 0.125 2.875 -0.15625 2.65625 C -0.445312 2.445312 -0.59375 2.207031 -0.59375 1.9375 C -0.59375 1.675781 -0.535156 1.488281 -0.421875 1.375 C -0.234375 1.175781 -0.0351562 1.078125 0.171875 1.078125 C 0.390625 1.078125 0.550781 1.125 0.65625 1.21875 Z M 0.65625 1.21875 "/></g></g><g transform="translate(83.244137, 84.749998)"><g><path d="M 6 -2.703125 L 1.921875 -2.703125 C 1.921875 -2.023438 2.082031 -1.503906 2.40625 -1.140625 C 2.726562 -0.773438 3.125 -0.59375 3.59375 -0.59375 C 4.21875 -0.59375 4.664062 -0.851562 4.9375 -1.375 L 5.8125 -1.375 C 5.71875 -0.957031 5.457031 -0.601562 5.03125 -0.3125 C 4.613281 -0.0195312 4.046875 0.125 3.328125 0.125 C 2.609375 0.125 1.988281 -0.0976562 1.46875 -0.546875 C 0.84375 -1.085938 0.53125 -1.84375 0.53125 -2.8125 C 0.53125 -3.78125 0.773438 -4.5625 1.265625 -5.15625 C 1.765625 -5.757812 2.484375 -6.0625 3.421875 -6.0625 C 4.640625 -6.0625 5.429688 -5.566406 5.796875 -4.578125 C 5.929688 -4.179688 6 -3.804688 6 -3.453125 C 6 -3.109375 6 -2.859375 6 -2.703125 Z M 4.640625 -3.578125 C 4.640625 -4.773438 4.234375 -5.375 3.421875 -5.375 C 2.960938 -5.375 2.601562 -5.195312 2.34375 -4.84375 C 2.09375 -4.488281 1.957031 -3.992188 1.9375 -3.359375 L 4.640625 -3.359375 C 4.640625 -3.429688 4.640625 -3.503906 4.640625 -3.578125 Z M 4.640625 -3.578125 "/></g></g><g transform="translate(89.7832, 84.749998)"><g><path d="M 3.734375 -5.15625 C 3.535156 -5.363281 3.207031 -5.46875 2.75 -5.46875 C 2.300781 -5.46875 2 -5.300781 1.84375 -4.96875 C 1.800781 -4.875 1.78125 -4.765625 1.78125 -4.640625 C 1.78125 -4.523438 1.828125 -4.410156 1.921875 -4.296875 C 2.015625 -4.191406 2.132812 -4.085938 2.28125 -3.984375 C 2.425781 -3.890625 2.59375 -3.796875 2.78125 -3.703125 C 2.96875 -3.609375 3.160156 -3.503906 3.359375 -3.390625 C 3.554688 -3.285156 3.765625 -3.171875 3.984375 -3.046875 C 4.804688 -2.597656 5.21875 -2.101562 5.21875 -1.5625 C 5.21875 -1.019531 5.003906 -0.601562 4.578125 -0.3125 C 4.160156 -0.0195312 3.601562 0.125 2.90625 0.125 C 2.207031 0.125 1.628906 0 1.171875 -0.25 C 0.722656 -0.507812 0.5 -0.832031 0.5 -1.21875 C 0.5 -1.4375 0.566406 -1.617188 0.703125 -1.765625 C 0.847656 -1.921875 1.03125 -2 1.25 -2 C 1.476562 -2 1.660156 -1.925781 1.796875 -1.78125 C 1.941406 -1.644531 2.015625 -1.476562 2.015625 -1.28125 C 2.015625 -1.09375 1.953125 -0.929688 1.828125 -0.796875 C 2.140625 -0.617188 2.523438 -0.53125 2.984375 -0.53125 C 3.453125 -0.53125 3.78125 -0.640625 3.96875 -0.859375 C 4.039062 -0.941406 4.078125 -1.050781 4.078125 -1.1875 C 4.078125 -1.507812 3.71875 -1.847656 3 -2.203125 C 2.5 -2.453125 2.125 -2.644531 1.875 -2.78125 C 1.070312 -3.238281 0.671875 -3.785156 0.671875 -4.421875 C 0.671875 -4.910156 0.875 -5.300781 1.28125 -5.59375 C 1.695312 -5.894531 2.21875 -6.046875 2.84375 -6.046875 C 3.476562 -6.046875 4.007812 -5.925781 4.4375 -5.6875 C 4.875 -5.457031 5.09375 -5.15625 5.09375 -4.78125 C 5.09375 -4.5625 5.039062 -4.398438 4.9375 -4.296875 C 4.75 -4.109375 4.570312 -4.015625 4.40625 -4.015625 C 4.132812 -4.015625 3.925781 -4.082031 3.78125 -4.21875 C 3.644531 -4.363281 3.578125 -4.523438 3.578125 -4.703125 C 3.578125 -4.878906 3.628906 -5.03125 3.734375 -5.15625 Z M 3.734375 -5.15625 "/></g></g><g transform="translate(95.490231, 84.749998)"><g><path d="M 2.921875 0.125 C 1.691406 0.125 1.078125 -0.5625 1.078125 -1.9375 L 1.078125 -4.859375 C 1.078125 -5.015625 1.054688 -5.113281 1.015625 -5.15625 C 0.984375 -5.207031 0.90625 -5.234375 0.78125 -5.234375 L 0.3125 -5.234375 L 0.3125 -5.9375 L 0.515625 -5.9375 C 0.816406 -5.9375 1.035156 -6.03125 1.171875 -6.21875 C 1.316406 -6.40625 1.394531 -6.71875 1.40625 -7.15625 L 1.40625 -7.671875 L 2.34375 -7.671875 L 2.34375 -5.9375 L 4.140625 -5.9375 L 4.140625 -5.234375 L 2.34375 -5.234375 L 2.34375 -1.953125 C 2.34375 -1.222656 2.507812 -0.789062 2.84375 -0.65625 C 2.9375 -0.613281 3.03125 -0.59375 3.125 -0.59375 C 3.539062 -0.59375 3.8125 -0.929688 3.9375 -1.609375 L 4.609375 -1.609375 C 4.566406 -0.804688 4.234375 -0.273438 3.609375 -0.015625 C 3.410156 0.078125 3.179688 0.125 2.921875 0.125 Z M 2.921875 0.125 "/></g></g></g></svg>