<svg xmlns="http://www.w3.org/2000/svg" xmlns:xlink="http://www.w3.org/1999/xlink" width="240" zoomAndPan="magnify" viewBox="0 0 180 89.999999" height="120" preserveAspectRatio="xMidYMid meet" version="1.0"><defs><g/><clipPath id="c2b0ce6bcc"><path d="M 50.953125 6 L 128.953125 6 L 128.953125 76 L 50.953125 76 Z M 50.953125 6 " clip-rule="nonzero"/></clipPath></defs><rect x="-18" width="216" fill="#ffffff" y="-9" height="107.999999" fill-opacity="1"/><g clip-path="url(#c2b0ce6bcc)"><path fill="#a8a8a8" d="M 115.058594 28.714844 C 114.226562 28.429688 113.390625 28.164062 112.546875 27.921875 C 112.691406 27.34375 112.820312 26.769531 112.9375 26.207031 C 114.835938 16.972656 113.59375 9.53125 109.351562 7.082031 C 105.285156 4.730469 98.632812 7.179688 91.914062 13.035156 C 91.253906 13.613281 90.605469 14.210938 89.972656 14.820312 C 89.550781 14.414062 89.121094 14.015625 88.683594 13.625 C 81.640625 7.363281 74.585938 4.726562 70.347656 7.183594 C 66.28125 9.539062 65.078125 16.535156 66.789062 25.289062 C 66.960938 26.15625 67.152344 27.015625 67.367188 27.875 C 66.367188 28.160156 65.402344 28.460938 64.480469 28.78125 C 56.226562 31.664062 50.953125 36.183594 50.953125 40.867188 C 50.953125 45.707031 56.613281 50.5625 65.210938 53.503906 C 65.910156 53.742188 66.609375 53.960938 67.320312 54.164062 C 67.089844 55.089844 66.886719 56.015625 66.707031 56.953125 C 65.078125 65.554688 66.351562 72.382812 70.402344 74.722656 C 74.589844 77.140625 81.613281 74.65625 88.453125 68.667969 C 89.007812 68.179688 89.550781 67.679688 90.082031 67.167969 C 90.765625 67.828125 91.46875 68.46875 92.1875 69.09375 C 98.816406 74.804688 105.359375 77.109375 109.410156 74.761719 C 113.589844 72.335938 114.949219 65 113.183594 56.074219 C 113.046875 55.375 112.890625 54.679688 112.71875 53.988281 C 113.210938 53.839844 113.695312 53.691406 114.167969 53.53125 C 123.105469 50.566406 128.921875 45.773438 128.921875 40.867188 C 128.921875 36.164062 123.480469 31.617188 115.058594 28.714844 Z M 113.121094 50.367188 C 112.695312 50.507812 112.257812 50.644531 111.808594 50.777344 C 110.824219 47.648438 109.492188 44.320312 107.863281 40.882812 C 109.417969 37.527344 110.699219 34.246094 111.65625 31.136719 C 112.453125 31.367188 113.226562 31.613281 113.972656 31.867188 C 121.1875 34.355469 125.589844 38.035156 125.589844 40.867188 C 125.589844 43.886719 120.835938 47.804688 113.121094 50.367188 Z M 109.917969 56.722656 C 110.699219 60.667969 110.808594 64.238281 110.292969 67.027344 C 109.828125 69.535156 108.894531 71.207031 107.738281 71.875 C 105.28125 73.300781 100.027344 71.449219 94.359375 66.5625 C 93.691406 65.984375 93.039062 65.386719 92.402344 64.773438 C 94.597656 62.367188 96.792969 59.570312 98.9375 56.460938 C 102.707031 56.128906 106.265625 55.582031 109.496094 54.832031 C 109.652344 55.457031 109.792969 56.089844 109.917969 56.722656 Z M 77.535156 71.628906 C 75.132812 72.476562 73.222656 72.503906 72.066406 71.835938 C 69.605469 70.414062 68.585938 64.929688 69.980469 57.574219 C 70.144531 56.703125 70.335938 55.839844 70.546875 54.980469 C 73.742188 55.691406 77.277344 56.199219 81.054688 56.503906 C 83.210938 59.546875 85.472656 62.339844 87.75 64.785156 C 87.265625 65.253906 86.769531 65.710938 86.261719 66.15625 C 83.238281 68.804688 80.207031 70.683594 77.535156 71.628906 Z M 66.289062 50.347656 C 62.488281 49.046875 59.347656 47.355469 57.195312 45.507812 C 55.261719 43.851562 54.285156 42.203125 54.285156 40.867188 C 54.285156 38.023438 58.519531 34.398438 65.578125 31.933594 C 66.433594 31.632812 67.332031 31.351562 68.261719 31.085938 C 69.238281 34.265625 70.515625 37.589844 72.0625 40.949219 C 70.496094 44.359375 69.199219 47.734375 68.214844 50.953125 C 67.566406 50.765625 66.925781 50.566406 66.289062 50.347656 Z M 70.058594 24.648438 C 68.59375 17.148438 69.566406 11.488281 72.015625 10.070312 C 74.625 8.558594 80.390625 10.714844 86.46875 16.121094 C 86.867188 16.472656 87.257812 16.832031 87.640625 17.203125 C 85.375 19.636719 83.136719 22.410156 81 25.433594 C 77.332031 25.773438 73.820312 26.320312 70.59375 27.054688 C 70.394531 26.253906 70.21875 25.453125 70.058594 24.648438 Z M 103.691406 32.964844 C 102.925781 31.644531 102.136719 30.34375 101.320312 29.058594 C 103.804688 29.375 106.191406 29.792969 108.429688 30.304688 C 107.757812 32.460938 106.917969 34.714844 105.933594 37.027344 C 105.210938 35.660156 104.464844 34.304688 103.691406 32.964844 Z M 89.976562 19.585938 C 91.511719 21.253906 93.050781 23.113281 94.5625 25.132812 C 91.492188 24.988281 88.417969 24.988281 85.347656 25.128906 C 86.863281 23.128906 88.414062 21.273438 89.976562 19.585938 Z M 76.171875 32.988281 C 75.40625 34.316406 74.671875 35.660156 73.972656 37.023438 C 73 34.722656 72.171875 32.457031 71.492188 30.269531 C 73.71875 29.769531 76.089844 29.363281 78.5625 29.054688 C 77.734375 30.34375 76.9375 31.65625 76.171875 32.988281 Z M 78.632812 52.921875 C 76.078125 52.636719 73.671875 52.25 71.449219 51.765625 C 72.136719 49.539062 72.984375 47.222656 73.976562 44.871094 C 74.679688 46.234375 75.417969 47.582031 76.183594 48.910156 C 76.976562 50.277344 77.792969 51.617188 78.632812 52.921875 Z M 90.066406 62.386719 C 88.488281 60.679688 86.914062 58.792969 85.375 56.761719 C 86.867188 56.820312 88.390625 56.851562 89.9375 56.851562 C 91.527344 56.851562 93.097656 56.816406 94.644531 56.746094 C 93.125 58.8125 91.59375 60.703125 90.066406 62.386719 Z M 105.964844 44.75 C 107.007812 47.128906 107.882812 49.429688 108.582031 51.621094 C 106.320312 52.136719 103.882812 52.550781 101.308594 52.859375 C 102.132812 51.550781 102.929688 50.226562 103.703125 48.886719 C 104.488281 47.527344 105.242188 46.144531 105.964844 44.75 Z M 100.816406 47.222656 C 99.636719 49.277344 98.390625 51.292969 97.078125 53.265625 C 94.703125 53.433594 92.320312 53.515625 89.9375 53.515625 C 87.511719 53.515625 85.152344 53.441406 82.878906 53.292969 C 81.53125 51.324219 80.261719 49.304688 79.066406 47.238281 C 77.878906 45.183594 76.769531 43.085938 75.742188 40.949219 C 76.769531 38.808594 77.875 36.707031 79.058594 34.652344 C 80.242188 32.597656 81.503906 30.585938 82.839844 28.625 C 85.15625 28.449219 87.535156 28.359375 89.9375 28.359375 C 92.351562 28.359375 94.730469 28.449219 97.050781 28.628906 C 98.371094 30.585938 99.625 32.589844 100.808594 34.636719 C 101.996094 36.6875 103.117188 38.777344 104.167969 40.902344 C 103.125 43.046875 102.007812 45.15625 100.816406 47.222656 Z M 107.6875 9.96875 C 110.300781 11.480469 111.316406 17.558594 109.675781 25.535156 C 109.570312 26.042969 109.453125 26.5625 109.324219 27.085938 C 106.089844 26.339844 102.578125 25.785156 98.898438 25.4375 C 96.757812 22.382812 94.535156 19.605469 92.308594 17.199219 C 92.894531 16.636719 93.492188 16.085938 94.101562 15.550781 C 99.859375 10.535156 105.238281 8.554688 107.6875 9.96875 Z M 89.9375 33.894531 C 93.78125 33.894531 96.898438 37.015625 96.898438 40.867188 C 96.898438 44.71875 93.78125 47.839844 89.9375 47.839844 C 86.09375 47.839844 82.976562 44.71875 82.976562 40.867188 C 82.976562 37.015625 86.09375 33.894531 89.9375 33.894531 Z M 89.9375 33.894531 " fill-opacity="1" fill-rule="nonzero"/></g><g fill="#a8a8a8" fill-opacity="1"><g transform="translate(75.128903, 84.750005)"><g><path d="M 0.484375 -0.640625 C 0.816406 -0.640625 1.023438 -0.671875 1.109375 -0.734375 C 1.203125 -0.804688 1.253906 -0.878906 1.265625 -0.953125 C 1.285156 -1.035156 1.296875 -1.140625 1.296875 -1.265625 L 1.296875 -4.484375 C 1.296875 -4.765625 1.269531 -4.945312 1.21875 -5.03125 C 1.175781 -5.125 1.046875 -5.171875 0.828125 -5.171875 L 0.46875 -5.171875 L 0.46875 -5.8125 C 0.84375 -5.8125 1.128906 -5.835938 1.328125 -5.890625 C 1.535156 -5.953125 1.679688 -5.992188 1.765625 -6.015625 C 1.859375 -6.046875 1.957031 -6.0625 2.0625 -6.0625 C 2.257812 -6.0625 2.390625 -6 2.453125 -5.875 C 2.523438 -5.757812 2.5625 -5.570312 2.5625 -5.3125 L 2.5625 -5.1875 C 2.894531 -5.582031 3.273438 -5.847656 3.703125 -5.984375 C 3.859375 -6.035156 4.007812 -6.0625 4.15625 -6.0625 C 4.445312 -6.0625 4.675781 -5.976562 4.84375 -5.8125 C 5.007812 -5.644531 5.09375 -5.4375 5.09375 -5.1875 C 5.09375 -4.9375 5.015625 -4.734375 4.859375 -4.578125 C 4.703125 -4.421875 4.507812 -4.34375 4.28125 -4.34375 C 4.0625 -4.34375 3.878906 -4.421875 3.734375 -4.578125 C 3.597656 -4.734375 3.535156 -4.929688 3.546875 -5.171875 C 3.390625 -5.148438 3.21875 -5.078125 3.03125 -4.953125 C 2.851562 -4.828125 2.695312 -4.660156 2.5625 -4.453125 L 2.5625 -1.3125 C 2.5625 -1.164062 2.570312 -1.046875 2.59375 -0.953125 C 2.625 -0.867188 2.691406 -0.796875 2.796875 -0.734375 C 2.910156 -0.671875 3.25 -0.640625 3.8125 -0.640625 L 3.8125 0 L 0.484375 0 Z M 0.484375 -0.640625 "/></g></g><g transform="translate(80.384763, 84.750005)"><g><path d="M 6 -2.703125 L 1.921875 -2.703125 C 1.921875 -2.023438 2.082031 -1.503906 2.40625 -1.140625 C 2.726562 -0.773438 3.125 -0.59375 3.59375 -0.59375 C 4.21875 -0.59375 4.664062 -0.851562 4.9375 -1.375 L 5.8125 -1.375 C 5.71875 -0.957031 5.457031 -0.601562 5.03125 -0.3125 C 4.613281 -0.0195312 4.046875 0.125 3.328125 0.125 C 2.609375 0.125 1.988281 -0.0976562 1.46875 -0.546875 C 0.84375 -1.085938 0.53125 -1.84375 0.53125 -2.8125 C 0.53125 -3.78125 0.773438 -4.5625 1.265625 -5.15625 C 1.765625 -5.757812 2.484375 -6.0625 3.421875 -6.0625 C 4.640625 -6.0625 5.429688 -5.566406 5.796875 -4.578125 C 5.929688 -4.179688 6 -3.804688 6 -3.453125 C 6 -3.109375 6 -2.859375 6 -2.703125 Z M 4.640625 -3.578125 C 4.640625 -4.773438 4.234375 -5.375 3.421875 -5.375 C 2.960938 -5.375 2.601562 -5.195312 2.34375 -4.84375 C 2.09375 -4.488281 1.957031 -3.992188 1.9375 -3.359375 L 4.640625 -3.359375 C 4.640625 -3.429688 4.640625 -3.503906 4.640625 -3.578125 Z M 4.640625 -3.578125 "/></g></g><g transform="translate(86.923825, 84.750005)"><g><path d="M 5.59375 -1.40625 C 5.59375 -0.9375 5.6875 -0.703125 5.875 -0.703125 C 6.050781 -0.703125 6.175781 -0.757812 6.25 -0.875 C 6.332031 -1 6.375 -1.21875 6.375 -1.53125 L 7 -1.53125 C 7 -1.476562 7 -1.398438 7 -1.296875 C 7 -0.941406 6.910156 -0.632812 6.734375 -0.375 C 6.523438 -0.0390625 6.1875 0.125 5.71875 0.125 C 5.40625 0.125 5.140625 0.0351562 4.921875 -0.140625 C 4.710938 -0.316406 4.566406 -0.546875 4.484375 -0.828125 C 3.921875 -0.191406 3.207031 0.125 2.34375 0.125 C 1.863281 0.125 1.445312 -0.015625 1.09375 -0.296875 C 0.738281 -0.578125 0.5625 -0.96875 0.5625 -1.46875 C 0.5625 -2.332031 1.203125 -2.972656 2.484375 -3.390625 C 3.296875 -3.648438 3.78125 -3.828125 3.9375 -3.921875 C 4.101562 -4.023438 4.207031 -4.128906 4.25 -4.234375 C 4.300781 -4.335938 4.328125 -4.453125 4.328125 -4.578125 C 4.328125 -4.804688 4.210938 -5 3.984375 -5.15625 C 3.765625 -5.3125 3.472656 -5.390625 3.109375 -5.390625 C 2.742188 -5.390625 2.421875 -5.289062 2.140625 -5.09375 C 2.335938 -4.945312 2.4375 -4.757812 2.4375 -4.53125 C 2.4375 -4.3125 2.359375 -4.132812 2.203125 -4 C 2.054688 -3.863281 1.875 -3.796875 1.65625 -3.796875 C 1.445312 -3.796875 1.273438 -3.859375 1.140625 -3.984375 C 1.003906 -4.109375 0.9375 -4.289062 0.9375 -4.53125 C 0.9375 -4.976562 1.164062 -5.34375 1.625 -5.625 C 2.082031 -5.914062 2.644531 -6.0625 3.3125 -6.0625 C 4.488281 -6.0625 5.207031 -5.675781 5.46875 -4.90625 C 5.550781 -4.65625 5.59375 -4.363281 5.59375 -4.03125 Z M 3.015625 -2.859375 C 2.671875 -2.710938 2.410156 -2.519531 2.234375 -2.28125 C 2.066406 -2.050781 1.984375 -1.800781 1.984375 -1.53125 C 1.984375 -1.257812 2.054688 -1.050781 2.203125 -0.90625 C 2.347656 -0.769531 2.535156 -0.703125 2.765625 -0.703125 C 3.210938 -0.703125 3.582031 -0.859375 3.875 -1.171875 C 4.175781 -1.492188 4.328125 -1.941406 4.328125 -2.515625 L 4.328125 -3.40625 C 4.078125 -3.28125 3.8125 -3.164062 3.53125 -3.0625 C 3.257812 -2.957031 3.085938 -2.890625 3.015625 -2.859375 Z M 3.015625 -2.859375 "/></g></g><g transform="translate(93.791012, 84.750005)"><g><path d="M 4.484375 -4.96875 C 4.265625 -5.25 3.953125 -5.390625 3.546875 -5.390625 C 2.773438 -5.390625 2.273438 -4.953125 2.046875 -4.078125 C 1.972656 -3.773438 1.9375 -3.410156 1.9375 -2.984375 C 1.9375 -2.191406 2.085938 -1.59375 2.390625 -1.1875 C 2.691406 -0.789062 3.070312 -0.59375 3.53125 -0.59375 C 3.863281 -0.59375 4.144531 -0.6875 4.375 -0.875 C 4.613281 -1.070312 4.78125 -1.351562 4.875 -1.71875 L 5.671875 -1.71875 C 5.671875 -1.238281 5.457031 -0.8125 5.03125 -0.4375 C 4.601562 -0.0625 4.023438 0.125 3.296875 0.125 C 2.566406 0.125 1.945312 -0.101562 1.4375 -0.5625 C 0.832031 -1.101562 0.53125 -1.894531 0.53125 -2.9375 C 0.53125 -3.78125 0.78125 -4.507812 1.28125 -5.125 C 1.78125 -5.75 2.519531 -6.0625 3.5 -6.0625 C 4.132812 -6.0625 4.660156 -5.90625 5.078125 -5.59375 C 5.503906 -5.289062 5.71875 -4.894531 5.71875 -4.40625 C 5.71875 -4.164062 5.640625 -3.960938 5.484375 -3.796875 C 5.335938 -3.640625 5.144531 -3.5625 4.90625 -3.5625 C 4.5625 -3.5625 4.328125 -3.71875 4.203125 -4.03125 C 4.160156 -4.125 4.140625 -4.226562 4.140625 -4.34375 C 4.140625 -4.613281 4.253906 -4.820312 4.484375 -4.96875 Z M 4.484375 -4.96875 "/></g></g><g transform="translate(99.960934, 84.750005)"><g><path d="M 2.921875 0.125 C 1.691406 0.125 1.078125 -0.5625 1.078125 -1.9375 L 1.078125 -4.859375 C 1.078125 -5.015625 1.054688 -5.113281 1.015625 -5.15625 C 0.984375 -5.207031 0.90625 -5.234375 0.78125 -5.234375 L 0.3125 -5.234375 L 0.3125 -5.9375 L 0.515625 -5.9375 C 0.816406 -5.9375 1.035156 -6.03125 1.171875 -6.21875 C 1.316406 -6.40625 1.394531 -6.71875 1.40625 -7.15625 L 1.40625 -7.671875 L 2.34375 -7.671875 L 2.34375 -5.9375 L 4.140625 -5.9375 L 4.140625 -5.234375 L 2.34375 -5.234375 L 2.34375 -1.953125 C 2.34375 -1.222656 2.507812 -0.789062 2.84375 -0.65625 C 2.9375 -0.613281 3.03125 -0.59375 3.125 -0.59375 C 3.539062 -0.59375 3.8125 -0.929688 3.9375 -1.609375 L 4.609375 -1.609375 C 4.566406 -0.804688 4.234375 -0.273438 3.609375 -0.015625 C 3.410156 0.078125 3.179688 0.125 2.921875 0.125 Z M 2.921875 0.125 "/></g></g></g></svg>