<svg xmlns="http://www.w3.org/2000/svg" xmlns:xlink="http://www.w3.org/1999/xlink" width="240" zoomAndPan="magnify" viewBox="0 0 180 89.999999" height="120" preserveAspectRatio="xMidYMid meet" version="1.0"><defs><g/><clipPath id="df1411ed74"><path d="M 75 22.65625 L 102 22.65625 L 102 29 L 75 29 Z M 75 22.65625 " clip-rule="nonzero"/></clipPath><clipPath id="e81b53383d"><path d="M 71.5 25 L 83 25 L 83 35 L 71.5 35 Z M 71.5 25 " clip-rule="nonzero"/></clipPath><clipPath id="22dcb3fb40"><path d="M 80.011719 34.210938 L 97.484375 34.210938 L 97.484375 54.90625 L 80.011719 54.90625 Z M 80.011719 34.210938 " clip-rule="nonzero"/></clipPath><clipPath id="a7658f2b0c"><path d="M 71.507812 30.566406 L 88.824219 30.566406 L 88.824219 54.90625 L 71.507812 54.90625 Z M 71.507812 30.566406 " clip-rule="nonzero"/></clipPath><clipPath id="0d665725c0"><path d="M 88.75 30.644531 L 105.992188 30.644531 L 105.992188 54.90625 L 88.75 54.90625 Z M 88.75 30.644531 " clip-rule="nonzero"/></clipPath><clipPath id="ef3aacfe3f"><path d="M 84.378906 34.210938 L 93.117188 34.210938 L 93.117188 54.90625 L 84.378906 54.90625 Z M 84.378906 34.210938 " clip-rule="nonzero"/></clipPath><clipPath id="c4619345d6"><path d="M 82 22.65625 L 96 22.65625 L 96 25 L 82 25 Z M 82 22.65625 " clip-rule="nonzero"/></clipPath><clipPath id="16d22aed77"><path d="M 75 22.65625 L 89 22.65625 L 89 26 L 75 26 Z M 75 22.65625 " clip-rule="nonzero"/></clipPath><clipPath id="9f74500517"><path d="M 89 3.476562 L 124.144531 3.476562 L 124.144531 38 L 89 38 Z M 89 3.476562 " clip-rule="nonzero"/></clipPath><clipPath id="6e1afb97e9"><path d="M 53.644531 3.476562 L 89 3.476562 L 89 38 L 53.644531 38 Z M 53.644531 3.476562 " clip-rule="nonzero"/></clipPath><clipPath id="b58c8f9714"><path d="M 53.644531 39 L 89 39 L 89 73.976562 L 53.644531 73.976562 Z M 53.644531 39 " clip-rule="nonzero"/></clipPath><clipPath id="3760b290a1"><path d="M 89 39 L 124.144531 39 L 124.144531 73.976562 L 89 73.976562 Z M 89 39 " clip-rule="nonzero"/></clipPath></defs><rect x="-18" width="216" fill="#ffffff" y="-9" height="107.999999" fill-opacity="1"/><g clip-path="url(#df1411ed74)"><path fill="#a8a8a8" d="M 95.21875 22.65625 L 101.683594 25.441406 L 95.21875 28.222656 L 82.316406 28.222656 L 75.867188 25.441406 L 82.316406 22.65625 L 95.21875 22.65625 " fill-opacity="1" fill-rule="evenodd"/></g><path fill="#a8a8a8" d="M 82.316406 28.222656 L 95.179688 28.222656 L 97.476562 34.25 L 80.019531 34.25 L 82.316406 28.222656 " fill-opacity="1" fill-rule="evenodd"/><g clip-path="url(#e81b53383d)"><path fill="#a8a8a8" d="M 80.019531 34.25 L 71.507812 30.632812 L 75.867188 25.441406 L 82.316406 28.222656 L 80.019531 34.25 " fill-opacity="1" fill-rule="evenodd"/></g><path fill="#a8a8a8" d="M 97.476562 34.25 L 105.992188 30.644531 L 101.628906 25.441406 L 95.179688 28.238281 L 97.476562 34.25 " fill-opacity="1" fill-rule="evenodd"/><g clip-path="url(#22dcb3fb40)"><path fill="#a8a8a8" d="M 88.753906 54.90625 L 80.019531 34.25 L 97.476562 34.25 Z M 88.753906 54.90625 " fill-opacity="1" fill-rule="evenodd"/></g><g clip-path="url(#a7658f2b0c)"><path fill="#a8a8a8" d="M 71.507812 30.632812 L 88.753906 54.90625 L 80.019531 34.25 Z M 71.507812 30.632812 " fill-opacity="1" fill-rule="evenodd"/></g><g clip-path="url(#0d665725c0)"><path fill="#a8a8a8" d="M 105.992188 30.644531 L 88.753906 54.90625 L 97.476562 34.25 Z M 105.992188 30.644531 " fill-opacity="1" fill-rule="evenodd"/></g><g clip-path="url(#ef3aacfe3f)"><path fill="#a8a8a8" d="M 88.753906 54.90625 L 84.382812 34.25 L 93.117188 34.25 Z M 88.753906 54.90625 " fill-opacity="1" fill-rule="evenodd"/></g><path fill="#a8a8a8" d="M 85.46875 28.222656 L 92.027344 28.222656 L 93.210938 34.25 L 84.285156 34.25 L 85.46875 28.222656 " fill-opacity="1" fill-rule="evenodd"/><path fill="#a8a8a8" d="M 88.753906 28.222656 L 82.316406 28.222656 L 88.753906 24.757812 L 95.179688 28.222656 L 88.753906 28.222656 " fill-opacity="1" fill-rule="evenodd"/><g clip-path="url(#c4619345d6)"><path fill="#a8a8a8" d="M 88.753906 22.65625 L 82.316406 22.65625 L 88.753906 24.828125 L 95.179688 22.65625 L 88.753906 22.65625 " fill-opacity="1" fill-rule="evenodd"/></g><g clip-path="url(#16d22aed77)"><path fill="#a8a8a8" d="M 75.867188 25.441406 L 88.671875 24.800781 L 82.316406 22.65625 Z M 75.867188 25.441406 " fill-opacity="1" fill-rule="evenodd"/></g><path fill="#a8a8a8" d="M 88.753906 24.757812 L 101.683594 25.441406 L 95.179688 28.238281 Z M 88.753906 24.757812 " fill-opacity="1" fill-rule="evenodd"/><g clip-path="url(#9f74500517)"><path fill="#b3b3b3" d="M 89.757812 3.476562 C 108.558594 3.945312 123.675781 19.066406 124.144531 37.867188 L 113.570312 37.867188 C 113.101562 24.941406 102.761719 14.601562 89.835938 14.128906 L 89.835938 3.476562 Z M 89.757812 3.476562 " fill-opacity="1" fill-rule="nonzero"/></g><g clip-path="url(#6e1afb97e9)"><path fill="#b3b3b3" d="M 53.644531 37.867188 C 54.113281 19.066406 69.234375 3.945312 88.035156 3.476562 L 88.035156 14.050781 C 75.109375 14.523438 64.769531 24.863281 64.296875 37.789062 L 53.644531 37.789062 Z M 53.644531 37.867188 " fill-opacity="1" fill-rule="nonzero"/></g><g clip-path="url(#b58c8f9714)"><path fill="#b3b3b3" d="M 88.035156 73.976562 C 69.234375 73.507812 54.113281 58.390625 53.644531 39.589844 L 64.21875 39.589844 C 64.691406 52.515625 75.03125 62.855469 87.953125 63.324219 L 87.953125 73.976562 Z M 88.035156 73.976562 " fill-opacity="1" fill-rule="nonzero"/></g><g clip-path="url(#3760b290a1)"><path fill="#b3b3b3" d="M 124.144531 39.589844 C 123.675781 58.390625 108.558594 73.507812 89.757812 73.976562 L 89.757812 63.402344 C 102.683594 62.933594 113.023438 52.59375 113.492188 39.667969 L 124.144531 39.667969 Z M 124.144531 39.589844 " fill-opacity="1" fill-rule="nonzero"/></g><g fill="#a8a8a8" fill-opacity="1"><g transform="translate(74.496091, 84.750026)"><g><path d="M 0.484375 -0.640625 C 0.816406 -0.640625 1.023438 -0.671875 1.109375 -0.734375 C 1.203125 -0.804688 1.253906 -0.878906 1.265625 -0.953125 C 1.285156 -1.035156 1.296875 -1.140625 1.296875 -1.265625 L 1.296875 -4.484375 C 1.296875 -4.765625 1.269531 -4.945312 1.21875 -5.03125 C 1.175781 -5.125 1.046875 -5.171875 0.828125 -5.171875 L 0.46875 -5.171875 L 0.46875 -5.8125 C 0.84375 -5.8125 1.128906 -5.835938 1.328125 -5.890625 C 1.535156 -5.953125 1.679688 -5.992188 1.765625 -6.015625 C 1.859375 -6.046875 1.957031 -6.0625 2.0625 -6.0625 C 2.257812 -6.0625 2.390625 -6 2.453125 -5.875 C 2.523438 -5.757812 2.5625 -5.570312 2.5625 -5.3125 L 2.5625 -5.1875 C 2.894531 -5.582031 3.273438 -5.847656 3.703125 -5.984375 C 3.859375 -6.035156 4.007812 -6.0625 4.15625 -6.0625 C 4.445312 -6.0625 4.675781 -5.976562 4.84375 -5.8125 C 5.007812 -5.644531 5.09375 -5.4375 5.09375 -5.1875 C 5.09375 -4.9375 5.015625 -4.734375 4.859375 -4.578125 C 4.703125 -4.421875 4.507812 -4.34375 4.28125 -4.34375 C 4.0625 -4.34375 3.878906 -4.421875 3.734375 -4.578125 C 3.597656 -4.734375 3.535156 -4.929688 3.546875 -5.171875 C 3.390625 -5.148438 3.21875 -5.078125 3.03125 -4.953125 C 2.851562 -4.828125 2.695312 -4.660156 2.5625 -4.453125 L 2.5625 -1.3125 C 2.5625 -1.164062 2.570312 -1.046875 2.59375 -0.953125 C 2.625 -0.867188 2.691406 -0.796875 2.796875 -0.734375 C 2.910156 -0.671875 3.25 -0.640625 3.8125 -0.640625 L 3.8125 0 L 0.484375 0 Z M 0.484375 -0.640625 "/></g></g><g transform="translate(79.75195, 84.750026)"><g><path d="M 3.734375 -5.15625 C 3.535156 -5.363281 3.207031 -5.46875 2.75 -5.46875 C 2.300781 -5.46875 2 -5.300781 1.84375 -4.96875 C 1.800781 -4.875 1.78125 -4.765625 1.78125 -4.640625 C 1.78125 -4.523438 1.828125 -4.410156 1.921875 -4.296875 C 2.015625 -4.191406 2.132812 -4.085938 2.28125 -3.984375 C 2.425781 -3.890625 2.59375 -3.796875 2.78125 -3.703125 C 2.96875 -3.609375 3.160156 -3.503906 3.359375 -3.390625 C 3.554688 -3.285156 3.765625 -3.171875 3.984375 -3.046875 C 4.804688 -2.597656 5.21875 -2.101562 5.21875 -1.5625 C 5.21875 -1.019531 5.003906 -0.601562 4.578125 -0.3125 C 4.160156 -0.0195312 3.601562 0.125 2.90625 0.125 C 2.207031 0.125 1.628906 0 1.171875 -0.25 C 0.722656 -0.507812 0.5 -0.832031 0.5 -1.21875 C 0.5 -1.4375 0.566406 -1.617188 0.703125 -1.765625 C 0.847656 -1.921875 1.03125 -2 1.25 -2 C 1.476562 -2 1.660156 -1.925781 1.796875 -1.78125 C 1.941406 -1.644531 2.015625 -1.476562 2.015625 -1.28125 C 2.015625 -1.09375 1.953125 -0.929688 1.828125 -0.796875 C 2.140625 -0.617188 2.523438 -0.53125 2.984375 -0.53125 C 3.453125 -0.53125 3.78125 -0.640625 3.96875 -0.859375 C 4.039062 -0.941406 4.078125 -1.050781 4.078125 -1.1875 C 4.078125 -1.507812 3.71875 -1.847656 3 -2.203125 C 2.5 -2.453125 2.125 -2.644531 1.875 -2.78125 C 1.070312 -3.238281 0.671875 -3.785156 0.671875 -4.421875 C 0.671875 -4.910156 0.875 -5.300781 1.28125 -5.59375 C 1.695312 -5.894531 2.21875 -6.046875 2.84375 -6.046875 C 3.476562 -6.046875 4.007812 -5.925781 4.4375 -5.6875 C 4.875 -5.457031 5.09375 -5.15625 5.09375 -4.78125 C 5.09375 -4.5625 5.039062 -4.398438 4.9375 -4.296875 C 4.75 -4.109375 4.570312 -4.015625 4.40625 -4.015625 C 4.132812 -4.015625 3.925781 -4.082031 3.78125 -4.21875 C 3.644531 -4.363281 3.578125 -4.523438 3.578125 -4.703125 C 3.578125 -4.878906 3.628906 -5.03125 3.734375 -5.15625 Z M 3.734375 -5.15625 "/></g></g><g transform="translate(85.458981, 84.750026)"><g><path d="M 4.125 0.125 C 3.476562 0.125 2.929688 -0.0976562 2.484375 -0.546875 L 2.484375 1.546875 C 2.484375 1.847656 2.546875 2.035156 2.671875 2.109375 C 2.804688 2.191406 3.140625 2.234375 3.671875 2.234375 L 3.671875 2.875 L 0.390625 2.875 L 0.390625 2.234375 C 0.722656 2.234375 0.929688 2.195312 1.015625 2.125 C 1.109375 2.050781 1.164062 1.972656 1.1875 1.890625 C 1.207031 1.816406 1.21875 1.722656 1.21875 1.609375 L 1.21875 -4.484375 C 1.21875 -4.765625 1.191406 -4.945312 1.140625 -5.03125 C 1.085938 -5.113281 0.953125 -5.15625 0.734375 -5.15625 L 0.328125 -5.15625 L 0.328125 -5.8125 C 0.710938 -5.8125 1.015625 -5.835938 1.234375 -5.890625 C 1.453125 -5.953125 1.609375 -5.992188 1.703125 -6.015625 C 1.796875 -6.035156 1.894531 -6.046875 2 -6.046875 C 2.207031 -6.046875 2.34375 -5.988281 2.40625 -5.875 C 2.46875 -5.757812 2.5 -5.566406 2.5 -5.296875 L 2.5 -5.28125 C 2.9375 -5.800781 3.53125 -6.0625 4.28125 -6.0625 C 5.039062 -6.0625 5.65625 -5.804688 6.125 -5.296875 C 6.59375 -4.785156 6.828125 -4.046875 6.828125 -3.078125 C 6.828125 -2.109375 6.582031 -1.332031 6.09375 -0.75 C 5.613281 -0.164062 4.957031 0.125 4.125 0.125 Z M 2.453125 -2.90625 C 2.453125 -2.1875 2.585938 -1.617188 2.859375 -1.203125 C 3.140625 -0.796875 3.515625 -0.59375 3.984375 -0.59375 C 4.441406 -0.59375 4.800781 -0.800781 5.0625 -1.21875 C 5.320312 -1.644531 5.453125 -2.210938 5.453125 -2.921875 C 5.453125 -4.046875 5.179688 -4.789062 4.640625 -5.15625 C 4.441406 -5.289062 4.207031 -5.359375 3.9375 -5.359375 C 3.675781 -5.359375 3.453125 -5.296875 3.265625 -5.171875 C 3.085938 -5.046875 2.9375 -4.875 2.8125 -4.65625 C 2.570312 -4.207031 2.453125 -3.625 2.453125 -2.90625 Z M 2.453125 -2.90625 "/></g></g><g transform="translate(92.789058, 84.750026)"><g><path d="M 6 -2.703125 L 1.921875 -2.703125 C 1.921875 -2.023438 2.082031 -1.503906 2.40625 -1.140625 C 2.726562 -0.773438 3.125 -0.59375 3.59375 -0.59375 C 4.21875 -0.59375 4.664062 -0.851562 4.9375 -1.375 L 5.8125 -1.375 C 5.71875 -0.957031 5.457031 -0.601562 5.03125 -0.3125 C 4.613281 -0.0195312 4.046875 0.125 3.328125 0.125 C 2.609375 0.125 1.988281 -0.0976562 1.46875 -0.546875 C 0.84375 -1.085938 0.53125 -1.84375 0.53125 -2.8125 C 0.53125 -3.78125 0.773438 -4.5625 1.265625 -5.15625 C 1.765625 -5.757812 2.484375 -6.0625 3.421875 -6.0625 C 4.640625 -6.0625 5.429688 -5.566406 5.796875 -4.578125 C 5.929688 -4.179688 6 -3.804688 6 -3.453125 C 6 -3.109375 6 -2.859375 6 -2.703125 Z M 4.640625 -3.578125 C 4.640625 -4.773438 4.234375 -5.375 3.421875 -5.375 C 2.960938 -5.375 2.601562 -5.195312 2.34375 -4.84375 C 2.09375 -4.488281 1.957031 -3.992188 1.9375 -3.359375 L 4.640625 -3.359375 C 4.640625 -3.429688 4.640625 -3.503906 4.640625 -3.578125 Z M 4.640625 -3.578125 "/></g></g><g transform="translate(99.328121, 84.750026)"><g><path d="M 4.484375 -4.96875 C 4.265625 -5.25 3.953125 -5.390625 3.546875 -5.390625 C 2.773438 -5.390625 2.273438 -4.953125 2.046875 -4.078125 C 1.972656 -3.773438 1.9375 -3.410156 1.9375 -2.984375 C 1.9375 -2.191406 2.085938 -1.59375 2.390625 -1.1875 C 2.691406 -0.789062 3.070312 -0.59375 3.53125 -0.59375 C 3.863281 -0.59375 4.144531 -0.6875 4.375 -0.875 C 4.613281 -1.070312 4.78125 -1.351562 4.875 -1.71875 L 5.671875 -1.71875 C 5.671875 -1.238281 5.457031 -0.8125 5.03125 -0.4375 C 4.601562 -0.0625 4.023438 0.125 3.296875 0.125 C 2.566406 0.125 1.945312 -0.101562 1.4375 -0.5625 C 0.832031 -1.101562 0.53125 -1.894531 0.53125 -2.9375 C 0.53125 -3.78125 0.78125 -4.507812 1.28125 -5.125 C 1.78125 -5.75 2.519531 -6.0625 3.5 -6.0625 C 4.132812 -6.0625 4.660156 -5.90625 5.078125 -5.59375 C 5.503906 -5.289062 5.71875 -4.894531 5.71875 -4.40625 C 5.71875 -4.164062 5.640625 -3.960938 5.484375 -3.796875 C 5.335938 -3.640625 5.144531 -3.5625 4.90625 -3.5625 C 4.5625 -3.5625 4.328125 -3.71875 4.203125 -4.03125 C 4.160156 -4.125 4.140625 -4.226562 4.140625 -4.34375 C 4.140625 -4.613281 4.253906 -4.820312 4.484375 -4.96875 Z M 4.484375 -4.96875 "/></g></g></g></svg>