<svg xmlns="http://www.w3.org/2000/svg" xmlns:xlink="http://www.w3.org/1999/xlink" width="240" zoomAndPan="magnify" viewBox="0 0 180 89.999999" height="120" preserveAspectRatio="xMidYMid meet" version="1.0"><defs><g/><clipPath id="2e512a1866"><path d="M 29.5 31.460938 L 123.136719 31.460938 L 123.136719 58.703125 L 29.5 58.703125 Z M 29.5 31.460938 " clip-rule="nonzero"/></clipPath><clipPath id="59fe5c0559"><path d="M 127.597656 31.460938 L 150.582031 31.460938 L 150.582031 54.445312 L 127.597656 54.445312 Z M 127.597656 31.460938 " clip-rule="nonzero"/></clipPath></defs><rect x="-18" width="216" fill="#ffffff" y="-9" height="107.999999" fill-opacity="1"/><rect x="-18" width="216" fill="#ffffff" y="-9" height="107.999999" fill-opacity="1"/><g clip-path="url(#2e512a1866)"><path fill="#a8a8a8" d="M 30.21875 52.699219 L 30.21875 42.234375 L 43.199219 42.234375 L 43.199219 41.621094 L 30.21875 41.621094 L 30.21875 32.074219 L 44.019531 32.074219 L 44.019531 31.460938 L 29.609375 31.460938 L 29.609375 53.3125 L 44.140625 53.3125 L 44.140625 52.699219 Z M 55.847656 37.582031 L 50.464844 44.714844 L 45.207031 37.582031 L 44.414062 37.582031 L 50.101562 45.171875 L 43.867188 53.3125 L 44.597656 53.3125 L 50.464844 45.632812 L 56.363281 53.3125 L 57.121094 53.3125 L 50.859375 45.171875 L 56.574219 37.582031 Z M 58.945312 58.699219 L 58.945312 48.90625 L 59.007812 48.90625 C 59.371094 50.332031 60.09375 51.480469 61.164062 52.347656 C 62.238281 53.214844 63.609375 53.648438 65.269531 53.648438 C 66.34375 53.648438 67.296875 53.429688 68.128906 52.992188 C 68.957031 52.550781 69.652344 51.957031 70.210938 51.203125 C 70.769531 50.449219 71.191406 49.570312 71.488281 48.570312 C 71.78125 47.570312 71.925781 46.519531 71.925781 45.417969 C 71.925781 44.234375 71.773438 43.144531 71.472656 42.144531 C 71.167969 41.144531 70.726562 40.277344 70.148438 39.542969 C 69.570312 38.808594 68.871094 38.234375 68.050781 37.828125 C 67.230469 37.421875 66.304688 37.214844 65.269531 37.214844 C 64.476562 37.214844 63.746094 37.332031 63.066406 37.566406 C 62.386719 37.800781 61.785156 38.132812 61.257812 38.5625 C 60.730469 38.992188 60.273438 39.496094 59.890625 40.078125 C 59.503906 40.660156 59.207031 41.296875 59.007812 41.988281 L 58.945312 41.988281 L 58.945312 37.582031 L 58.339844 37.582031 L 58.339844 58.699219 Z M 65.269531 53.070312 C 63.367188 53.070312 61.835938 52.410156 60.679688 51.09375 C 59.523438 49.777344 58.945312 47.886719 58.945312 45.417969 C 58.945312 44.398438 59.089844 43.429688 59.371094 42.511719 C 59.65625 41.59375 60.066406 40.785156 60.601562 40.09375 C 61.140625 39.398438 61.804688 38.847656 62.59375 38.441406 C 63.386719 38.03125 64.277344 37.828125 65.269531 37.828125 C 66.28125 37.828125 67.167969 38.03125 67.929688 38.441406 C 68.691406 38.847656 69.316406 39.402344 69.8125 40.109375 C 70.3125 40.8125 70.6875 41.617188 70.941406 42.527344 C 71.191406 43.433594 71.320312 44.398438 71.320312 45.417969 C 71.320312 46.335938 71.203125 47.25 70.96875 48.15625 C 70.738281 49.066406 70.378906 49.878906 69.890625 50.605469 C 69.40625 51.328125 68.78125 51.921875 68.019531 52.378906 C 67.261719 52.839844 66.34375 53.070312 65.269531 53.070312 Z M 75.269531 53.3125 L 75.269531 44.40625 C 75.269531 43.550781 75.394531 42.714844 75.636719 41.898438 C 75.878906 41.082031 76.253906 40.363281 76.761719 39.742188 C 77.265625 39.117188 77.910156 38.628906 78.691406 38.273438 C 79.472656 37.914062 80.398438 37.765625 81.472656 37.828125 L 81.472656 37.214844 C 80.539062 37.195312 79.726562 37.296875 79.027344 37.523438 C 78.328125 37.746094 77.722656 38.050781 77.21875 38.441406 C 76.710938 38.828125 76.304688 39.28125 76 39.800781 C 75.695312 40.320312 75.472656 40.878906 75.332031 41.46875 L 75.269531 41.46875 L 75.269531 37.582031 L 74.664062 37.582031 L 74.664062 53.3125 Z M 82.234375 45.570312 L 95.304688 45.570312 C 95.347656 44.488281 95.238281 43.449219 94.988281 42.449219 C 94.734375 41.449219 94.328125 40.5625 93.769531 39.785156 C 93.210938 39.011719 92.492188 38.390625 91.613281 37.917969 C 90.730469 37.449219 89.683594 37.214844 88.464844 37.214844 C 87.59375 37.214844 86.742188 37.398438 85.914062 37.765625 C 85.082031 38.132812 84.351562 38.667969 83.722656 39.375 C 83.09375 40.078125 82.589844 40.9375 82.203125 41.960938 C 81.816406 42.980469 81.625 44.140625 81.625 45.449219 C 81.625 46.609375 81.757812 47.699219 82.019531 48.707031 C 82.285156 49.71875 82.691406 50.59375 83.234375 51.339844 C 83.78125 52.085938 84.488281 52.660156 85.347656 53.070312 C 86.210938 53.476562 87.25 53.671875 88.464844 53.648438 C 90.25 53.648438 91.75 53.144531 92.964844 52.136719 C 94.179688 51.125 94.902344 49.703125 95.125 47.867188 L 94.515625 47.867188 C 94.25 49.601562 93.578125 50.902344 92.492188 51.769531 C 91.410156 52.636719 90.046875 53.070312 88.40625 53.070312 C 87.289062 53.070312 86.347656 52.875 85.578125 52.488281 C 84.808594 52.097656 84.179688 51.566406 83.691406 50.894531 C 83.207031 50.222656 82.847656 49.433594 82.613281 48.523438 C 82.378906 47.617188 82.253906 46.632812 82.234375 45.570312 Z M 94.699219 44.957031 L 82.234375 44.957031 C 82.292969 43.855469 82.496094 42.867188 82.839844 41.988281 C 83.1875 41.113281 83.636719 40.363281 84.195312 39.742188 C 84.753906 39.117188 85.398438 38.644531 86.140625 38.316406 C 86.878906 37.992188 87.675781 37.828125 88.523438 37.828125 C 89.539062 37.828125 90.433594 38.015625 91.203125 38.394531 C 91.972656 38.773438 92.613281 39.285156 93.132812 39.941406 C 93.648438 40.59375 94.039062 41.351562 94.300781 42.21875 C 94.566406 43.085938 94.699219 44 94.699219 44.957031 Z M 107.921875 42.234375 L 108.53125 42.234375 C 108.53125 40.480469 108.023438 39.207031 107.011719 38.410156 C 105.996094 37.613281 104.617188 37.214844 102.875 37.214844 C 101.902344 37.214844 101.082031 37.339844 100.414062 37.582031 C 99.742188 37.828125 99.199219 38.144531 98.769531 38.53125 C 98.34375 38.917969 98.039062 39.347656 97.859375 39.816406 C 97.675781 40.285156 97.585938 40.734375 97.585938 41.164062 C 97.585938 42.019531 97.738281 42.703125 98.039062 43.214844 C 98.34375 43.722656 98.820312 44.121094 99.472656 44.40625 C 99.917969 44.613281 100.421875 44.796875 100.992188 44.957031 C 101.558594 45.121094 102.21875 45.296875 102.96875 45.480469 C 103.636719 45.640625 104.292969 45.804688 104.941406 45.96875 C 105.589844 46.132812 106.164062 46.351562 106.660156 46.625 C 107.15625 46.902344 107.5625 47.253906 107.875 47.683594 C 108.191406 48.109375 108.347656 48.671875 108.347656 49.367188 C 108.347656 50.039062 108.191406 50.609375 107.875 51.078125 C 107.5625 51.546875 107.160156 51.933594 106.675781 52.226562 C 106.191406 52.523438 105.648438 52.738281 105.050781 52.871094 C 104.449219 53.003906 103.867188 53.070312 103.300781 53.070312 C 101.457031 53.070312 100.042969 52.65625 99.0625 51.828125 C 98.078125 51.003906 97.585938 49.703125 97.585938 47.925781 L 96.976562 47.925781 C 96.976562 49.90625 97.511719 51.355469 98.574219 52.273438 C 99.636719 53.191406 101.214844 53.648438 103.300781 53.648438 C 103.96875 53.648438 104.644531 53.574219 105.324219 53.417969 C 106 53.265625 106.609375 53.015625 107.148438 52.671875 C 107.683594 52.324219 108.121094 51.875 108.453125 51.324219 C 108.789062 50.773438 108.957031 50.101562 108.957031 49.304688 C 108.957031 48.550781 108.808594 47.9375 108.515625 47.46875 C 108.21875 47 107.835938 46.609375 107.359375 46.304688 C 106.882812 46 106.347656 45.757812 105.746094 45.585938 C 105.148438 45.414062 104.546875 45.246094 103.941406 45.082031 C 103.085938 44.855469 102.34375 44.664062 101.703125 44.5 C 101.066406 44.335938 100.472656 44.140625 99.925781 43.917969 C 99.398438 43.695312 98.980469 43.371094 98.664062 42.953125 C 98.351562 42.535156 98.195312 41.9375 98.195312 41.164062 C 98.195312 41.019531 98.234375 40.765625 98.316406 40.398438 C 98.398438 40.03125 98.589844 39.660156 98.894531 39.28125 C 99.199219 38.90625 99.664062 38.566406 100.289062 38.273438 C 100.921875 37.976562 101.78125 37.828125 102.875 37.828125 C 103.625 37.828125 104.308594 37.910156 104.925781 38.074219 C 105.546875 38.234375 106.078125 38.496094 106.523438 38.851562 C 106.96875 39.210938 107.3125 39.664062 107.554688 40.214844 C 107.800781 40.765625 107.921875 41.4375 107.921875 42.234375 Z M 122 42.234375 L 122.605469 42.234375 C 122.605469 40.480469 122.097656 39.207031 121.085938 38.410156 C 120.070312 37.613281 118.695312 37.214844 116.953125 37.214844 C 115.980469 37.214844 115.15625 37.339844 114.488281 37.582031 C 113.820312 37.828125 113.273438 38.144531 112.847656 38.53125 C 112.421875 38.917969 112.117188 39.347656 111.933594 39.816406 C 111.753906 40.285156 111.660156 40.734375 111.660156 41.164062 C 111.660156 42.019531 111.8125 42.703125 112.117188 43.214844 C 112.421875 43.722656 112.898438 44.121094 113.546875 44.40625 C 113.992188 44.613281 114.5 44.796875 115.066406 44.957031 C 115.632812 45.121094 116.292969 45.296875 117.042969 45.480469 C 117.710938 45.640625 118.367188 45.804688 119.019531 45.96875 C 119.667969 46.132812 120.238281 46.351562 120.734375 46.625 C 121.230469 46.902344 121.636719 47.253906 121.953125 47.683594 C 122.265625 48.109375 122.421875 48.671875 122.421875 49.367188 C 122.421875 50.039062 122.265625 50.609375 121.953125 51.078125 C 121.636719 51.546875 121.238281 51.933594 120.75 52.226562 C 120.265625 52.523438 119.722656 52.738281 119.125 52.871094 C 118.527344 53.003906 117.945312 53.070312 117.375 53.070312 C 115.53125 53.070312 114.117188 52.65625 113.136719 51.828125 C 112.152344 51.003906 111.660156 49.703125 111.660156 47.925781 L 111.050781 47.925781 C 111.050781 49.90625 111.585938 51.355469 112.648438 52.273438 C 113.710938 53.191406 115.289062 53.648438 117.375 53.648438 C 118.046875 53.648438 118.71875 53.574219 119.398438 53.417969 C 120.078125 53.265625 120.683594 53.015625 121.222656 52.671875 C 121.757812 52.324219 122.195312 51.875 122.527344 51.324219 C 122.863281 50.773438 123.03125 50.101562 123.03125 49.304688 C 123.03125 48.550781 122.882812 47.9375 122.589844 47.46875 C 122.296875 47 121.910156 46.609375 121.433594 46.304688 C 120.957031 46 120.421875 45.757812 119.824219 45.585938 C 119.226562 45.414062 118.621094 45.246094 118.015625 45.082031 C 117.164062 44.855469 116.417969 44.664062 115.78125 44.5 C 115.140625 44.335938 114.550781 44.140625 114.003906 43.917969 C 113.476562 43.695312 113.054688 43.371094 112.738281 42.953125 C 112.425781 42.535156 112.269531 41.9375 112.269531 41.164062 C 112.269531 41.019531 112.308594 40.765625 112.390625 40.398438 C 112.472656 40.03125 112.664062 39.660156 112.96875 39.28125 C 113.273438 38.90625 113.738281 38.566406 114.367188 38.273438 C 114.996094 37.976562 115.855469 37.828125 116.953125 37.828125 C 117.703125 37.828125 118.386719 37.910156 119.003906 38.074219 C 119.621094 38.234375 120.152344 38.496094 120.597656 38.851562 C 121.042969 39.210938 121.390625 39.664062 121.632812 40.214844 C 121.875 40.765625 122 41.4375 122 42.234375 Z M 122 42.234375 " fill-opacity="1" fill-rule="nonzero"/></g><g clip-path="url(#59fe5c0559)"><path fill="#b3b3b3" d="M 127.597656 31.460938 L 150.582031 31.460938 L 150.582031 54.445312 L 127.597656 54.445312 Z M 127.597656 31.460938 " fill-opacity="1" fill-rule="nonzero"/></g><path fill="#ffffff" d="M 133.640625 50.667969 L 135.398438 49.605469 C 135.738281 50.207031 136.046875 50.714844 136.789062 50.714844 C 137.496094 50.714844 137.945312 50.4375 137.945312 49.359375 L 137.945312 42.015625 L 140.105469 42.015625 L 140.105469 49.386719 C 140.105469 51.625 138.792969 52.644531 136.878906 52.644531 C 135.152344 52.644531 134.148438 51.75 133.640625 50.667969 " fill-opacity="1" fill-rule="nonzero"/><path fill="#ffffff" d="M 141.277344 50.4375 L 143.035156 49.417969 C 143.5 50.175781 144.101562 50.730469 145.164062 50.730469 C 146.058594 50.730469 146.632812 50.285156 146.632812 49.664062 C 146.632812 48.925781 146.042969 48.664062 145.058594 48.230469 L 144.519531 48 C 142.960938 47.335938 141.925781 46.503906 141.925781 44.746094 C 141.925781 43.125 143.160156 41.890625 145.089844 41.890625 C 146.460938 41.890625 147.449219 42.367188 148.160156 43.617188 L 146.476562 44.699219 C 146.105469 44.035156 145.707031 43.773438 145.089844 43.773438 C 144.457031 43.773438 144.054688 44.175781 144.054688 44.699219 C 144.054688 45.347656 144.457031 45.609375 145.382812 46.011719 L 145.921875 46.242188 C 147.757812 47.027344 148.792969 47.828125 148.792969 49.636719 C 148.792969 51.578125 147.265625 52.644531 145.210938 52.644531 C 143.207031 52.644531 141.910156 51.6875 141.277344 50.4375 " fill-opacity="1" fill-rule="nonzero"/><g fill="#a8a8a8" fill-opacity="1"><g transform="translate(61.335936, 84.749998)"><g><path d="M 6 -2.703125 L 1.921875 -2.703125 C 1.921875 -2.023438 2.082031 -1.503906 2.40625 -1.140625 C 2.726562 -0.773438 3.125 -0.59375 3.59375 -0.59375 C 4.21875 -0.59375 4.664062 -0.851562 4.9375 -1.375 L 5.8125 -1.375 C 5.71875 -0.957031 5.457031 -0.601562 5.03125 -0.3125 C 4.613281 -0.0195312 4.046875 0.125 3.328125 0.125 C 2.609375 0.125 1.988281 -0.0976562 1.46875 -0.546875 C 0.84375 -1.085938 0.53125 -1.84375 0.53125 -2.8125 C 0.53125 -3.78125 0.773438 -4.5625 1.265625 -5.15625 C 1.765625 -5.757812 2.484375 -6.0625 3.421875 -6.0625 C 4.640625 -6.0625 5.429688 -5.566406 5.796875 -4.578125 C 5.929688 -4.179688 6 -3.804688 6 -3.453125 C 6 -3.109375 6 -2.859375 6 -2.703125 Z M 4.640625 -3.578125 C 4.640625 -4.773438 4.234375 -5.375 3.421875 -5.375 C 2.960938 -5.375 2.601562 -5.195312 2.34375 -4.84375 C 2.09375 -4.488281 1.957031 -3.992188 1.9375 -3.359375 L 4.640625 -3.359375 C 4.640625 -3.429688 4.640625 -3.503906 4.640625 -3.578125 Z M 4.640625 -3.578125 "/></g></g><g transform="translate(67.874998, 84.749998)"><g><path d="M 0.25 -0.640625 C 0.5 -0.640625 0.703125 -0.695312 0.859375 -0.8125 C 1.023438 -0.925781 1.1875 -1.078125 1.34375 -1.265625 L 2.796875 -2.984375 L 1.34375 -4.734375 C 1.207031 -4.898438 1.039062 -5.035156 0.84375 -5.140625 C 0.644531 -5.242188 0.445312 -5.296875 0.25 -5.296875 L 0.25 -5.9375 L 3.328125 -5.9375 L 3.328125 -5.296875 C 3.085938 -5.296875 2.925781 -5.257812 2.84375 -5.1875 C 2.6875 -5.039062 2.664062 -4.890625 2.78125 -4.734375 L 3.71875 -3.5625 L 4.640625 -4.734375 C 4.773438 -4.898438 4.757812 -5.035156 4.59375 -5.140625 C 4.4375 -5.242188 4.179688 -5.296875 3.828125 -5.296875 L 3.828125 -5.9375 L 6.625 -5.9375 L 6.625 -5.296875 C 6.375 -5.296875 6.164062 -5.242188 6 -5.140625 C 5.832031 -5.046875 5.675781 -4.910156 5.53125 -4.734375 L 4.109375 -3.078125 L 5.53125 -1.265625 C 5.851562 -0.847656 6.21875 -0.640625 6.625 -0.640625 L 6.625 0 L 3.546875 0 L 3.546875 -0.640625 C 3.859375 -0.640625 4.082031 -0.703125 4.21875 -0.828125 C 4.351562 -0.953125 4.351562 -1.097656 4.21875 -1.265625 L 3.203125 -2.484375 L 2.234375 -1.265625 C 2.085938 -1.078125 2.097656 -0.925781 2.265625 -0.8125 C 2.429688 -0.695312 2.691406 -0.640625 3.046875 -0.640625 L 3.046875 0 L 0.25 0 Z M 0.25 -0.640625 "/></g></g><g transform="translate(74.765623, 84.749998)"><g><path d="M 4.125 0.125 C 3.476562 0.125 2.929688 -0.0976562 2.484375 -0.546875 L 2.484375 1.546875 C 2.484375 1.847656 2.546875 2.035156 2.671875 2.109375 C 2.804688 2.191406 3.140625 2.234375 3.671875 2.234375 L 3.671875 2.875 L 0.390625 2.875 L 0.390625 2.234375 C 0.722656 2.234375 0.929688 2.195312 1.015625 2.125 C 1.109375 2.050781 1.164062 1.972656 1.1875 1.890625 C 1.207031 1.816406 1.21875 1.722656 1.21875 1.609375 L 1.21875 -4.484375 C 1.21875 -4.765625 1.191406 -4.945312 1.140625 -5.03125 C 1.085938 -5.113281 0.953125 -5.15625 0.734375 -5.15625 L 0.328125 -5.15625 L 0.328125 -5.8125 C 0.710938 -5.8125 1.015625 -5.835938 1.234375 -5.890625 C 1.453125 -5.953125 1.609375 -5.992188 1.703125 -6.015625 C 1.796875 -6.035156 1.894531 -6.046875 2 -6.046875 C 2.207031 -6.046875 2.34375 -5.988281 2.40625 -5.875 C 2.46875 -5.757812 2.5 -5.566406 2.5 -5.296875 L 2.5 -5.28125 C 2.9375 -5.800781 3.53125 -6.0625 4.28125 -6.0625 C 5.039062 -6.0625 5.65625 -5.804688 6.125 -5.296875 C 6.59375 -4.785156 6.828125 -4.046875 6.828125 -3.078125 C 6.828125 -2.109375 6.582031 -1.332031 6.09375 -0.75 C 5.613281 -0.164062 4.957031 0.125 4.125 0.125 Z M 2.453125 -2.90625 C 2.453125 -2.1875 2.585938 -1.617188 2.859375 -1.203125 C 3.140625 -0.796875 3.515625 -0.59375 3.984375 -0.59375 C 4.441406 -0.59375 4.800781 -0.800781 5.0625 -1.21875 C 5.320312 -1.644531 5.453125 -2.210938 5.453125 -2.921875 C 5.453125 -4.046875 5.179688 -4.789062 4.640625 -5.15625 C 4.441406 -5.289062 4.207031 -5.359375 3.9375 -5.359375 C 3.675781 -5.359375 3.453125 -5.296875 3.265625 -5.171875 C 3.085938 -5.046875 2.9375 -4.875 2.8125 -4.65625 C 2.570312 -4.207031 2.453125 -3.625 2.453125 -2.90625 Z M 2.453125 -2.90625 "/></g></g><g transform="translate(82.095701, 84.749998)"><g><path d="M 0.484375 -0.640625 C 0.816406 -0.640625 1.023438 -0.671875 1.109375 -0.734375 C 1.203125 -0.804688 1.253906 -0.878906 1.265625 -0.953125 C 1.285156 -1.035156 1.296875 -1.140625 1.296875 -1.265625 L 1.296875 -4.484375 C 1.296875 -4.765625 1.269531 -4.945312 1.21875 -5.03125 C 1.175781 -5.125 1.046875 -5.171875 0.828125 -5.171875 L 0.46875 -5.171875 L 0.46875 -5.8125 C 0.84375 -5.8125 1.128906 -5.835938 1.328125 -5.890625 C 1.535156 -5.953125 1.679688 -5.992188 1.765625 -6.015625 C 1.859375 -6.046875 1.957031 -6.0625 2.0625 -6.0625 C 2.257812 -6.0625 2.390625 -6 2.453125 -5.875 C 2.523438 -5.757812 2.5625 -5.570312 2.5625 -5.3125 L 2.5625 -5.1875 C 2.894531 -5.582031 3.273438 -5.847656 3.703125 -5.984375 C 3.859375 -6.035156 4.007812 -6.0625 4.15625 -6.0625 C 4.445312 -6.0625 4.675781 -5.976562 4.84375 -5.8125 C 5.007812 -5.644531 5.09375 -5.4375 5.09375 -5.1875 C 5.09375 -4.9375 5.015625 -4.734375 4.859375 -4.578125 C 4.703125 -4.421875 4.507812 -4.34375 4.28125 -4.34375 C 4.0625 -4.34375 3.878906 -4.421875 3.734375 -4.578125 C 3.597656 -4.734375 3.535156 -4.929688 3.546875 -5.171875 C 3.390625 -5.148438 3.21875 -5.078125 3.03125 -4.953125 C 2.851562 -4.828125 2.695312 -4.660156 2.5625 -4.453125 L 2.5625 -1.3125 C 2.5625 -1.164062 2.570312 -1.046875 2.59375 -0.953125 C 2.625 -0.867188 2.691406 -0.796875 2.796875 -0.734375 C 2.910156 -0.671875 3.25 -0.640625 3.8125 -0.640625 L 3.8125 0 L 0.484375 0 Z M 0.484375 -0.640625 "/></g></g><g transform="translate(87.35156, 84.749998)"><g><path d="M 6 -2.703125 L 1.921875 -2.703125 C 1.921875 -2.023438 2.082031 -1.503906 2.40625 -1.140625 C 2.726562 -0.773438 3.125 -0.59375 3.59375 -0.59375 C 4.21875 -0.59375 4.664062 -0.851562 4.9375 -1.375 L 5.8125 -1.375 C 5.71875 -0.957031 5.457031 -0.601562 5.03125 -0.3125 C 4.613281 -0.0195312 4.046875 0.125 3.328125 0.125 C 2.609375 0.125 1.988281 -0.0976562 1.46875 -0.546875 C 0.84375 -1.085938 0.53125 -1.84375 0.53125 -2.8125 C 0.53125 -3.78125 0.773438 -4.5625 1.265625 -5.15625 C 1.765625 -5.757812 2.484375 -6.0625 3.421875 -6.0625 C 4.640625 -6.0625 5.429688 -5.566406 5.796875 -4.578125 C 5.929688 -4.179688 6 -3.804688 6 -3.453125 C 6 -3.109375 6 -2.859375 6 -2.703125 Z M 4.640625 -3.578125 C 4.640625 -4.773438 4.234375 -5.375 3.421875 -5.375 C 2.960938 -5.375 2.601562 -5.195312 2.34375 -4.84375 C 2.09375 -4.488281 1.957031 -3.992188 1.9375 -3.359375 L 4.640625 -3.359375 C 4.640625 -3.429688 4.640625 -3.503906 4.640625 -3.578125 Z M 4.640625 -3.578125 "/></g></g><g transform="translate(93.890622, 84.749998)"><g><path d="M 3.734375 -5.15625 C 3.535156 -5.363281 3.207031 -5.46875 2.75 -5.46875 C 2.300781 -5.46875 2 -5.300781 1.84375 -4.96875 C 1.800781 -4.875 1.78125 -4.765625 1.78125 -4.640625 C 1.78125 -4.523438 1.828125 -4.410156 1.921875 -4.296875 C 2.015625 -4.191406 2.132812 -4.085938 2.28125 -3.984375 C 2.425781 -3.890625 2.59375 -3.796875 2.78125 -3.703125 C 2.96875 -3.609375 3.160156 -3.503906 3.359375 -3.390625 C 3.554688 -3.285156 3.765625 -3.171875 3.984375 -3.046875 C 4.804688 -2.597656 5.21875 -2.101562 5.21875 -1.5625 C 5.21875 -1.019531 5.003906 -0.601562 4.578125 -0.3125 C 4.160156 -0.0195312 3.601562 0.125 2.90625 0.125 C 2.207031 0.125 1.628906 0 1.171875 -0.25 C 0.722656 -0.507812 0.5 -0.832031 0.5 -1.21875 C 0.5 -1.4375 0.566406 -1.617188 0.703125 -1.765625 C 0.847656 -1.921875 1.03125 -2 1.25 -2 C 1.476562 -2 1.660156 -1.925781 1.796875 -1.78125 C 1.941406 -1.644531 2.015625 -1.476562 2.015625 -1.28125 C 2.015625 -1.09375 1.953125 -0.929688 1.828125 -0.796875 C 2.140625 -0.617188 2.523438 -0.53125 2.984375 -0.53125 C 3.453125 -0.53125 3.78125 -0.640625 3.96875 -0.859375 C 4.039062 -0.941406 4.078125 -1.050781 4.078125 -1.1875 C 4.078125 -1.507812 3.71875 -1.847656 3 -2.203125 C 2.5 -2.453125 2.125 -2.644531 1.875 -2.78125 C 1.070312 -3.238281 0.671875 -3.785156 0.671875 -4.421875 C 0.671875 -4.910156 0.875 -5.300781 1.28125 -5.59375 C 1.695312 -5.894531 2.21875 -6.046875 2.84375 -6.046875 C 3.476562 -6.046875 4.007812 -5.925781 4.4375 -5.6875 C 4.875 -5.457031 5.09375 -5.15625 5.09375 -4.78125 C 5.09375 -4.5625 5.039062 -4.398438 4.9375 -4.296875 C 4.75 -4.109375 4.570312 -4.015625 4.40625 -4.015625 C 4.132812 -4.015625 3.925781 -4.082031 3.78125 -4.21875 C 3.644531 -4.363281 3.578125 -4.523438 3.578125 -4.703125 C 3.578125 -4.878906 3.628906 -5.03125 3.734375 -5.15625 Z M 3.734375 -5.15625 "/></g></g><g transform="translate(99.597653, 84.749998)"><g><path d="M 3.734375 -5.15625 C 3.535156 -5.363281 3.207031 -5.46875 2.75 -5.46875 C 2.300781 -5.46875 2 -5.300781 1.84375 -4.96875 C 1.800781 -4.875 1.78125 -4.765625 1.78125 -4.640625 C 1.78125 -4.523438 1.828125 -4.410156 1.921875 -4.296875 C 2.015625 -4.191406 2.132812 -4.085938 2.28125 -3.984375 C 2.425781 -3.890625 2.59375 -3.796875 2.78125 -3.703125 C 2.96875 -3.609375 3.160156 -3.503906 3.359375 -3.390625 C 3.554688 -3.285156 3.765625 -3.171875 3.984375 -3.046875 C 4.804688 -2.597656 5.21875 -2.101562 5.21875 -1.5625 C 5.21875 -1.019531 5.003906 -0.601562 4.578125 -0.3125 C 4.160156 -0.0195312 3.601562 0.125 2.90625 0.125 C 2.207031 0.125 1.628906 0 1.171875 -0.25 C 0.722656 -0.507812 0.5 -0.832031 0.5 -1.21875 C 0.5 -1.4375 0.566406 -1.617188 0.703125 -1.765625 C 0.847656 -1.921875 1.03125 -2 1.25 -2 C 1.476562 -2 1.660156 -1.925781 1.796875 -1.78125 C 1.941406 -1.644531 2.015625 -1.476562 2.015625 -1.28125 C 2.015625 -1.09375 1.953125 -0.929688 1.828125 -0.796875 C 2.140625 -0.617188 2.523438 -0.53125 2.984375 -0.53125 C 3.453125 -0.53125 3.78125 -0.640625 3.96875 -0.859375 C 4.039062 -0.941406 4.078125 -1.050781 4.078125 -1.1875 C 4.078125 -1.507812 3.71875 -1.847656 3 -2.203125 C 2.5 -2.453125 2.125 -2.644531 1.875 -2.78125 C 1.070312 -3.238281 0.671875 -3.785156 0.671875 -4.421875 C 0.671875 -4.910156 0.875 -5.300781 1.28125 -5.59375 C 1.695312 -5.894531 2.21875 -6.046875 2.84375 -6.046875 C 3.476562 -6.046875 4.007812 -5.925781 4.4375 -5.6875 C 4.875 -5.457031 5.09375 -5.15625 5.09375 -4.78125 C 5.09375 -4.5625 5.039062 -4.398438 4.9375 -4.296875 C 4.75 -4.109375 4.570312 -4.015625 4.40625 -4.015625 C 4.132812 -4.015625 3.925781 -4.082031 3.78125 -4.21875 C 3.644531 -4.363281 3.578125 -4.523438 3.578125 -4.703125 C 3.578125 -4.878906 3.628906 -5.03125 3.734375 -5.15625 Z M 3.734375 -5.15625 "/></g></g><g transform="translate(105.304684, 84.749998)"><g><path d="M 1.125 -0.765625 C 1.125 -1.015625 1.210938 -1.222656 1.390625 -1.390625 C 1.578125 -1.566406 1.796875 -1.65625 2.046875 -1.65625 C 2.296875 -1.65625 2.507812 -1.566406 2.6875 -1.390625 C 2.863281 -1.222656 2.953125 -1.015625 2.953125 -0.765625 C 2.953125 -0.515625 2.863281 -0.300781 2.6875 -0.125 C 2.507812 0.0390625 2.296875 0.125 2.046875 0.125 C 1.785156 0.125 1.566406 0.0390625 1.390625 -0.125 C 1.210938 -0.300781 1.125 -0.515625 1.125 -0.765625 Z M 1.125 -0.765625 "/></g></g><g transform="translate(109.312496, 84.749998)"><g><path d="M 2.0625 -7.15625 C 1.8125 -7.15625 1.597656 -7.238281 1.421875 -7.40625 C 1.242188 -7.582031 1.15625 -7.796875 1.15625 -8.046875 C 1.15625 -8.296875 1.242188 -8.503906 1.421875 -8.671875 C 1.597656 -8.847656 1.8125 -8.9375 2.0625 -8.9375 C 2.3125 -8.9375 2.523438 -8.847656 2.703125 -8.671875 C 2.890625 -8.503906 2.984375 -8.296875 2.984375 -8.046875 C 2.984375 -7.796875 2.894531 -7.582031 2.71875 -7.40625 C 2.539062 -7.238281 2.320312 -7.15625 2.0625 -7.15625 Z M 0.65625 1.21875 C 0.757812 1.320312 0.828125 1.414062 0.859375 1.5 C 0.898438 1.59375 0.921875 1.707031 0.921875 1.84375 C 0.921875 1.988281 0.847656 2.128906 0.703125 2.265625 C 0.804688 2.304688 0.890625 2.320312 0.953125 2.3125 C 1.441406 2.28125 1.6875 1.898438 1.6875 1.171875 C 1.6875 0.941406 1.648438 0.601562 1.578125 0.15625 C 1.515625 -0.289062 1.484375 -0.664062 1.484375 -0.96875 L 1.484375 -4.484375 C 1.484375 -4.765625 1.457031 -4.945312 1.40625 -5.03125 C 1.351562 -5.113281 1.222656 -5.15625 1.015625 -5.15625 L 0.46875 -5.15625 L 0.46875 -5.8125 C 0.851562 -5.8125 1.164062 -5.835938 1.40625 -5.890625 C 1.65625 -5.953125 1.832031 -5.992188 1.9375 -6.015625 C 2.039062 -6.035156 2.144531 -6.046875 2.25 -6.046875 C 2.445312 -6.046875 2.578125 -5.988281 2.640625 -5.875 C 2.710938 -5.757812 2.75 -5.566406 2.75 -5.296875 L 2.75 -0.0625 C 2.75 1.488281 2.394531 2.445312 1.6875 2.8125 C 1.457031 2.925781 1.210938 2.984375 0.953125 2.984375 C 0.492188 2.984375 0.125 2.875 -0.15625 2.65625 C -0.445312 2.445312 -0.59375 2.207031 -0.59375 1.9375 C -0.59375 1.675781 -0.535156 1.488281 -0.421875 1.375 C -0.234375 1.175781 -0.0351562 1.078125 0.171875 1.078125 C 0.390625 1.078125 0.550781 1.125 0.65625 1.21875 Z M 0.65625 1.21875 "/></g></g><g transform="translate(112.957027, 84.749998)"><g><path d="M 3.734375 -5.15625 C 3.535156 -5.363281 3.207031 -5.46875 2.75 -5.46875 C 2.300781 -5.46875 2 -5.300781 1.84375 -4.96875 C 1.800781 -4.875 1.78125 -4.765625 1.78125 -4.640625 C 1.78125 -4.523438 1.828125 -4.410156 1.921875 -4.296875 C 2.015625 -4.191406 2.132812 -4.085938 2.28125 -3.984375 C 2.425781 -3.890625 2.59375 -3.796875 2.78125 -3.703125 C 2.96875 -3.609375 3.160156 -3.503906 3.359375 -3.390625 C 3.554688 -3.285156 3.765625 -3.171875 3.984375 -3.046875 C 4.804688 -2.597656 5.21875 -2.101562 5.21875 -1.5625 C 5.21875 -1.019531 5.003906 -0.601562 4.578125 -0.3125 C 4.160156 -0.0195312 3.601562 0.125 2.90625 0.125 C 2.207031 0.125 1.628906 0 1.171875 -0.25 C 0.722656 -0.507812 0.5 -0.832031 0.5 -1.21875 C 0.5 -1.4375 0.566406 -1.617188 0.703125 -1.765625 C 0.847656 -1.921875 1.03125 -2 1.25 -2 C 1.476562 -2 1.660156 -1.925781 1.796875 -1.78125 C 1.941406 -1.644531 2.015625 -1.476562 2.015625 -1.28125 C 2.015625 -1.09375 1.953125 -0.929688 1.828125 -0.796875 C 2.140625 -0.617188 2.523438 -0.53125 2.984375 -0.53125 C 3.453125 -0.53125 3.78125 -0.640625 3.96875 -0.859375 C 4.039062 -0.941406 4.078125 -1.050781 4.078125 -1.1875 C 4.078125 -1.507812 3.71875 -1.847656 3 -2.203125 C 2.5 -2.453125 2.125 -2.644531 1.875 -2.78125 C 1.070312 -3.238281 0.671875 -3.785156 0.671875 -4.421875 C 0.671875 -4.910156 0.875 -5.300781 1.28125 -5.59375 C 1.695312 -5.894531 2.21875 -6.046875 2.84375 -6.046875 C 3.476562 -6.046875 4.007812 -5.925781 4.4375 -5.6875 C 4.875 -5.457031 5.09375 -5.15625 5.09375 -4.78125 C 5.09375 -4.5625 5.039062 -4.398438 4.9375 -4.296875 C 4.75 -4.109375 4.570312 -4.015625 4.40625 -4.015625 C 4.132812 -4.015625 3.925781 -4.082031 3.78125 -4.21875 C 3.644531 -4.363281 3.578125 -4.523438 3.578125 -4.703125 C 3.578125 -4.878906 3.628906 -5.03125 3.734375 -5.15625 Z M 3.734375 -5.15625 "/></g></g></g></svg>