<svg xmlns="http://www.w3.org/2000/svg" xmlns:xlink="http://www.w3.org/1999/xlink" width="240" zoomAndPan="magnify" viewBox="0 0 180 89.999999" height="120" preserveAspectRatio="xMidYMid meet" version="1.0"><defs><g/><clipPath id="3f3a50d263"><path d="M 42.941406 9 L 136.691406 9 L 136.691406 71.25 L 42.941406 71.25 Z M 42.941406 9 " clip-rule="nonzero"/></clipPath></defs><g clip-path="url(#3f3a50d263)"><path fill="#a8a8a8" d="M 80.367188 9.058594 L 80.367188 18.472656 L 61.652344 18.472656 L 61.652344 27.886719 L 52.296875 27.886719 L 52.296875 37.300781 L 45.046875 37.300781 C 44.140625 37.300781 43.394531 37.933594 43.234375 38.832031 C 43.21875 38.898438 42.941406 40.46875 42.941406 42.476562 C 42.941406 43.792969 43.066406 45.230469 43.292969 46.65625 C 45.433594 46.140625 49.359375 45.367188 48.671875 42.832031 C 52.363281 47.132812 61.222656 45.832031 63.464844 43.714844 C 65.972656 47.371094 80.578125 45.972656 81.59375 43.125 C 84.738281 46.832031 94.480469 46.832031 97.617188 43.125 C 98.632812 45.972656 113.179688 47.371094 115.6875 43.714844 C 116.484375 44.464844 118.140625 45.089844 120.070312 45.421875 C 120.722656 44.175781 121.320312 42.925781 121.882812 41.597656 C 133.769531 41.449219 136.335938 32.851562 136.445312 32.476562 C 136.648438 31.753906 136.371094 31.011719 135.800781 30.535156 C 135.605469 30.367188 131.21875 26.785156 124.105469 28.003906 C 122.109375 21.464844 116.972656 18.488281 116.738281 18.355469 C 116.066406 17.972656 115.234375 18.03125 114.632812 18.53125 C 114.441406 18.6875 110.019531 22.460938 110.714844 30.183594 C 110.890625 32.125 111.394531 33.835938 112.175781 35.359375 C 110.640625 36.21875 108.003906 37.300781 103.757812 37.300781 L 102.820312 37.300781 L 102.820312 27.886719 L 93.464844 27.886719 L 93.464844 9.058594 Z M 120.070312 45.421875 C 119.84375 45.863281 119.550781 46.289062 119.3125 46.714844 L 136.210938 46.714844 C 134.179688 46.199219 129.816406 45.507812 130.539062 42.832031 C 128.148438 45.613281 123.609375 46.023438 120.070312 45.421875 Z M 119.3125 46.714844 L 43.292969 46.714844 C 43.746094 49.480469 44.679688 52.378906 46.097656 55.1875 C 56.257812 57.59375 66.921875 53.929688 67.03125 53.894531 C 68.011719 53.546875 69.035156 54.089844 69.371094 55.070312 C 69.714844 56.046875 69.234375 57.144531 68.261719 57.480469 C 67.902344 57.605469 61.476562 59.777344 53.582031 59.777344 C 52.019531 59.777344 50.375 59.6875 48.730469 59.480469 C 53.640625 66.035156 61.96875 71.191406 74.753906 71.191406 C 94.96875 71.191406 110.519531 62.550781 119.3125 46.714844 Z M 43.292969 46.714844 C 43.285156 46.683594 43.296875 46.683594 43.292969 46.65625 C 43.167969 46.683594 43.050781 46.683594 42.941406 46.714844 Z M 84.109375 12.824219 L 89.722656 12.824219 L 89.722656 18.472656 L 84.109375 18.472656 Z M 65.394531 22.238281 L 71.007812 22.238281 L 71.007812 27.886719 L 65.394531 27.886719 Z M 74.753906 22.238281 L 80.367188 22.238281 L 80.367188 27.886719 L 74.753906 27.886719 Z M 84.109375 22.238281 L 89.722656 22.238281 L 89.722656 27.886719 L 84.109375 27.886719 Z M 56.039062 31.652344 L 61.652344 31.652344 L 61.652344 37.300781 L 56.039062 37.300781 Z M 65.394531 31.652344 L 71.007812 31.652344 L 71.007812 37.300781 L 65.394531 37.300781 Z M 74.753906 31.652344 L 80.367188 31.652344 L 80.367188 37.300781 L 74.753906 37.300781 Z M 84.109375 31.652344 L 89.722656 31.652344 L 89.722656 37.300781 L 84.109375 37.300781 Z M 93.464844 31.652344 L 99.078125 31.652344 L 99.078125 37.300781 L 93.464844 37.300781 Z M 72.878906 50.480469 C 73.121094 50.480469 73.371094 50.515625 73.582031 50.597656 C 73.355469 50.730469 73.171875 50.957031 73.171875 51.246094 C 73.171875 51.671875 73.507812 52.070312 73.933594 52.070312 C 74.21875 52.070312 74.503906 51.890625 74.636719 51.65625 C 74.730469 51.878906 74.753906 52.105469 74.753906 52.363281 C 74.753906 53.398438 73.910156 54.246094 72.878906 54.246094 C 71.851562 54.246094 71.007812 53.398438 71.007812 52.363281 C 71.007812 51.324219 71.851562 50.480469 72.878906 50.480469 Z M 72.878906 50.480469 " fill-opacity="1" fill-rule="nonzero"/></g><g fill="#a8a8a8" fill-opacity="1"><g transform="translate(70.324216, 84.749998)"><g><path d="M 5.015625 -0.921875 C 4.554688 -0.222656 3.925781 0.125 3.125 0.125 C 2.320312 0.125 1.6875 -0.140625 1.21875 -0.671875 C 0.75 -1.203125 0.515625 -1.910156 0.515625 -2.796875 C 0.515625 -3.890625 0.753906 -4.707031 1.234375 -5.25 C 1.710938 -5.789062 2.375 -6.0625 3.21875 -6.0625 C 3.851562 -6.0625 4.398438 -5.84375 4.859375 -5.40625 L 4.859375 -7.5625 C 4.859375 -7.84375 4.828125 -8.023438 4.765625 -8.109375 C 4.710938 -8.203125 4.578125 -8.25 4.359375 -8.25 L 3.9375 -8.25 L 3.9375 -8.890625 C 4.320312 -8.890625 4.625 -8.914062 4.84375 -8.96875 C 5.0625 -9.03125 5.21875 -9.070312 5.3125 -9.09375 C 5.40625 -9.125 5.503906 -9.140625 5.609375 -9.140625 C 5.816406 -9.140625 5.953125 -9.078125 6.015625 -8.953125 C 6.085938 -8.835938 6.125 -8.648438 6.125 -8.390625 L 6.125 -1.5625 C 6.125 -1.175781 6.140625 -0.941406 6.171875 -0.859375 C 6.234375 -0.679688 6.390625 -0.59375 6.640625 -0.59375 C 6.773438 -0.59375 6.890625 -0.613281 6.984375 -0.65625 L 6.984375 -0.09375 C 6.796875 0.0507812 6.539062 0.125 6.21875 0.125 C 5.570312 0.125 5.171875 -0.222656 5.015625 -0.921875 Z M 2.65625 -0.78125 C 2.84375 -0.65625 3.070312 -0.59375 3.34375 -0.59375 C 3.851562 -0.59375 4.234375 -0.804688 4.484375 -1.234375 C 4.742188 -1.660156 4.875 -2.257812 4.875 -3.03125 C 4.875 -4.15625 4.578125 -4.878906 3.984375 -5.203125 C 3.796875 -5.304688 3.585938 -5.359375 3.359375 -5.359375 C 2.890625 -5.359375 2.523438 -5.144531 2.265625 -4.71875 C 2.003906 -4.289062 1.875 -3.726562 1.875 -3.03125 C 1.875 -1.894531 2.132812 -1.144531 2.65625 -0.78125 Z M 2.65625 -0.78125 "/></g></g><g transform="translate(77.460935, 84.749998)"><g><path d="M 0.53125 -3 C 0.53125 -3.46875 0.601562 -3.898438 0.75 -4.296875 C 0.894531 -4.691406 1.097656 -5.019531 1.359375 -5.28125 C 1.878906 -5.800781 2.566406 -6.0625 3.421875 -6.0625 C 4.285156 -6.0625 4.976562 -5.800781 5.5 -5.28125 C 6.03125 -4.757812 6.296875 -4.023438 6.296875 -3.078125 C 6.296875 -2.128906 6.050781 -1.359375 5.5625 -0.765625 C 5.070312 -0.171875 4.359375 0.125 3.421875 0.125 C 2.472656 0.125 1.753906 -0.160156 1.265625 -0.734375 C 0.773438 -1.304688 0.53125 -2.0625 0.53125 -3 Z M 3.421875 -0.59375 C 3.867188 -0.59375 4.234375 -0.796875 4.515625 -1.203125 C 4.804688 -1.617188 4.953125 -2.203125 4.953125 -2.953125 C 4.953125 -4.160156 4.644531 -4.914062 4.03125 -5.21875 C 3.84375 -5.3125 3.640625 -5.359375 3.421875 -5.359375 C 2.691406 -5.359375 2.21875 -4.921875 2 -4.046875 C 1.925781 -3.742188 1.890625 -3.390625 1.890625 -2.984375 C 1.890625 -2.210938 2.03125 -1.617188 2.3125 -1.203125 C 2.59375 -0.796875 2.960938 -0.59375 3.421875 -0.59375 Z M 3.421875 -0.59375 "/></g></g><g transform="translate(84.287106, 84.749998)"><g><path d="M 4.484375 -4.96875 C 4.265625 -5.25 3.953125 -5.390625 3.546875 -5.390625 C 2.773438 -5.390625 2.273438 -4.953125 2.046875 -4.078125 C 1.972656 -3.773438 1.9375 -3.410156 1.9375 -2.984375 C 1.9375 -2.191406 2.085938 -1.59375 2.390625 -1.1875 C 2.691406 -0.789062 3.070312 -0.59375 3.53125 -0.59375 C 3.863281 -0.59375 4.144531 -0.6875 4.375 -0.875 C 4.613281 -1.070312 4.78125 -1.351562 4.875 -1.71875 L 5.671875 -1.71875 C 5.671875 -1.238281 5.457031 -0.8125 5.03125 -0.4375 C 4.601562 -0.0625 4.023438 0.125 3.296875 0.125 C 2.566406 0.125 1.945312 -0.101562 1.4375 -0.5625 C 0.832031 -1.101562 0.53125 -1.894531 0.53125 -2.9375 C 0.53125 -3.78125 0.78125 -4.507812 1.28125 -5.125 C 1.78125 -5.75 2.519531 -6.0625 3.5 -6.0625 C 4.132812 -6.0625 4.660156 -5.90625 5.078125 -5.59375 C 5.503906 -5.289062 5.71875 -4.894531 5.71875 -4.40625 C 5.71875 -4.164062 5.640625 -3.960938 5.484375 -3.796875 C 5.335938 -3.640625 5.144531 -3.5625 4.90625 -3.5625 C 4.5625 -3.5625 4.328125 -3.71875 4.203125 -4.03125 C 4.160156 -4.125 4.140625 -4.226562 4.140625 -4.34375 C 4.140625 -4.613281 4.253906 -4.820312 4.484375 -4.96875 Z M 4.484375 -4.96875 "/></g></g><g transform="translate(90.457028, 84.749998)"><g><path d="M 6.34375 -0.765625 C 6.613281 -0.765625 6.75 -1.050781 6.75 -1.625 L 7.3125 -1.625 C 7.34375 -1.5 7.359375 -1.390625 7.359375 -1.296875 C 7.359375 -1.203125 7.351562 -1.09375 7.34375 -0.96875 C 7.34375 -0.851562 7.300781 -0.707031 7.21875 -0.53125 C 7.019531 -0.09375 6.632812 0.125 6.0625 0.125 C 5.5 0.125 5.046875 -0.195312 4.703125 -0.84375 C 4.609375 -1.03125 4.515625 -1.21875 4.421875 -1.40625 C 4.160156 -1.925781 3.945312 -2.28125 3.78125 -2.46875 C 3.5 -2.78125 3.148438 -2.9375 2.734375 -2.9375 C 2.703125 -2.9375 2.671875 -2.9375 2.640625 -2.9375 C 2.609375 -2.9375 2.578125 -2.9375 2.546875 -2.9375 L 2.546875 -1.265625 C 2.546875 -1.023438 2.597656 -0.859375 2.703125 -0.765625 C 2.804688 -0.679688 3.046875 -0.640625 3.421875 -0.640625 L 3.421875 0 L 0.390625 0 L 0.390625 -0.640625 C 0.734375 -0.640625 0.96875 -0.6875 1.09375 -0.78125 C 1.21875 -0.875 1.28125 -1.035156 1.28125 -1.265625 L 1.28125 -7.625 C 1.28125 -7.90625 1.253906 -8.085938 1.203125 -8.171875 C 1.160156 -8.253906 1.03125 -8.296875 0.8125 -8.296875 L 0.328125 -8.296875 L 0.328125 -8.9375 C 0.722656 -8.9375 1.03125 -8.960938 1.25 -9.015625 C 1.476562 -9.078125 1.640625 -9.117188 1.734375 -9.140625 C 1.828125 -9.171875 1.929688 -9.1875 2.046875 -9.1875 C 2.242188 -9.1875 2.375 -9.128906 2.4375 -9.015625 C 2.507812 -8.898438 2.546875 -8.707031 2.546875 -8.4375 L 2.546875 -3.5625 L 2.84375 -3.5625 C 3.488281 -4.019531 4.050781 -4.507812 4.53125 -5.03125 C 4.613281 -5.113281 4.675781 -5.179688 4.71875 -5.234375 L 3.703125 -5.234375 L 3.703125 -5.9375 L 6.9375 -5.9375 L 6.9375 -5.234375 C 6.207031 -5.210938 5.460938 -4.867188 4.703125 -4.203125 C 4.472656 -3.992188 4.242188 -3.78125 4.015625 -3.5625 C 4.648438 -3.3125 5.164062 -2.769531 5.5625 -1.9375 C 5.664062 -1.726562 5.753906 -1.535156 5.828125 -1.359375 C 5.910156 -1.179688 5.988281 -1.035156 6.0625 -0.921875 C 6.144531 -0.816406 6.238281 -0.765625 6.34375 -0.765625 Z M 6.34375 -0.765625 "/></g></g><g transform="translate(97.880856, 84.749998)"><g><path d="M 6 -2.703125 L 1.921875 -2.703125 C 1.921875 -2.023438 2.082031 -1.503906 2.40625 -1.140625 C 2.726562 -0.773438 3.125 -0.59375 3.59375 -0.59375 C 4.21875 -0.59375 4.664062 -0.851562 4.9375 -1.375 L 5.8125 -1.375 C 5.71875 -0.957031 5.457031 -0.601562 5.03125 -0.3125 C 4.613281 -0.0195312 4.046875 0.125 3.328125 0.125 C 2.609375 0.125 1.988281 -0.0976562 1.46875 -0.546875 C 0.84375 -1.085938 0.53125 -1.84375 0.53125 -2.8125 C 0.53125 -3.78125 0.773438 -4.5625 1.265625 -5.15625 C 1.765625 -5.757812 2.484375 -6.0625 3.421875 -6.0625 C 4.640625 -6.0625 5.429688 -5.566406 5.796875 -4.578125 C 5.929688 -4.179688 6 -3.804688 6 -3.453125 C 6 -3.109375 6 -2.859375 6 -2.703125 Z M 4.640625 -3.578125 C 4.640625 -4.773438 4.234375 -5.375 3.421875 -5.375 C 2.960938 -5.375 2.601562 -5.195312 2.34375 -4.84375 C 2.09375 -4.488281 1.957031 -3.992188 1.9375 -3.359375 L 4.640625 -3.359375 C 4.640625 -3.429688 4.640625 -3.503906 4.640625 -3.578125 Z M 4.640625 -3.578125 "/></g></g><g transform="translate(104.419918, 84.749998)"><g><path d="M 0.484375 -0.640625 C 0.816406 -0.640625 1.023438 -0.671875 1.109375 -0.734375 C 1.203125 -0.804688 1.253906 -0.878906 1.265625 -0.953125 C 1.285156 -1.035156 1.296875 -1.140625 1.296875 -1.265625 L 1.296875 -4.484375 C 1.296875 -4.765625 1.269531 -4.945312 1.21875 -5.03125 C 1.175781 -5.125 1.046875 -5.171875 0.828125 -5.171875 L 0.46875 -5.171875 L 0.46875 -5.8125 C 0.84375 -5.8125 1.128906 -5.835938 1.328125 -5.890625 C 1.535156 -5.953125 1.679688 -5.992188 1.765625 -6.015625 C 1.859375 -6.046875 1.957031 -6.0625 2.0625 -6.0625 C 2.257812 -6.0625 2.390625 -6 2.453125 -5.875 C 2.523438 -5.757812 2.5625 -5.570312 2.5625 -5.3125 L 2.5625 -5.1875 C 2.894531 -5.582031 3.273438 -5.847656 3.703125 -5.984375 C 3.859375 -6.035156 4.007812 -6.0625 4.15625 -6.0625 C 4.445312 -6.0625 4.675781 -5.976562 4.84375 -5.8125 C 5.007812 -5.644531 5.09375 -5.4375 5.09375 -5.1875 C 5.09375 -4.9375 5.015625 -4.734375 4.859375 -4.578125 C 4.703125 -4.421875 4.507812 -4.34375 4.28125 -4.34375 C 4.0625 -4.34375 3.878906 -4.421875 3.734375 -4.578125 C 3.597656 -4.734375 3.535156 -4.929688 3.546875 -5.171875 C 3.390625 -5.148438 3.21875 -5.078125 3.03125 -4.953125 C 2.851562 -4.828125 2.695312 -4.660156 2.5625 -4.453125 L 2.5625 -1.3125 C 2.5625 -1.164062 2.570312 -1.046875 2.59375 -0.953125 C 2.625 -0.867188 2.691406 -0.796875 2.796875 -0.734375 C 2.910156 -0.671875 3.25 -0.640625 3.8125 -0.640625 L 3.8125 0 L 0.484375 0 Z M 0.484375 -0.640625 "/></g></g></g></svg>