<svg xmlns="http://www.w3.org/2000/svg" xmlns:xlink="http://www.w3.org/1999/xlink" width="240" zoomAndPan="magnify" viewBox="0 0 180 89.999999" height="120" preserveAspectRatio="xMidYMid meet" version="1.0"><defs><g/><clipPath id="e6b9ac3a9b"><path d="M 43 42 L 132 42 L 132 68.25 L 43 68.25 Z M 43 42 " clip-rule="nonzero"/></clipPath></defs><path fill="#a8a8a8" d="M 69.140625 38.265625 C 68.683594 38.265625 68.21875 38.160156 67.789062 37.945312 C 67.230469 37.667969 62.339844 34.925781 62.339844 24.78125 C 62.339844 23.910156 62.378906 23.023438 62.421875 22.136719 C 62.53125 19.757812 62.648438 17.300781 61.722656 16.324219 C 61.089844 15.660156 59.667969 15.304688 57.621094 15.304688 C 53.945312 15.304688 52.6875 17.324219 52.558594 17.554688 C 51.765625 18.941406 49.996094 19.472656 48.597656 18.71875 C 47.199219 17.960938 46.632812 16.261719 47.351562 14.839844 C 48.367188 12.824219 51.671875 9.417969 57.621094 9.417969 C 61.421875 9.417969 64.152344 10.351562 65.96875 12.261719 C 68.628906 15.054688 68.445312 18.960938 68.285156 22.410156 C 68.246094 23.207031 68.207031 24.003906 68.207031 24.78125 C 68.207031 31.132812 70.527344 32.738281 70.550781 32.753906 C 72 33.480469 72.515625 35.207031 71.792969 36.664062 C 71.285156 37.6875 70.230469 38.265625 69.140625 38.265625 Z M 69.140625 38.265625 " fill-opacity="1" fill-rule="nonzero"/><path fill="#a8a8a8" d="M 57.621094 38.253906 C 50.597656 38.253906 47.035156 35.332031 47.035156 29.570312 C 47.035156 23.863281 52.359375 20.882812 57.621094 20.882812 C 64.289062 20.882812 66.9375 23.332031 67.40625 23.828125 C 68.34375 24.824219 68.453125 26.308594 67.757812 27.417969 C 68.628906 28.234375 68.949219 29.539062 68.460938 30.707031 C 68.332031 31.011719 65.226562 38.253906 57.621094 38.253906 Z M 57.621094 26.765625 C 55.796875 26.765625 52.902344 27.527344 52.902344 29.570312 C 52.902344 31.195312 52.902344 32.371094 57.621094 32.371094 C 61.308594 32.371094 63.03125 28.472656 63.050781 28.433594 C 63.109375 28.277344 63.183594 28.136719 63.269531 28.003906 C 63.257812 27.992188 63.25 27.984375 63.242188 27.976562 C 63.082031 27.855469 61.546875 26.765625 57.621094 26.765625 Z M 57.621094 26.765625 " fill-opacity="1" fill-rule="nonzero"/><path fill="#a8a8a8" d="M 99.625 38.253906 C 98.363281 38.253906 97.242188 37.441406 96.84375 36.242188 L 91.972656 21.617188 L 87.105469 36.242188 C 86.703125 37.445312 85.582031 38.253906 84.324219 38.253906 C 83.066406 38.253906 81.941406 37.441406 81.542969 36.242188 L 73.886719 13.269531 C 73.371094 11.726562 74.203125 10.058594 75.734375 9.546875 C 77.28125 9.027344 78.9375 9.863281 79.449219 11.402344 L 84.320312 26.027344 L 89.191406 11.402344 C 89.589844 10.203125 90.710938 9.390625 91.96875 9.390625 C 93.230469 9.390625 94.351562 10.203125 94.75 11.402344 L 99.625 26.03125 L 104.492188 11.429688 C 105.007812 9.886719 106.667969 9.046875 108.207031 9.570312 C 109.742188 10.085938 110.570312 11.753906 110.058594 13.292969 L 102.40625 36.238281 C 102.007812 37.445312 100.886719 38.253906 99.625 38.253906 Z M 99.625 38.253906 " fill-opacity="1" fill-rule="nonzero"/><path fill="#a8a8a8" d="M 124.691406 38.253906 L 118.753906 38.253906 C 117.136719 38.253906 115.820312 36.933594 115.820312 35.308594 C 115.820312 33.683594 117.136719 32.367188 118.753906 32.367188 L 124.691406 32.367188 C 126.128906 32.367188 127.300781 31.195312 127.300781 29.761719 C 127.300781 28.613281 126.585938 27.617188 125.515625 27.265625 L 121.617188 25.960938 C 118.152344 24.804688 115.820312 21.566406 115.820312 17.90625 C 115.820312 13.226562 119.621094 9.414062 124.296875 9.414062 L 130.234375 9.414062 C 131.851562 9.414062 133.167969 10.734375 133.167969 12.359375 C 133.167969 13.984375 131.851562 15.300781 130.234375 15.300781 L 124.296875 15.300781 C 122.855469 15.300781 121.6875 16.472656 121.6875 17.90625 C 121.6875 19.03125 122.402344 20.023438 123.472656 20.375 L 127.371094 21.679688 C 130.839844 22.835938 133.167969 26.074219 133.167969 29.734375 C 133.167969 34.445312 129.363281 38.253906 124.691406 38.253906 Z M 124.691406 38.253906 " fill-opacity="1" fill-rule="nonzero"/><g clip-path="url(#e6b9ac3a9b)"><path fill="#a8a8a8" d="M 89.101562 68.25 C 58.574219 68.25 44.246094 48.183594 43.652344 47.328125 C 42.726562 45.992188 43.050781 44.160156 44.375 43.230469 C 45.703125 42.304688 47.53125 42.628906 48.460938 43.957031 C 48.984375 44.703125 61.742188 62.363281 89.101562 62.363281 C 109.273438 62.363281 126.109375 47.527344 126.277344 47.378906 C 127.492188 46.296875 129.34375 46.40625 130.421875 47.621094 C 131.496094 48.835938 131.390625 50.695312 130.179688 51.777344 C 129.425781 52.449219 111.484375 68.25 89.101562 68.25 Z M 89.101562 68.25 " fill-opacity="1" fill-rule="nonzero"/></g><path fill="#a8a8a8" d="M 130.148438 62.570312 C 129.914062 62.570312 129.679688 62.542969 129.441406 62.484375 C 127.871094 62.097656 126.910156 60.503906 127.300781 58.921875 L 130.046875 47.765625 L 119.113281 50.515625 C 117.539062 50.898438 115.949219 49.949219 115.554688 48.375 C 115.160156 46.800781 116.117188 45.203125 117.6875 44.804688 L 133.347656 40.875 C 134.34375 40.625 135.398438 40.917969 136.128906 41.640625 C 136.859375 42.371094 137.152344 43.433594 136.90625 44.433594 L 132.996094 60.335938 C 132.660156 61.675781 131.464844 62.570312 130.148438 62.570312 Z M 130.148438 62.570312 " fill-opacity="1" fill-rule="nonzero"/><g fill="#a8a8a8" fill-opacity="1"><g transform="translate(28.535156, 84.750005)"><g><path d="M 5.59375 -1.40625 C 5.59375 -0.9375 5.6875 -0.703125 5.875 -0.703125 C 6.050781 -0.703125 6.175781 -0.757812 6.25 -0.875 C 6.332031 -1 6.375 -1.21875 6.375 -1.53125 L 7 -1.53125 C 7 -1.476562 7 -1.398438 7 -1.296875 C 7 -0.941406 6.910156 -0.632812 6.734375 -0.375 C 6.523438 -0.0390625 6.1875 0.125 5.71875 0.125 C 5.40625 0.125 5.140625 0.0351562 4.921875 -0.140625 C 4.710938 -0.316406 4.566406 -0.546875 4.484375 -0.828125 C 3.921875 -0.191406 3.207031 0.125 2.34375 0.125 C 1.863281 0.125 1.445312 -0.015625 1.09375 -0.296875 C 0.738281 -0.578125 0.5625 -0.96875 0.5625 -1.46875 C 0.5625 -2.332031 1.203125 -2.972656 2.484375 -3.390625 C 3.296875 -3.648438 3.78125 -3.828125 3.9375 -3.921875 C 4.101562 -4.023438 4.207031 -4.128906 4.25 -4.234375 C 4.300781 -4.335938 4.328125 -4.453125 4.328125 -4.578125 C 4.328125 -4.804688 4.210938 -5 3.984375 -5.15625 C 3.765625 -5.3125 3.472656 -5.390625 3.109375 -5.390625 C 2.742188 -5.390625 2.421875 -5.289062 2.140625 -5.09375 C 2.335938 -4.945312 2.4375 -4.757812 2.4375 -4.53125 C 2.4375 -4.3125 2.359375 -4.132812 2.203125 -4 C 2.054688 -3.863281 1.875 -3.796875 1.65625 -3.796875 C 1.445312 -3.796875 1.273438 -3.859375 1.140625 -3.984375 C 1.003906 -4.109375 0.9375 -4.289062 0.9375 -4.53125 C 0.9375 -4.976562 1.164062 -5.34375 1.625 -5.625 C 2.082031 -5.914062 2.644531 -6.0625 3.3125 -6.0625 C 4.488281 -6.0625 5.207031 -5.675781 5.46875 -4.90625 C 5.550781 -4.65625 5.59375 -4.363281 5.59375 -4.03125 Z M 3.015625 -2.859375 C 2.671875 -2.710938 2.410156 -2.519531 2.234375 -2.28125 C 2.066406 -2.050781 1.984375 -1.800781 1.984375 -1.53125 C 1.984375 -1.257812 2.054688 -1.050781 2.203125 -0.90625 C 2.347656 -0.769531 2.535156 -0.703125 2.765625 -0.703125 C 3.210938 -0.703125 3.582031 -0.859375 3.875 -1.171875 C 4.175781 -1.492188 4.328125 -1.941406 4.328125 -2.515625 L 4.328125 -3.40625 C 4.078125 -3.28125 3.8125 -3.164062 3.53125 -3.0625 C 3.257812 -2.957031 3.085938 -2.890625 3.015625 -2.859375 Z M 3.015625 -2.859375 "/></g></g><g transform="translate(35.402343, 84.750005)"><g><path d="M 8.234375 -6.046875 C 9.390625 -6.046875 9.96875 -5.210938 9.96875 -3.546875 L 9.96875 -1.265625 C 9.96875 -1.015625 10.003906 -0.847656 10.078125 -0.765625 C 10.148438 -0.679688 10.351562 -0.640625 10.6875 -0.640625 L 10.6875 0 L 7.90625 0 L 7.90625 -0.640625 C 8.257812 -0.640625 8.472656 -0.675781 8.546875 -0.75 C 8.617188 -0.820312 8.660156 -0.894531 8.671875 -0.96875 C 8.691406 -1.050781 8.703125 -1.148438 8.703125 -1.265625 L 8.703125 -3.46875 C 8.703125 -4.007812 8.65625 -4.378906 8.5625 -4.578125 C 8.476562 -4.785156 8.367188 -4.9375 8.234375 -5.03125 C 8.097656 -5.132812 7.941406 -5.1875 7.765625 -5.1875 C 7.453125 -5.1875 7.15625 -5.125 6.875 -5 C 6.59375 -4.875 6.363281 -4.707031 6.1875 -4.5 C 6.25 -4.21875 6.28125 -3.898438 6.28125 -3.546875 L 6.28125 -1.265625 C 6.28125 -1.015625 6.316406 -0.847656 6.390625 -0.765625 C 6.460938 -0.679688 6.664062 -0.640625 7 -0.640625 L 7 0 L 4.21875 0 L 4.21875 -0.640625 C 4.582031 -0.640625 4.796875 -0.675781 4.859375 -0.75 C 4.929688 -0.820312 4.972656 -0.894531 4.984375 -0.96875 C 5.003906 -1.050781 5.015625 -1.148438 5.015625 -1.265625 L 5.015625 -3.46875 C 5.015625 -4.007812 4.96875 -4.378906 4.875 -4.578125 C 4.789062 -4.785156 4.679688 -4.9375 4.546875 -5.03125 C 4.410156 -5.132812 4.253906 -5.1875 4.078125 -5.1875 C 3.785156 -5.1875 3.5 -5.128906 3.21875 -5.015625 C 2.945312 -4.898438 2.726562 -4.75 2.5625 -4.5625 L 2.5625 -1.265625 C 2.5625 -1.015625 2.597656 -0.859375 2.671875 -0.796875 C 2.816406 -0.691406 3.070312 -0.640625 3.4375 -0.640625 L 3.4375 0 L 0.46875 0 L 0.46875 -0.640625 C 0.800781 -0.640625 1.007812 -0.671875 1.09375 -0.734375 C 1.1875 -0.804688 1.242188 -0.878906 1.265625 -0.953125 C 1.285156 -1.035156 1.296875 -1.140625 1.296875 -1.265625 L 1.296875 -4.453125 C 1.296875 -4.734375 1.269531 -4.914062 1.21875 -5 C 1.164062 -5.09375 1.03125 -5.140625 0.8125 -5.140625 L 0.453125 -5.140625 L 0.453125 -5.78125 C 0.828125 -5.78125 1.117188 -5.804688 1.328125 -5.859375 C 1.535156 -5.921875 1.6875 -5.960938 1.78125 -5.984375 C 1.875 -6.015625 1.972656 -6.03125 2.078125 -6.03125 C 2.273438 -6.03125 2.40625 -5.96875 2.46875 -5.84375 C 2.53125 -5.726562 2.5625 -5.539062 2.5625 -5.28125 L 2.5625 -5.265625 C 2.957031 -5.609375 3.441406 -5.847656 4.015625 -5.984375 C 4.203125 -6.023438 4.378906 -6.046875 4.546875 -6.046875 C 5.253906 -6.046875 5.742188 -5.734375 6.015625 -5.109375 C 6.453125 -5.515625 6.976562 -5.800781 7.59375 -5.96875 C 7.8125 -6.019531 8.023438 -6.046875 8.234375 -6.046875 Z M 8.234375 -6.046875 "/></g></g><g transform="translate(46.423827, 84.750005)"><g><path d="M 5.59375 -1.40625 C 5.59375 -0.9375 5.6875 -0.703125 5.875 -0.703125 C 6.050781 -0.703125 6.175781 -0.757812 6.25 -0.875 C 6.332031 -1 6.375 -1.21875 6.375 -1.53125 L 7 -1.53125 C 7 -1.476562 7 -1.398438 7 -1.296875 C 7 -0.941406 6.910156 -0.632812 6.734375 -0.375 C 6.523438 -0.0390625 6.1875 0.125 5.71875 0.125 C 5.40625 0.125 5.140625 0.0351562 4.921875 -0.140625 C 4.710938 -0.316406 4.566406 -0.546875 4.484375 -0.828125 C 3.921875 -0.191406 3.207031 0.125 2.34375 0.125 C 1.863281 0.125 1.445312 -0.015625 1.09375 -0.296875 C 0.738281 -0.578125 0.5625 -0.96875 0.5625 -1.46875 C 0.5625 -2.332031 1.203125 -2.972656 2.484375 -3.390625 C 3.296875 -3.648438 3.78125 -3.828125 3.9375 -3.921875 C 4.101562 -4.023438 4.207031 -4.128906 4.25 -4.234375 C 4.300781 -4.335938 4.328125 -4.453125 4.328125 -4.578125 C 4.328125 -4.804688 4.210938 -5 3.984375 -5.15625 C 3.765625 -5.3125 3.472656 -5.390625 3.109375 -5.390625 C 2.742188 -5.390625 2.421875 -5.289062 2.140625 -5.09375 C 2.335938 -4.945312 2.4375 -4.757812 2.4375 -4.53125 C 2.4375 -4.3125 2.359375 -4.132812 2.203125 -4 C 2.054688 -3.863281 1.875 -3.796875 1.65625 -3.796875 C 1.445312 -3.796875 1.273438 -3.859375 1.140625 -3.984375 C 1.003906 -4.109375 0.9375 -4.289062 0.9375 -4.53125 C 0.9375 -4.976562 1.164062 -5.34375 1.625 -5.625 C 2.082031 -5.914062 2.644531 -6.0625 3.3125 -6.0625 C 4.488281 -6.0625 5.207031 -5.675781 5.46875 -4.90625 C 5.550781 -4.65625 5.59375 -4.363281 5.59375 -4.03125 Z M 3.015625 -2.859375 C 2.671875 -2.710938 2.410156 -2.519531 2.234375 -2.28125 C 2.066406 -2.050781 1.984375 -1.800781 1.984375 -1.53125 C 1.984375 -1.257812 2.054688 -1.050781 2.203125 -0.90625 C 2.347656 -0.769531 2.535156 -0.703125 2.765625 -0.703125 C 3.210938 -0.703125 3.582031 -0.859375 3.875 -1.171875 C 4.175781 -1.492188 4.328125 -1.941406 4.328125 -2.515625 L 4.328125 -3.40625 C 4.078125 -3.28125 3.8125 -3.164062 3.53125 -3.0625 C 3.257812 -2.957031 3.085938 -2.890625 3.015625 -2.859375 Z M 3.015625 -2.859375 "/></g></g><g transform="translate(53.291014, 84.750005)"><g><path d="M 0.515625 -0.65625 L 4.125 -5.296875 L 2.28125 -5.296875 C 1.84375 -5.296875 1.546875 -4.992188 1.390625 -4.390625 C 1.347656 -4.203125 1.3125 -4.007812 1.28125 -3.8125 L 0.515625 -3.828125 L 0.703125 -5.9375 L 5.53125 -5.9375 L 5.53125 -5.25 L 1.96875 -0.640625 L 3.828125 -0.640625 C 4.304688 -0.640625 4.617188 -0.890625 4.765625 -1.390625 C 4.804688 -1.554688 4.84375 -1.75 4.875 -1.96875 L 5.65625 -1.96875 L 5.484375 0 L 0.515625 0 Z M 0.515625 -0.65625 "/></g></g><g transform="translate(59.455076, 84.750005)"><g><path d="M 0.53125 -3 C 0.53125 -3.46875 0.601562 -3.898438 0.75 -4.296875 C 0.894531 -4.691406 1.097656 -5.019531 1.359375 -5.28125 C 1.878906 -5.800781 2.566406 -6.0625 3.421875 -6.0625 C 4.285156 -6.0625 4.976562 -5.800781 5.5 -5.28125 C 6.03125 -4.757812 6.296875 -4.023438 6.296875 -3.078125 C 6.296875 -2.128906 6.050781 -1.359375 5.5625 -0.765625 C 5.070312 -0.171875 4.359375 0.125 3.421875 0.125 C 2.472656 0.125 1.753906 -0.160156 1.265625 -0.734375 C 0.773438 -1.304688 0.53125 -2.0625 0.53125 -3 Z M 3.421875 -0.59375 C 3.867188 -0.59375 4.234375 -0.796875 4.515625 -1.203125 C 4.804688 -1.617188 4.953125 -2.203125 4.953125 -2.953125 C 4.953125 -4.160156 4.644531 -4.914062 4.03125 -5.21875 C 3.84375 -5.3125 3.640625 -5.359375 3.421875 -5.359375 C 2.691406 -5.359375 2.21875 -4.921875 2 -4.046875 C 1.925781 -3.742188 1.890625 -3.390625 1.890625 -2.984375 C 1.890625 -2.210938 2.03125 -1.617188 2.3125 -1.203125 C 2.59375 -0.796875 2.960938 -0.59375 3.421875 -0.59375 Z M 3.421875 -0.59375 "/></g></g><g transform="translate(66.281248, 84.750005)"><g><path d="M 4.109375 -5.1875 C 3.472656 -5.1875 2.957031 -4.984375 2.5625 -4.578125 L 2.5625 -1.265625 C 2.5625 -1.015625 2.597656 -0.859375 2.671875 -0.796875 C 2.804688 -0.691406 3.066406 -0.640625 3.453125 -0.640625 L 3.453125 0 L 0.46875 0 L 0.46875 -0.640625 C 0.800781 -0.640625 1.007812 -0.671875 1.09375 -0.734375 C 1.1875 -0.804688 1.242188 -0.878906 1.265625 -0.953125 C 1.285156 -1.035156 1.296875 -1.140625 1.296875 -1.265625 L 1.296875 -4.453125 C 1.296875 -4.734375 1.269531 -4.914062 1.21875 -5 C 1.164062 -5.09375 1.03125 -5.140625 0.8125 -5.140625 L 0.453125 -5.140625 L 0.453125 -5.78125 C 0.828125 -5.78125 1.117188 -5.804688 1.328125 -5.859375 C 1.535156 -5.921875 1.679688 -5.960938 1.765625 -5.984375 C 1.859375 -6.015625 1.953125 -6.03125 2.046875 -6.03125 C 2.253906 -6.03125 2.390625 -5.96875 2.453125 -5.84375 C 2.523438 -5.726562 2.5625 -5.539062 2.5625 -5.28125 C 2.976562 -5.625 3.460938 -5.859375 4.015625 -5.984375 C 4.191406 -6.023438 4.367188 -6.046875 4.546875 -6.046875 C 5.816406 -6.046875 6.453125 -5.210938 6.453125 -3.546875 L 6.453125 -1.265625 C 6.453125 -1.015625 6.488281 -0.847656 6.5625 -0.765625 C 6.632812 -0.679688 6.835938 -0.640625 7.171875 -0.640625 L 7.171875 0 L 4.390625 0 L 4.390625 -0.640625 C 4.742188 -0.640625 4.957031 -0.675781 5.03125 -0.75 C 5.101562 -0.820312 5.144531 -0.894531 5.15625 -0.96875 C 5.175781 -1.050781 5.1875 -1.148438 5.1875 -1.265625 L 5.1875 -3.46875 C 5.1875 -4.007812 5.132812 -4.378906 5.03125 -4.578125 C 4.832031 -4.984375 4.523438 -5.1875 4.109375 -5.1875 Z M 4.109375 -5.1875 "/></g></g><g transform="translate(73.787107, 84.750005)"><g/></g><g transform="translate(77.789059, 84.750005)"><g><path d="M 0.78125 -4.671875 C 0.6875 -4.910156 0.585938 -5.070312 0.484375 -5.15625 C 0.378906 -5.25 0.195312 -5.296875 -0.0625 -5.296875 L -0.0625 -5.9375 L 2.890625 -5.9375 L 2.890625 -5.296875 C 2.484375 -5.296875 2.238281 -5.257812 2.15625 -5.1875 C 2.070312 -5.113281 2.03125 -5.035156 2.03125 -4.953125 C 2.03125 -4.878906 2.050781 -4.785156 2.09375 -4.671875 L 3.234375 -1.484375 L 4.75 -5.9375 L 5.59375 -5.9375 L 7.078125 -1.359375 L 8.1875 -4.671875 C 8.269531 -4.898438 8.242188 -5.0625 8.109375 -5.15625 C 7.972656 -5.25 7.6875 -5.296875 7.25 -5.296875 L 7.25 -5.9375 L 9.921875 -5.9375 L 9.921875 -5.296875 C 9.660156 -5.296875 9.460938 -5.242188 9.328125 -5.140625 C 9.191406 -5.046875 9.085938 -4.890625 9.015625 -4.671875 L 7.390625 0 L 6.40625 0 L 4.9375 -4.015625 L 3.578125 0 L 2.59375 0 Z M 0.78125 -4.671875 "/></g></g><g transform="translate(87.62109, 84.750005)"><g><path d="M 6 -2.703125 L 1.921875 -2.703125 C 1.921875 -2.023438 2.082031 -1.503906 2.40625 -1.140625 C 2.726562 -0.773438 3.125 -0.59375 3.59375 -0.59375 C 4.21875 -0.59375 4.664062 -0.851562 4.9375 -1.375 L 5.8125 -1.375 C 5.71875 -0.957031 5.457031 -0.601562 5.03125 -0.3125 C 4.613281 -0.0195312 4.046875 0.125 3.328125 0.125 C 2.609375 0.125 1.988281 -0.0976562 1.46875 -0.546875 C 0.84375 -1.085938 0.53125 -1.84375 0.53125 -2.8125 C 0.53125 -3.78125 0.773438 -4.5625 1.265625 -5.15625 C 1.765625 -5.757812 2.484375 -6.0625 3.421875 -6.0625 C 4.640625 -6.0625 5.429688 -5.566406 5.796875 -4.578125 C 5.929688 -4.179688 6 -3.804688 6 -3.453125 C 6 -3.109375 6 -2.859375 6 -2.703125 Z M 4.640625 -3.578125 C 4.640625 -4.773438 4.234375 -5.375 3.421875 -5.375 C 2.960938 -5.375 2.601562 -5.195312 2.34375 -4.84375 C 2.09375 -4.488281 1.957031 -3.992188 1.9375 -3.359375 L 4.640625 -3.359375 C 4.640625 -3.429688 4.640625 -3.503906 4.640625 -3.578125 Z M 4.640625 -3.578125 "/></g></g><g transform="translate(94.160152, 84.750005)"><g><path d="M 2.234375 -0.6875 C 2.066406 -0.53125 1.984375 -0.300781 1.984375 0 L 1.109375 0 L 1.109375 -7.5625 C 1.109375 -7.84375 1.082031 -8.023438 1.03125 -8.109375 C 0.988281 -8.203125 0.859375 -8.25 0.640625 -8.25 L 0.21875 -8.25 L 0.21875 -8.890625 C 0.601562 -8.890625 0.898438 -8.914062 1.109375 -8.96875 C 1.328125 -9.03125 1.484375 -9.070312 1.578125 -9.09375 C 1.671875 -9.125 1.769531 -9.140625 1.875 -9.140625 C 2.082031 -9.140625 2.21875 -9.078125 2.28125 -8.953125 C 2.34375 -8.835938 2.375 -8.648438 2.375 -8.390625 L 2.375 -5.25 C 2.789062 -5.789062 3.390625 -6.0625 4.171875 -6.0625 C 4.953125 -6.0625 5.570312 -5.8125 6.03125 -5.3125 C 6.488281 -4.8125 6.71875 -4.078125 6.71875 -3.109375 C 6.71875 -2.140625 6.476562 -1.359375 6 -0.765625 C 5.519531 -0.171875 4.851562 0.125 4 0.125 C 3.289062 0.125 2.703125 -0.144531 2.234375 -0.6875 Z M 2.34375 -2.890625 C 2.34375 -2.179688 2.476562 -1.617188 2.75 -1.203125 C 3.03125 -0.796875 3.398438 -0.59375 3.859375 -0.59375 C 4.316406 -0.59375 4.679688 -0.800781 4.953125 -1.21875 C 5.222656 -1.644531 5.359375 -2.210938 5.359375 -2.921875 C 5.359375 -4.035156 5.09375 -4.78125 4.5625 -5.15625 C 4.363281 -5.28125 4.132812 -5.34375 3.875 -5.34375 C 3.625 -5.34375 3.40625 -5.28125 3.21875 -5.15625 C 3.03125 -5.03125 2.875 -4.859375 2.75 -4.640625 C 2.476562 -4.191406 2.34375 -3.609375 2.34375 -2.890625 Z M 2.34375 -2.890625 "/></g></g><g transform="translate(101.390621, 84.750005)"><g/></g><g transform="translate(105.392574, 84.750005)"><g><path d="M 3.734375 -5.15625 C 3.535156 -5.363281 3.207031 -5.46875 2.75 -5.46875 C 2.300781 -5.46875 2 -5.300781 1.84375 -4.96875 C 1.800781 -4.875 1.78125 -4.765625 1.78125 -4.640625 C 1.78125 -4.523438 1.828125 -4.410156 1.921875 -4.296875 C 2.015625 -4.191406 2.132812 -4.085938 2.28125 -3.984375 C 2.425781 -3.890625 2.59375 -3.796875 2.78125 -3.703125 C 2.96875 -3.609375 3.160156 -3.503906 3.359375 -3.390625 C 3.554688 -3.285156 3.765625 -3.171875 3.984375 -3.046875 C 4.804688 -2.597656 5.21875 -2.101562 5.21875 -1.5625 C 5.21875 -1.019531 5.003906 -0.601562 4.578125 -0.3125 C 4.160156 -0.0195312 3.601562 0.125 2.90625 0.125 C 2.207031 0.125 1.628906 0 1.171875 -0.25 C 0.722656 -0.507812 0.5 -0.832031 0.5 -1.21875 C 0.5 -1.4375 0.566406 -1.617188 0.703125 -1.765625 C 0.847656 -1.921875 1.03125 -2 1.25 -2 C 1.476562 -2 1.660156 -1.925781 1.796875 -1.78125 C 1.941406 -1.644531 2.015625 -1.476562 2.015625 -1.28125 C 2.015625 -1.09375 1.953125 -0.929688 1.828125 -0.796875 C 2.140625 -0.617188 2.523438 -0.53125 2.984375 -0.53125 C 3.453125 -0.53125 3.78125 -0.640625 3.96875 -0.859375 C 4.039062 -0.941406 4.078125 -1.050781 4.078125 -1.1875 C 4.078125 -1.507812 3.71875 -1.847656 3 -2.203125 C 2.5 -2.453125 2.125 -2.644531 1.875 -2.78125 C 1.070312 -3.238281 0.671875 -3.785156 0.671875 -4.421875 C 0.671875 -4.910156 0.875 -5.300781 1.28125 -5.59375 C 1.695312 -5.894531 2.21875 -6.046875 2.84375 -6.046875 C 3.476562 -6.046875 4.007812 -5.925781 4.4375 -5.6875 C 4.875 -5.457031 5.09375 -5.15625 5.09375 -4.78125 C 5.09375 -4.5625 5.039062 -4.398438 4.9375 -4.296875 C 4.75 -4.109375 4.570312 -4.015625 4.40625 -4.015625 C 4.132812 -4.015625 3.925781 -4.082031 3.78125 -4.21875 C 3.644531 -4.363281 3.578125 -4.523438 3.578125 -4.703125 C 3.578125 -4.878906 3.628906 -5.03125 3.734375 -5.15625 Z M 3.734375 -5.15625 "/></g></g><g transform="translate(111.099605, 84.750005)"><g><path d="M 6 -2.703125 L 1.921875 -2.703125 C 1.921875 -2.023438 2.082031 -1.503906 2.40625 -1.140625 C 2.726562 -0.773438 3.125 -0.59375 3.59375 -0.59375 C 4.21875 -0.59375 4.664062 -0.851562 4.9375 -1.375 L 5.8125 -1.375 C 5.71875 -0.957031 5.457031 -0.601562 5.03125 -0.3125 C 4.613281 -0.0195312 4.046875 0.125 3.328125 0.125 C 2.609375 0.125 1.988281 -0.0976562 1.46875 -0.546875 C 0.84375 -1.085938 0.53125 -1.84375 0.53125 -2.8125 C 0.53125 -3.78125 0.773438 -4.5625 1.265625 -5.15625 C 1.765625 -5.757812 2.484375 -6.0625 3.421875 -6.0625 C 4.640625 -6.0625 5.429688 -5.566406 5.796875 -4.578125 C 5.929688 -4.179688 6 -3.804688 6 -3.453125 C 6 -3.109375 6 -2.859375 6 -2.703125 Z M 4.640625 -3.578125 C 4.640625 -4.773438 4.234375 -5.375 3.421875 -5.375 C 2.960938 -5.375 2.601562 -5.195312 2.34375 -4.84375 C 2.09375 -4.488281 1.957031 -3.992188 1.9375 -3.359375 L 4.640625 -3.359375 C 4.640625 -3.429688 4.640625 -3.503906 4.640625 -3.578125 Z M 4.640625 -3.578125 "/></g></g><g transform="translate(117.638667, 84.750005)"><g><path d="M 0.484375 -0.640625 C 0.816406 -0.640625 1.023438 -0.671875 1.109375 -0.734375 C 1.203125 -0.804688 1.253906 -0.878906 1.265625 -0.953125 C 1.285156 -1.035156 1.296875 -1.140625 1.296875 -1.265625 L 1.296875 -4.484375 C 1.296875 -4.765625 1.269531 -4.945312 1.21875 -5.03125 C 1.175781 -5.125 1.046875 -5.171875 0.828125 -5.171875 L 0.46875 -5.171875 L 0.46875 -5.8125 C 0.84375 -5.8125 1.128906 -5.835938 1.328125 -5.890625 C 1.535156 -5.953125 1.679688 -5.992188 1.765625 -6.015625 C 1.859375 -6.046875 1.957031 -6.0625 2.0625 -6.0625 C 2.257812 -6.0625 2.390625 -6 2.453125 -5.875 C 2.523438 -5.757812 2.5625 -5.570312 2.5625 -5.3125 L 2.5625 -5.1875 C 2.894531 -5.582031 3.273438 -5.847656 3.703125 -5.984375 C 3.859375 -6.035156 4.007812 -6.0625 4.15625 -6.0625 C 4.445312 -6.0625 4.675781 -5.976562 4.84375 -5.8125 C 5.007812 -5.644531 5.09375 -5.4375 5.09375 -5.1875 C 5.09375 -4.9375 5.015625 -4.734375 4.859375 -4.578125 C 4.703125 -4.421875 4.507812 -4.34375 4.28125 -4.34375 C 4.0625 -4.34375 3.878906 -4.421875 3.734375 -4.578125 C 3.597656 -4.734375 3.535156 -4.929688 3.546875 -5.171875 C 3.390625 -5.148438 3.21875 -5.078125 3.03125 -4.953125 C 2.851562 -4.828125 2.695312 -4.660156 2.5625 -4.453125 L 2.5625 -1.3125 C 2.5625 -1.164062 2.570312 -1.046875 2.59375 -0.953125 C 2.625 -0.867188 2.691406 -0.796875 2.796875 -0.734375 C 2.910156 -0.671875 3.25 -0.640625 3.8125 -0.640625 L 3.8125 0 L 0.484375 0 Z M 0.484375 -0.640625 "/></g></g><g transform="translate(122.894526, 84.750005)"><g><path d="M 0.546875 -4.671875 C 0.429688 -4.921875 0.328125 -5.085938 0.234375 -5.171875 C 0.140625 -5.253906 -0.0546875 -5.296875 -0.359375 -5.296875 L -0.359375 -5.9375 L 2.78125 -5.9375 L 2.78125 -5.296875 C 2.351562 -5.296875 2.085938 -5.25 1.984375 -5.15625 C 1.890625 -5.070312 1.890625 -4.910156 1.984375 -4.671875 L 3.3125 -1.453125 L 4.71875 -4.671875 C 4.820312 -4.890625 4.804688 -5.046875 4.671875 -5.140625 C 4.535156 -5.242188 4.238281 -5.296875 3.78125 -5.296875 L 3.78125 -5.9375 L 6.453125 -5.9375 L 6.453125 -5.296875 C 6.203125 -5.296875 6.015625 -5.242188 5.890625 -5.140625 C 5.765625 -5.046875 5.648438 -4.890625 5.546875 -4.671875 L 3.40625 0 L 2.765625 0 Z M 0.546875 -4.671875 "/></g></g><g transform="translate(129.117182, 84.750005)"><g><path d="M 1.96875 -7.140625 C 1.71875 -7.140625 1.503906 -7.222656 1.328125 -7.390625 C 1.148438 -7.566406 1.0625 -7.773438 1.0625 -8.015625 C 1.0625 -8.265625 1.148438 -8.476562 1.328125 -8.65625 C 1.503906 -8.832031 1.71875 -8.921875 1.96875 -8.921875 C 2.21875 -8.921875 2.429688 -8.832031 2.609375 -8.65625 C 2.796875 -8.476562 2.890625 -8.265625 2.890625 -8.015625 C 2.890625 -7.773438 2.800781 -7.566406 2.625 -7.390625 C 2.445312 -7.222656 2.226562 -7.140625 1.96875 -7.140625 Z M 0.484375 -0.640625 C 0.847656 -0.640625 1.070312 -0.671875 1.15625 -0.734375 C 1.25 -0.804688 1.304688 -0.878906 1.328125 -0.953125 C 1.347656 -1.035156 1.359375 -1.140625 1.359375 -1.265625 L 1.359375 -4.484375 C 1.359375 -4.765625 1.332031 -4.945312 1.28125 -5.03125 C 1.238281 -5.125 1.109375 -5.171875 0.890625 -5.171875 L 0.46875 -5.171875 L 0.46875 -5.8125 C 0.851562 -5.8125 1.15625 -5.835938 1.375 -5.890625 C 1.59375 -5.953125 1.742188 -5.992188 1.828125 -6.015625 C 1.921875 -6.046875 2.019531 -6.0625 2.125 -6.0625 C 2.332031 -6.0625 2.46875 -6 2.53125 -5.875 C 2.59375 -5.757812 2.625 -5.570312 2.625 -5.3125 L 2.625 -1.265625 C 2.625 -1.015625 2.664062 -0.859375 2.75 -0.796875 C 2.875 -0.691406 3.125 -0.640625 3.5 -0.640625 L 3.5 0 L 0.484375 0 Z M 0.484375 -0.640625 "/></g></g><g transform="translate(133.042963, 84.750005)"><g><path d="M 4.484375 -4.96875 C 4.265625 -5.25 3.953125 -5.390625 3.546875 -5.390625 C 2.773438 -5.390625 2.273438 -4.953125 2.046875 -4.078125 C 1.972656 -3.773438 1.9375 -3.410156 1.9375 -2.984375 C 1.9375 -2.191406 2.085938 -1.59375 2.390625 -1.1875 C 2.691406 -0.789062 3.070312 -0.59375 3.53125 -0.59375 C 3.863281 -0.59375 4.144531 -0.6875 4.375 -0.875 C 4.613281 -1.070312 4.78125 -1.351562 4.875 -1.71875 L 5.671875 -1.71875 C 5.671875 -1.238281 5.457031 -0.8125 5.03125 -0.4375 C 4.601562 -0.0625 4.023438 0.125 3.296875 0.125 C 2.566406 0.125 1.945312 -0.101562 1.4375 -0.5625 C 0.832031 -1.101562 0.53125 -1.894531 0.53125 -2.9375 C 0.53125 -3.78125 0.78125 -4.507812 1.28125 -5.125 C 1.78125 -5.75 2.519531 -6.0625 3.5 -6.0625 C 4.132812 -6.0625 4.660156 -5.90625 5.078125 -5.59375 C 5.503906 -5.289062 5.71875 -4.894531 5.71875 -4.40625 C 5.71875 -4.164062 5.640625 -3.960938 5.484375 -3.796875 C 5.335938 -3.640625 5.144531 -3.5625 4.90625 -3.5625 C 4.5625 -3.5625 4.328125 -3.71875 4.203125 -4.03125 C 4.160156 -4.125 4.140625 -4.226562 4.140625 -4.34375 C 4.140625 -4.613281 4.253906 -4.820312 4.484375 -4.96875 Z M 4.484375 -4.96875 "/></g></g><g transform="translate(139.212885, 84.750005)"><g><path d="M 6 -2.703125 L 1.921875 -2.703125 C 1.921875 -2.023438 2.082031 -1.503906 2.40625 -1.140625 C 2.726562 -0.773438 3.125 -0.59375 3.59375 -0.59375 C 4.21875 -0.59375 4.664062 -0.851562 4.9375 -1.375 L 5.8125 -1.375 C 5.71875 -0.957031 5.457031 -0.601562 5.03125 -0.3125 C 4.613281 -0.0195312 4.046875 0.125 3.328125 0.125 C 2.609375 0.125 1.988281 -0.0976562 1.46875 -0.546875 C 0.84375 -1.085938 0.53125 -1.84375 0.53125 -2.8125 C 0.53125 -3.78125 0.773438 -4.5625 1.265625 -5.15625 C 1.765625 -5.757812 2.484375 -6.0625 3.421875 -6.0625 C 4.640625 -6.0625 5.429688 -5.566406 5.796875 -4.578125 C 5.929688 -4.179688 6 -3.804688 6 -3.453125 C 6 -3.109375 6 -2.859375 6 -2.703125 Z M 4.640625 -3.578125 C 4.640625 -4.773438 4.234375 -5.375 3.421875 -5.375 C 2.960938 -5.375 2.601562 -5.195312 2.34375 -4.84375 C 2.09375 -4.488281 1.957031 -3.992188 1.9375 -3.359375 L 4.640625 -3.359375 C 4.640625 -3.429688 4.640625 -3.503906 4.640625 -3.578125 Z M 4.640625 -3.578125 "/></g></g><g transform="translate(145.751947, 84.750005)"><g><path d="M 3.734375 -5.15625 C 3.535156 -5.363281 3.207031 -5.46875 2.75 -5.46875 C 2.300781 -5.46875 2 -5.300781 1.84375 -4.96875 C 1.800781 -4.875 1.78125 -4.765625 1.78125 -4.640625 C 1.78125 -4.523438 1.828125 -4.410156 1.921875 -4.296875 C 2.015625 -4.191406 2.132812 -4.085938 2.28125 -3.984375 C 2.425781 -3.890625 2.59375 -3.796875 2.78125 -3.703125 C 2.96875 -3.609375 3.160156 -3.503906 3.359375 -3.390625 C 3.554688 -3.285156 3.765625 -3.171875 3.984375 -3.046875 C 4.804688 -2.597656 5.21875 -2.101562 5.21875 -1.5625 C 5.21875 -1.019531 5.003906 -0.601562 4.578125 -0.3125 C 4.160156 -0.0195312 3.601562 0.125 2.90625 0.125 C 2.207031 0.125 1.628906 0 1.171875 -0.25 C 0.722656 -0.507812 0.5 -0.832031 0.5 -1.21875 C 0.5 -1.4375 0.566406 -1.617188 0.703125 -1.765625 C 0.847656 -1.921875 1.03125 -2 1.25 -2 C 1.476562 -2 1.660156 -1.925781 1.796875 -1.78125 C 1.941406 -1.644531 2.015625 -1.476562 2.015625 -1.28125 C 2.015625 -1.09375 1.953125 -0.929688 1.828125 -0.796875 C 2.140625 -0.617188 2.523438 -0.53125 2.984375 -0.53125 C 3.453125 -0.53125 3.78125 -0.640625 3.96875 -0.859375 C 4.039062 -0.941406 4.078125 -1.050781 4.078125 -1.1875 C 4.078125 -1.507812 3.71875 -1.847656 3 -2.203125 C 2.5 -2.453125 2.125 -2.644531 1.875 -2.78125 C 1.070312 -3.238281 0.671875 -3.785156 0.671875 -4.421875 C 0.671875 -4.910156 0.875 -5.300781 1.28125 -5.59375 C 1.695312 -5.894531 2.21875 -6.046875 2.84375 -6.046875 C 3.476562 -6.046875 4.007812 -5.925781 4.4375 -5.6875 C 4.875 -5.457031 5.09375 -5.15625 5.09375 -4.78125 C 5.09375 -4.5625 5.039062 -4.398438 4.9375 -4.296875 C 4.75 -4.109375 4.570312 -4.015625 4.40625 -4.015625 C 4.132812 -4.015625 3.925781 -4.082031 3.78125 -4.21875 C 3.644531 -4.363281 3.578125 -4.523438 3.578125 -4.703125 C 3.578125 -4.878906 3.628906 -5.03125 3.734375 -5.15625 Z M 3.734375 -5.15625 "/></g></g></g></svg>