<svg xmlns="http://www.w3.org/2000/svg" xmlns:xlink="http://www.w3.org/1999/xlink" width="240" zoomAndPan="magnify" viewBox="0 0 180 89.999999" height="120" preserveAspectRatio="xMidYMid meet" version="1.0"><defs><g/><clipPath id="c9026adaf1"><path d="M 52.257812 5.355469 L 128 5.355469 L 128 73.605469 L 52.257812 73.605469 Z M 52.257812 5.355469 " clip-rule="nonzero"/></clipPath></defs><rect x="-18" width="216" fill="#ffffff" y="-9" height="107.999999" fill-opacity="1"/><g clip-path="url(#c9026adaf1)"><path fill="#a8a8a8" d="M 88.605469 5.800781 C 78.128906 5.800781 69.921875 17.867188 69.921875 33.265625 C 69.921875 40.238281 71.628906 46.492188 74.441406 51.285156 C 74.28125 51.820312 74.167969 52.367188 74.167969 52.953125 C 74.167969 56.207031 76.832031 58.847656 80.113281 58.847656 C 83.394531 58.847656 86.058594 56.207031 86.058594 52.953125 C 86.058594 49.699219 83.394531 47.058594 80.113281 47.058594 C 80.03125 47.058594 79.957031 47.082031 79.875 47.085938 C 77.9375 43.386719 76.71875 38.535156 76.71875 33.265625 C 76.71875 22.03125 82.164062 12.539062 88.605469 12.539062 C 92.972656 12.539062 96.878906 16.90625 98.941406 23.214844 C 101.464844 23.613281 103.984375 24.300781 106.484375 25.15625 C 104.183594 13.835938 97.152344 5.800781 88.605469 5.800781 Z M 88.179688 27.695312 C 84.898438 27.695312 82.238281 30.335938 82.238281 33.589844 C 82.238281 36.839844 84.898438 39.480469 88.179688 39.480469 C 90.515625 39.480469 92.515625 38.140625 93.488281 36.199219 C 97.882812 36.394531 102.769531 37.65625 107.382812 40.132812 C 114.039062 43.710938 119.0625 49.199219 120.476562 54.46875 C 121.207031 57.171875 120.949219 59.546875 119.722656 61.527344 C 117.28125 65.460938 111.457031 67.035156 104.808594 66.203125 C 102.839844 68.191406 100.59375 70.023438 98.160156 71.675781 C 101.558594 72.660156 104.921875 73.167969 108.089844 73.167969 C 115.679688 73.167969 122.179688 70.421875 125.507812 65.058594 C 127.722656 61.488281 128.253906 57.226562 127.039062 52.730469 C 125.125 45.632812 118.980469 38.707031 110.613281 34.214844 C 104.5 30.929688 98.140625 29.402344 92.386719 29.425781 C 91.3125 28.351562 89.824219 27.695312 88.179688 27.695312 Z M 63.460938 38.613281 C 58.503906 42.6875 54.945312 47.65625 53.574219 52.730469 C 52.363281 57.226562 52.894531 61.488281 55.109375 65.050781 C 58.429688 70.417969 64.933594 73.164062 72.523438 73.164062 C 78.273438 73.164062 84.640625 71.601562 90.730469 68.328125 C 96.539062 65.207031 101.230469 60.910156 104.222656 56.203125 C 106.9375 55.65625 108.988281 53.28125 108.988281 50.429688 C 108.988281 47.175781 106.324219 44.535156 103.042969 44.535156 C 99.761719 44.535156 97.097656 47.175781 97.097656 50.429688 C 97.097656 51.527344 97.425781 52.546875 97.953125 53.429688 C 95.550781 56.847656 91.898438 60.046875 87.5 62.40625 C 76.902344 68.09375 64.710938 67.6875 60.886719 61.519531 C 59.660156 59.542969 59.40625 57.171875 60.136719 54.46875 C 60.878906 51.722656 62.613281 48.917969 65.035156 46.351562 C 64.292969 43.90625 63.765625 41.316406 63.460938 38.613281 Z M 63.460938 38.613281 " fill-opacity="1" fill-rule="nonzero"/></g><g fill="#a8a8a8" fill-opacity="1"><g transform="translate(52.259763, 84.750012)"><g><path d="M 0.484375 -0.640625 C 0.816406 -0.640625 1.023438 -0.671875 1.109375 -0.734375 C 1.203125 -0.804688 1.253906 -0.878906 1.265625 -0.953125 C 1.285156 -1.035156 1.296875 -1.140625 1.296875 -1.265625 L 1.296875 -4.484375 C 1.296875 -4.765625 1.269531 -4.945312 1.21875 -5.03125 C 1.175781 -5.125 1.046875 -5.171875 0.828125 -5.171875 L 0.46875 -5.171875 L 0.46875 -5.8125 C 0.84375 -5.8125 1.128906 -5.835938 1.328125 -5.890625 C 1.535156 -5.953125 1.679688 -5.992188 1.765625 -6.015625 C 1.859375 -6.046875 1.957031 -6.0625 2.0625 -6.0625 C 2.257812 -6.0625 2.390625 -6 2.453125 -5.875 C 2.523438 -5.757812 2.5625 -5.570312 2.5625 -5.3125 L 2.5625 -5.1875 C 2.894531 -5.582031 3.273438 -5.847656 3.703125 -5.984375 C 3.859375 -6.035156 4.007812 -6.0625 4.15625 -6.0625 C 4.445312 -6.0625 4.675781 -5.976562 4.84375 -5.8125 C 5.007812 -5.644531 5.09375 -5.4375 5.09375 -5.1875 C 5.09375 -4.9375 5.015625 -4.734375 4.859375 -4.578125 C 4.703125 -4.421875 4.507812 -4.34375 4.28125 -4.34375 C 4.0625 -4.34375 3.878906 -4.421875 3.734375 -4.578125 C 3.597656 -4.734375 3.535156 -4.929688 3.546875 -5.171875 C 3.390625 -5.148438 3.21875 -5.078125 3.03125 -4.953125 C 2.851562 -4.828125 2.695312 -4.660156 2.5625 -4.453125 L 2.5625 -1.3125 C 2.5625 -1.164062 2.570312 -1.046875 2.59375 -0.953125 C 2.625 -0.867188 2.691406 -0.796875 2.796875 -0.734375 C 2.910156 -0.671875 3.25 -0.640625 3.8125 -0.640625 L 3.8125 0 L 0.484375 0 Z M 0.484375 -0.640625 "/></g></g><g transform="translate(57.515622, 84.750012)"><g><path d="M 6 -2.703125 L 1.921875 -2.703125 C 1.921875 -2.023438 2.082031 -1.503906 2.40625 -1.140625 C 2.726562 -0.773438 3.125 -0.59375 3.59375 -0.59375 C 4.21875 -0.59375 4.664062 -0.851562 4.9375 -1.375 L 5.8125 -1.375 C 5.71875 -0.957031 5.457031 -0.601562 5.03125 -0.3125 C 4.613281 -0.0195312 4.046875 0.125 3.328125 0.125 C 2.609375 0.125 1.988281 -0.0976562 1.46875 -0.546875 C 0.84375 -1.085938 0.53125 -1.84375 0.53125 -2.8125 C 0.53125 -3.78125 0.773438 -4.5625 1.265625 -5.15625 C 1.765625 -5.757812 2.484375 -6.0625 3.421875 -6.0625 C 4.640625 -6.0625 5.429688 -5.566406 5.796875 -4.578125 C 5.929688 -4.179688 6 -3.804688 6 -3.453125 C 6 -3.109375 6 -2.859375 6 -2.703125 Z M 4.640625 -3.578125 C 4.640625 -4.773438 4.234375 -5.375 3.421875 -5.375 C 2.960938 -5.375 2.601562 -5.195312 2.34375 -4.84375 C 2.09375 -4.488281 1.957031 -3.992188 1.9375 -3.359375 L 4.640625 -3.359375 C 4.640625 -3.429688 4.640625 -3.503906 4.640625 -3.578125 Z M 4.640625 -3.578125 "/></g></g><g transform="translate(64.054684, 84.750012)"><g><path d="M 5.015625 -0.921875 C 4.554688 -0.222656 3.925781 0.125 3.125 0.125 C 2.320312 0.125 1.6875 -0.140625 1.21875 -0.671875 C 0.75 -1.203125 0.515625 -1.910156 0.515625 -2.796875 C 0.515625 -3.890625 0.753906 -4.707031 1.234375 -5.25 C 1.710938 -5.789062 2.375 -6.0625 3.21875 -6.0625 C 3.851562 -6.0625 4.398438 -5.84375 4.859375 -5.40625 L 4.859375 -7.5625 C 4.859375 -7.84375 4.828125 -8.023438 4.765625 -8.109375 C 4.710938 -8.203125 4.578125 -8.25 4.359375 -8.25 L 3.9375 -8.25 L 3.9375 -8.890625 C 4.320312 -8.890625 4.625 -8.914062 4.84375 -8.96875 C 5.0625 -9.03125 5.21875 -9.070312 5.3125 -9.09375 C 5.40625 -9.125 5.503906 -9.140625 5.609375 -9.140625 C 5.816406 -9.140625 5.953125 -9.078125 6.015625 -8.953125 C 6.085938 -8.835938 6.125 -8.648438 6.125 -8.390625 L 6.125 -1.5625 C 6.125 -1.175781 6.140625 -0.941406 6.171875 -0.859375 C 6.234375 -0.679688 6.390625 -0.59375 6.640625 -0.59375 C 6.773438 -0.59375 6.890625 -0.613281 6.984375 -0.65625 L 6.984375 -0.09375 C 6.796875 0.0507812 6.539062 0.125 6.21875 0.125 C 5.570312 0.125 5.171875 -0.222656 5.015625 -0.921875 Z M 2.65625 -0.78125 C 2.84375 -0.65625 3.070312 -0.59375 3.34375 -0.59375 C 3.851562 -0.59375 4.234375 -0.804688 4.484375 -1.234375 C 4.742188 -1.660156 4.875 -2.257812 4.875 -3.03125 C 4.875 -4.15625 4.578125 -4.878906 3.984375 -5.203125 C 3.796875 -5.304688 3.585938 -5.359375 3.359375 -5.359375 C 2.890625 -5.359375 2.523438 -5.144531 2.265625 -4.71875 C 2.003906 -4.289062 1.875 -3.726562 1.875 -3.03125 C 1.875 -1.894531 2.132812 -1.144531 2.65625 -0.78125 Z M 2.65625 -0.78125 "/></g></g><g transform="translate(71.191403, 84.750012)"><g><path d="M 4.828125 -0.96875 C 4.335938 -0.238281 3.679688 0.125 2.859375 0.125 C 2.273438 0.125 1.816406 -0.0546875 1.484375 -0.421875 C 1.160156 -0.785156 1 -1.332031 1 -2.0625 L 1 -4.484375 C 1 -4.765625 0.972656 -4.945312 0.921875 -5.03125 C 0.867188 -5.125 0.738281 -5.171875 0.53125 -5.171875 L 0.375 -5.171875 L 0.375 -5.8125 C 0.738281 -5.8125 1 -5.835938 1.15625 -5.890625 C 1.320312 -5.953125 1.4375 -5.992188 1.5 -6.015625 C 1.570312 -6.046875 1.660156 -6.0625 1.765625 -6.0625 C 1.960938 -6.0625 2.09375 -6 2.15625 -5.875 C 2.226562 -5.75 2.265625 -5.550781 2.265625 -5.28125 L 2.265625 -2.015625 C 2.265625 -1.585938 2.304688 -1.296875 2.390625 -1.140625 C 2.566406 -0.835938 2.863281 -0.6875 3.28125 -0.6875 C 3.5625 -0.6875 3.835938 -0.796875 4.109375 -1.015625 C 4.390625 -1.242188 4.582031 -1.503906 4.6875 -1.796875 L 4.6875 -4.484375 C 4.6875 -4.773438 4.660156 -4.960938 4.609375 -5.046875 C 4.566406 -5.128906 4.4375 -5.171875 4.21875 -5.171875 L 3.890625 -5.171875 L 3.890625 -5.8125 C 4.253906 -5.8125 4.535156 -5.835938 4.734375 -5.890625 C 4.941406 -5.953125 5.085938 -5.992188 5.171875 -6.015625 C 5.253906 -6.046875 5.347656 -6.0625 5.453125 -6.0625 C 5.648438 -6.0625 5.78125 -6 5.84375 -5.875 C 5.914062 -5.757812 5.953125 -5.570312 5.953125 -5.3125 L 5.953125 -1.5625 C 5.953125 -1.175781 5.972656 -0.941406 6.015625 -0.859375 C 6.078125 -0.679688 6.234375 -0.59375 6.484375 -0.59375 C 6.617188 -0.59375 6.734375 -0.613281 6.828125 -0.65625 L 6.828125 -0.09375 C 6.640625 0.0507812 6.378906 0.125 6.046875 0.125 C 5.367188 0.125 4.960938 -0.238281 4.828125 -0.96875 Z M 4.828125 -0.96875 "/></g></g><g transform="translate(78.164059, 84.750012)"><g><path d="M 0.25 -0.640625 C 0.5 -0.640625 0.703125 -0.695312 0.859375 -0.8125 C 1.023438 -0.925781 1.1875 -1.078125 1.34375 -1.265625 L 2.796875 -2.984375 L 1.34375 -4.734375 C 1.207031 -4.898438 1.039062 -5.035156 0.84375 -5.140625 C 0.644531 -5.242188 0.445312 -5.296875 0.25 -5.296875 L 0.25 -5.9375 L 3.328125 -5.9375 L 3.328125 -5.296875 C 3.085938 -5.296875 2.925781 -5.257812 2.84375 -5.1875 C 2.6875 -5.039062 2.664062 -4.890625 2.78125 -4.734375 L 3.71875 -3.5625 L 4.640625 -4.734375 C 4.773438 -4.898438 4.757812 -5.035156 4.59375 -5.140625 C 4.4375 -5.242188 4.179688 -5.296875 3.828125 -5.296875 L 3.828125 -5.9375 L 6.625 -5.9375 L 6.625 -5.296875 C 6.375 -5.296875 6.164062 -5.242188 6 -5.140625 C 5.832031 -5.046875 5.675781 -4.910156 5.53125 -4.734375 L 4.109375 -3.078125 L 5.53125 -1.265625 C 5.851562 -0.847656 6.21875 -0.640625 6.625 -0.640625 L 6.625 0 L 3.546875 0 L 3.546875 -0.640625 C 3.859375 -0.640625 4.082031 -0.703125 4.21875 -0.828125 C 4.351562 -0.953125 4.351562 -1.097656 4.21875 -1.265625 L 3.203125 -2.484375 L 2.234375 -1.265625 C 2.085938 -1.078125 2.097656 -0.925781 2.265625 -0.8125 C 2.429688 -0.695312 2.691406 -0.640625 3.046875 -0.640625 L 3.046875 0 L 0.25 0 Z M 0.25 -0.640625 "/></g></g><g transform="translate(85.054683, 84.750012)"><g/></g><g transform="translate(89.056636, 84.750012)"><g><path d="M 2.921875 0.125 C 1.691406 0.125 1.078125 -0.5625 1.078125 -1.9375 L 1.078125 -4.859375 C 1.078125 -5.015625 1.054688 -5.113281 1.015625 -5.15625 C 0.984375 -5.207031 0.90625 -5.234375 0.78125 -5.234375 L 0.3125 -5.234375 L 0.3125 -5.9375 L 0.515625 -5.9375 C 0.816406 -5.9375 1.035156 -6.03125 1.171875 -6.21875 C 1.316406 -6.40625 1.394531 -6.71875 1.40625 -7.15625 L 1.40625 -7.671875 L 2.34375 -7.671875 L 2.34375 -5.9375 L 4.140625 -5.9375 L 4.140625 -5.234375 L 2.34375 -5.234375 L 2.34375 -1.953125 C 2.34375 -1.222656 2.507812 -0.789062 2.84375 -0.65625 C 2.9375 -0.613281 3.03125 -0.59375 3.125 -0.59375 C 3.539062 -0.59375 3.8125 -0.929688 3.9375 -1.609375 L 4.609375 -1.609375 C 4.566406 -0.804688 4.234375 -0.273438 3.609375 -0.015625 C 3.410156 0.078125 3.179688 0.125 2.921875 0.125 Z M 2.921875 0.125 "/></g></g><g transform="translate(93.960933, 84.750012)"><g><path d="M 0.53125 -3 C 0.53125 -3.46875 0.601562 -3.898438 0.75 -4.296875 C 0.894531 -4.691406 1.097656 -5.019531 1.359375 -5.28125 C 1.878906 -5.800781 2.566406 -6.0625 3.421875 -6.0625 C 4.285156 -6.0625 4.976562 -5.800781 5.5 -5.28125 C 6.03125 -4.757812 6.296875 -4.023438 6.296875 -3.078125 C 6.296875 -2.128906 6.050781 -1.359375 5.5625 -0.765625 C 5.070312 -0.171875 4.359375 0.125 3.421875 0.125 C 2.472656 0.125 1.753906 -0.160156 1.265625 -0.734375 C 0.773438 -1.304688 0.53125 -2.0625 0.53125 -3 Z M 3.421875 -0.59375 C 3.867188 -0.59375 4.234375 -0.796875 4.515625 -1.203125 C 4.804688 -1.617188 4.953125 -2.203125 4.953125 -2.953125 C 4.953125 -4.160156 4.644531 -4.914062 4.03125 -5.21875 C 3.84375 -5.3125 3.640625 -5.359375 3.421875 -5.359375 C 2.691406 -5.359375 2.21875 -4.921875 2 -4.046875 C 1.925781 -3.742188 1.890625 -3.390625 1.890625 -2.984375 C 1.890625 -2.210938 2.03125 -1.617188 2.3125 -1.203125 C 2.59375 -0.796875 2.960938 -0.59375 3.421875 -0.59375 Z M 3.421875 -0.59375 "/></g></g><g transform="translate(100.787104, 84.750012)"><g><path d="M 0.53125 -3 C 0.53125 -3.46875 0.601562 -3.898438 0.75 -4.296875 C 0.894531 -4.691406 1.097656 -5.019531 1.359375 -5.28125 C 1.878906 -5.800781 2.566406 -6.0625 3.421875 -6.0625 C 4.285156 -6.0625 4.976562 -5.800781 5.5 -5.28125 C 6.03125 -4.757812 6.296875 -4.023438 6.296875 -3.078125 C 6.296875 -2.128906 6.050781 -1.359375 5.5625 -0.765625 C 5.070312 -0.171875 4.359375 0.125 3.421875 0.125 C 2.472656 0.125 1.753906 -0.160156 1.265625 -0.734375 C 0.773438 -1.304688 0.53125 -2.0625 0.53125 -3 Z M 3.421875 -0.59375 C 3.867188 -0.59375 4.234375 -0.796875 4.515625 -1.203125 C 4.804688 -1.617188 4.953125 -2.203125 4.953125 -2.953125 C 4.953125 -4.160156 4.644531 -4.914062 4.03125 -5.21875 C 3.84375 -5.3125 3.640625 -5.359375 3.421875 -5.359375 C 2.691406 -5.359375 2.21875 -4.921875 2 -4.046875 C 1.925781 -3.742188 1.890625 -3.390625 1.890625 -2.984375 C 1.890625 -2.210938 2.03125 -1.617188 2.3125 -1.203125 C 2.59375 -0.796875 2.960938 -0.59375 3.421875 -0.59375 Z M 3.421875 -0.59375 "/></g></g><g transform="translate(107.613276, 84.750012)"><g><path d="M 0.40625 -0.640625 C 0.75 -0.640625 0.984375 -0.6875 1.109375 -0.78125 C 1.234375 -0.875 1.296875 -1.035156 1.296875 -1.265625 L 1.296875 -7.625 C 1.296875 -7.90625 1.269531 -8.085938 1.21875 -8.171875 C 1.175781 -8.253906 1.046875 -8.296875 0.828125 -8.296875 L 0.359375 -8.296875 L 0.359375 -8.9375 C 0.742188 -8.9375 1.046875 -8.960938 1.265625 -9.015625 C 1.492188 -9.078125 1.65625 -9.117188 1.75 -9.140625 C 1.851562 -9.171875 1.957031 -9.1875 2.0625 -9.1875 C 2.257812 -9.1875 2.390625 -9.128906 2.453125 -9.015625 C 2.523438 -8.898438 2.5625 -8.707031 2.5625 -8.4375 L 2.5625 -1.265625 C 2.5625 -1.023438 2.613281 -0.859375 2.71875 -0.765625 C 2.820312 -0.679688 3.066406 -0.640625 3.453125 -0.640625 L 3.453125 0 L 0.40625 0 Z M 0.40625 -0.640625 "/></g></g><g transform="translate(111.480463, 84.750012)"><g><path d="M 6.34375 -0.765625 C 6.613281 -0.765625 6.75 -1.050781 6.75 -1.625 L 7.3125 -1.625 C 7.34375 -1.5 7.359375 -1.390625 7.359375 -1.296875 C 7.359375 -1.203125 7.351562 -1.09375 7.34375 -0.96875 C 7.34375 -0.851562 7.300781 -0.707031 7.21875 -0.53125 C 7.019531 -0.09375 6.632812 0.125 6.0625 0.125 C 5.5 0.125 5.046875 -0.195312 4.703125 -0.84375 C 4.609375 -1.03125 4.515625 -1.21875 4.421875 -1.40625 C 4.160156 -1.925781 3.945312 -2.28125 3.78125 -2.46875 C 3.5 -2.78125 3.148438 -2.9375 2.734375 -2.9375 C 2.703125 -2.9375 2.671875 -2.9375 2.640625 -2.9375 C 2.609375 -2.9375 2.578125 -2.9375 2.546875 -2.9375 L 2.546875 -1.265625 C 2.546875 -1.023438 2.597656 -0.859375 2.703125 -0.765625 C 2.804688 -0.679688 3.046875 -0.640625 3.421875 -0.640625 L 3.421875 0 L 0.390625 0 L 0.390625 -0.640625 C 0.734375 -0.640625 0.96875 -0.6875 1.09375 -0.78125 C 1.21875 -0.875 1.28125 -1.035156 1.28125 -1.265625 L 1.28125 -7.625 C 1.28125 -7.90625 1.253906 -8.085938 1.203125 -8.171875 C 1.160156 -8.253906 1.03125 -8.296875 0.8125 -8.296875 L 0.328125 -8.296875 L 0.328125 -8.9375 C 0.722656 -8.9375 1.03125 -8.960938 1.25 -9.015625 C 1.476562 -9.078125 1.640625 -9.117188 1.734375 -9.140625 C 1.828125 -9.171875 1.929688 -9.1875 2.046875 -9.1875 C 2.242188 -9.1875 2.375 -9.128906 2.4375 -9.015625 C 2.507812 -8.898438 2.546875 -8.707031 2.546875 -8.4375 L 2.546875 -3.5625 L 2.84375 -3.5625 C 3.488281 -4.019531 4.050781 -4.507812 4.53125 -5.03125 C 4.613281 -5.113281 4.675781 -5.179688 4.71875 -5.234375 L 3.703125 -5.234375 L 3.703125 -5.9375 L 6.9375 -5.9375 L 6.9375 -5.234375 C 6.207031 -5.210938 5.460938 -4.867188 4.703125 -4.203125 C 4.472656 -3.992188 4.242188 -3.78125 4.015625 -3.5625 C 4.648438 -3.3125 5.164062 -2.769531 5.5625 -1.9375 C 5.664062 -1.726562 5.753906 -1.535156 5.828125 -1.359375 C 5.910156 -1.179688 5.988281 -1.035156 6.0625 -0.921875 C 6.144531 -0.816406 6.238281 -0.765625 6.34375 -0.765625 Z M 6.34375 -0.765625 "/></g></g><g transform="translate(118.904291, 84.750012)"><g><path d="M 1.96875 -7.140625 C 1.71875 -7.140625 1.503906 -7.222656 1.328125 -7.390625 C 1.148438 -7.566406 1.0625 -7.773438 1.0625 -8.015625 C 1.0625 -8.265625 1.148438 -8.476562 1.328125 -8.65625 C 1.503906 -8.832031 1.71875 -8.921875 1.96875 -8.921875 C 2.21875 -8.921875 2.429688 -8.832031 2.609375 -8.65625 C 2.796875 -8.476562 2.890625 -8.265625 2.890625 -8.015625 C 2.890625 -7.773438 2.800781 -7.566406 2.625 -7.390625 C 2.445312 -7.222656 2.226562 -7.140625 1.96875 -7.140625 Z M 0.484375 -0.640625 C 0.847656 -0.640625 1.070312 -0.671875 1.15625 -0.734375 C 1.25 -0.804688 1.304688 -0.878906 1.328125 -0.953125 C 1.347656 -1.035156 1.359375 -1.140625 1.359375 -1.265625 L 1.359375 -4.484375 C 1.359375 -4.765625 1.332031 -4.945312 1.28125 -5.03125 C 1.238281 -5.125 1.109375 -5.171875 0.890625 -5.171875 L 0.46875 -5.171875 L 0.46875 -5.8125 C 0.851562 -5.8125 1.15625 -5.835938 1.375 -5.890625 C 1.59375 -5.953125 1.742188 -5.992188 1.828125 -6.015625 C 1.921875 -6.046875 2.019531 -6.0625 2.125 -6.0625 C 2.332031 -6.0625 2.46875 -6 2.53125 -5.875 C 2.59375 -5.757812 2.625 -5.570312 2.625 -5.3125 L 2.625 -1.265625 C 2.625 -1.015625 2.664062 -0.859375 2.75 -0.796875 C 2.875 -0.691406 3.125 -0.640625 3.5 -0.640625 L 3.5 0 L 0.484375 0 Z M 0.484375 -0.640625 "/></g></g><g transform="translate(122.830072, 84.750012)"><g><path d="M 2.921875 0.125 C 1.691406 0.125 1.078125 -0.5625 1.078125 -1.9375 L 1.078125 -4.859375 C 1.078125 -5.015625 1.054688 -5.113281 1.015625 -5.15625 C 0.984375 -5.207031 0.90625 -5.234375 0.78125 -5.234375 L 0.3125 -5.234375 L 0.3125 -5.9375 L 0.515625 -5.9375 C 0.816406 -5.9375 1.035156 -6.03125 1.171875 -6.21875 C 1.316406 -6.40625 1.394531 -6.71875 1.40625 -7.15625 L 1.40625 -7.671875 L 2.34375 -7.671875 L 2.34375 -5.9375 L 4.140625 -5.9375 L 4.140625 -5.234375 L 2.34375 -5.234375 L 2.34375 -1.953125 C 2.34375 -1.222656 2.507812 -0.789062 2.84375 -0.65625 C 2.9375 -0.613281 3.03125 -0.59375 3.125 -0.59375 C 3.539062 -0.59375 3.8125 -0.929688 3.9375 -1.609375 L 4.609375 -1.609375 C 4.566406 -0.804688 4.234375 -0.273438 3.609375 -0.015625 C 3.410156 0.078125 3.179688 0.125 2.921875 0.125 Z M 2.921875 0.125 "/></g></g></g></svg>