<svg xmlns="http://www.w3.org/2000/svg" xmlns:xlink="http://www.w3.org/1999/xlink" width="240" zoomAndPan="magnify" viewBox="0 0 180 89.999999" height="120" preserveAspectRatio="xMidYMid meet" version="1.0"><defs><g/><clipPath id="875a46020b"><path d="M 54.324219 2.597656 L 125.574219 2.597656 L 125.574219 73.847656 L 54.324219 73.847656 Z M 54.324219 2.597656 " clip-rule="nonzero"/></clipPath></defs><rect x="-18" width="216" fill="#ffffff" y="-9" height="107.999999" fill-opacity="1"/><g clip-path="url(#875a46020b)"><path fill="#a8a8a8" d="M 93.722656 2.671875 C 93.457031 2.722656 93.203125 2.835938 92.996094 3.011719 L 78.765625 8.238281 C 78.574219 8.300781 78.390625 8.398438 78.234375 8.53125 L 64.195312 21.648438 C 64.082031 21.746094 63.984375 21.859375 63.90625 21.984375 L 54.710938 37.765625 C 54.65625 37.84375 54.605469 37.921875 54.566406 38.007812 L 54.515625 38.105469 C 54.5 38.121094 54.484375 38.136719 54.46875 38.152344 C 54.46875 38.183594 54.46875 38.21875 54.46875 38.25 C 54.449219 38.28125 54.433594 38.316406 54.417969 38.347656 C 54.402344 38.363281 54.390625 38.375 54.371094 38.394531 C 54.371094 38.414062 54.371094 38.425781 54.371094 38.445312 C 54.351562 38.472656 54.335938 38.511719 54.324219 38.539062 C 54.324219 38.558594 54.324219 38.570312 54.324219 38.589844 C 54.324219 38.617188 54.324219 38.65625 54.324219 38.683594 C 54.324219 38.703125 54.324219 38.714844 54.324219 38.734375 C 54.324219 38.765625 54.324219 38.800781 54.324219 38.832031 C 54.324219 38.847656 54.324219 38.859375 54.324219 38.878906 C 54.3125 38.976562 54.3125 39.074219 54.324219 39.167969 L 54.324219 58.335938 C 54.316406 58.402344 54.316406 58.464844 54.324219 58.53125 L 54.324219 58.578125 C 54.316406 58.722656 54.335938 58.875 54.371094 59.015625 C 54.6875 65.761719 57.4375 69.710938 60.761719 71.648438 C 63.917969 73.492188 67.308594 73.667969 69.425781 73.730469 C 69.589844 73.734375 69.8125 73.722656 69.957031 73.730469 L 70.101562 73.730469 C 70.1875 73.71875 70.265625 73.707031 70.34375 73.679688 L 70.394531 73.679688 L 120.007812 70.292969 C 120.121094 70.304688 120.230469 70.304688 120.34375 70.292969 C 120.515625 70.269531 120.679688 70.21875 120.828125 70.148438 C 120.933594 70.09375 121.027344 70.027344 121.121094 69.953125 C 121.136719 69.953125 121.148438 69.953125 121.167969 69.953125 C 121.640625 69.589844 121.871094 68.992188 121.75 68.40625 L 125.425781 20 C 125.433594 19.972656 125.421875 19.933594 125.425781 19.90625 L 125.574219 18.066406 C 125.597656 17.855469 125.585938 17.640625 125.523438 17.4375 C 125.523438 15.863281 125.378906 14.300781 124.992188 12.789062 C 123.800781 8.15625 120.210938 4.15625 113.519531 2.964844 C 113.421875 2.941406 113.328125 2.921875 113.230469 2.914062 C 113.199219 2.914062 113.164062 2.914062 113.132812 2.914062 L 94.207031 2.671875 C 94.09375 2.660156 93.984375 2.660156 93.867188 2.671875 C 93.820312 2.671875 93.773438 2.671875 93.722656 2.671875 Z M 99.191406 5.820312 L 107.277344 5.917969 L 102.824219 8.386719 Z M 93.964844 5.964844 L 101.03125 10.949219 L 96 26.972656 L 76.976562 44.6875 L 61.4375 48.171875 L 57.613281 38.976562 L 66.472656 23.730469 L 80.121094 11.046875 Z M 113.328125 6.109375 C 118.785156 7.191406 121.058594 9.957031 121.992188 13.5625 C 122.773438 16.59375 122.304688 20.226562 121.457031 23.582031 L 105.4375 10.464844 Z M 103.644531 12.984375 L 118.265625 24.988281 L 99.484375 26.246094 Z M 120.101562 27.941406 C 116.867188 36.6875 111.226562 44.125 104.808594 51.125 L 99.289062 29.296875 Z M 96.480469 30.746094 L 101.855469 52.191406 L 80.75 45.363281 Z M 121.265625 33.507812 L 118.84375 65.453125 L 106.308594 54.269531 C 112.152344 48.015625 117.554688 41.292969 121.265625 33.507812 Z M 57.421875 46.671875 L 58.824219 49.914062 L 57.421875 52.480469 Z M 78.863281 48.027344 L 100.886719 55.09375 C 92.675781 62.480469 83.625 68.316406 72.230469 70.050781 Z M 75.570312 48.171875 L 69.714844 67.628906 L 62.648438 51.078125 Z M 60.324219 53.546875 L 67.535156 70.4375 C 65.832031 70.269531 63.980469 69.910156 62.308594 68.9375 C 59.824219 67.484375 57.722656 64.8125 57.46875 58.773438 Z M 104.035156 56.449219 L 116.472656 67.484375 L 85.300781 69.566406 C 92.332031 66.347656 98.414062 61.621094 104.035156 56.449219 Z M 104.035156 56.449219 " fill-opacity="1" fill-rule="nonzero"/></g><g fill="#a8a8a8" fill-opacity="1"><g transform="translate(76.892575, 84.749998)"><g><path d="M 0.484375 -0.640625 C 0.816406 -0.640625 1.023438 -0.671875 1.109375 -0.734375 C 1.203125 -0.804688 1.253906 -0.878906 1.265625 -0.953125 C 1.285156 -1.035156 1.296875 -1.140625 1.296875 -1.265625 L 1.296875 -4.484375 C 1.296875 -4.765625 1.269531 -4.945312 1.21875 -5.03125 C 1.175781 -5.125 1.046875 -5.171875 0.828125 -5.171875 L 0.46875 -5.171875 L 0.46875 -5.8125 C 0.84375 -5.8125 1.128906 -5.835938 1.328125 -5.890625 C 1.535156 -5.953125 1.679688 -5.992188 1.765625 -6.015625 C 1.859375 -6.046875 1.957031 -6.0625 2.0625 -6.0625 C 2.257812 -6.0625 2.390625 -6 2.453125 -5.875 C 2.523438 -5.757812 2.5625 -5.570312 2.5625 -5.3125 L 2.5625 -5.1875 C 2.894531 -5.582031 3.273438 -5.847656 3.703125 -5.984375 C 3.859375 -6.035156 4.007812 -6.0625 4.15625 -6.0625 C 4.445312 -6.0625 4.675781 -5.976562 4.84375 -5.8125 C 5.007812 -5.644531 5.09375 -5.4375 5.09375 -5.1875 C 5.09375 -4.9375 5.015625 -4.734375 4.859375 -4.578125 C 4.703125 -4.421875 4.507812 -4.34375 4.28125 -4.34375 C 4.0625 -4.34375 3.878906 -4.421875 3.734375 -4.578125 C 3.597656 -4.734375 3.535156 -4.929688 3.546875 -5.171875 C 3.390625 -5.148438 3.21875 -5.078125 3.03125 -4.953125 C 2.851562 -4.828125 2.695312 -4.660156 2.5625 -4.453125 L 2.5625 -1.3125 C 2.5625 -1.164062 2.570312 -1.046875 2.59375 -0.953125 C 2.625 -0.867188 2.691406 -0.796875 2.796875 -0.734375 C 2.910156 -0.671875 3.25 -0.640625 3.8125 -0.640625 L 3.8125 0 L 0.484375 0 Z M 0.484375 -0.640625 "/></g></g><g transform="translate(82.148434, 84.749998)"><g><path d="M 4.828125 -0.96875 C 4.335938 -0.238281 3.679688 0.125 2.859375 0.125 C 2.273438 0.125 1.816406 -0.0546875 1.484375 -0.421875 C 1.160156 -0.785156 1 -1.332031 1 -2.0625 L 1 -4.484375 C 1 -4.765625 0.972656 -4.945312 0.921875 -5.03125 C 0.867188 -5.125 0.738281 -5.171875 0.53125 -5.171875 L 0.375 -5.171875 L 0.375 -5.8125 C 0.738281 -5.8125 1 -5.835938 1.15625 -5.890625 C 1.320312 -5.953125 1.4375 -5.992188 1.5 -6.015625 C 1.570312 -6.046875 1.660156 -6.0625 1.765625 -6.0625 C 1.960938 -6.0625 2.09375 -6 2.15625 -5.875 C 2.226562 -5.75 2.265625 -5.550781 2.265625 -5.28125 L 2.265625 -2.015625 C 2.265625 -1.585938 2.304688 -1.296875 2.390625 -1.140625 C 2.566406 -0.835938 2.863281 -0.6875 3.28125 -0.6875 C 3.5625 -0.6875 3.835938 -0.796875 4.109375 -1.015625 C 4.390625 -1.242188 4.582031 -1.503906 4.6875 -1.796875 L 4.6875 -4.484375 C 4.6875 -4.773438 4.660156 -4.960938 4.609375 -5.046875 C 4.566406 -5.128906 4.4375 -5.171875 4.21875 -5.171875 L 3.890625 -5.171875 L 3.890625 -5.8125 C 4.253906 -5.8125 4.535156 -5.835938 4.734375 -5.890625 C 4.941406 -5.953125 5.085938 -5.992188 5.171875 -6.015625 C 5.253906 -6.046875 5.347656 -6.0625 5.453125 -6.0625 C 5.648438 -6.0625 5.78125 -6 5.84375 -5.875 C 5.914062 -5.757812 5.953125 -5.570312 5.953125 -5.3125 L 5.953125 -1.5625 C 5.953125 -1.175781 5.972656 -0.941406 6.015625 -0.859375 C 6.078125 -0.679688 6.234375 -0.59375 6.484375 -0.59375 C 6.617188 -0.59375 6.734375 -0.613281 6.828125 -0.65625 L 6.828125 -0.09375 C 6.640625 0.0507812 6.378906 0.125 6.046875 0.125 C 5.367188 0.125 4.960938 -0.238281 4.828125 -0.96875 Z M 4.828125 -0.96875 "/></g></g><g transform="translate(89.12109, 84.749998)"><g><path d="M 2.234375 -0.6875 C 2.066406 -0.53125 1.984375 -0.300781 1.984375 0 L 1.109375 0 L 1.109375 -7.5625 C 1.109375 -7.84375 1.082031 -8.023438 1.03125 -8.109375 C 0.988281 -8.203125 0.859375 -8.25 0.640625 -8.25 L 0.21875 -8.25 L 0.21875 -8.890625 C 0.601562 -8.890625 0.898438 -8.914062 1.109375 -8.96875 C 1.328125 -9.03125 1.484375 -9.070312 1.578125 -9.09375 C 1.671875 -9.125 1.769531 -9.140625 1.875 -9.140625 C 2.082031 -9.140625 2.21875 -9.078125 2.28125 -8.953125 C 2.34375 -8.835938 2.375 -8.648438 2.375 -8.390625 L 2.375 -5.25 C 2.789062 -5.789062 3.390625 -6.0625 4.171875 -6.0625 C 4.953125 -6.0625 5.570312 -5.8125 6.03125 -5.3125 C 6.488281 -4.8125 6.71875 -4.078125 6.71875 -3.109375 C 6.71875 -2.140625 6.476562 -1.359375 6 -0.765625 C 5.519531 -0.171875 4.851562 0.125 4 0.125 C 3.289062 0.125 2.703125 -0.144531 2.234375 -0.6875 Z M 2.34375 -2.890625 C 2.34375 -2.179688 2.476562 -1.617188 2.75 -1.203125 C 3.03125 -0.796875 3.398438 -0.59375 3.859375 -0.59375 C 4.316406 -0.59375 4.679688 -0.800781 4.953125 -1.21875 C 5.222656 -1.644531 5.359375 -2.210938 5.359375 -2.921875 C 5.359375 -4.035156 5.09375 -4.78125 4.5625 -5.15625 C 4.363281 -5.28125 4.132812 -5.34375 3.875 -5.34375 C 3.625 -5.34375 3.40625 -5.28125 3.21875 -5.15625 C 3.03125 -5.03125 2.875 -4.859375 2.75 -4.640625 C 2.476562 -4.191406 2.34375 -3.609375 2.34375 -2.890625 Z M 2.34375 -2.890625 "/></g></g><g transform="translate(96.351558, 84.749998)"><g><path d="M 1.6875 2.265625 C 1.78125 2.285156 1.863281 2.289062 1.9375 2.28125 C 2.007812 2.28125 2.09375 2.25 2.1875 2.1875 C 2.28125 2.125 2.375 2.039062 2.46875 1.9375 C 2.632812 1.738281 2.78125 1.492188 2.90625 1.203125 C 3.039062 0.921875 3.109375 0.695312 3.109375 0.53125 C 3.109375 0.363281 3.085938 0.238281 3.046875 0.15625 C 3.003906 0.0703125 2.953125 0 2.890625 -0.0625 C 2.835938 -0.132812 2.78125 -0.203125 2.71875 -0.265625 C 2.65625 -0.328125 2.609375 -0.410156 2.578125 -0.515625 L 0.875 -4.671875 C 0.789062 -4.910156 0.703125 -5.070312 0.609375 -5.15625 C 0.523438 -5.25 0.332031 -5.296875 0.03125 -5.296875 L 0.03125 -5.9375 L 3.171875 -5.9375 L 3.171875 -5.296875 C 2.722656 -5.296875 2.453125 -5.257812 2.359375 -5.1875 C 2.265625 -5.113281 2.210938 -5.035156 2.203125 -4.953125 C 2.203125 -4.878906 2.222656 -4.785156 2.265625 -4.671875 L 3.734375 -0.6875 L 5.203125 -4.671875 C 5.296875 -4.898438 5.269531 -5.0625 5.125 -5.15625 C 4.976562 -5.25 4.671875 -5.296875 4.203125 -5.296875 L 4.203125 -5.9375 L 6.9375 -5.9375 L 6.9375 -5.296875 C 6.675781 -5.296875 6.476562 -5.242188 6.34375 -5.140625 C 6.21875 -5.035156 6.113281 -4.878906 6.03125 -4.671875 L 4.46875 -0.484375 C 4.332031 -0.171875 4.203125 0.128906 4.078125 0.421875 C 3.953125 0.710938 3.828125 0.988281 3.703125 1.25 C 3.429688 1.820312 3.132812 2.253906 2.8125 2.546875 C 2.488281 2.835938 2.109375 2.984375 1.671875 2.984375 C 1.242188 2.984375 0.910156 2.875 0.671875 2.65625 C 0.441406 2.445312 0.328125 2.203125 0.328125 1.921875 C 0.328125 1.648438 0.40625 1.429688 0.5625 1.265625 C 0.71875 1.097656 0.910156 1.015625 1.140625 1.015625 C 1.472656 1.015625 1.707031 1.164062 1.84375 1.46875 C 1.882812 1.550781 1.90625 1.644531 1.90625 1.75 C 1.90625 1.945312 1.832031 2.117188 1.6875 2.265625 Z M 1.6875 2.265625 "/></g></g></g></svg>