<svg xmlns="http://www.w3.org/2000/svg" xmlns:xlink="http://www.w3.org/1999/xlink" width="240" zoomAndPan="magnify" viewBox="0 0 180 89.999999" height="120" preserveAspectRatio="xMidYMid meet" version="1.0"><defs><g/><clipPath id="f3dd35d167"><path d="M 64 41 L 161.828125 41 L 161.828125 67.699219 L 64 67.699219 Z M 64 41 " clip-rule="nonzero"/></clipPath><clipPath id="ad8e181dc1"><path d="M 17.828125 16.699219 L 101 16.699219 L 101 67.699219 L 17.828125 67.699219 Z M 17.828125 16.699219 " clip-rule="nonzero"/></clipPath></defs><rect x="-18" width="216" fill="#ffffff" y="-9" height="107.999999" fill-opacity="1"/><g fill="#a8a8a8" fill-opacity="1"><g transform="translate(52.916014, 84.750026)"><g><path d="M 0.484375 -0.640625 C 0.816406 -0.640625 1.023438 -0.671875 1.109375 -0.734375 C 1.203125 -0.804688 1.253906 -0.878906 1.265625 -0.953125 C 1.285156 -1.035156 1.296875 -1.140625 1.296875 -1.265625 L 1.296875 -4.484375 C 1.296875 -4.765625 1.269531 -4.945312 1.21875 -5.03125 C 1.175781 -5.125 1.046875 -5.171875 0.828125 -5.171875 L 0.46875 -5.171875 L 0.46875 -5.8125 C 0.84375 -5.8125 1.128906 -5.835938 1.328125 -5.890625 C 1.535156 -5.953125 1.679688 -5.992188 1.765625 -6.015625 C 1.859375 -6.046875 1.957031 -6.0625 2.0625 -6.0625 C 2.257812 -6.0625 2.390625 -6 2.453125 -5.875 C 2.523438 -5.757812 2.5625 -5.570312 2.5625 -5.3125 L 2.5625 -5.1875 C 2.894531 -5.582031 3.273438 -5.847656 3.703125 -5.984375 C 3.859375 -6.035156 4.007812 -6.0625 4.15625 -6.0625 C 4.445312 -6.0625 4.675781 -5.976562 4.84375 -5.8125 C 5.007812 -5.644531 5.09375 -5.4375 5.09375 -5.1875 C 5.09375 -4.9375 5.015625 -4.734375 4.859375 -4.578125 C 4.703125 -4.421875 4.507812 -4.34375 4.28125 -4.34375 C 4.0625 -4.34375 3.878906 -4.421875 3.734375 -4.578125 C 3.597656 -4.734375 3.535156 -4.929688 3.546875 -5.171875 C 3.390625 -5.148438 3.21875 -5.078125 3.03125 -4.953125 C 2.851562 -4.828125 2.695312 -4.660156 2.5625 -4.453125 L 2.5625 -1.3125 C 2.5625 -1.164062 2.570312 -1.046875 2.59375 -0.953125 C 2.625 -0.867188 2.691406 -0.796875 2.796875 -0.734375 C 2.910156 -0.671875 3.25 -0.640625 3.8125 -0.640625 L 3.8125 0 L 0.484375 0 Z M 0.484375 -0.640625 "/></g></g><g transform="translate(58.171873, 84.750026)"><g><path d="M 4.828125 -0.96875 C 4.335938 -0.238281 3.679688 0.125 2.859375 0.125 C 2.273438 0.125 1.816406 -0.0546875 1.484375 -0.421875 C 1.160156 -0.785156 1 -1.332031 1 -2.0625 L 1 -4.484375 C 1 -4.765625 0.972656 -4.945312 0.921875 -5.03125 C 0.867188 -5.125 0.738281 -5.171875 0.53125 -5.171875 L 0.375 -5.171875 L 0.375 -5.8125 C 0.738281 -5.8125 1 -5.835938 1.15625 -5.890625 C 1.320312 -5.953125 1.4375 -5.992188 1.5 -6.015625 C 1.570312 -6.046875 1.660156 -6.0625 1.765625 -6.0625 C 1.960938 -6.0625 2.09375 -6 2.15625 -5.875 C 2.226562 -5.75 2.265625 -5.550781 2.265625 -5.28125 L 2.265625 -2.015625 C 2.265625 -1.585938 2.304688 -1.296875 2.390625 -1.140625 C 2.566406 -0.835938 2.863281 -0.6875 3.28125 -0.6875 C 3.5625 -0.6875 3.835938 -0.796875 4.109375 -1.015625 C 4.390625 -1.242188 4.582031 -1.503906 4.6875 -1.796875 L 4.6875 -4.484375 C 4.6875 -4.773438 4.660156 -4.960938 4.609375 -5.046875 C 4.566406 -5.128906 4.4375 -5.171875 4.21875 -5.171875 L 3.890625 -5.171875 L 3.890625 -5.8125 C 4.253906 -5.8125 4.535156 -5.835938 4.734375 -5.890625 C 4.941406 -5.953125 5.085938 -5.992188 5.171875 -6.015625 C 5.253906 -6.046875 5.347656 -6.0625 5.453125 -6.0625 C 5.648438 -6.0625 5.78125 -6 5.84375 -5.875 C 5.914062 -5.757812 5.953125 -5.570312 5.953125 -5.3125 L 5.953125 -1.5625 C 5.953125 -1.175781 5.972656 -0.941406 6.015625 -0.859375 C 6.078125 -0.679688 6.234375 -0.59375 6.484375 -0.59375 C 6.617188 -0.59375 6.734375 -0.613281 6.828125 -0.65625 L 6.828125 -0.09375 C 6.640625 0.0507812 6.378906 0.125 6.046875 0.125 C 5.367188 0.125 4.960938 -0.238281 4.828125 -0.96875 Z M 4.828125 -0.96875 "/></g></g><g transform="translate(65.144529, 84.750026)"><g><path d="M 2.234375 -0.6875 C 2.066406 -0.53125 1.984375 -0.300781 1.984375 0 L 1.109375 0 L 1.109375 -7.5625 C 1.109375 -7.84375 1.082031 -8.023438 1.03125 -8.109375 C 0.988281 -8.203125 0.859375 -8.25 0.640625 -8.25 L 0.21875 -8.25 L 0.21875 -8.890625 C 0.601562 -8.890625 0.898438 -8.914062 1.109375 -8.96875 C 1.328125 -9.03125 1.484375 -9.070312 1.578125 -9.09375 C 1.671875 -9.125 1.769531 -9.140625 1.875 -9.140625 C 2.082031 -9.140625 2.21875 -9.078125 2.28125 -8.953125 C 2.34375 -8.835938 2.375 -8.648438 2.375 -8.390625 L 2.375 -5.25 C 2.789062 -5.789062 3.390625 -6.0625 4.171875 -6.0625 C 4.953125 -6.0625 5.570312 -5.8125 6.03125 -5.3125 C 6.488281 -4.8125 6.71875 -4.078125 6.71875 -3.109375 C 6.71875 -2.140625 6.476562 -1.359375 6 -0.765625 C 5.519531 -0.171875 4.851562 0.125 4 0.125 C 3.289062 0.125 2.703125 -0.144531 2.234375 -0.6875 Z M 2.34375 -2.890625 C 2.34375 -2.179688 2.476562 -1.617188 2.75 -1.203125 C 3.03125 -0.796875 3.398438 -0.59375 3.859375 -0.59375 C 4.316406 -0.59375 4.679688 -0.800781 4.953125 -1.21875 C 5.222656 -1.644531 5.359375 -2.210938 5.359375 -2.921875 C 5.359375 -4.035156 5.09375 -4.78125 4.5625 -5.15625 C 4.363281 -5.28125 4.132812 -5.34375 3.875 -5.34375 C 3.625 -5.34375 3.40625 -5.28125 3.21875 -5.15625 C 3.03125 -5.03125 2.875 -4.859375 2.75 -4.640625 C 2.476562 -4.191406 2.34375 -3.609375 2.34375 -2.890625 Z M 2.34375 -2.890625 "/></g></g><g transform="translate(72.374998, 84.750026)"><g><path d="M 1.6875 2.265625 C 1.78125 2.285156 1.863281 2.289062 1.9375 2.28125 C 2.007812 2.28125 2.09375 2.25 2.1875 2.1875 C 2.28125 2.125 2.375 2.039062 2.46875 1.9375 C 2.632812 1.738281 2.78125 1.492188 2.90625 1.203125 C 3.039062 0.921875 3.109375 0.695312 3.109375 0.53125 C 3.109375 0.363281 3.085938 0.238281 3.046875 0.15625 C 3.003906 0.0703125 2.953125 0 2.890625 -0.0625 C 2.835938 -0.132812 2.78125 -0.203125 2.71875 -0.265625 C 2.65625 -0.328125 2.609375 -0.410156 2.578125 -0.515625 L 0.875 -4.671875 C 0.789062 -4.910156 0.703125 -5.070312 0.609375 -5.15625 C 0.523438 -5.25 0.332031 -5.296875 0.03125 -5.296875 L 0.03125 -5.9375 L 3.171875 -5.9375 L 3.171875 -5.296875 C 2.722656 -5.296875 2.453125 -5.257812 2.359375 -5.1875 C 2.265625 -5.113281 2.210938 -5.035156 2.203125 -4.953125 C 2.203125 -4.878906 2.222656 -4.785156 2.265625 -4.671875 L 3.734375 -0.6875 L 5.203125 -4.671875 C 5.296875 -4.898438 5.269531 -5.0625 5.125 -5.15625 C 4.976562 -5.25 4.671875 -5.296875 4.203125 -5.296875 L 4.203125 -5.9375 L 6.9375 -5.9375 L 6.9375 -5.296875 C 6.675781 -5.296875 6.476562 -5.242188 6.34375 -5.140625 C 6.21875 -5.035156 6.113281 -4.878906 6.03125 -4.671875 L 4.46875 -0.484375 C 4.332031 -0.171875 4.203125 0.128906 4.078125 0.421875 C 3.953125 0.710938 3.828125 0.988281 3.703125 1.25 C 3.429688 1.820312 3.132812 2.253906 2.8125 2.546875 C 2.488281 2.835938 2.109375 2.984375 1.671875 2.984375 C 1.242188 2.984375 0.910156 2.875 0.671875 2.65625 C 0.441406 2.445312 0.328125 2.203125 0.328125 1.921875 C 0.328125 1.648438 0.40625 1.429688 0.5625 1.265625 C 0.71875 1.097656 0.910156 1.015625 1.140625 1.015625 C 1.472656 1.015625 1.707031 1.164062 1.84375 1.46875 C 1.882812 1.550781 1.90625 1.644531 1.90625 1.75 C 1.90625 1.945312 1.832031 2.117188 1.6875 2.265625 Z M 1.6875 2.265625 "/></g></g><g transform="translate(79.124997, 84.750026)"><g/></g><g transform="translate(83.12695, 84.750026)"><g><path d="M 0.53125 -3 C 0.53125 -3.46875 0.601562 -3.898438 0.75 -4.296875 C 0.894531 -4.691406 1.097656 -5.019531 1.359375 -5.28125 C 1.878906 -5.800781 2.566406 -6.0625 3.421875 -6.0625 C 4.285156 -6.0625 4.976562 -5.800781 5.5 -5.28125 C 6.03125 -4.757812 6.296875 -4.023438 6.296875 -3.078125 C 6.296875 -2.128906 6.050781 -1.359375 5.5625 -0.765625 C 5.070312 -0.171875 4.359375 0.125 3.421875 0.125 C 2.472656 0.125 1.753906 -0.160156 1.265625 -0.734375 C 0.773438 -1.304688 0.53125 -2.0625 0.53125 -3 Z M 3.421875 -0.59375 C 3.867188 -0.59375 4.234375 -0.796875 4.515625 -1.203125 C 4.804688 -1.617188 4.953125 -2.203125 4.953125 -2.953125 C 4.953125 -4.160156 4.644531 -4.914062 4.03125 -5.21875 C 3.84375 -5.3125 3.640625 -5.359375 3.421875 -5.359375 C 2.691406 -5.359375 2.21875 -4.921875 2 -4.046875 C 1.925781 -3.742188 1.890625 -3.390625 1.890625 -2.984375 C 1.890625 -2.210938 2.03125 -1.617188 2.3125 -1.203125 C 2.59375 -0.796875 2.960938 -0.59375 3.421875 -0.59375 Z M 3.421875 -0.59375 "/></g></g><g transform="translate(89.953122, 84.750026)"><g><path d="M 4.109375 -5.1875 C 3.472656 -5.1875 2.957031 -4.984375 2.5625 -4.578125 L 2.5625 -1.265625 C 2.5625 -1.015625 2.597656 -0.859375 2.671875 -0.796875 C 2.804688 -0.691406 3.066406 -0.640625 3.453125 -0.640625 L 3.453125 0 L 0.46875 0 L 0.46875 -0.640625 C 0.800781 -0.640625 1.007812 -0.671875 1.09375 -0.734375 C 1.1875 -0.804688 1.242188 -0.878906 1.265625 -0.953125 C 1.285156 -1.035156 1.296875 -1.140625 1.296875 -1.265625 L 1.296875 -4.453125 C 1.296875 -4.734375 1.269531 -4.914062 1.21875 -5 C 1.164062 -5.09375 1.03125 -5.140625 0.8125 -5.140625 L 0.453125 -5.140625 L 0.453125 -5.78125 C 0.828125 -5.78125 1.117188 -5.804688 1.328125 -5.859375 C 1.535156 -5.921875 1.679688 -5.960938 1.765625 -5.984375 C 1.859375 -6.015625 1.953125 -6.03125 2.046875 -6.03125 C 2.253906 -6.03125 2.390625 -5.96875 2.453125 -5.84375 C 2.523438 -5.726562 2.5625 -5.539062 2.5625 -5.28125 C 2.976562 -5.625 3.460938 -5.859375 4.015625 -5.984375 C 4.191406 -6.023438 4.367188 -6.046875 4.546875 -6.046875 C 5.816406 -6.046875 6.453125 -5.210938 6.453125 -3.546875 L 6.453125 -1.265625 C 6.453125 -1.015625 6.488281 -0.847656 6.5625 -0.765625 C 6.632812 -0.679688 6.835938 -0.640625 7.171875 -0.640625 L 7.171875 0 L 4.390625 0 L 4.390625 -0.640625 C 4.742188 -0.640625 4.957031 -0.675781 5.03125 -0.75 C 5.101562 -0.820312 5.144531 -0.894531 5.15625 -0.96875 C 5.175781 -1.050781 5.1875 -1.148438 5.1875 -1.265625 L 5.1875 -3.46875 C 5.1875 -4.007812 5.132812 -4.378906 5.03125 -4.578125 C 4.832031 -4.984375 4.523438 -5.1875 4.109375 -5.1875 Z M 4.109375 -5.1875 "/></g></g><g transform="translate(97.458981, 84.750026)"><g/></g><g transform="translate(101.460933, 84.750026)"><g><path d="M 0.484375 -0.640625 C 0.816406 -0.640625 1.023438 -0.671875 1.109375 -0.734375 C 1.203125 -0.804688 1.253906 -0.878906 1.265625 -0.953125 C 1.285156 -1.035156 1.296875 -1.140625 1.296875 -1.265625 L 1.296875 -4.484375 C 1.296875 -4.765625 1.269531 -4.945312 1.21875 -5.03125 C 1.175781 -5.125 1.046875 -5.171875 0.828125 -5.171875 L 0.46875 -5.171875 L 0.46875 -5.8125 C 0.84375 -5.8125 1.128906 -5.835938 1.328125 -5.890625 C 1.535156 -5.953125 1.679688 -5.992188 1.765625 -6.015625 C 1.859375 -6.046875 1.957031 -6.0625 2.0625 -6.0625 C 2.257812 -6.0625 2.390625 -6 2.453125 -5.875 C 2.523438 -5.757812 2.5625 -5.570312 2.5625 -5.3125 L 2.5625 -5.1875 C 2.894531 -5.582031 3.273438 -5.847656 3.703125 -5.984375 C 3.859375 -6.035156 4.007812 -6.0625 4.15625 -6.0625 C 4.445312 -6.0625 4.675781 -5.976562 4.84375 -5.8125 C 5.007812 -5.644531 5.09375 -5.4375 5.09375 -5.1875 C 5.09375 -4.9375 5.015625 -4.734375 4.859375 -4.578125 C 4.703125 -4.421875 4.507812 -4.34375 4.28125 -4.34375 C 4.0625 -4.34375 3.878906 -4.421875 3.734375 -4.578125 C 3.597656 -4.734375 3.535156 -4.929688 3.546875 -5.171875 C 3.390625 -5.148438 3.21875 -5.078125 3.03125 -4.953125 C 2.851562 -4.828125 2.695312 -4.660156 2.5625 -4.453125 L 2.5625 -1.3125 C 2.5625 -1.164062 2.570312 -1.046875 2.59375 -0.953125 C 2.625 -0.867188 2.691406 -0.796875 2.796875 -0.734375 C 2.910156 -0.671875 3.25 -0.640625 3.8125 -0.640625 L 3.8125 0 L 0.484375 0 Z M 0.484375 -0.640625 "/></g></g><g transform="translate(106.716793, 84.750026)"><g><path d="M 5.59375 -1.40625 C 5.59375 -0.9375 5.6875 -0.703125 5.875 -0.703125 C 6.050781 -0.703125 6.175781 -0.757812 6.25 -0.875 C 6.332031 -1 6.375 -1.21875 6.375 -1.53125 L 7 -1.53125 C 7 -1.476562 7 -1.398438 7 -1.296875 C 7 -0.941406 6.910156 -0.632812 6.734375 -0.375 C 6.523438 -0.0390625 6.1875 0.125 5.71875 0.125 C 5.40625 0.125 5.140625 0.0351562 4.921875 -0.140625 C 4.710938 -0.316406 4.566406 -0.546875 4.484375 -0.828125 C 3.921875 -0.191406 3.207031 0.125 2.34375 0.125 C 1.863281 0.125 1.445312 -0.015625 1.09375 -0.296875 C 0.738281 -0.578125 0.5625 -0.96875 0.5625 -1.46875 C 0.5625 -2.332031 1.203125 -2.972656 2.484375 -3.390625 C 3.296875 -3.648438 3.78125 -3.828125 3.9375 -3.921875 C 4.101562 -4.023438 4.207031 -4.128906 4.25 -4.234375 C 4.300781 -4.335938 4.328125 -4.453125 4.328125 -4.578125 C 4.328125 -4.804688 4.210938 -5 3.984375 -5.15625 C 3.765625 -5.3125 3.472656 -5.390625 3.109375 -5.390625 C 2.742188 -5.390625 2.421875 -5.289062 2.140625 -5.09375 C 2.335938 -4.945312 2.4375 -4.757812 2.4375 -4.53125 C 2.4375 -4.3125 2.359375 -4.132812 2.203125 -4 C 2.054688 -3.863281 1.875 -3.796875 1.65625 -3.796875 C 1.445312 -3.796875 1.273438 -3.859375 1.140625 -3.984375 C 1.003906 -4.109375 0.9375 -4.289062 0.9375 -4.53125 C 0.9375 -4.976562 1.164062 -5.34375 1.625 -5.625 C 2.082031 -5.914062 2.644531 -6.0625 3.3125 -6.0625 C 4.488281 -6.0625 5.207031 -5.675781 5.46875 -4.90625 C 5.550781 -4.65625 5.59375 -4.363281 5.59375 -4.03125 Z M 3.015625 -2.859375 C 2.671875 -2.710938 2.410156 -2.519531 2.234375 -2.28125 C 2.066406 -2.050781 1.984375 -1.800781 1.984375 -1.53125 C 1.984375 -1.257812 2.054688 -1.050781 2.203125 -0.90625 C 2.347656 -0.769531 2.535156 -0.703125 2.765625 -0.703125 C 3.210938 -0.703125 3.582031 -0.859375 3.875 -1.171875 C 4.175781 -1.492188 4.328125 -1.941406 4.328125 -2.515625 L 4.328125 -3.40625 C 4.078125 -3.28125 3.8125 -3.164062 3.53125 -3.0625 C 3.257812 -2.957031 3.085938 -2.890625 3.015625 -2.859375 Z M 3.015625 -2.859375 "/></g></g><g transform="translate(113.58398, 84.750026)"><g><path d="M 1.96875 -7.140625 C 1.71875 -7.140625 1.503906 -7.222656 1.328125 -7.390625 C 1.148438 -7.566406 1.0625 -7.773438 1.0625 -8.015625 C 1.0625 -8.265625 1.148438 -8.476562 1.328125 -8.65625 C 1.503906 -8.832031 1.71875 -8.921875 1.96875 -8.921875 C 2.21875 -8.921875 2.429688 -8.832031 2.609375 -8.65625 C 2.796875 -8.476562 2.890625 -8.265625 2.890625 -8.015625 C 2.890625 -7.773438 2.800781 -7.566406 2.625 -7.390625 C 2.445312 -7.222656 2.226562 -7.140625 1.96875 -7.140625 Z M 0.484375 -0.640625 C 0.847656 -0.640625 1.070312 -0.671875 1.15625 -0.734375 C 1.25 -0.804688 1.304688 -0.878906 1.328125 -0.953125 C 1.347656 -1.035156 1.359375 -1.140625 1.359375 -1.265625 L 1.359375 -4.484375 C 1.359375 -4.765625 1.332031 -4.945312 1.28125 -5.03125 C 1.238281 -5.125 1.109375 -5.171875 0.890625 -5.171875 L 0.46875 -5.171875 L 0.46875 -5.8125 C 0.851562 -5.8125 1.15625 -5.835938 1.375 -5.890625 C 1.59375 -5.953125 1.742188 -5.992188 1.828125 -6.015625 C 1.921875 -6.046875 2.019531 -6.0625 2.125 -6.0625 C 2.332031 -6.0625 2.46875 -6 2.53125 -5.875 C 2.59375 -5.757812 2.625 -5.570312 2.625 -5.3125 L 2.625 -1.265625 C 2.625 -1.015625 2.664062 -0.859375 2.75 -0.796875 C 2.875 -0.691406 3.125 -0.640625 3.5 -0.640625 L 3.5 0 L 0.484375 0 Z M 0.484375 -0.640625 "/></g></g><g transform="translate(117.509761, 84.750026)"><g><path d="M 0.40625 -0.640625 C 0.75 -0.640625 0.984375 -0.6875 1.109375 -0.78125 C 1.234375 -0.875 1.296875 -1.035156 1.296875 -1.265625 L 1.296875 -7.625 C 1.296875 -7.90625 1.269531 -8.085938 1.21875 -8.171875 C 1.175781 -8.253906 1.046875 -8.296875 0.828125 -8.296875 L 0.359375 -8.296875 L 0.359375 -8.9375 C 0.742188 -8.9375 1.046875 -8.960938 1.265625 -9.015625 C 1.492188 -9.078125 1.65625 -9.117188 1.75 -9.140625 C 1.851562 -9.171875 1.957031 -9.1875 2.0625 -9.1875 C 2.257812 -9.1875 2.390625 -9.128906 2.453125 -9.015625 C 2.523438 -8.898438 2.5625 -8.707031 2.5625 -8.4375 L 2.5625 -1.265625 C 2.5625 -1.023438 2.613281 -0.859375 2.71875 -0.765625 C 2.820312 -0.679688 3.066406 -0.640625 3.453125 -0.640625 L 3.453125 0 L 0.40625 0 Z M 0.40625 -0.640625 "/></g></g><g transform="translate(121.376948, 84.750026)"><g><path d="M 3.734375 -5.15625 C 3.535156 -5.363281 3.207031 -5.46875 2.75 -5.46875 C 2.300781 -5.46875 2 -5.300781 1.84375 -4.96875 C 1.800781 -4.875 1.78125 -4.765625 1.78125 -4.640625 C 1.78125 -4.523438 1.828125 -4.410156 1.921875 -4.296875 C 2.015625 -4.191406 2.132812 -4.085938 2.28125 -3.984375 C 2.425781 -3.890625 2.59375 -3.796875 2.78125 -3.703125 C 2.96875 -3.609375 3.160156 -3.503906 3.359375 -3.390625 C 3.554688 -3.285156 3.765625 -3.171875 3.984375 -3.046875 C 4.804688 -2.597656 5.21875 -2.101562 5.21875 -1.5625 C 5.21875 -1.019531 5.003906 -0.601562 4.578125 -0.3125 C 4.160156 -0.0195312 3.601562 0.125 2.90625 0.125 C 2.207031 0.125 1.628906 0 1.171875 -0.25 C 0.722656 -0.507812 0.5 -0.832031 0.5 -1.21875 C 0.5 -1.4375 0.566406 -1.617188 0.703125 -1.765625 C 0.847656 -1.921875 1.03125 -2 1.25 -2 C 1.476562 -2 1.660156 -1.925781 1.796875 -1.78125 C 1.941406 -1.644531 2.015625 -1.476562 2.015625 -1.28125 C 2.015625 -1.09375 1.953125 -0.929688 1.828125 -0.796875 C 2.140625 -0.617188 2.523438 -0.53125 2.984375 -0.53125 C 3.453125 -0.53125 3.78125 -0.640625 3.96875 -0.859375 C 4.039062 -0.941406 4.078125 -1.050781 4.078125 -1.1875 C 4.078125 -1.507812 3.71875 -1.847656 3 -2.203125 C 2.5 -2.453125 2.125 -2.644531 1.875 -2.78125 C 1.070312 -3.238281 0.671875 -3.785156 0.671875 -4.421875 C 0.671875 -4.910156 0.875 -5.300781 1.28125 -5.59375 C 1.695312 -5.894531 2.21875 -6.046875 2.84375 -6.046875 C 3.476562 -6.046875 4.007812 -5.925781 4.4375 -5.6875 C 4.875 -5.457031 5.09375 -5.15625 5.09375 -4.78125 C 5.09375 -4.5625 5.039062 -4.398438 4.9375 -4.296875 C 4.75 -4.109375 4.570312 -4.015625 4.40625 -4.015625 C 4.132812 -4.015625 3.925781 -4.082031 3.78125 -4.21875 C 3.644531 -4.363281 3.578125 -4.523438 3.578125 -4.703125 C 3.578125 -4.878906 3.628906 -5.03125 3.734375 -5.15625 Z M 3.734375 -5.15625 "/></g></g></g><g clip-path="url(#f3dd35d167)"><path fill="#a8a8a8" d="M 79.554688 59.398438 C 79.554688 59.398438 85.910156 58.851562 85.910156 50.605469 C 85.910156 42.359375 78.207031 41.59375 78.207031 41.59375 L 64.332031 41.59375 L 64.332031 67.609375 L 71.304688 67.609375 L 71.304688 61.332031 L 77.335938 67.609375 L 87.65625 67.609375 Z M 76.863281 54.070312 L 71.304688 54.070312 L 71.304688 48.121094 L 76.898438 48.121094 C 76.898438 48.121094 78.464844 48.707031 78.464844 51.078125 C 78.464844 53.449219 76.863281 54.070312 76.863281 54.070312 Z M 103.132812 41.773438 L 96.046875 41.773438 C 90.996094 41.773438 89.289062 46.371094 89.289062 48.5625 L 89.289062 67.609375 L 96.375 67.609375 L 96.375 63.046875 L 103.019531 63.046875 L 103.019531 67.609375 L 109.886719 67.609375 L 109.886719 48.5625 C 109.886719 43.015625 104.875 41.773438 103.132812 41.773438 Z M 103.019531 55.675781 L 96.335938 55.675781 L 96.335938 49.363281 C 96.335938 49.363281 96.335938 47.941406 98.554688 47.941406 L 100.988281 47.941406 C 102.949219 47.941406 102.984375 49.363281 102.984375 49.363281 L 102.984375 55.675781 Z M 113.121094 41.773438 L 120.496094 41.773438 L 120.496094 67.609375 L 113.121094 67.609375 Z M 130.847656 60.929688 L 130.847656 41.773438 L 123.511719 41.773438 L 123.511719 67.609375 L 140.769531 67.609375 L 140.769531 60.929688 Z M 143.203125 61.003906 L 143.203125 67.609375 L 155.082031 67.609375 C 157.515625 67.609375 161.691406 65.820312 161.839844 60.820312 L 161.839844 58.269531 C 161.839844 54 158.351562 51.480469 155.082031 51.480469 L 149.160156 51.480469 L 149.160156 48.414062 L 160.890625 48.414062 L 160.890625 41.773438 L 149.628906 41.773438 C 146.726562 41.773438 142.839844 44.183594 142.839844 48.671875 L 142.839844 50.96875 C 142.839844 55.460938 146.6875 57.757812 149.628906 57.757812 C 157.804688 57.792969 147.667969 57.757812 155.222656 57.757812 L 155.222656 60.96875 Z M 143.203125 61.003906 " fill-opacity="1" fill-rule="nonzero"/></g><g clip-path="url(#ad8e181dc1)"><path fill="#a8a8a8" d="M 20.371094 67.570312 L 49.070312 67.570312 C 49.070312 67.570312 43.585938 42.429688 61.75 32.25 C 65.710938 30.316406 78.316406 23.089844 98.949219 38.417969 C 99.605469 37.871094 100.222656 37.433594 100.222656 37.433594 C 100.222656 37.433594 81.332031 18.492188 60.296875 20.609375 C 49.726562 21.558594 36.71875 31.230469 29.089844 44 C 21.460938 56.773438 20.371094 67.570312 20.371094 67.570312 Z M 80.167969 22.652344 L 80.3125 20.207031 C 79.988281 20.023438 79.078125 19.585938 76.789062 18.929688 L 76.644531 21.339844 C 77.84375 21.742188 79.007812 22.179688 80.167969 22.652344 Z M 76.71875 30.386719 L 76.574219 32.6875 C 77.773438 32.722656 78.96875 32.871094 80.167969 33.125 L 80.3125 30.863281 C 79.078125 30.609375 77.878906 30.460938 76.71875 30.386719 Z M 63.277344 19.003906 L 63.640625 19.003906 L 62.914062 16.777344 C 61.785156 16.777344 60.625 16.851562 59.425781 16.996094 L 60.117188 19.148438 C 61.167969 19.039062 62.222656 19.003906 63.277344 19.003906 Z M 65.019531 32.433594 L 65.855469 34.949219 C 66.90625 34.4375 67.960938 34 69.015625 33.671875 L 68.21875 31.265625 C 66.980469 31.628906 65.925781 32.03125 65.019531 32.433594 Z M 48.527344 22.835938 L 46.890625 20.316406 C 45.984375 20.792969 45.039062 21.300781 44.058594 21.886719 L 45.730469 24.441406 C 46.675781 23.855469 47.582031 23.308594 48.527344 22.835938 Z M 55.976562 39.253906 L 57.71875 41.882812 C 58.335938 40.96875 59.0625 40.132812 59.863281 39.292969 L 58.226562 36.8125 C 57.390625 37.578125 56.628906 38.417969 55.976562 39.253906 Z M 50.707031 51.003906 L 53.648438 53.34375 C 53.796875 51.917969 54.046875 50.496094 54.414062 49.074219 L 51.796875 46.988281 C 51.324219 48.34375 51 49.691406 50.707031 51.003906 Z M 34.792969 33.671875 L 32.214844 31.410156 C 31.269531 32.324219 30.363281 33.234375 29.527344 34.148438 L 32.324219 36.554688 C 33.085938 35.570312 33.921875 34.585938 34.792969 33.671875 Z M 23.824219 49.984375 L 19.644531 48.449219 C 18.957031 50.019531 18.191406 51.84375 17.828125 52.828125 L 22.007812 54.363281 C 22.480469 53.121094 23.242188 51.332031 23.824219 49.984375 Z M 50.160156 60.273438 C 50.234375 62.207031 50.414062 63.777344 50.597656 64.871094 L 54.957031 66.4375 C 54.628906 65.015625 54.300781 63.410156 54.085938 61.695312 Z M 50.160156 60.273438 " fill-opacity="1" fill-rule="nonzero"/></g></svg>