<svg xmlns="http://www.w3.org/2000/svg" xmlns:xlink="http://www.w3.org/1999/xlink" width="240" zoomAndPan="magnify" viewBox="0 0 180 89.999999" height="120" preserveAspectRatio="xMidYMid meet" version="1.0"><defs><g/><clipPath id="8831838542"><path d="M 54.273438 2.496094 L 125.523438 2.496094 L 125.523438 73.746094 L 54.273438 73.746094 Z M 54.273438 2.496094 " clip-rule="nonzero"/></clipPath></defs><rect x="-18" width="216" fill="#ffffff" y="-9" height="107.999999" fill-opacity="1"/><rect x="-18" width="216" fill="#ffffff" y="-9" height="107.999999" fill-opacity="1"/><g clip-path="url(#8831838542)"><path fill="#a8a8a8" d="M 122.992188 10.179688 L 108.335938 3.128906 C 107.503906 2.726562 106.570312 2.59375 105.664062 2.746094 C 104.753906 2.902344 103.917969 3.332031 103.265625 3.984375 L 75.191406 29.601562 L 62.957031 20.324219 C 62.40625 19.902344 61.726562 19.6875 61.03125 19.71875 C 60.339844 19.746094 59.679688 20.019531 59.167969 20.484375 L 55.25 24.058594 C 54.941406 24.332031 54.695312 24.671875 54.527344 25.046875 C 54.359375 25.425781 54.273438 25.832031 54.273438 26.246094 C 54.269531 26.660156 54.355469 27.066406 54.523438 27.445312 C 54.6875 27.824219 54.933594 28.164062 55.238281 28.441406 L 65.847656 38.125 L 55.238281 47.808594 C 54.933594 48.085938 54.6875 48.425781 54.523438 48.800781 C 54.355469 49.179688 54.269531 49.589844 54.273438 50 C 54.273438 50.414062 54.359375 50.820312 54.527344 51.199219 C 54.695312 51.574219 54.941406 51.914062 55.25 52.191406 L 59.167969 55.761719 C 59.679688 56.230469 60.339844 56.5 61.03125 56.53125 C 61.726562 56.558594 62.40625 56.34375 62.957031 55.925781 L 75.191406 46.636719 L 103.28125 72.261719 C 103.929688 72.914062 104.765625 73.347656 105.671875 73.5 C 106.578125 73.65625 107.507812 73.519531 108.335938 73.121094 L 123.007812 66.058594 C 123.761719 65.695312 124.398438 65.125 124.84375 64.414062 C 125.289062 63.703125 125.523438 62.882812 125.523438 62.046875 L 125.523438 14.1875 C 125.523438 12.480469 124.535156 10.917969 122.996094 10.175781 Z M 107.71875 54.304688 L 86.402344 38.125 L 107.71875 21.949219 Z M 107.71875 54.304688 " fill-opacity="1" fill-rule="nonzero"/></g><g fill="#a8a8a8" fill-opacity="1"><g transform="translate(70.699216, 84.749998)"><g><path d="M 0.546875 -4.671875 C 0.429688 -4.921875 0.328125 -5.085938 0.234375 -5.171875 C 0.140625 -5.253906 -0.0546875 -5.296875 -0.359375 -5.296875 L -0.359375 -5.9375 L 2.78125 -5.9375 L 2.78125 -5.296875 C 2.351562 -5.296875 2.085938 -5.25 1.984375 -5.15625 C 1.890625 -5.070312 1.890625 -4.910156 1.984375 -4.671875 L 3.3125 -1.453125 L 4.71875 -4.671875 C 4.820312 -4.890625 4.804688 -5.046875 4.671875 -5.140625 C 4.535156 -5.242188 4.238281 -5.296875 3.78125 -5.296875 L 3.78125 -5.9375 L 6.453125 -5.9375 L 6.453125 -5.296875 C 6.203125 -5.296875 6.015625 -5.242188 5.890625 -5.140625 C 5.765625 -5.046875 5.648438 -4.890625 5.546875 -4.671875 L 3.40625 0 L 2.765625 0 Z M 0.546875 -4.671875 "/></g></g><g transform="translate(76.921872, 84.749998)"><g><path d="M 3.734375 -5.15625 C 3.535156 -5.363281 3.207031 -5.46875 2.75 -5.46875 C 2.300781 -5.46875 2 -5.300781 1.84375 -4.96875 C 1.800781 -4.875 1.78125 -4.765625 1.78125 -4.640625 C 1.78125 -4.523438 1.828125 -4.410156 1.921875 -4.296875 C 2.015625 -4.191406 2.132812 -4.085938 2.28125 -3.984375 C 2.425781 -3.890625 2.59375 -3.796875 2.78125 -3.703125 C 2.96875 -3.609375 3.160156 -3.503906 3.359375 -3.390625 C 3.554688 -3.285156 3.765625 -3.171875 3.984375 -3.046875 C 4.804688 -2.597656 5.21875 -2.101562 5.21875 -1.5625 C 5.21875 -1.019531 5.003906 -0.601562 4.578125 -0.3125 C 4.160156 -0.0195312 3.601562 0.125 2.90625 0.125 C 2.207031 0.125 1.628906 0 1.171875 -0.25 C 0.722656 -0.507812 0.5 -0.832031 0.5 -1.21875 C 0.5 -1.4375 0.566406 -1.617188 0.703125 -1.765625 C 0.847656 -1.921875 1.03125 -2 1.25 -2 C 1.476562 -2 1.660156 -1.925781 1.796875 -1.78125 C 1.941406 -1.644531 2.015625 -1.476562 2.015625 -1.28125 C 2.015625 -1.09375 1.953125 -0.929688 1.828125 -0.796875 C 2.140625 -0.617188 2.523438 -0.53125 2.984375 -0.53125 C 3.453125 -0.53125 3.78125 -0.640625 3.96875 -0.859375 C 4.039062 -0.941406 4.078125 -1.050781 4.078125 -1.1875 C 4.078125 -1.507812 3.71875 -1.847656 3 -2.203125 C 2.5 -2.453125 2.125 -2.644531 1.875 -2.78125 C 1.070312 -3.238281 0.671875 -3.785156 0.671875 -4.421875 C 0.671875 -4.910156 0.875 -5.300781 1.28125 -5.59375 C 1.695312 -5.894531 2.21875 -6.046875 2.84375 -6.046875 C 3.476562 -6.046875 4.007812 -5.925781 4.4375 -5.6875 C 4.875 -5.457031 5.09375 -5.15625 5.09375 -4.78125 C 5.09375 -4.5625 5.039062 -4.398438 4.9375 -4.296875 C 4.75 -4.109375 4.570312 -4.015625 4.40625 -4.015625 C 4.132812 -4.015625 3.925781 -4.082031 3.78125 -4.21875 C 3.644531 -4.363281 3.578125 -4.523438 3.578125 -4.703125 C 3.578125 -4.878906 3.628906 -5.03125 3.734375 -5.15625 Z M 3.734375 -5.15625 "/></g></g><g transform="translate(82.628903, 84.749998)"><g><path d="M 4.484375 -4.96875 C 4.265625 -5.25 3.953125 -5.390625 3.546875 -5.390625 C 2.773438 -5.390625 2.273438 -4.953125 2.046875 -4.078125 C 1.972656 -3.773438 1.9375 -3.410156 1.9375 -2.984375 C 1.9375 -2.191406 2.085938 -1.59375 2.390625 -1.1875 C 2.691406 -0.789062 3.070312 -0.59375 3.53125 -0.59375 C 3.863281 -0.59375 4.144531 -0.6875 4.375 -0.875 C 4.613281 -1.070312 4.78125 -1.351562 4.875 -1.71875 L 5.671875 -1.71875 C 5.671875 -1.238281 5.457031 -0.8125 5.03125 -0.4375 C 4.601562 -0.0625 4.023438 0.125 3.296875 0.125 C 2.566406 0.125 1.945312 -0.101562 1.4375 -0.5625 C 0.832031 -1.101562 0.53125 -1.894531 0.53125 -2.9375 C 0.53125 -3.78125 0.78125 -4.507812 1.28125 -5.125 C 1.78125 -5.75 2.519531 -6.0625 3.5 -6.0625 C 4.132812 -6.0625 4.660156 -5.90625 5.078125 -5.59375 C 5.503906 -5.289062 5.71875 -4.894531 5.71875 -4.40625 C 5.71875 -4.164062 5.640625 -3.960938 5.484375 -3.796875 C 5.335938 -3.640625 5.144531 -3.5625 4.90625 -3.5625 C 4.5625 -3.5625 4.328125 -3.71875 4.203125 -4.03125 C 4.160156 -4.125 4.140625 -4.226562 4.140625 -4.34375 C 4.140625 -4.613281 4.253906 -4.820312 4.484375 -4.96875 Z M 4.484375 -4.96875 "/></g></g><g transform="translate(88.798825, 84.749998)"><g><path d="M 0.53125 -3 C 0.53125 -3.46875 0.601562 -3.898438 0.75 -4.296875 C 0.894531 -4.691406 1.097656 -5.019531 1.359375 -5.28125 C 1.878906 -5.800781 2.566406 -6.0625 3.421875 -6.0625 C 4.285156 -6.0625 4.976562 -5.800781 5.5 -5.28125 C 6.03125 -4.757812 6.296875 -4.023438 6.296875 -3.078125 C 6.296875 -2.128906 6.050781 -1.359375 5.5625 -0.765625 C 5.070312 -0.171875 4.359375 0.125 3.421875 0.125 C 2.472656 0.125 1.753906 -0.160156 1.265625 -0.734375 C 0.773438 -1.304688 0.53125 -2.0625 0.53125 -3 Z M 3.421875 -0.59375 C 3.867188 -0.59375 4.234375 -0.796875 4.515625 -1.203125 C 4.804688 -1.617188 4.953125 -2.203125 4.953125 -2.953125 C 4.953125 -4.160156 4.644531 -4.914062 4.03125 -5.21875 C 3.84375 -5.3125 3.640625 -5.359375 3.421875 -5.359375 C 2.691406 -5.359375 2.21875 -4.921875 2 -4.046875 C 1.925781 -3.742188 1.890625 -3.390625 1.890625 -2.984375 C 1.890625 -2.210938 2.03125 -1.617188 2.3125 -1.203125 C 2.59375 -0.796875 2.960938 -0.59375 3.421875 -0.59375 Z M 3.421875 -0.59375 "/></g></g><g transform="translate(95.624997, 84.749998)"><g><path d="M 5.015625 -0.921875 C 4.554688 -0.222656 3.925781 0.125 3.125 0.125 C 2.320312 0.125 1.6875 -0.140625 1.21875 -0.671875 C 0.75 -1.203125 0.515625 -1.910156 0.515625 -2.796875 C 0.515625 -3.890625 0.753906 -4.707031 1.234375 -5.25 C 1.710938 -5.789062 2.375 -6.0625 3.21875 -6.0625 C 3.851562 -6.0625 4.398438 -5.84375 4.859375 -5.40625 L 4.859375 -7.5625 C 4.859375 -7.84375 4.828125 -8.023438 4.765625 -8.109375 C 4.710938 -8.203125 4.578125 -8.25 4.359375 -8.25 L 3.9375 -8.25 L 3.9375 -8.890625 C 4.320312 -8.890625 4.625 -8.914062 4.84375 -8.96875 C 5.0625 -9.03125 5.21875 -9.070312 5.3125 -9.09375 C 5.40625 -9.125 5.503906 -9.140625 5.609375 -9.140625 C 5.816406 -9.140625 5.953125 -9.078125 6.015625 -8.953125 C 6.085938 -8.835938 6.125 -8.648438 6.125 -8.390625 L 6.125 -1.5625 C 6.125 -1.175781 6.140625 -0.941406 6.171875 -0.859375 C 6.234375 -0.679688 6.390625 -0.59375 6.640625 -0.59375 C 6.773438 -0.59375 6.890625 -0.613281 6.984375 -0.65625 L 6.984375 -0.09375 C 6.796875 0.0507812 6.539062 0.125 6.21875 0.125 C 5.570312 0.125 5.171875 -0.222656 5.015625 -0.921875 Z M 2.65625 -0.78125 C 2.84375 -0.65625 3.070312 -0.59375 3.34375 -0.59375 C 3.851562 -0.59375 4.234375 -0.804688 4.484375 -1.234375 C 4.742188 -1.660156 4.875 -2.257812 4.875 -3.03125 C 4.875 -4.15625 4.578125 -4.878906 3.984375 -5.203125 C 3.796875 -5.304688 3.585938 -5.359375 3.359375 -5.359375 C 2.890625 -5.359375 2.523438 -5.144531 2.265625 -4.71875 C 2.003906 -4.289062 1.875 -3.726562 1.875 -3.03125 C 1.875 -1.894531 2.132812 -1.144531 2.65625 -0.78125 Z M 2.65625 -0.78125 "/></g></g><g transform="translate(102.761715, 84.749998)"><g><path d="M 6 -2.703125 L 1.921875 -2.703125 C 1.921875 -2.023438 2.082031 -1.503906 2.40625 -1.140625 C 2.726562 -0.773438 3.125 -0.59375 3.59375 -0.59375 C 4.21875 -0.59375 4.664062 -0.851562 4.9375 -1.375 L 5.8125 -1.375 C 5.71875 -0.957031 5.457031 -0.601562 5.03125 -0.3125 C 4.613281 -0.0195312 4.046875 0.125 3.328125 0.125 C 2.609375 0.125 1.988281 -0.0976562 1.46875 -0.546875 C 0.84375 -1.085938 0.53125 -1.84375 0.53125 -2.8125 C 0.53125 -3.78125 0.773438 -4.5625 1.265625 -5.15625 C 1.765625 -5.757812 2.484375 -6.0625 3.421875 -6.0625 C 4.640625 -6.0625 5.429688 -5.566406 5.796875 -4.578125 C 5.929688 -4.179688 6 -3.804688 6 -3.453125 C 6 -3.109375 6 -2.859375 6 -2.703125 Z M 4.640625 -3.578125 C 4.640625 -4.773438 4.234375 -5.375 3.421875 -5.375 C 2.960938 -5.375 2.601562 -5.195312 2.34375 -4.84375 C 2.09375 -4.488281 1.957031 -3.992188 1.9375 -3.359375 L 4.640625 -3.359375 C 4.640625 -3.429688 4.640625 -3.503906 4.640625 -3.578125 Z M 4.640625 -3.578125 "/></g></g></g></svg>