<svg xmlns="http://www.w3.org/2000/svg" xmlns:xlink="http://www.w3.org/1999/xlink" width="240" zoomAndPan="magnify" viewBox="0 0 180 89.999999" height="120" preserveAspectRatio="xMidYMid meet" version="1.0"><defs><g/><clipPath id="a2ea378ee7"><path d="M 53 3.003906 L 127 3.003906 L 127 77 L 53 77 Z M 53 3.003906 " clip-rule="nonzero"/></clipPath></defs><rect x="-18" width="216" fill="#ffffff" y="-9" height="107.999999" fill-opacity="1"/><g clip-path="url(#a2ea378ee7)"><path fill="#a8a8a8" d="M 93.652344 3.003906 C 79.914062 3.003906 76.347656 13.449219 75.152344 19.511719 C 76.796875 18.804688 80.851562 17.777344 82.570312 17.777344 L 82.640625 17.777344 C 86.867188 17.808594 88.183594 19.003906 89.03125 22.914062 C 89.652344 25.789062 89.972656 30.261719 89.957031 32.554688 C 89.941406 37.578125 88.730469 41.039062 87.835938 43.363281 L 87.546875 44.113281 C 87.332031 44.734375 87.070312 45.3125 86.839844 45.84375 C 86.609375 46.40625 86.40625 46.898438 86.261719 47.332031 C 87.15625 47.53125 87.863281 47.820312 88.339844 48.023438 L 88.613281 48.152344 C 88.703125 48.195312 88.789062 48.226562 88.859375 48.285156 C 90.433594 49.234375 89.957031 51.429688 89.957031 53.160156 C 89.957031 54.605469 90 60.347656 89.957031 65.816406 C 90.117188 68.183594 90.722656 70.171875 91.242188 71.628906 C 92.003906 73.679688 93.722656 76.722656 97.34375 76.882812 C 100.203125 77.011719 104.328125 75.511719 104.734375 69.507812 L 104.734375 54.734375 C 105.007812 49.796875 110.664062 47.835938 112.121094 46.753906 C 111.917969 46.480469 111.140625 44.070312 110.316406 42.785156 L 110.160156 42.484375 C 110.042969 42.195312 109.738281 41.675781 109.363281 40.980469 C 107.1875 37.027344 102.625 26.882812 105.742188 21.6875 C 107.097656 19.410156 108.425781 18.097656 112.121094 17.777344 C 110.621094 13.492188 106.464844 3.21875 93.652344 3.003906 Z M 69.410156 3.003906 C 62.496094 3.261719 53.015625 7.546875 53.015625 21.515625 C 53.015625 30.980469 59.453125 58.414062 69.609375 58.414062 C 70.074219 58.414062 70.535156 58.253906 71.011719 58.007812 C 70.117188 57.230469 69.464844 56.21875 69.378906 54.890625 C 69.222656 52.207031 71.167969 50.316406 75.367188 49.25 C 75.570312 49.222656 76.636719 48.902344 78.988281 47.578125 C 77.75 47.042969 76.449219 46.320312 75.382812 45.210938 C 72.453125 42.152344 70.96875 37.863281 71.515625 34.011719 C 72.035156 30.261719 71.730469 26.582031 71.574219 24.617188 L 71.558594 24.429688 L 71.515625 23.78125 L 71.429688 22.425781 L 71.542969 18.789062 C 72.742188 12.640625 75.253906 7.878906 78.875 4.589844 C 76.132812 3.695312 72.683594 2.886719 69.410156 3.003906 Z M 108.179688 3.015625 C 107.472656 3.03125 106.8125 3.089844 106.160156 3.160156 C 109.871094 5.746094 113.273438 9.914062 115.597656 16.566406 L 115.757812 21.644531 C 115.773438 21.820312 115.800781 21.992188 115.828125 22.164062 C 115.945312 22.800781 116.089844 23.667969 115.972656 24.703125 C 115.828125 25.886719 115.683594 27.101562 115.640625 28.3125 C 115.613281 29.511719 115.773438 30.679688 115.945312 31.917969 C 116.261719 34.128906 116.089844 36.363281 115.394531 38.757812 L 114.3125 42.484375 C 114.601562 43.117188 114.875 43.765625 115.152344 44.445312 C 115.207031 44.617188 115.265625 44.746094 115.308594 44.863281 L 116.523438 46.539062 C 123.042969 40.792969 126.898438 28.773438 126.898438 16.394531 C 126.898438 14 126.246094 12.152344 125.410156 11.082031 C 120.460938 4.75 113.605469 2.929688 108.179688 3.015625 Z M 82.570312 21.472656 C 81.53125 21.472656 77.949219 22.324219 76.59375 22.902344 L 75.265625 23.464844 C 75.238281 23.492188 75.210938 23.523438 75.195312 23.550781 C 75.210938 23.753906 75.238281 23.996094 75.265625 24.300781 C 75.425781 26.421875 75.742188 30.363281 75.167969 34.53125 C 74.777344 37.273438 75.886719 40.390625 78.066406 42.65625 C 79.308594 43.953125 81.53125 44.804688 83.144531 45.167969 C 83.246094 44.90625 83.332031 44.691406 83.449219 44.402344 C 83.652344 43.910156 83.882812 43.390625 84.097656 42.8125 L 84.386719 42.035156 C 85.035156 40.347656 86.25 37.1875 86.261719 32.539062 C 86.277344 31.011719 86.105469 28.226562 85.785156 25.84375 C 85.742188 25.902344 85.714844 25.902344 85.683594 25.976562 C 85.136719 26.523438 84.285156 27.015625 83.347656 26.871094 C 81.816406 26.625 80.648438 24.761719 80.722656 24.070312 C 80.808594 23.390625 82.121094 23.03125 83.652344 23.277344 C 84.171875 23.363281 84.660156 23.523438 85.066406 23.695312 C 85.210938 23.808594 85.324219 23.882812 85.453125 23.96875 C 85.441406 23.882812 85.441406 23.78125 85.410156 23.695312 C 85.066406 22.0625 84.777344 21.761719 84.761719 21.746094 C 84.746094 21.734375 84.359375 21.488281 82.570312 21.472656 Z M 112.0625 21.515625 C 110.273438 21.734375 109.769531 22.207031 109.121094 23.261719 C 110.375 23.261719 111.285156 23.679688 111.386719 24.460938 C 111.484375 25.125 110.921875 25.757812 110.679688 26.003906 C 110.160156 26.496094 109.507812 26.824219 108.859375 26.898438 C 108.746094 26.925781 108.628906 26.925781 108.5 26.925781 C 108.46875 26.925781 108.457031 26.914062 108.425781 26.914062 C 108.644531 29.957031 110.015625 34.070312 111.847656 37.734375 C 112.351562 35.976562 112.554688 34.257812 112.292969 32.4375 C 112.105469 31.097656 111.90625 29.710938 111.949219 28.195312 C 112.003906 26.824219 112.148438 25.542969 112.292969 24.285156 C 112.410156 23.320312 112.035156 22.425781 112.0625 21.515625 Z M 120.171875 49.292969 C 119.882812 49.25 119.480469 49.277344 118.988281 49.378906 C 116.667969 49.855469 115.121094 49.984375 113.980469 49.914062 C 113.578125 50.1875 113.160156 50.449219 112.640625 50.738281 C 110.5625 51.875 108.714844 53.058594 108.46875 54.71875 L 108.46875 56.867188 C 110.910156 56.984375 114.167969 55.46875 116.046875 54.605469 C 119.582031 52.972656 122.234375 49.566406 120.171875 49.292969 Z M 81.960938 50.144531 C 79.929688 51.355469 77.632812 52.554688 76.105469 52.871094 C 70.679688 54.316406 74.039062 56.003906 75.960938 56.191406 C 78.007812 56.695312 83.03125 57.835938 86.261719 55.195312 C 86.261719 55.195312 86.261719 55.195312 86.261719 55.179688 L 86.261719 53.160156 C 86.261719 52.769531 86.277344 52.382812 86.304688 51.960938 C 86.304688 51.746094 86.320312 51.457031 86.320312 51.199219 C 86.074219 51.097656 85.773438 51.011719 85.441406 50.925781 Z M 81.960938 50.144531 " fill-opacity="1" fill-rule="nonzero"/></g><g fill="#a8a8a8" fill-opacity="1"><g transform="translate(59.988279, 84.750005)"><g><path d="M 4.125 0.125 C 3.476562 0.125 2.929688 -0.0976562 2.484375 -0.546875 L 2.484375 1.546875 C 2.484375 1.847656 2.546875 2.035156 2.671875 2.109375 C 2.804688 2.191406 3.140625 2.234375 3.671875 2.234375 L 3.671875 2.875 L 0.390625 2.875 L 0.390625 2.234375 C 0.722656 2.234375 0.929688 2.195312 1.015625 2.125 C 1.109375 2.050781 1.164062 1.972656 1.1875 1.890625 C 1.207031 1.816406 1.21875 1.722656 1.21875 1.609375 L 1.21875 -4.484375 C 1.21875 -4.765625 1.191406 -4.945312 1.140625 -5.03125 C 1.085938 -5.113281 0.953125 -5.15625 0.734375 -5.15625 L 0.328125 -5.15625 L 0.328125 -5.8125 C 0.710938 -5.8125 1.015625 -5.835938 1.234375 -5.890625 C 1.453125 -5.953125 1.609375 -5.992188 1.703125 -6.015625 C 1.796875 -6.035156 1.894531 -6.046875 2 -6.046875 C 2.207031 -6.046875 2.34375 -5.988281 2.40625 -5.875 C 2.46875 -5.757812 2.5 -5.566406 2.5 -5.296875 L 2.5 -5.28125 C 2.9375 -5.800781 3.53125 -6.0625 4.28125 -6.0625 C 5.039062 -6.0625 5.65625 -5.804688 6.125 -5.296875 C 6.59375 -4.785156 6.828125 -4.046875 6.828125 -3.078125 C 6.828125 -2.109375 6.582031 -1.332031 6.09375 -0.75 C 5.613281 -0.164062 4.957031 0.125 4.125 0.125 Z M 2.453125 -2.90625 C 2.453125 -2.1875 2.585938 -1.617188 2.859375 -1.203125 C 3.140625 -0.796875 3.515625 -0.59375 3.984375 -0.59375 C 4.441406 -0.59375 4.800781 -0.800781 5.0625 -1.21875 C 5.320312 -1.644531 5.453125 -2.210938 5.453125 -2.921875 C 5.453125 -4.046875 5.179688 -4.789062 4.640625 -5.15625 C 4.441406 -5.289062 4.207031 -5.359375 3.9375 -5.359375 C 3.675781 -5.359375 3.453125 -5.296875 3.265625 -5.171875 C 3.085938 -5.046875 2.9375 -4.875 2.8125 -4.65625 C 2.570312 -4.207031 2.453125 -3.625 2.453125 -2.90625 Z M 2.453125 -2.90625 "/></g></g><g transform="translate(67.318356, 84.750005)"><g><path d="M 0.53125 -3 C 0.53125 -3.46875 0.601562 -3.898438 0.75 -4.296875 C 0.894531 -4.691406 1.097656 -5.019531 1.359375 -5.28125 C 1.878906 -5.800781 2.566406 -6.0625 3.421875 -6.0625 C 4.285156 -6.0625 4.976562 -5.800781 5.5 -5.28125 C 6.03125 -4.757812 6.296875 -4.023438 6.296875 -3.078125 C 6.296875 -2.128906 6.050781 -1.359375 5.5625 -0.765625 C 5.070312 -0.171875 4.359375 0.125 3.421875 0.125 C 2.472656 0.125 1.753906 -0.160156 1.265625 -0.734375 C 0.773438 -1.304688 0.53125 -2.0625 0.53125 -3 Z M 3.421875 -0.59375 C 3.867188 -0.59375 4.234375 -0.796875 4.515625 -1.203125 C 4.804688 -1.617188 4.953125 -2.203125 4.953125 -2.953125 C 4.953125 -4.160156 4.644531 -4.914062 4.03125 -5.21875 C 3.84375 -5.3125 3.640625 -5.359375 3.421875 -5.359375 C 2.691406 -5.359375 2.21875 -4.921875 2 -4.046875 C 1.925781 -3.742188 1.890625 -3.390625 1.890625 -2.984375 C 1.890625 -2.210938 2.03125 -1.617188 2.3125 -1.203125 C 2.59375 -0.796875 2.960938 -0.59375 3.421875 -0.59375 Z M 3.421875 -0.59375 "/></g></g><g transform="translate(74.144528, 84.750005)"><g><path d="M 3.734375 -5.15625 C 3.535156 -5.363281 3.207031 -5.46875 2.75 -5.46875 C 2.300781 -5.46875 2 -5.300781 1.84375 -4.96875 C 1.800781 -4.875 1.78125 -4.765625 1.78125 -4.640625 C 1.78125 -4.523438 1.828125 -4.410156 1.921875 -4.296875 C 2.015625 -4.191406 2.132812 -4.085938 2.28125 -3.984375 C 2.425781 -3.890625 2.59375 -3.796875 2.78125 -3.703125 C 2.96875 -3.609375 3.160156 -3.503906 3.359375 -3.390625 C 3.554688 -3.285156 3.765625 -3.171875 3.984375 -3.046875 C 4.804688 -2.597656 5.21875 -2.101562 5.21875 -1.5625 C 5.21875 -1.019531 5.003906 -0.601562 4.578125 -0.3125 C 4.160156 -0.0195312 3.601562 0.125 2.90625 0.125 C 2.207031 0.125 1.628906 0 1.171875 -0.25 C 0.722656 -0.507812 0.5 -0.832031 0.5 -1.21875 C 0.5 -1.4375 0.566406 -1.617188 0.703125 -1.765625 C 0.847656 -1.921875 1.03125 -2 1.25 -2 C 1.476562 -2 1.660156 -1.925781 1.796875 -1.78125 C 1.941406 -1.644531 2.015625 -1.476562 2.015625 -1.28125 C 2.015625 -1.09375 1.953125 -0.929688 1.828125 -0.796875 C 2.140625 -0.617188 2.523438 -0.53125 2.984375 -0.53125 C 3.453125 -0.53125 3.78125 -0.640625 3.96875 -0.859375 C 4.039062 -0.941406 4.078125 -1.050781 4.078125 -1.1875 C 4.078125 -1.507812 3.71875 -1.847656 3 -2.203125 C 2.5 -2.453125 2.125 -2.644531 1.875 -2.78125 C 1.070312 -3.238281 0.671875 -3.785156 0.671875 -4.421875 C 0.671875 -4.910156 0.875 -5.300781 1.28125 -5.59375 C 1.695312 -5.894531 2.21875 -6.046875 2.84375 -6.046875 C 3.476562 -6.046875 4.007812 -5.925781 4.4375 -5.6875 C 4.875 -5.457031 5.09375 -5.15625 5.09375 -4.78125 C 5.09375 -4.5625 5.039062 -4.398438 4.9375 -4.296875 C 4.75 -4.109375 4.570312 -4.015625 4.40625 -4.015625 C 4.132812 -4.015625 3.925781 -4.082031 3.78125 -4.21875 C 3.644531 -4.363281 3.578125 -4.523438 3.578125 -4.703125 C 3.578125 -4.878906 3.628906 -5.03125 3.734375 -5.15625 Z M 3.734375 -5.15625 "/></g></g><g transform="translate(79.851559, 84.750005)"><g><path d="M 2.921875 0.125 C 1.691406 0.125 1.078125 -0.5625 1.078125 -1.9375 L 1.078125 -4.859375 C 1.078125 -5.015625 1.054688 -5.113281 1.015625 -5.15625 C 0.984375 -5.207031 0.90625 -5.234375 0.78125 -5.234375 L 0.3125 -5.234375 L 0.3125 -5.9375 L 0.515625 -5.9375 C 0.816406 -5.9375 1.035156 -6.03125 1.171875 -6.21875 C 1.316406 -6.40625 1.394531 -6.71875 1.40625 -7.15625 L 1.40625 -7.671875 L 2.34375 -7.671875 L 2.34375 -5.9375 L 4.140625 -5.9375 L 4.140625 -5.234375 L 2.34375 -5.234375 L 2.34375 -1.953125 C 2.34375 -1.222656 2.507812 -0.789062 2.84375 -0.65625 C 2.9375 -0.613281 3.03125 -0.59375 3.125 -0.59375 C 3.539062 -0.59375 3.8125 -0.929688 3.9375 -1.609375 L 4.609375 -1.609375 C 4.566406 -0.804688 4.234375 -0.273438 3.609375 -0.015625 C 3.410156 0.078125 3.179688 0.125 2.921875 0.125 Z M 2.921875 0.125 "/></g></g><g transform="translate(84.755856, 84.750005)"><g><path d="M 4.84375 -5.609375 C 5.1875 -6.015625 5.632812 -6.21875 6.1875 -6.21875 C 6.375 -6.21875 6.539062 -6.144531 6.6875 -6 C 6.832031 -5.863281 6.90625 -5.691406 6.90625 -5.484375 C 6.90625 -5.285156 6.84375 -5.125 6.71875 -5 C 6.59375 -4.882812 6.441406 -4.828125 6.265625 -4.828125 C 6.097656 -4.828125 5.953125 -4.875 5.828125 -4.96875 C 5.710938 -5.070312 5.648438 -5.222656 5.640625 -5.421875 C 5.503906 -5.367188 5.375 -5.289062 5.25 -5.1875 C 5.488281 -4.84375 5.609375 -4.457031 5.609375 -4.03125 C 5.609375 -3.601562 5.539062 -3.253906 5.40625 -2.984375 C 5.28125 -2.710938 5.101562 -2.484375 4.875 -2.296875 C 4.65625 -2.109375 4.394531 -1.960938 4.09375 -1.859375 C 3.800781 -1.765625 3.535156 -1.71875 3.296875 -1.71875 C 3.054688 -1.71875 2.878906 -1.722656 2.765625 -1.734375 C 2.484375 -1.671875 2.289062 -1.550781 2.1875 -1.375 C 2.164062 -1.332031 2.15625 -1.28125 2.15625 -1.21875 C 2.15625 -1.101562 2.257812 -1.019531 2.46875 -0.96875 C 2.675781 -0.914062 3.023438 -0.867188 3.515625 -0.828125 C 4.015625 -0.796875 4.425781 -0.75 4.75 -0.6875 C 5.070312 -0.632812 5.347656 -0.546875 5.578125 -0.421875 C 6.078125 -0.160156 6.328125 0.28125 6.328125 0.90625 C 6.328125 1.539062 6.019531 2.046875 5.40625 2.421875 C 4.789062 2.796875 4.039062 2.984375 3.15625 2.984375 C 1.769531 2.984375 0.898438 2.628906 0.546875 1.921875 C 0.441406 1.710938 0.390625 1.476562 0.390625 1.21875 C 0.390625 0.550781 0.796875 0.0078125 1.609375 -0.40625 C 1.328125 -0.5625 1.1875 -0.8125 1.1875 -1.15625 C 1.1875 -1.5 1.40625 -1.769531 1.84375 -1.96875 C 1.476562 -2.113281 1.1875 -2.363281 0.96875 -2.71875 C 0.757812 -3.082031 0.65625 -3.453125 0.65625 -3.828125 C 0.65625 -4.523438 0.90625 -5.070312 1.40625 -5.46875 C 1.914062 -5.863281 2.507812 -6.0625 3.1875 -6.0625 C 3.875 -6.0625 4.425781 -5.910156 4.84375 -5.609375 Z M 3.15625 -2.390625 C 3.675781 -2.390625 4.035156 -2.660156 4.234375 -3.203125 C 4.304688 -3.390625 4.34375 -3.625 4.34375 -3.90625 C 4.34375 -4.414062 4.226562 -4.796875 4 -5.046875 C 3.769531 -5.296875 3.488281 -5.421875 3.15625 -5.421875 C 2.613281 -5.421875 2.242188 -5.144531 2.046875 -4.59375 C 1.972656 -4.394531 1.9375 -4.15625 1.9375 -3.875 C 1.9375 -3.375 2.054688 -3 2.296875 -2.75 C 2.546875 -2.507812 2.832031 -2.390625 3.15625 -2.390625 Z M 2.234375 -0.03125 C 1.847656 0.175781 1.65625 0.53125 1.65625 1.03125 C 1.65625 1.4375 1.816406 1.742188 2.140625 1.953125 C 2.472656 2.171875 2.90625 2.28125 3.4375 2.28125 C 4.28125 2.28125 4.832031 2.0625 5.09375 1.625 C 5.1875 1.476562 5.234375 1.320312 5.234375 1.15625 C 5.234375 0.59375 4.75 0.265625 3.78125 0.171875 C 3.46875 0.140625 3.175781 0.109375 2.90625 0.078125 C 2.644531 0.0546875 2.421875 0.0195312 2.234375 -0.03125 Z M 2.234375 -0.03125 "/></g></g><g transform="translate(91.617183, 84.750005)"><g><path d="M 0.484375 -0.640625 C 0.816406 -0.640625 1.023438 -0.671875 1.109375 -0.734375 C 1.203125 -0.804688 1.253906 -0.878906 1.265625 -0.953125 C 1.285156 -1.035156 1.296875 -1.140625 1.296875 -1.265625 L 1.296875 -4.484375 C 1.296875 -4.765625 1.269531 -4.945312 1.21875 -5.03125 C 1.175781 -5.125 1.046875 -5.171875 0.828125 -5.171875 L 0.46875 -5.171875 L 0.46875 -5.8125 C 0.84375 -5.8125 1.128906 -5.835938 1.328125 -5.890625 C 1.535156 -5.953125 1.679688 -5.992188 1.765625 -6.015625 C 1.859375 -6.046875 1.957031 -6.0625 2.0625 -6.0625 C 2.257812 -6.0625 2.390625 -6 2.453125 -5.875 C 2.523438 -5.757812 2.5625 -5.570312 2.5625 -5.3125 L 2.5625 -5.1875 C 2.894531 -5.582031 3.273438 -5.847656 3.703125 -5.984375 C 3.859375 -6.035156 4.007812 -6.0625 4.15625 -6.0625 C 4.445312 -6.0625 4.675781 -5.976562 4.84375 -5.8125 C 5.007812 -5.644531 5.09375 -5.4375 5.09375 -5.1875 C 5.09375 -4.9375 5.015625 -4.734375 4.859375 -4.578125 C 4.703125 -4.421875 4.507812 -4.34375 4.28125 -4.34375 C 4.0625 -4.34375 3.878906 -4.421875 3.734375 -4.578125 C 3.597656 -4.734375 3.535156 -4.929688 3.546875 -5.171875 C 3.390625 -5.148438 3.21875 -5.078125 3.03125 -4.953125 C 2.851562 -4.828125 2.695312 -4.660156 2.5625 -4.453125 L 2.5625 -1.3125 C 2.5625 -1.164062 2.570312 -1.046875 2.59375 -0.953125 C 2.625 -0.867188 2.691406 -0.796875 2.796875 -0.734375 C 2.910156 -0.671875 3.25 -0.640625 3.8125 -0.640625 L 3.8125 0 L 0.484375 0 Z M 0.484375 -0.640625 "/></g></g><g transform="translate(96.873042, 84.750005)"><g><path d="M 6 -2.703125 L 1.921875 -2.703125 C 1.921875 -2.023438 2.082031 -1.503906 2.40625 -1.140625 C 2.726562 -0.773438 3.125 -0.59375 3.59375 -0.59375 C 4.21875 -0.59375 4.664062 -0.851562 4.9375 -1.375 L 5.8125 -1.375 C 5.71875 -0.957031 5.457031 -0.601562 5.03125 -0.3125 C 4.613281 -0.0195312 4.046875 0.125 3.328125 0.125 C 2.609375 0.125 1.988281 -0.0976562 1.46875 -0.546875 C 0.84375 -1.085938 0.53125 -1.84375 0.53125 -2.8125 C 0.53125 -3.78125 0.773438 -4.5625 1.265625 -5.15625 C 1.765625 -5.757812 2.484375 -6.0625 3.421875 -6.0625 C 4.640625 -6.0625 5.429688 -5.566406 5.796875 -4.578125 C 5.929688 -4.179688 6 -3.804688 6 -3.453125 C 6 -3.109375 6 -2.859375 6 -2.703125 Z M 4.640625 -3.578125 C 4.640625 -4.773438 4.234375 -5.375 3.421875 -5.375 C 2.960938 -5.375 2.601562 -5.195312 2.34375 -4.84375 C 2.09375 -4.488281 1.957031 -3.992188 1.9375 -3.359375 L 4.640625 -3.359375 C 4.640625 -3.429688 4.640625 -3.503906 4.640625 -3.578125 Z M 4.640625 -3.578125 "/></g></g><g transform="translate(103.412105, 84.750005)"><g><path d="M 3.734375 -5.15625 C 3.535156 -5.363281 3.207031 -5.46875 2.75 -5.46875 C 2.300781 -5.46875 2 -5.300781 1.84375 -4.96875 C 1.800781 -4.875 1.78125 -4.765625 1.78125 -4.640625 C 1.78125 -4.523438 1.828125 -4.410156 1.921875 -4.296875 C 2.015625 -4.191406 2.132812 -4.085938 2.28125 -3.984375 C 2.425781 -3.890625 2.59375 -3.796875 2.78125 -3.703125 C 2.96875 -3.609375 3.160156 -3.503906 3.359375 -3.390625 C 3.554688 -3.285156 3.765625 -3.171875 3.984375 -3.046875 C 4.804688 -2.597656 5.21875 -2.101562 5.21875 -1.5625 C 5.21875 -1.019531 5.003906 -0.601562 4.578125 -0.3125 C 4.160156 -0.0195312 3.601562 0.125 2.90625 0.125 C 2.207031 0.125 1.628906 0 1.171875 -0.25 C 0.722656 -0.507812 0.5 -0.832031 0.5 -1.21875 C 0.5 -1.4375 0.566406 -1.617188 0.703125 -1.765625 C 0.847656 -1.921875 1.03125 -2 1.25 -2 C 1.476562 -2 1.660156 -1.925781 1.796875 -1.78125 C 1.941406 -1.644531 2.015625 -1.476562 2.015625 -1.28125 C 2.015625 -1.09375 1.953125 -0.929688 1.828125 -0.796875 C 2.140625 -0.617188 2.523438 -0.53125 2.984375 -0.53125 C 3.453125 -0.53125 3.78125 -0.640625 3.96875 -0.859375 C 4.039062 -0.941406 4.078125 -1.050781 4.078125 -1.1875 C 4.078125 -1.507812 3.71875 -1.847656 3 -2.203125 C 2.5 -2.453125 2.125 -2.644531 1.875 -2.78125 C 1.070312 -3.238281 0.671875 -3.785156 0.671875 -4.421875 C 0.671875 -4.910156 0.875 -5.300781 1.28125 -5.59375 C 1.695312 -5.894531 2.21875 -6.046875 2.84375 -6.046875 C 3.476562 -6.046875 4.007812 -5.925781 4.4375 -5.6875 C 4.875 -5.457031 5.09375 -5.15625 5.09375 -4.78125 C 5.09375 -4.5625 5.039062 -4.398438 4.9375 -4.296875 C 4.75 -4.109375 4.570312 -4.015625 4.40625 -4.015625 C 4.132812 -4.015625 3.925781 -4.082031 3.78125 -4.21875 C 3.644531 -4.363281 3.578125 -4.523438 3.578125 -4.703125 C 3.578125 -4.878906 3.628906 -5.03125 3.734375 -5.15625 Z M 3.734375 -5.15625 "/></g></g><g transform="translate(109.119136, 84.750005)"><g><path d="M 4.859375 -0.71875 C 4.441406 -0.15625 3.847656 0.125 3.078125 0.125 C 2.304688 0.125 1.6875 -0.144531 1.21875 -0.6875 C 0.75 -1.226562 0.515625 -1.972656 0.515625 -2.921875 C 0.515625 -3.867188 0.753906 -4.628906 1.234375 -5.203125 C 1.710938 -5.773438 2.335938 -6.0625 3.109375 -6.0625 C 3.890625 -6.0625 4.515625 -5.789062 4.984375 -5.25 C 5.148438 -5.414062 5.234375 -5.644531 5.234375 -5.9375 L 6.125 -5.9375 L 6.125 1.609375 C 6.125 1.859375 6.171875 2.023438 6.265625 2.109375 C 6.367188 2.191406 6.59375 2.234375 6.9375 2.234375 L 6.9375 2.875 L 3.609375 2.875 L 3.609375 2.234375 C 4.160156 2.234375 4.492188 2.203125 4.609375 2.140625 C 4.722656 2.078125 4.789062 2 4.8125 1.90625 C 4.84375 1.820312 4.859375 1.703125 4.859375 1.546875 Z M 3.359375 -0.609375 C 3.867188 -0.609375 4.25 -0.828125 4.5 -1.265625 C 4.75 -1.703125 4.875 -2.285156 4.875 -3.015625 C 4.875 -3.742188 4.738281 -4.316406 4.46875 -4.734375 C 4.195312 -5.148438 3.828125 -5.359375 3.359375 -5.359375 C 2.890625 -5.359375 2.523438 -5.144531 2.265625 -4.71875 C 2.003906 -4.289062 1.875 -3.726562 1.875 -3.03125 C 1.875 -1.90625 2.132812 -1.160156 2.65625 -0.796875 C 2.84375 -0.671875 3.078125 -0.609375 3.359375 -0.609375 Z M 3.359375 -0.609375 "/></g></g><g transform="translate(116.144526, 84.750005)"><g><path d="M 0.40625 -0.640625 C 0.75 -0.640625 0.984375 -0.6875 1.109375 -0.78125 C 1.234375 -0.875 1.296875 -1.035156 1.296875 -1.265625 L 1.296875 -7.625 C 1.296875 -7.90625 1.269531 -8.085938 1.21875 -8.171875 C 1.175781 -8.253906 1.046875 -8.296875 0.828125 -8.296875 L 0.359375 -8.296875 L 0.359375 -8.9375 C 0.742188 -8.9375 1.046875 -8.960938 1.265625 -9.015625 C 1.492188 -9.078125 1.65625 -9.117188 1.75 -9.140625 C 1.851562 -9.171875 1.957031 -9.1875 2.0625 -9.1875 C 2.257812 -9.1875 2.390625 -9.128906 2.453125 -9.015625 C 2.523438 -8.898438 2.5625 -8.707031 2.5625 -8.4375 L 2.5625 -1.265625 C 2.5625 -1.023438 2.613281 -0.859375 2.71875 -0.765625 C 2.820312 -0.679688 3.066406 -0.640625 3.453125 -0.640625 L 3.453125 0 L 0.40625 0 Z M 0.40625 -0.640625 "/></g></g></g></svg>