<svg xmlns="http://www.w3.org/2000/svg" xmlns:xlink="http://www.w3.org/1999/xlink" width="240" zoomAndPan="magnify" viewBox="0 0 180 89.999999" height="120" preserveAspectRatio="xMidYMid meet" version="1.0"><defs><g/><clipPath id="d3176919d2"><path d="M 69 47 L 94 47 L 94 74.703125 L 69 74.703125 Z M 69 47 " clip-rule="nonzero"/></clipPath><clipPath id="170d8013b8"><path d="M 75 2.703125 L 97 2.703125 L 97 22 L 75 22 Z M 75 2.703125 " clip-rule="nonzero"/></clipPath></defs><rect x="-18" width="216" fill="#ffffff" y="-9" height="107.999999" fill-opacity="1"/><path fill="#a8a8a8" d="M 125.886719 38.566406 L 125.832031 38.542969 L 125.980469 38.691406 C 126.042969 38.691406 125.886719 38.566406 125.886719 38.566406 Z M 125.886719 38.566406 " fill-opacity="1" fill-rule="nonzero"/><path fill="#a8a8a8" d="M 123.816406 40.257812 L 123.816406 40.390625 L 124.101562 40.511719 Z M 123.816406 40.257812 " fill-opacity="1" fill-rule="nonzero"/><path fill="#a8a8a8" d="M 98.800781 51.53125 L 98.800781 51.542969 C 98.839844 51.5625 98.820312 51.546875 98.800781 51.53125 Z M 98.800781 51.53125 " fill-opacity="1" fill-rule="nonzero"/><path fill="#a8a8a8" d="M 62.230469 47.644531 L 70.578125 44.09375 L 70.671875 44.066406 L 55.605469 40.917969 Z M 62.230469 47.644531 " fill-opacity="1" fill-rule="nonzero"/><path fill="#a8a8a8" d="M 74.660156 39.644531 C 74.824219 39.644531 74.988281 39.652344 75.152344 39.667969 L 75.132812 39.664062 C 75.289062 39.644531 75.46875 39.628906 75.648438 39.628906 C 75.832031 39.628906 76.011719 39.644531 76.1875 39.667969 L 76.164062 39.664062 L 84.390625 26.867188 C 83.769531 26.230469 83.390625 25.355469 83.386719 24.390625 C 83.371094 24.269531 83.367188 24.125 83.367188 23.984375 C 83.367188 23.84375 83.375 23.699219 83.390625 23.558594 L 83.386719 23.578125 L 73.402344 18.957031 L 65.367188 26.78125 L 74.1875 39.664062 C 74.328125 39.648438 74.496094 39.644531 74.660156 39.644531 Z M 74.660156 39.644531 " fill-opacity="1" fill-rule="nonzero"/><path fill="#a8a8a8" d="M 102.480469 27.941406 L 104.203125 17.257812 L 97.800781 10.53125 L 90.265625 22.125 L 90.265625 22.285156 C 90.59375 22.777344 90.816406 23.363281 90.890625 23.996094 L 90.894531 24.011719 L 101.40625 28.472656 C 101.710938 28.238281 102.066406 28.058594 102.453125 27.945312 Z M 102.480469 27.941406 " fill-opacity="1" fill-rule="nonzero"/><path fill="#a8a8a8" d="M 123.984375 40.519531 L 106.183594 32.90625 C 105.6875 33.566406 104.941406 34.019531 104.09375 34.128906 L 104.078125 34.132812 L 102.132812 46.042969 C 102.6875 46.613281 103.039062 47.390625 103.042969 48.242188 L 113.964844 50.539062 L 123.980469 40.574219 L 123.980469 40.519531 Z M 123.984375 40.519531 " fill-opacity="1" fill-rule="nonzero"/><path fill="#a8a8a8" d="M 114.882812 27.53125 L 107.21875 30.675781 L 126 38.667969 Z M 114.882812 27.53125 " fill-opacity="1" fill-rule="nonzero"/><path fill="#a8a8a8" d="M 71.457031 41.957031 L 71.460938 41.957031 C 71.667969 41.574219 71.910156 41.246094 72.1875 40.949219 L 72.183594 40.953125 L 63.859375 28.507812 L 54 38.09375 Z M 71.457031 41.957031 " fill-opacity="1" fill-rule="nonzero"/><path fill="#a8a8a8" d="M 100.339844 31.019531 C 100.332031 30.953125 100.332031 30.875 100.332031 30.796875 C 100.332031 30.707031 100.332031 30.625 100.34375 30.539062 L 100.34375 30.550781 C 100.347656 30.539062 100.347656 30.53125 100.347656 30.523438 C 100.347656 30.488281 100.332031 30.453125 100.3125 30.425781 L 90.484375 26.242188 C 89.832031 27.230469 88.722656 27.878906 87.464844 27.878906 C 87.421875 27.878906 87.378906 27.878906 87.339844 27.875 L 86.75 27.875 L 78.621094 40.449219 Z M 100.339844 31.019531 " fill-opacity="1" fill-rule="nonzero"/><path fill="#a8a8a8" d="M 64.019531 49.1875 L 67.722656 52.863281 L 71.929688 46.328125 L 71.648438 46.042969 Z M 64.019531 49.1875 " fill-opacity="1" fill-rule="nonzero"/><path fill="#a8a8a8" d="M 102.632812 50.441406 C 102.273438 50.898438 101.808594 51.253906 101.269531 51.46875 L 101.25 51.476562 L 98.960938 65.6875 L 112.300781 52.453125 C 112.300781 52.453125 112.269531 52.511719 112.238281 52.511719 L 112.238281 52.421875 Z M 102.632812 50.441406 " fill-opacity="1" fill-rule="nonzero"/><path fill="#a8a8a8" d="M 104.925781 28.226562 C 105.277344 28.40625 105.578125 28.636719 105.832031 28.914062 L 105.835938 28.917969 L 112.898438 25.769531 L 106.308594 19.238281 L 104.832031 28.128906 Z M 104.925781 28.226562 " fill-opacity="1" fill-rule="nonzero"/><g clip-path="url(#d3176919d2)"><path fill="#a8a8a8" d="M 89.699219 74.703125 L 93.277344 71.152344 L 77.042969 47.613281 C 76.550781 47.847656 75.964844 47.984375 75.351562 47.988281 C 75.347656 47.988281 75.339844 47.988281 75.335938 47.988281 C 74.859375 47.988281 74.394531 47.90625 73.96875 47.761719 L 74 47.769531 L 69.355469 54.527344 Z M 89.699219 74.703125 " fill-opacity="1" fill-rule="nonzero"/></g><path fill="#a8a8a8" d="M 79.121094 42.902344 C 79.222656 43.058594 79.324219 43.242188 79.417969 43.433594 L 79.433594 43.46875 L 97.109375 47.113281 C 97.617188 46.230469 98.523438 45.628906 99.574219 45.539062 L 99.585938 45.539062 L 101.503906 33.820312 L 101.097656 33.476562 Z M 79.121094 42.902344 " fill-opacity="1" fill-rule="nonzero"/><g clip-path="url(#170d8013b8)"><path fill="#a8a8a8" d="M 89.855469 2.703125 L 75.101562 17.191406 C 75.101562 17.191406 75.070312 17.347656 75.101562 17.378906 L 84.835938 21.527344 C 85.476562 20.996094 86.304688 20.675781 87.207031 20.675781 C 87.257812 20.675781 87.304688 20.675781 87.351562 20.679688 L 87.347656 20.679688 C 87.773438 20.683594 88.1875 20.75 88.570312 20.878906 L 88.539062 20.867188 L 96.136719 8.988281 Z M 89.855469 2.703125 " fill-opacity="1" fill-rule="nonzero"/></g><path fill="#a8a8a8" d="M 96.957031 49.332031 L 96.949219 49.3125 L 79.058594 45.632812 L 78.804688 46.042969 L 95.039062 69.554688 L 96.011719 68.578125 L 98.773438 51.511719 C 98.773438 51.511719 98.792969 51.523438 98.804688 51.53125 L 98.804688 51.449219 C 97.886719 51.066406 97.203125 50.285156 96.957031 49.332031 Z M 96.957031 49.332031 " fill-opacity="1" fill-rule="nonzero"/><g fill="#a8a8a8" fill-opacity="1"><g transform="translate(70.863278, 84.750012)"><g><path d="M 4.109375 -5.1875 C 3.472656 -5.1875 2.957031 -4.984375 2.5625 -4.578125 L 2.5625 -1.265625 C 2.5625 -1.015625 2.597656 -0.859375 2.671875 -0.796875 C 2.804688 -0.691406 3.066406 -0.640625 3.453125 -0.640625 L 3.453125 0 L 0.46875 0 L 0.46875 -0.640625 C 0.800781 -0.640625 1.007812 -0.671875 1.09375 -0.734375 C 1.1875 -0.804688 1.242188 -0.878906 1.265625 -0.953125 C 1.285156 -1.035156 1.296875 -1.140625 1.296875 -1.265625 L 1.296875 -4.453125 C 1.296875 -4.734375 1.269531 -4.914062 1.21875 -5 C 1.164062 -5.09375 1.03125 -5.140625 0.8125 -5.140625 L 0.453125 -5.140625 L 0.453125 -5.78125 C 0.828125 -5.78125 1.117188 -5.804688 1.328125 -5.859375 C 1.535156 -5.921875 1.679688 -5.960938 1.765625 -5.984375 C 1.859375 -6.015625 1.953125 -6.03125 2.046875 -6.03125 C 2.253906 -6.03125 2.390625 -5.96875 2.453125 -5.84375 C 2.523438 -5.726562 2.5625 -5.539062 2.5625 -5.28125 C 2.976562 -5.625 3.460938 -5.859375 4.015625 -5.984375 C 4.191406 -6.023438 4.367188 -6.046875 4.546875 -6.046875 C 5.816406 -6.046875 6.453125 -5.210938 6.453125 -3.546875 L 6.453125 -1.265625 C 6.453125 -1.015625 6.488281 -0.847656 6.5625 -0.765625 C 6.632812 -0.679688 6.835938 -0.640625 7.171875 -0.640625 L 7.171875 0 L 4.390625 0 L 4.390625 -0.640625 C 4.742188 -0.640625 4.957031 -0.675781 5.03125 -0.75 C 5.101562 -0.820312 5.144531 -0.894531 5.15625 -0.96875 C 5.175781 -1.050781 5.1875 -1.148438 5.1875 -1.265625 L 5.1875 -3.46875 C 5.1875 -4.007812 5.132812 -4.378906 5.03125 -4.578125 C 4.832031 -4.984375 4.523438 -5.1875 4.109375 -5.1875 Z M 4.109375 -5.1875 "/></g></g><g transform="translate(78.369137, 84.750012)"><g><path d="M 6 -2.703125 L 1.921875 -2.703125 C 1.921875 -2.023438 2.082031 -1.503906 2.40625 -1.140625 C 2.726562 -0.773438 3.125 -0.59375 3.59375 -0.59375 C 4.21875 -0.59375 4.664062 -0.851562 4.9375 -1.375 L 5.8125 -1.375 C 5.71875 -0.957031 5.457031 -0.601562 5.03125 -0.3125 C 4.613281 -0.0195312 4.046875 0.125 3.328125 0.125 C 2.609375 0.125 1.988281 -0.0976562 1.46875 -0.546875 C 0.84375 -1.085938 0.53125 -1.84375 0.53125 -2.8125 C 0.53125 -3.78125 0.773438 -4.5625 1.265625 -5.15625 C 1.765625 -5.757812 2.484375 -6.0625 3.421875 -6.0625 C 4.640625 -6.0625 5.429688 -5.566406 5.796875 -4.578125 C 5.929688 -4.179688 6 -3.804688 6 -3.453125 C 6 -3.109375 6 -2.859375 6 -2.703125 Z M 4.640625 -3.578125 C 4.640625 -4.773438 4.234375 -5.375 3.421875 -5.375 C 2.960938 -5.375 2.601562 -5.195312 2.34375 -4.84375 C 2.09375 -4.488281 1.957031 -3.992188 1.9375 -3.359375 L 4.640625 -3.359375 C 4.640625 -3.429688 4.640625 -3.503906 4.640625 -3.578125 Z M 4.640625 -3.578125 "/></g></g><g transform="translate(84.908199, 84.750012)"><g><path d="M 2.921875 0.125 C 1.691406 0.125 1.078125 -0.5625 1.078125 -1.9375 L 1.078125 -4.859375 C 1.078125 -5.015625 1.054688 -5.113281 1.015625 -5.15625 C 0.984375 -5.207031 0.90625 -5.234375 0.78125 -5.234375 L 0.3125 -5.234375 L 0.3125 -5.9375 L 0.515625 -5.9375 C 0.816406 -5.9375 1.035156 -6.03125 1.171875 -6.21875 C 1.316406 -6.40625 1.394531 -6.71875 1.40625 -7.15625 L 1.40625 -7.671875 L 2.34375 -7.671875 L 2.34375 -5.9375 L 4.140625 -5.9375 L 4.140625 -5.234375 L 2.34375 -5.234375 L 2.34375 -1.953125 C 2.34375 -1.222656 2.507812 -0.789062 2.84375 -0.65625 C 2.9375 -0.613281 3.03125 -0.59375 3.125 -0.59375 C 3.539062 -0.59375 3.8125 -0.929688 3.9375 -1.609375 L 4.609375 -1.609375 C 4.566406 -0.804688 4.234375 -0.273438 3.609375 -0.015625 C 3.410156 0.078125 3.179688 0.125 2.921875 0.125 Z M 2.921875 0.125 "/></g></g><g transform="translate(89.812496, 84.750012)"><g><path d="M 0.40625 -0.640625 C 0.75 -0.640625 0.984375 -0.6875 1.109375 -0.78125 C 1.234375 -0.875 1.296875 -1.035156 1.296875 -1.265625 L 1.296875 -7.625 C 1.296875 -7.90625 1.269531 -8.085938 1.21875 -8.171875 C 1.175781 -8.253906 1.046875 -8.296875 0.828125 -8.296875 L 0.359375 -8.296875 L 0.359375 -8.9375 C 0.742188 -8.9375 1.046875 -8.960938 1.265625 -9.015625 C 1.492188 -9.078125 1.65625 -9.117188 1.75 -9.140625 C 1.851562 -9.171875 1.957031 -9.1875 2.0625 -9.1875 C 2.257812 -9.1875 2.390625 -9.128906 2.453125 -9.015625 C 2.523438 -8.898438 2.5625 -8.707031 2.5625 -8.4375 L 2.5625 -1.265625 C 2.5625 -1.023438 2.613281 -0.859375 2.71875 -0.765625 C 2.820312 -0.679688 3.066406 -0.640625 3.453125 -0.640625 L 3.453125 0 L 0.40625 0 Z M 0.40625 -0.640625 "/></g></g><g transform="translate(93.679683, 84.750012)"><g><path d="M 1.96875 -7.140625 C 1.71875 -7.140625 1.503906 -7.222656 1.328125 -7.390625 C 1.148438 -7.566406 1.0625 -7.773438 1.0625 -8.015625 C 1.0625 -8.265625 1.148438 -8.476562 1.328125 -8.65625 C 1.503906 -8.832031 1.71875 -8.921875 1.96875 -8.921875 C 2.21875 -8.921875 2.429688 -8.832031 2.609375 -8.65625 C 2.796875 -8.476562 2.890625 -8.265625 2.890625 -8.015625 C 2.890625 -7.773438 2.800781 -7.566406 2.625 -7.390625 C 2.445312 -7.222656 2.226562 -7.140625 1.96875 -7.140625 Z M 0.484375 -0.640625 C 0.847656 -0.640625 1.070312 -0.671875 1.15625 -0.734375 C 1.25 -0.804688 1.304688 -0.878906 1.328125 -0.953125 C 1.347656 -1.035156 1.359375 -1.140625 1.359375 -1.265625 L 1.359375 -4.484375 C 1.359375 -4.765625 1.332031 -4.945312 1.28125 -5.03125 C 1.238281 -5.125 1.109375 -5.171875 0.890625 -5.171875 L 0.46875 -5.171875 L 0.46875 -5.8125 C 0.851562 -5.8125 1.15625 -5.835938 1.375 -5.890625 C 1.59375 -5.953125 1.742188 -5.992188 1.828125 -6.015625 C 1.921875 -6.046875 2.019531 -6.0625 2.125 -6.0625 C 2.332031 -6.0625 2.46875 -6 2.53125 -5.875 C 2.59375 -5.757812 2.625 -5.570312 2.625 -5.3125 L 2.625 -1.265625 C 2.625 -1.015625 2.664062 -0.859375 2.75 -0.796875 C 2.875 -0.691406 3.125 -0.640625 3.5 -0.640625 L 3.5 0 L 0.484375 0 Z M 0.484375 -0.640625 "/></g></g><g transform="translate(97.605464, 84.750012)"><g><path d="M 0.625 -0.640625 C 0.957031 -0.640625 1.164062 -0.671875 1.25 -0.734375 C 1.34375 -0.804688 1.394531 -0.878906 1.40625 -0.953125 C 1.425781 -1.035156 1.4375 -1.140625 1.4375 -1.265625 L 1.4375 -4.859375 C 1.4375 -5.015625 1.414062 -5.113281 1.375 -5.15625 C 1.34375 -5.207031 1.269531 -5.234375 1.15625 -5.234375 L 0.484375 -5.234375 L 0.484375 -5.9375 L 1.4375 -5.9375 L 1.4375 -6.53125 C 1.4375 -7.4375 1.65625 -8.15625 2.09375 -8.6875 C 2.53125 -9.226562 3.113281 -9.5 3.84375 -9.5 C 4.332031 -9.5 4.722656 -9.34375 5.015625 -9.03125 C 5.316406 -8.726562 5.46875 -8.378906 5.46875 -7.984375 C 5.46875 -7.597656 5.320312 -7.335938 5.03125 -7.203125 C 4.925781 -7.160156 4.820312 -7.140625 4.71875 -7.140625 C 4.507812 -7.140625 4.328125 -7.207031 4.171875 -7.34375 C 4.023438 -7.488281 3.953125 -7.644531 3.953125 -7.8125 C 3.953125 -8.144531 4.097656 -8.359375 4.390625 -8.453125 C 4.328125 -8.585938 4.238281 -8.6875 4.125 -8.75 C 4.019531 -8.820312 3.921875 -8.859375 3.828125 -8.859375 C 3.742188 -8.859375 3.660156 -8.847656 3.578125 -8.828125 C 3.492188 -8.816406 3.410156 -8.789062 3.328125 -8.75 C 2.921875 -8.507812 2.71875 -7.796875 2.71875 -6.609375 L 2.71875 -5.9375 L 4.484375 -5.9375 L 4.484375 -5.234375 L 2.71875 -5.234375 L 2.71875 -1.3125 C 2.71875 -1.019531 2.785156 -0.832031 2.921875 -0.75 C 3.054688 -0.675781 3.398438 -0.640625 3.953125 -0.640625 L 3.953125 0 L 0.625 0 Z M 0.625 -0.640625 "/></g></g><g transform="translate(102.380855, 84.750012)"><g><path d="M 1.6875 2.265625 C 1.78125 2.285156 1.863281 2.289062 1.9375 2.28125 C 2.007812 2.28125 2.09375 2.25 2.1875 2.1875 C 2.28125 2.125 2.375 2.039062 2.46875 1.9375 C 2.632812 1.738281 2.78125 1.492188 2.90625 1.203125 C 3.039062 0.921875 3.109375 0.695312 3.109375 0.53125 C 3.109375 0.363281 3.085938 0.238281 3.046875 0.15625 C 3.003906 0.0703125 2.953125 0 2.890625 -0.0625 C 2.835938 -0.132812 2.78125 -0.203125 2.71875 -0.265625 C 2.65625 -0.328125 2.609375 -0.410156 2.578125 -0.515625 L 0.875 -4.671875 C 0.789062 -4.910156 0.703125 -5.070312 0.609375 -5.15625 C 0.523438 -5.25 0.332031 -5.296875 0.03125 -5.296875 L 0.03125 -5.9375 L 3.171875 -5.9375 L 3.171875 -5.296875 C 2.722656 -5.296875 2.453125 -5.257812 2.359375 -5.1875 C 2.265625 -5.113281 2.210938 -5.035156 2.203125 -4.953125 C 2.203125 -4.878906 2.222656 -4.785156 2.265625 -4.671875 L 3.734375 -0.6875 L 5.203125 -4.671875 C 5.296875 -4.898438 5.269531 -5.0625 5.125 -5.15625 C 4.976562 -5.25 4.671875 -5.296875 4.203125 -5.296875 L 4.203125 -5.9375 L 6.9375 -5.9375 L 6.9375 -5.296875 C 6.675781 -5.296875 6.476562 -5.242188 6.34375 -5.140625 C 6.21875 -5.035156 6.113281 -4.878906 6.03125 -4.671875 L 4.46875 -0.484375 C 4.332031 -0.171875 4.203125 0.128906 4.078125 0.421875 C 3.953125 0.710938 3.828125 0.988281 3.703125 1.25 C 3.429688 1.820312 3.132812 2.253906 2.8125 2.546875 C 2.488281 2.835938 2.109375 2.984375 1.671875 2.984375 C 1.242188 2.984375 0.910156 2.875 0.671875 2.65625 C 0.441406 2.445312 0.328125 2.203125 0.328125 1.921875 C 0.328125 1.648438 0.40625 1.429688 0.5625 1.265625 C 0.71875 1.097656 0.910156 1.015625 1.140625 1.015625 C 1.472656 1.015625 1.707031 1.164062 1.84375 1.46875 C 1.882812 1.550781 1.90625 1.644531 1.90625 1.75 C 1.90625 1.945312 1.832031 2.117188 1.6875 2.265625 Z M 1.6875 2.265625 "/></g></g></g></svg>