<svg xmlns="http://www.w3.org/2000/svg" xmlns:xlink="http://www.w3.org/1999/xlink" width="240" zoomAndPan="magnify" viewBox="0 0 180 89.999999" height="120" preserveAspectRatio="xMidYMid meet" version="1.0"><defs><g/><clipPath id="3313765926"><path d="M 57.507812 3.117188 L 122.757812 3.117188 L 122.757812 73.617188 L 57.507812 73.617188 Z M 57.507812 3.117188 " clip-rule="nonzero"/></clipPath><clipPath id="10afc23bf8"><path d="M 57.507812 47 L 73 47 L 73 57 L 57.507812 57 Z M 57.507812 47 " clip-rule="nonzero"/></clipPath><clipPath id="4c7bbf3e95"><path d="M 88 20 L 122.757812 20 L 122.757812 40 L 88 40 Z M 88 20 " clip-rule="nonzero"/></clipPath><clipPath id="ebc4c115bb"><path d="M 57.507812 20 L 92 20 L 92 40 L 57.507812 40 Z M 57.507812 20 " clip-rule="nonzero"/></clipPath><clipPath id="c92fede1b8"><path d="M 107 47 L 122.757812 47 L 122.757812 57 L 107 57 Z M 107 47 " clip-rule="nonzero"/></clipPath><clipPath id="39c6eb088b"><path d="M 88 36 L 92 36 L 92 73.617188 L 88 73.617188 Z M 88 36 " clip-rule="nonzero"/></clipPath><clipPath id="95bcf7e3a8"><path d="M 88 3.117188 L 92 3.117188 L 92 18 L 88 18 Z M 88 3.117188 " clip-rule="nonzero"/></clipPath></defs><rect x="-18" width="216" fill="#ffffff" y="-9" height="107.999999" fill-opacity="1"/><g clip-path="url(#3313765926)"><path fill="#a8a8a8" d="M 90.277344 73.488281 C 90.035156 73.488281 89.792969 73.425781 89.570312 73.308594 L 58.570312 56.480469 C 58.097656 56.222656 57.800781 55.730469 57.800781 55.195312 L 57.800781 21.539062 C 57.800781 21.003906 58.097656 20.511719 58.570312 20.257812 L 89.570312 3.429688 C 90.011719 3.191406 90.542969 3.191406 90.988281 3.429688 L 121.988281 20.257812 C 122.460938 20.511719 122.757812 21.003906 122.757812 21.539062 L 122.757812 55.195312 C 122.757812 55.730469 122.460938 56.222656 121.988281 56.480469 L 90.988281 73.308594 C 90.765625 73.425781 90.523438 73.488281 90.277344 73.488281 Z M 60.753906 54.332031 L 90.277344 70.355469 L 119.804688 54.332031 L 119.804688 22.40625 L 90.277344 6.378906 L 60.753906 22.40625 Z M 121.28125 55.195312 L 121.308594 55.195312 Z M 121.28125 55.195312 " fill-opacity="1" fill-rule="nonzero"/></g><g clip-path="url(#10afc23bf8)"><path fill="#a8a8a8" d="M 59.277344 56.660156 C 58.753906 56.660156 58.25 56.386719 57.984375 55.898438 C 57.589844 55.191406 57.855469 54.300781 58.570312 53.910156 L 70.378906 47.503906 C 71.085938 47.117188 71.992188 47.371094 72.382812 48.082031 C 72.777344 48.789062 72.511719 49.679688 71.800781 50.070312 L 59.988281 56.480469 C 59.761719 56.601562 59.519531 56.660156 59.277344 56.660156 Z M 59.277344 56.660156 " fill-opacity="1" fill-rule="nonzero"/></g><g clip-path="url(#4c7bbf3e95)"><path fill="#a8a8a8" d="M 90.277344 39.832031 C 89.757812 39.832031 89.25 39.554688 88.984375 39.070312 C 88.59375 38.363281 88.855469 37.472656 89.570312 37.082031 L 120.570312 20.253906 C 121.28125 19.867188 122.183594 20.125 122.574219 20.835938 C 122.96875 21.542969 122.707031 22.433594 121.992188 22.820312 L 90.988281 39.648438 C 90.761719 39.773438 90.519531 39.832031 90.277344 39.832031 Z M 90.277344 39.832031 " fill-opacity="1" fill-rule="nonzero"/></g><path fill="#a8a8a8" d="M 90.277344 61.78125 C 90.023438 61.78125 89.769531 61.71875 89.539062 61.585938 L 70.347656 50.609375 C 69.894531 50.351562 69.609375 49.867188 69.609375 49.34375 L 69.609375 27.394531 C 69.609375 26.871094 69.894531 26.386719 70.347656 26.125 L 89.539062 15.152344 C 89.996094 14.886719 90.5625 14.886719 91.015625 15.152344 L 110.207031 26.125 C 110.664062 26.386719 110.945312 26.871094 110.945312 27.394531 L 110.945312 49.34375 C 110.945312 49.867188 110.664062 50.351562 110.207031 50.609375 L 91.015625 61.585938 C 90.789062 61.71875 90.53125 61.78125 90.277344 61.78125 Z M 72.5625 48.496094 L 90.277344 58.628906 L 107.992188 48.496094 L 107.992188 28.238281 L 90.277344 18.105469 L 72.5625 28.238281 Z M 109.46875 49.34375 L 109.5 49.34375 Z M 109.46875 49.34375 " fill-opacity="1" fill-rule="nonzero"/><g clip-path="url(#ebc4c115bb)"><path fill="#a8a8a8" d="M 90.277344 39.832031 C 90.035156 39.832031 89.792969 39.773438 89.570312 39.648438 L 58.570312 22.820312 C 57.855469 22.433594 57.589844 21.546875 57.984375 20.835938 C 58.375 20.125 59.273438 19.867188 59.984375 20.257812 L 90.988281 37.085938 C 91.703125 37.476562 91.964844 38.367188 91.570312 39.074219 C 91.304688 39.554688 90.800781 39.832031 90.277344 39.832031 Z M 90.277344 39.832031 " fill-opacity="1" fill-rule="nonzero"/></g><g clip-path="url(#c92fede1b8)"><path fill="#a8a8a8" d="M 121.28125 56.660156 C 121.039062 56.660156 120.796875 56.601562 120.570312 56.480469 L 108.761719 50.070312 C 108.046875 49.679688 107.785156 48.789062 108.175781 48.082031 C 108.570312 47.371094 109.472656 47.117188 110.179688 47.503906 L 121.992188 53.910156 C 122.707031 54.300781 122.96875 55.191406 122.574219 55.898438 C 122.308594 56.386719 121.800781 56.660156 121.28125 56.660156 Z M 121.28125 56.660156 " fill-opacity="1" fill-rule="nonzero"/></g><g clip-path="url(#39c6eb088b)"><path fill="#a8a8a8" d="M 90.277344 73.488281 C 89.464844 73.488281 88.800781 72.832031 88.800781 72.023438 L 88.800781 38.367188 C 88.800781 37.558594 89.464844 36.90625 90.277344 36.90625 C 91.09375 36.90625 91.753906 37.558594 91.753906 38.367188 L 91.753906 72.023438 C 91.753906 72.832031 91.09375 73.488281 90.277344 73.488281 Z M 90.277344 73.488281 " fill-opacity="1" fill-rule="nonzero"/></g><g clip-path="url(#95bcf7e3a8)"><path fill="#a8a8a8" d="M 90.277344 17.882812 C 89.464844 17.882812 88.800781 17.226562 88.800781 16.417969 L 88.800781 4.710938 C 88.800781 3.902344 89.464844 3.25 90.277344 3.25 C 91.09375 3.25 91.753906 3.902344 91.753906 4.710938 L 91.753906 16.417969 C 91.753906 17.226562 91.09375 17.882812 90.277344 17.882812 Z M 90.277344 17.882812 " fill-opacity="1" fill-rule="nonzero"/></g><g fill="#a8a8a8" fill-opacity="1"><g transform="translate(64.300778, 84.749998)"><g><path d="M 0.78125 -4.671875 C 0.6875 -4.910156 0.585938 -5.070312 0.484375 -5.15625 C 0.378906 -5.25 0.195312 -5.296875 -0.0625 -5.296875 L -0.0625 -5.9375 L 2.890625 -5.9375 L 2.890625 -5.296875 C 2.484375 -5.296875 2.238281 -5.257812 2.15625 -5.1875 C 2.070312 -5.113281 2.03125 -5.035156 2.03125 -4.953125 C 2.03125 -4.878906 2.050781 -4.785156 2.09375 -4.671875 L 3.234375 -1.484375 L 4.75 -5.9375 L 5.59375 -5.9375 L 7.078125 -1.359375 L 8.1875 -4.671875 C 8.269531 -4.898438 8.242188 -5.0625 8.109375 -5.15625 C 7.972656 -5.25 7.6875 -5.296875 7.25 -5.296875 L 7.25 -5.9375 L 9.921875 -5.9375 L 9.921875 -5.296875 C 9.660156 -5.296875 9.460938 -5.242188 9.328125 -5.140625 C 9.191406 -5.046875 9.085938 -4.890625 9.015625 -4.671875 L 7.390625 0 L 6.40625 0 L 4.9375 -4.015625 L 3.578125 0 L 2.59375 0 Z M 0.78125 -4.671875 "/></g></g><g transform="translate(74.132809, 84.749998)"><g><path d="M 6 -2.703125 L 1.921875 -2.703125 C 1.921875 -2.023438 2.082031 -1.503906 2.40625 -1.140625 C 2.726562 -0.773438 3.125 -0.59375 3.59375 -0.59375 C 4.21875 -0.59375 4.664062 -0.851562 4.9375 -1.375 L 5.8125 -1.375 C 5.71875 -0.957031 5.457031 -0.601562 5.03125 -0.3125 C 4.613281 -0.0195312 4.046875 0.125 3.328125 0.125 C 2.609375 0.125 1.988281 -0.0976562 1.46875 -0.546875 C 0.84375 -1.085938 0.53125 -1.84375 0.53125 -2.8125 C 0.53125 -3.78125 0.773438 -4.5625 1.265625 -5.15625 C 1.765625 -5.757812 2.484375 -6.0625 3.421875 -6.0625 C 4.640625 -6.0625 5.429688 -5.566406 5.796875 -4.578125 C 5.929688 -4.179688 6 -3.804688 6 -3.453125 C 6 -3.109375 6 -2.859375 6 -2.703125 Z M 4.640625 -3.578125 C 4.640625 -4.773438 4.234375 -5.375 3.421875 -5.375 C 2.960938 -5.375 2.601562 -5.195312 2.34375 -4.84375 C 2.09375 -4.488281 1.957031 -3.992188 1.9375 -3.359375 L 4.640625 -3.359375 C 4.640625 -3.429688 4.640625 -3.503906 4.640625 -3.578125 Z M 4.640625 -3.578125 "/></g></g><g transform="translate(80.671871, 84.749998)"><g><path d="M 2.234375 -0.6875 C 2.066406 -0.53125 1.984375 -0.300781 1.984375 0 L 1.109375 0 L 1.109375 -7.5625 C 1.109375 -7.84375 1.082031 -8.023438 1.03125 -8.109375 C 0.988281 -8.203125 0.859375 -8.25 0.640625 -8.25 L 0.21875 -8.25 L 0.21875 -8.890625 C 0.601562 -8.890625 0.898438 -8.914062 1.109375 -8.96875 C 1.328125 -9.03125 1.484375 -9.070312 1.578125 -9.09375 C 1.671875 -9.125 1.769531 -9.140625 1.875 -9.140625 C 2.082031 -9.140625 2.21875 -9.078125 2.28125 -8.953125 C 2.34375 -8.835938 2.375 -8.648438 2.375 -8.390625 L 2.375 -5.25 C 2.789062 -5.789062 3.390625 -6.0625 4.171875 -6.0625 C 4.953125 -6.0625 5.570312 -5.8125 6.03125 -5.3125 C 6.488281 -4.8125 6.71875 -4.078125 6.71875 -3.109375 C 6.71875 -2.140625 6.476562 -1.359375 6 -0.765625 C 5.519531 -0.171875 4.851562 0.125 4 0.125 C 3.289062 0.125 2.703125 -0.144531 2.234375 -0.6875 Z M 2.34375 -2.890625 C 2.34375 -2.179688 2.476562 -1.617188 2.75 -1.203125 C 3.03125 -0.796875 3.398438 -0.59375 3.859375 -0.59375 C 4.316406 -0.59375 4.679688 -0.800781 4.953125 -1.21875 C 5.222656 -1.644531 5.359375 -2.210938 5.359375 -2.921875 C 5.359375 -4.035156 5.09375 -4.78125 4.5625 -5.15625 C 4.363281 -5.28125 4.132812 -5.34375 3.875 -5.34375 C 3.625 -5.34375 3.40625 -5.28125 3.21875 -5.15625 C 3.03125 -5.03125 2.875 -4.859375 2.75 -4.640625 C 2.476562 -4.191406 2.34375 -3.609375 2.34375 -2.890625 Z M 2.34375 -2.890625 "/></g></g><g transform="translate(87.90234, 84.749998)"><g><path d="M 4.125 0.125 C 3.476562 0.125 2.929688 -0.0976562 2.484375 -0.546875 L 2.484375 1.546875 C 2.484375 1.847656 2.546875 2.035156 2.671875 2.109375 C 2.804688 2.191406 3.140625 2.234375 3.671875 2.234375 L 3.671875 2.875 L 0.390625 2.875 L 0.390625 2.234375 C 0.722656 2.234375 0.929688 2.195312 1.015625 2.125 C 1.109375 2.050781 1.164062 1.972656 1.1875 1.890625 C 1.207031 1.816406 1.21875 1.722656 1.21875 1.609375 L 1.21875 -4.484375 C 1.21875 -4.765625 1.191406 -4.945312 1.140625 -5.03125 C 1.085938 -5.113281 0.953125 -5.15625 0.734375 -5.15625 L 0.328125 -5.15625 L 0.328125 -5.8125 C 0.710938 -5.8125 1.015625 -5.835938 1.234375 -5.890625 C 1.453125 -5.953125 1.609375 -5.992188 1.703125 -6.015625 C 1.796875 -6.035156 1.894531 -6.046875 2 -6.046875 C 2.207031 -6.046875 2.34375 -5.988281 2.40625 -5.875 C 2.46875 -5.757812 2.5 -5.566406 2.5 -5.296875 L 2.5 -5.28125 C 2.9375 -5.800781 3.53125 -6.0625 4.28125 -6.0625 C 5.039062 -6.0625 5.65625 -5.804688 6.125 -5.296875 C 6.59375 -4.785156 6.828125 -4.046875 6.828125 -3.078125 C 6.828125 -2.109375 6.582031 -1.332031 6.09375 -0.75 C 5.613281 -0.164062 4.957031 0.125 4.125 0.125 Z M 2.453125 -2.90625 C 2.453125 -2.1875 2.585938 -1.617188 2.859375 -1.203125 C 3.140625 -0.796875 3.515625 -0.59375 3.984375 -0.59375 C 4.441406 -0.59375 4.800781 -0.800781 5.0625 -1.21875 C 5.320312 -1.644531 5.453125 -2.210938 5.453125 -2.921875 C 5.453125 -4.046875 5.179688 -4.789062 4.640625 -5.15625 C 4.441406 -5.289062 4.207031 -5.359375 3.9375 -5.359375 C 3.675781 -5.359375 3.453125 -5.296875 3.265625 -5.171875 C 3.085938 -5.046875 2.9375 -4.875 2.8125 -4.65625 C 2.570312 -4.207031 2.453125 -3.625 2.453125 -2.90625 Z M 2.453125 -2.90625 "/></g></g><g transform="translate(95.232417, 84.749998)"><g><path d="M 5.59375 -1.40625 C 5.59375 -0.9375 5.6875 -0.703125 5.875 -0.703125 C 6.050781 -0.703125 6.175781 -0.757812 6.25 -0.875 C 6.332031 -1 6.375 -1.21875 6.375 -1.53125 L 7 -1.53125 C 7 -1.476562 7 -1.398438 7 -1.296875 C 7 -0.941406 6.910156 -0.632812 6.734375 -0.375 C 6.523438 -0.0390625 6.1875 0.125 5.71875 0.125 C 5.40625 0.125 5.140625 0.0351562 4.921875 -0.140625 C 4.710938 -0.316406 4.566406 -0.546875 4.484375 -0.828125 C 3.921875 -0.191406 3.207031 0.125 2.34375 0.125 C 1.863281 0.125 1.445312 -0.015625 1.09375 -0.296875 C 0.738281 -0.578125 0.5625 -0.96875 0.5625 -1.46875 C 0.5625 -2.332031 1.203125 -2.972656 2.484375 -3.390625 C 3.296875 -3.648438 3.78125 -3.828125 3.9375 -3.921875 C 4.101562 -4.023438 4.207031 -4.128906 4.25 -4.234375 C 4.300781 -4.335938 4.328125 -4.453125 4.328125 -4.578125 C 4.328125 -4.804688 4.210938 -5 3.984375 -5.15625 C 3.765625 -5.3125 3.472656 -5.390625 3.109375 -5.390625 C 2.742188 -5.390625 2.421875 -5.289062 2.140625 -5.09375 C 2.335938 -4.945312 2.4375 -4.757812 2.4375 -4.53125 C 2.4375 -4.3125 2.359375 -4.132812 2.203125 -4 C 2.054688 -3.863281 1.875 -3.796875 1.65625 -3.796875 C 1.445312 -3.796875 1.273438 -3.859375 1.140625 -3.984375 C 1.003906 -4.109375 0.9375 -4.289062 0.9375 -4.53125 C 0.9375 -4.976562 1.164062 -5.34375 1.625 -5.625 C 2.082031 -5.914062 2.644531 -6.0625 3.3125 -6.0625 C 4.488281 -6.0625 5.207031 -5.675781 5.46875 -4.90625 C 5.550781 -4.65625 5.59375 -4.363281 5.59375 -4.03125 Z M 3.015625 -2.859375 C 2.671875 -2.710938 2.410156 -2.519531 2.234375 -2.28125 C 2.066406 -2.050781 1.984375 -1.800781 1.984375 -1.53125 C 1.984375 -1.257812 2.054688 -1.050781 2.203125 -0.90625 C 2.347656 -0.769531 2.535156 -0.703125 2.765625 -0.703125 C 3.210938 -0.703125 3.582031 -0.859375 3.875 -1.171875 C 4.175781 -1.492188 4.328125 -1.941406 4.328125 -2.515625 L 4.328125 -3.40625 C 4.078125 -3.28125 3.8125 -3.164062 3.53125 -3.0625 C 3.257812 -2.957031 3.085938 -2.890625 3.015625 -2.859375 Z M 3.015625 -2.859375 "/></g></g><g transform="translate(102.099605, 84.749998)"><g><path d="M 4.484375 -4.96875 C 4.265625 -5.25 3.953125 -5.390625 3.546875 -5.390625 C 2.773438 -5.390625 2.273438 -4.953125 2.046875 -4.078125 C 1.972656 -3.773438 1.9375 -3.410156 1.9375 -2.984375 C 1.9375 -2.191406 2.085938 -1.59375 2.390625 -1.1875 C 2.691406 -0.789062 3.070312 -0.59375 3.53125 -0.59375 C 3.863281 -0.59375 4.144531 -0.6875 4.375 -0.875 C 4.613281 -1.070312 4.78125 -1.351562 4.875 -1.71875 L 5.671875 -1.71875 C 5.671875 -1.238281 5.457031 -0.8125 5.03125 -0.4375 C 4.601562 -0.0625 4.023438 0.125 3.296875 0.125 C 2.566406 0.125 1.945312 -0.101562 1.4375 -0.5625 C 0.832031 -1.101562 0.53125 -1.894531 0.53125 -2.9375 C 0.53125 -3.78125 0.78125 -4.507812 1.28125 -5.125 C 1.78125 -5.75 2.519531 -6.0625 3.5 -6.0625 C 4.132812 -6.0625 4.660156 -5.90625 5.078125 -5.59375 C 5.503906 -5.289062 5.71875 -4.894531 5.71875 -4.40625 C 5.71875 -4.164062 5.640625 -3.960938 5.484375 -3.796875 C 5.335938 -3.640625 5.144531 -3.5625 4.90625 -3.5625 C 4.5625 -3.5625 4.328125 -3.71875 4.203125 -4.03125 C 4.160156 -4.125 4.140625 -4.226562 4.140625 -4.34375 C 4.140625 -4.613281 4.253906 -4.820312 4.484375 -4.96875 Z M 4.484375 -4.96875 "/></g></g><g transform="translate(108.269526, 84.749998)"><g><path d="M 6.34375 -0.765625 C 6.613281 -0.765625 6.75 -1.050781 6.75 -1.625 L 7.3125 -1.625 C 7.34375 -1.5 7.359375 -1.390625 7.359375 -1.296875 C 7.359375 -1.203125 7.351562 -1.09375 7.34375 -0.96875 C 7.34375 -0.851562 7.300781 -0.707031 7.21875 -0.53125 C 7.019531 -0.09375 6.632812 0.125 6.0625 0.125 C 5.5 0.125 5.046875 -0.195312 4.703125 -0.84375 C 4.609375 -1.03125 4.515625 -1.21875 4.421875 -1.40625 C 4.160156 -1.925781 3.945312 -2.28125 3.78125 -2.46875 C 3.5 -2.78125 3.148438 -2.9375 2.734375 -2.9375 C 2.703125 -2.9375 2.671875 -2.9375 2.640625 -2.9375 C 2.609375 -2.9375 2.578125 -2.9375 2.546875 -2.9375 L 2.546875 -1.265625 C 2.546875 -1.023438 2.597656 -0.859375 2.703125 -0.765625 C 2.804688 -0.679688 3.046875 -0.640625 3.421875 -0.640625 L 3.421875 0 L 0.390625 0 L 0.390625 -0.640625 C 0.734375 -0.640625 0.96875 -0.6875 1.09375 -0.78125 C 1.21875 -0.875 1.28125 -1.035156 1.28125 -1.265625 L 1.28125 -7.625 C 1.28125 -7.90625 1.253906 -8.085938 1.203125 -8.171875 C 1.160156 -8.253906 1.03125 -8.296875 0.8125 -8.296875 L 0.328125 -8.296875 L 0.328125 -8.9375 C 0.722656 -8.9375 1.03125 -8.960938 1.25 -9.015625 C 1.476562 -9.078125 1.640625 -9.117188 1.734375 -9.140625 C 1.828125 -9.171875 1.929688 -9.1875 2.046875 -9.1875 C 2.242188 -9.1875 2.375 -9.128906 2.4375 -9.015625 C 2.507812 -8.898438 2.546875 -8.707031 2.546875 -8.4375 L 2.546875 -3.5625 L 2.84375 -3.5625 C 3.488281 -4.019531 4.050781 -4.507812 4.53125 -5.03125 C 4.613281 -5.113281 4.675781 -5.179688 4.71875 -5.234375 L 3.703125 -5.234375 L 3.703125 -5.9375 L 6.9375 -5.9375 L 6.9375 -5.234375 C 6.207031 -5.210938 5.460938 -4.867188 4.703125 -4.203125 C 4.472656 -3.992188 4.242188 -3.78125 4.015625 -3.5625 C 4.648438 -3.3125 5.164062 -2.769531 5.5625 -1.9375 C 5.664062 -1.726562 5.753906 -1.535156 5.828125 -1.359375 C 5.910156 -1.179688 5.988281 -1.035156 6.0625 -0.921875 C 6.144531 -0.816406 6.238281 -0.765625 6.34375 -0.765625 Z M 6.34375 -0.765625 "/></g></g></g></svg>